G04 #@! TF.FileFunction,Copper,L2,Bot,Signal*
%FSLAX46Y46*%
G04 Gerber Fmt 4.6, Leading zero omitted, Abs format (unit mm)*
G04 Created by KiCad (PCBNEW 4.0.6-e0-6349~53~ubuntu14.04.1) date Sat Jul 15 18:22:04 2017*
%MOMM*%
%LPD*%
G01*
G04 APERTURE LIST*
%ADD10C,0.350000*%
%ADD11O,3.500000X1.800000*%
%ADD12O,2.350000X1.800000*%
%ADD13R,0.400000X0.600000*%
%ADD14R,0.600000X0.400000*%
%ADD15R,0.250000X0.700000*%
%ADD16R,0.700000X0.250000*%
%ADD17R,1.725000X1.725000*%
%ADD18R,0.600000X0.500000*%
%ADD19R,0.500000X0.600000*%
%ADD20R,0.700000X0.600000*%
%ADD21R,1.524000X1.524000*%
%ADD22C,1.524000*%
%ADD23C,0.500000*%
%ADD24C,0.250000*%
%ADD25C,0.127000*%
%ADD26C,0.254000*%
%ADD27C,0.250000*%
%ADD28O,2.750000X1.100000*%
%ADD29O,1.800000X1.100000*%
%ADD30C,0.350000*%
G04 APERTURE END LIST*
D10*
D11*
X114436000Y-90880000D03*
X114436000Y-76080000D03*
D12*
X120396000Y-91480000D03*
X120396000Y-75480000D03*
D13*
X99176000Y-86106000D03*
X100076000Y-86106000D03*
D14*
X104902000Y-85667000D03*
X104902000Y-84767000D03*
D15*
X99764000Y-79914000D03*
X100264000Y-79914000D03*
X100764000Y-79914000D03*
X101264000Y-79914000D03*
X101764000Y-79914000D03*
X102264000Y-79914000D03*
X102764000Y-79914000D03*
X103264000Y-79914000D03*
D16*
X103914000Y-80564000D03*
X103914000Y-81064000D03*
X103914000Y-81564000D03*
X103914000Y-82064000D03*
X103914000Y-82564000D03*
X103914000Y-83064000D03*
X103914000Y-83564000D03*
X103914000Y-84064000D03*
D15*
X103264000Y-84714000D03*
X102764000Y-84714000D03*
X102264000Y-84714000D03*
X101764000Y-84714000D03*
X101264000Y-84714000D03*
X100764000Y-84714000D03*
X100264000Y-84714000D03*
X99764000Y-84714000D03*
D16*
X99114000Y-84064000D03*
X99114000Y-83564000D03*
X99114000Y-83064000D03*
X99114000Y-82564000D03*
X99114000Y-82064000D03*
X99114000Y-81564000D03*
X99114000Y-81064000D03*
X99114000Y-80564000D03*
D17*
X102376500Y-83176500D03*
X100651500Y-83176500D03*
X102376500Y-81451500D03*
X100651500Y-81451500D03*
D18*
X94100000Y-83000000D03*
X93000000Y-83000000D03*
X94100000Y-84000000D03*
X93000000Y-84000000D03*
X94100000Y-80750000D03*
X93000000Y-80750000D03*
X94100000Y-81750000D03*
X93000000Y-81750000D03*
X94107000Y-78500000D03*
X93007000Y-78500000D03*
X94100000Y-79500000D03*
X93000000Y-79500000D03*
X94107000Y-76250000D03*
X93007000Y-76250000D03*
X94100000Y-77250000D03*
X93000000Y-77250000D03*
D19*
X101346000Y-88138000D03*
X101346000Y-87038000D03*
X99314000Y-77724000D03*
X99314000Y-78824000D03*
D20*
X85826600Y-92887800D03*
X85826600Y-94287800D03*
D14*
X107061000Y-87445000D03*
X107061000Y-86545000D03*
X108458000Y-87445000D03*
X108458000Y-86545000D03*
D13*
X84926600Y-91795600D03*
X85826600Y-91795600D03*
D21*
X86750000Y-73972000D03*
D22*
X84210000Y-73972000D03*
X86750000Y-76512000D03*
X84210000Y-76512000D03*
X86750000Y-79052000D03*
X84210000Y-79052000D03*
X86750000Y-81592000D03*
X84210000Y-81592000D03*
X86750000Y-84132000D03*
X84210000Y-84132000D03*
X86750000Y-86672000D03*
X84210000Y-86672000D03*
D21*
X86750000Y-96832000D03*
D22*
X84210000Y-96832000D03*
X86750000Y-99372000D03*
X84210000Y-99372000D03*
X86750000Y-101912000D03*
X84210000Y-101912000D03*
X86750000Y-104452000D03*
X84210000Y-104452000D03*
X86750000Y-106992000D03*
X84210000Y-106992000D03*
X86750000Y-109532000D03*
X84210000Y-109532000D03*
D23*
X104978200Y-73812400D03*
X103835200Y-75006200D03*
X103835200Y-79984600D03*
X84353400Y-91795600D03*
X102764000Y-85704000D03*
X107873800Y-105511600D03*
X111302800Y-105511600D03*
X116324800Y-105453600D03*
X99187000Y-79883000D03*
X110159800Y-85547200D03*
X110693200Y-83134200D03*
X110693200Y-81584800D03*
X110693200Y-80060800D03*
X106273600Y-80187800D03*
X106019600Y-81711800D03*
X105511600Y-83235800D03*
X110617000Y-84531200D03*
X109245400Y-84531200D03*
X107594400Y-84531200D03*
X105664000Y-84531200D03*
X100330000Y-74295000D03*
X98425000Y-74930000D03*
X97155000Y-72390000D03*
X99695000Y-72390000D03*
X100965000Y-71120000D03*
X102870000Y-71120000D03*
X104775000Y-71120000D03*
X106680000Y-71120000D03*
X108585000Y-71120000D03*
X110490000Y-71120000D03*
X112395000Y-71120000D03*
X114300000Y-71120000D03*
X116205000Y-71120000D03*
X118745000Y-71120000D03*
X120650000Y-71120000D03*
X120650000Y-73025000D03*
X120650000Y-76835000D03*
X120650000Y-78740000D03*
X120650000Y-80645000D03*
X120650000Y-82550000D03*
X120650000Y-84455012D03*
X120650000Y-86360000D03*
X120650000Y-88265000D03*
X120650000Y-90170000D03*
X107315000Y-78663800D03*
X82981800Y-81610200D03*
X82981800Y-79019400D03*
X83007200Y-76200000D03*
X83261200Y-73177400D03*
X86893400Y-72745600D03*
X87985600Y-74599800D03*
X93548200Y-75615800D03*
X94869000Y-76098400D03*
X97205800Y-76987400D03*
X98450400Y-79832200D03*
X97231200Y-84455000D03*
X94970600Y-84328000D03*
X95961200Y-83185000D03*
X94843600Y-81889600D03*
X94869000Y-80594200D03*
X94843600Y-79629000D03*
X94869000Y-78333600D03*
X94843600Y-77393800D03*
X89357200Y-82854800D03*
X87833200Y-83566000D03*
X85648800Y-83591400D03*
X84785200Y-82677000D03*
X84734400Y-80314800D03*
X87833200Y-79629000D03*
X87858600Y-78511400D03*
X87833200Y-82270600D03*
X87807800Y-81000600D03*
X87198200Y-75285600D03*
X86334600Y-75285600D03*
X86360000Y-80441800D03*
X87020400Y-80289400D03*
X85369400Y-79451200D03*
X85699600Y-78384400D03*
X84912200Y-77546200D03*
X85445600Y-74498200D03*
X84658200Y-75285600D03*
X91948000Y-84150200D03*
X92329000Y-82423000D03*
X91465400Y-80035400D03*
X91440000Y-82473800D03*
X92227400Y-77368400D03*
X92252800Y-78333600D03*
X92227400Y-80619600D03*
X92227400Y-79654400D03*
X88900000Y-75844400D03*
X108712000Y-90170002D03*
X108712004Y-92710000D03*
X107315000Y-83058000D03*
X109982000Y-83058000D03*
X109982000Y-81534000D03*
X107315000Y-81534000D03*
X107315000Y-80010000D03*
X109982000Y-80010000D03*
X109982000Y-78740000D03*
X107315000Y-77978000D03*
X109982000Y-77978000D03*
X115189000Y-77978000D03*
X115189000Y-86817200D03*
X115189000Y-83820000D03*
X115189000Y-82321400D03*
X115189000Y-80822800D03*
X89408000Y-101400009D03*
X97764600Y-82194400D03*
X95250000Y-72263008D03*
X91440000Y-72262996D03*
X88391988Y-72263000D03*
X85090000Y-72263008D03*
X81915000Y-72262976D03*
X81914994Y-107315000D03*
X81914998Y-104140000D03*
X81915008Y-98933000D03*
X81915008Y-93218000D03*
X81915000Y-89534988D03*
X88138000Y-77216000D03*
X88138000Y-78994036D03*
X115189000Y-88900000D03*
X111760000Y-88900000D03*
X81915000Y-81280000D03*
X81915000Y-76200000D03*
X88900000Y-87630000D03*
X91440000Y-87630000D03*
X91440000Y-85090000D03*
X95250000Y-87630000D03*
X95250000Y-85090000D03*
X95250000Y-73660000D03*
X91440000Y-73660000D03*
X88392000Y-73660000D03*
X104140000Y-90170000D03*
X99695000Y-90170000D03*
X95250000Y-90170000D03*
X90170000Y-90170000D03*
X83820000Y-90170000D03*
X83820000Y-92710000D03*
X90170000Y-92710000D03*
X95250000Y-92710000D03*
X95250000Y-107061000D03*
X90170000Y-107061000D03*
X108712000Y-85598000D03*
X100651500Y-83176500D03*
X89408000Y-102489000D03*
X106172000Y-87376000D03*
X106426000Y-85725000D03*
X95250000Y-75565000D03*
X95250000Y-77978000D03*
X95250000Y-80010000D03*
X95250000Y-82423000D03*
X91440000Y-75565000D03*
X91440000Y-77978000D03*
X99822000Y-92710000D03*
X104140000Y-92710000D03*
X119684800Y-103606600D03*
X114223800Y-102336600D03*
X109651800Y-102209600D03*
X104140000Y-85725000D03*
X102376500Y-81451500D03*
X100651500Y-81451500D03*
X102376500Y-83176500D03*
X115189000Y-79330000D03*
X111252000Y-87884000D03*
X110871000Y-87376000D03*
X116205000Y-84455000D03*
X111252000Y-83566000D03*
X111252000Y-82677000D03*
X111252000Y-82042000D03*
X111252000Y-81153000D03*
X111252000Y-80518000D03*
X111252000Y-79629000D03*
X111252000Y-78994000D03*
X111252000Y-84201000D03*
X111274000Y-85830000D03*
X110871000Y-86360000D03*
X102764000Y-77470000D03*
X101764000Y-77470000D03*
X102264000Y-77978000D03*
X103264000Y-77978000D03*
X100264000Y-76374875D03*
X100764000Y-77978000D03*
X94615000Y-100761800D03*
X100711000Y-86106000D03*
X101269800Y-78740000D03*
D24*
X103835200Y-75006200D02*
X103835200Y-74955400D01*
X103835200Y-74955400D02*
X104978200Y-73812400D01*
X84926600Y-91795600D02*
X84353400Y-91795600D01*
X99187000Y-79883000D02*
X99733000Y-79883000D01*
X99733000Y-79883000D02*
X99764000Y-79914000D01*
X99314000Y-78824000D02*
X99314000Y-79756000D01*
X99314000Y-79756000D02*
X99187000Y-79883000D01*
X111302800Y-105511600D02*
X107873800Y-105511600D01*
X111302800Y-105511600D02*
X116266800Y-105511600D01*
X116266800Y-105511600D02*
X116324800Y-105453600D01*
X86750000Y-86672000D02*
X86750000Y-86750000D01*
X84210000Y-109532000D02*
X86750000Y-109532000D01*
X84210000Y-86672000D02*
X86750000Y-86672000D01*
D25*
X111360800Y-105453600D02*
X111302800Y-105511600D01*
X114927800Y-105453600D02*
X111360800Y-105453600D01*
X99764000Y-79914000D02*
X99218000Y-79914000D01*
X99218000Y-79914000D02*
X99187000Y-79883000D01*
X102764000Y-84714000D02*
X102764000Y-85704000D01*
D24*
X110617000Y-84531200D02*
X110159800Y-84988400D01*
X110159800Y-84988400D02*
X110159800Y-85547200D01*
X109982000Y-83058000D02*
X110617000Y-83058000D01*
X110617000Y-83058000D02*
X110693200Y-83134200D01*
X109982000Y-81534000D02*
X110642400Y-81534000D01*
X110642400Y-81534000D02*
X110693200Y-81584800D01*
X109982000Y-80010000D02*
X110642400Y-80010000D01*
X110642400Y-80010000D02*
X110693200Y-80060800D01*
X107315000Y-80010000D02*
X106451400Y-80010000D01*
X106451400Y-80010000D02*
X106273600Y-80187800D01*
X107315000Y-81534000D02*
X106197400Y-81534000D01*
X106197400Y-81534000D02*
X106019600Y-81711800D01*
X107315000Y-83058000D02*
X105689400Y-83058000D01*
X105689400Y-83058000D02*
X105511600Y-83235800D01*
X109245400Y-84531200D02*
X110617000Y-84531200D01*
X108712000Y-85598000D02*
X108712000Y-85064600D01*
X108712000Y-85064600D02*
X109245400Y-84531200D01*
X106426000Y-85725000D02*
X106426000Y-85699600D01*
X106426000Y-85699600D02*
X107594400Y-84531200D01*
X106426000Y-85725000D02*
X106426000Y-85293200D01*
X106426000Y-85293200D02*
X105664000Y-84531200D01*
X100330000Y-74295000D02*
X100330000Y-73025000D01*
X100330000Y-73025000D02*
X99695000Y-72390000D01*
X97155000Y-72390000D02*
X97155000Y-73660000D01*
X97155000Y-73660000D02*
X98425000Y-74930000D01*
X100965000Y-71120000D02*
X99695000Y-72390000D01*
X102870000Y-71120000D02*
X100965000Y-71120000D01*
X106680000Y-71120000D02*
X104775000Y-71120000D01*
X110490000Y-71120000D02*
X108585000Y-71120000D01*
X114300000Y-71120000D02*
X112395000Y-71120000D01*
X118745000Y-71120000D02*
X116205000Y-71120000D01*
X120650000Y-73025000D02*
X120650000Y-71120000D01*
X120650000Y-82550000D02*
X120650000Y-80645000D01*
X120650000Y-88265000D02*
X120650000Y-86360000D01*
X120650000Y-90170000D02*
X120650000Y-88265000D01*
X83007200Y-76200000D02*
X83007200Y-78994000D01*
X83007200Y-78994000D02*
X82981800Y-79019400D01*
X81915000Y-72262976D02*
X82346776Y-72262976D01*
X82346776Y-72262976D02*
X83261200Y-73177400D01*
X86893400Y-72263008D02*
X88392000Y-72263008D01*
X85090000Y-72263008D02*
X86893400Y-72263008D01*
X86893400Y-72263008D02*
X86893400Y-72745600D01*
X88392000Y-73660000D02*
X88392000Y-74193400D01*
X88392000Y-74193400D02*
X87985600Y-74599800D01*
X91440000Y-75565000D02*
X93497400Y-75565000D01*
X93497400Y-75565000D02*
X93548200Y-75615800D01*
X95250000Y-75565000D02*
X95250000Y-75717400D01*
X95250000Y-75717400D02*
X94869000Y-76098400D01*
X97586800Y-76784200D02*
X98450400Y-77647800D01*
X96367600Y-75565000D02*
X97586800Y-76784200D01*
X97586800Y-76784200D02*
X97409000Y-76784200D01*
X97409000Y-76784200D02*
X97205800Y-76987400D01*
X98450400Y-77647800D02*
X98450400Y-79832200D01*
X95250000Y-75565000D02*
X96367600Y-75565000D01*
X96977200Y-85394800D02*
X97231200Y-85140800D01*
X97231200Y-85140800D02*
X97231200Y-84455000D01*
X95834200Y-85394800D02*
X96977200Y-85394800D01*
X95529400Y-85090000D02*
X95834200Y-85394800D01*
X95250000Y-85090000D02*
X95529400Y-85090000D01*
X95250000Y-85090000D02*
X95250000Y-84607400D01*
X95250000Y-84607400D02*
X94970600Y-84328000D01*
X95250000Y-82423000D02*
X95250000Y-82473800D01*
X95250000Y-82473800D02*
X95961200Y-83185000D01*
X95250000Y-82423000D02*
X95250000Y-82296000D01*
X95250000Y-82296000D02*
X94843600Y-81889600D01*
X95250000Y-80010000D02*
X95250000Y-80213200D01*
X95250000Y-80213200D02*
X94869000Y-80594200D01*
X95250000Y-80010000D02*
X95224600Y-80010000D01*
X95224600Y-80010000D02*
X94843600Y-79629000D01*
X94843600Y-77393800D02*
X94869000Y-77419200D01*
X94869000Y-77419200D02*
X94869000Y-78333600D01*
X95250000Y-77978000D02*
X95250000Y-77800200D01*
X95250000Y-77800200D02*
X94843600Y-77393800D01*
X91440000Y-82473800D02*
X89738200Y-82473800D01*
X89738200Y-82473800D02*
X89357200Y-82854800D01*
X91948000Y-84150200D02*
X88417400Y-84150200D01*
X88417400Y-84150200D02*
X87833200Y-83566000D01*
X81915000Y-81864200D02*
X82727800Y-82677000D01*
X82727800Y-82677000D02*
X84785200Y-82677000D01*
X81915000Y-81280000D02*
X81915000Y-81864200D01*
X81915000Y-81280000D02*
X82880200Y-80314800D01*
X82880200Y-80314800D02*
X84734400Y-80314800D01*
X88138000Y-78994036D02*
X88138000Y-79324200D01*
X88138000Y-79324200D02*
X87833200Y-79629000D01*
X88138000Y-78994036D02*
X88138000Y-78790800D01*
X88138000Y-78790800D02*
X87858600Y-78511400D01*
X87833200Y-82270600D02*
X87833200Y-81026000D01*
X87833200Y-81026000D02*
X87807800Y-81000600D01*
X87198200Y-75285600D02*
X86334600Y-75285600D01*
X87020400Y-80289400D02*
X86512400Y-80289400D01*
X86512400Y-80289400D02*
X86360000Y-80441800D01*
X85496400Y-79451200D02*
X86334600Y-80289400D01*
X86334600Y-80289400D02*
X87020400Y-80289400D01*
X85369400Y-79451200D02*
X85496400Y-79451200D01*
X85420200Y-78663800D02*
X85369400Y-78714600D01*
X85369400Y-78714600D02*
X85369400Y-79451200D01*
X85699600Y-78384400D02*
X85420200Y-78663800D01*
X84912200Y-77546200D02*
X85699600Y-78333600D01*
X85699600Y-78333600D02*
X85699600Y-78384400D01*
X83185000Y-77774800D02*
X84683600Y-77774800D01*
X84683600Y-77774800D02*
X84912200Y-77546200D01*
X81915000Y-76504800D02*
X83185000Y-77774800D01*
X81915000Y-76200000D02*
X81915000Y-76504800D01*
X85090000Y-72263008D02*
X85445600Y-72618608D01*
X85445600Y-72618608D02*
X85445600Y-74498200D01*
X81915000Y-76200000D02*
X82829400Y-75285600D01*
X82829400Y-75285600D02*
X84658200Y-75285600D01*
X91440000Y-85090000D02*
X91440000Y-84658200D01*
X91440000Y-84658200D02*
X91948000Y-84150200D01*
X91490800Y-82423000D02*
X92329000Y-82423000D01*
X92329000Y-82423000D02*
X95250000Y-82423000D01*
X91440000Y-82473800D02*
X92278200Y-82473800D01*
X92278200Y-82473800D02*
X92329000Y-82423000D01*
X91643200Y-80035400D02*
X92227400Y-80619600D01*
X91465400Y-80035400D02*
X91567000Y-80137000D01*
X91567000Y-80137000D02*
X95123000Y-80137000D01*
X95123000Y-80137000D02*
X95250000Y-80010000D01*
X91465400Y-80035400D02*
X91643200Y-80035400D01*
X91440000Y-82473800D02*
X91490800Y-82423000D01*
X92227400Y-77368400D02*
X91617800Y-77978000D01*
X91617800Y-77978000D02*
X91440000Y-77978000D01*
X108712000Y-90170002D02*
X110489998Y-90170002D01*
X110489998Y-90170002D02*
X111760000Y-88900000D01*
X108712004Y-92710000D02*
X111125000Y-92710000D01*
X111125000Y-92710000D02*
X111760000Y-92075000D01*
X108711998Y-90170000D02*
X108712000Y-90170002D01*
X104140000Y-90170000D02*
X108711998Y-90170000D01*
X104140000Y-92710000D02*
X108712004Y-92710000D01*
X115189000Y-79330000D02*
X115189000Y-77978000D01*
X115189000Y-88900000D02*
X115189000Y-86817200D01*
X115189000Y-86817200D02*
X115189000Y-83820000D01*
X115189000Y-82321400D02*
X115189000Y-83820000D01*
X115189000Y-82321400D02*
X115189000Y-80822800D01*
X115189000Y-80822800D02*
X115189000Y-79330000D01*
X88391992Y-72263000D02*
X88391988Y-72263000D01*
X88392000Y-73660000D02*
X88392000Y-72263008D01*
X88392000Y-72263008D02*
X88391992Y-72263000D01*
X81915000Y-72262976D02*
X85089968Y-72262976D01*
X85089968Y-72262976D02*
X85090000Y-72263008D01*
X81915000Y-76200000D02*
X81915000Y-72262976D01*
X81915000Y-76200000D02*
X81915000Y-81280000D01*
X81915000Y-86360000D02*
X81915000Y-84074000D01*
X81915000Y-84074000D02*
X81915000Y-81280000D01*
X84210000Y-84132000D02*
X81973000Y-84132000D01*
X81973000Y-84132000D02*
X81915000Y-84074000D01*
X81915000Y-89534988D02*
X81915000Y-86360000D01*
X81914998Y-107314996D02*
X81914994Y-107315000D01*
X81914998Y-104140000D02*
X81914998Y-107314996D01*
X81915008Y-104139990D02*
X81914998Y-104140000D01*
X81915008Y-98933000D02*
X81915008Y-104139990D01*
X81915008Y-93218000D02*
X81915008Y-98933000D01*
X81915000Y-93217992D02*
X81915008Y-93218000D01*
X81915000Y-89534988D02*
X81915000Y-93217992D01*
X119684800Y-103606600D02*
X120192800Y-103098600D01*
X120192800Y-103098600D02*
X120192800Y-99669600D01*
X111760000Y-88900000D02*
X115189000Y-88900000D01*
X111760000Y-92075000D02*
X111760000Y-88900000D01*
X117652800Y-99669600D02*
X112572800Y-99669600D01*
X117652800Y-99669600D02*
X120192800Y-99669600D01*
X99695000Y-90170000D02*
X104140000Y-90170000D01*
X95250000Y-90170000D02*
X99695000Y-90170000D01*
X90170000Y-90170000D02*
X95250000Y-90170000D01*
X83820000Y-90170000D02*
X90170000Y-90170000D01*
X83820000Y-92710000D02*
X83820000Y-90170000D01*
X95250000Y-92710000D02*
X90170000Y-92710000D01*
X99822000Y-92710000D02*
X95250000Y-92710000D01*
X90170000Y-107061000D02*
X95250000Y-107061000D01*
X118414800Y-102336600D02*
X119684800Y-103606600D01*
X109651800Y-102209600D02*
X114096800Y-102209600D01*
X114096800Y-102209600D02*
X114223800Y-102336600D01*
X108712000Y-85725000D02*
X108712000Y-85598000D01*
X106426000Y-85725000D02*
X108712000Y-85725000D01*
D25*
X100651500Y-83176500D02*
X102376500Y-83176500D01*
D24*
X104140000Y-85725000D02*
X106426000Y-85725000D01*
X91440000Y-77978000D02*
X95250000Y-77978000D01*
X102362000Y-92710000D02*
X99822000Y-92710000D01*
X104140000Y-92710000D02*
X102362000Y-92710000D01*
D25*
X104198000Y-85667000D02*
X104140000Y-85725000D01*
X104902000Y-85667000D02*
X104198000Y-85667000D01*
X102376500Y-81451500D02*
X100651500Y-81451500D01*
X102376500Y-83176500D02*
X102376500Y-81451500D01*
X99764000Y-84714000D02*
X99764000Y-84064000D01*
X99764000Y-84064000D02*
X100651500Y-83176500D01*
X84210000Y-79052000D02*
X85353001Y-80195001D01*
X85547200Y-81256404D02*
X85547200Y-82524600D01*
X85547200Y-82524600D02*
X85826600Y-82804000D01*
X85353001Y-80195001D02*
X85581605Y-80195001D01*
X85581605Y-80195001D02*
X85852000Y-80465396D01*
X85852000Y-80465396D02*
X85852000Y-80951604D01*
X85852000Y-80951604D02*
X85547200Y-81256404D01*
X85826600Y-82804000D02*
X88569800Y-82804000D01*
X88569800Y-82804000D02*
X89138800Y-83373000D01*
X89138800Y-83373000D02*
X92177000Y-83373000D01*
X92177000Y-83373000D02*
X92550000Y-83000000D01*
X92550000Y-83000000D02*
X93000000Y-83000000D01*
X84210000Y-81592000D02*
X85353001Y-80448999D01*
X85598000Y-80846396D02*
X85293200Y-81151196D01*
X85353001Y-80448999D02*
X85476395Y-80448999D01*
X85476395Y-80448999D02*
X85598000Y-80570604D01*
X85598000Y-80570604D02*
X85598000Y-80846396D01*
X85293200Y-82651600D02*
X85699600Y-83058000D01*
X85293200Y-81151196D02*
X85293200Y-82651600D01*
X85699600Y-83058000D02*
X88442800Y-83058000D01*
X88442800Y-83058000D02*
X89011800Y-83627000D01*
X89011800Y-83627000D02*
X92177000Y-83627000D01*
X92177000Y-83627000D02*
X92550000Y-84000000D01*
X92550000Y-84000000D02*
X93000000Y-84000000D01*
X90805000Y-81780000D02*
X90832370Y-81776916D01*
X86750000Y-79052000D02*
X86750000Y-79282400D01*
X90832370Y-81776916D02*
X90858367Y-81767819D01*
X90686180Y-81710367D02*
X90700834Y-81733689D01*
X90677083Y-81684370D02*
X90686180Y-81710367D01*
X89753629Y-81776916D02*
X89781000Y-81780000D01*
X90858367Y-81767819D02*
X90881689Y-81753165D01*
X89727632Y-81767819D02*
X89753629Y-81776916D01*
X89524257Y-81230496D02*
X89580503Y-81286742D01*
X90674000Y-81657000D02*
X90677083Y-81684370D01*
X86750000Y-79282400D02*
X87662601Y-80195001D01*
X89781000Y-81780000D02*
X89789000Y-81780000D01*
X89580503Y-81286742D02*
X89622822Y-81354093D01*
X87662601Y-80195001D02*
X88121605Y-80195001D01*
X89789000Y-81780000D02*
X89816370Y-81776916D01*
X88121605Y-80195001D02*
X88544400Y-80617796D01*
X89816370Y-81776916D02*
X89842367Y-81767819D01*
X90881689Y-81753165D02*
X90901165Y-81733689D01*
X88544400Y-80617796D02*
X88544400Y-80619600D01*
X90924916Y-81684370D02*
X90928000Y-81657000D01*
X88544400Y-80619600D02*
X89077800Y-81153000D01*
X90743632Y-81767819D02*
X90769629Y-81776916D01*
X89622822Y-81354093D02*
X89649094Y-81429172D01*
X89077800Y-81153000D02*
X89302784Y-81153000D01*
X89842367Y-81767819D02*
X89865689Y-81753165D01*
X89302784Y-81153000D02*
X89381827Y-81161905D01*
X90397827Y-80534906D02*
X90472906Y-80561178D01*
X89381827Y-81161905D02*
X89456906Y-81188177D01*
X89456906Y-81188177D02*
X89524257Y-81230496D01*
X89885165Y-81733689D02*
X89899819Y-81710367D01*
X89649094Y-81429172D02*
X89658000Y-81508215D01*
X89658000Y-81508215D02*
X89658000Y-81657000D01*
X89658000Y-81657000D02*
X89661083Y-81684370D01*
X89865689Y-81753165D02*
X89885165Y-81733689D01*
X92299215Y-81153000D02*
X92583000Y-81153000D01*
X90045742Y-80603497D02*
X90113093Y-80561178D01*
X89661083Y-81684370D02*
X89670180Y-81710367D01*
X91657155Y-80763759D02*
X91681684Y-80833859D01*
X92583000Y-81153000D02*
X92986000Y-80750000D01*
X89670180Y-81710367D02*
X89684834Y-81733689D01*
X90318784Y-80526000D02*
X90397827Y-80534906D01*
X89684834Y-81733689D02*
X89704310Y-81753165D01*
X92145093Y-81188177D02*
X92220172Y-81161905D01*
X89899819Y-81710367D02*
X89908916Y-81684370D01*
X90928000Y-81657000D02*
X90928000Y-80907661D01*
X89704310Y-81753165D02*
X89727632Y-81767819D01*
X89908916Y-81684370D02*
X89912000Y-81657000D01*
X90960844Y-80763759D02*
X91000357Y-80700874D01*
X91000357Y-80700874D02*
X91052873Y-80648358D01*
X89912000Y-81657000D02*
X89912000Y-80881216D01*
X90901165Y-81733689D02*
X90915819Y-81710367D01*
X91115758Y-80608845D02*
X91185858Y-80584316D01*
X89912000Y-80881216D02*
X89920905Y-80802173D01*
X91940916Y-81684370D02*
X91944000Y-81657000D01*
X89920905Y-80802173D02*
X89947177Y-80727094D01*
X90665094Y-80802173D02*
X90674000Y-80881216D01*
X90188172Y-80534906D02*
X90267215Y-80526000D01*
X90472906Y-80561178D02*
X90540257Y-80603497D01*
X89947177Y-80727094D02*
X89989496Y-80659743D01*
X91944000Y-81508215D02*
X91952905Y-81429172D01*
X89989496Y-80659743D02*
X90045742Y-80603497D01*
X90113093Y-80561178D02*
X90188172Y-80534906D01*
X91185858Y-80584316D02*
X91259660Y-80576000D01*
X90267215Y-80526000D02*
X90318784Y-80526000D01*
X91979177Y-81354093D02*
X92021496Y-81286742D01*
X90540257Y-80603497D02*
X90596503Y-80659743D01*
X91736310Y-81753165D02*
X91759632Y-81767819D01*
X91931819Y-81710367D02*
X91940916Y-81684370D01*
X90596503Y-80659743D02*
X90638822Y-80727094D01*
X90638822Y-80727094D02*
X90665094Y-80802173D01*
X90915819Y-81710367D02*
X90924916Y-81684370D01*
X90674000Y-80881216D02*
X90674000Y-81657000D01*
X91917165Y-81733689D02*
X91931819Y-81710367D01*
X90700834Y-81733689D02*
X90720310Y-81753165D01*
X90720310Y-81753165D02*
X90743632Y-81767819D01*
X90769629Y-81776916D02*
X90797000Y-81780000D01*
X90797000Y-81780000D02*
X90805000Y-81780000D01*
X90928000Y-80907661D02*
X90936315Y-80833859D01*
X90936315Y-80833859D02*
X90960844Y-80763759D01*
X91052873Y-80648358D02*
X91115758Y-80608845D01*
X91259660Y-80576000D02*
X91358339Y-80576000D01*
X91358339Y-80576000D02*
X91432141Y-80584316D01*
X91432141Y-80584316D02*
X91502241Y-80608845D01*
X91502241Y-80608845D02*
X91565126Y-80648358D01*
X91681684Y-80833859D02*
X91690000Y-80907661D01*
X91690000Y-81657000D02*
X91693083Y-81684370D01*
X91565126Y-80648358D02*
X91617642Y-80700874D01*
X91617642Y-80700874D02*
X91657155Y-80763759D01*
X91690000Y-80907661D02*
X91690000Y-81657000D01*
X91693083Y-81684370D02*
X91702180Y-81710367D01*
X91702180Y-81710367D02*
X91716834Y-81733689D01*
X91716834Y-81733689D02*
X91736310Y-81753165D01*
X91759632Y-81767819D02*
X91785629Y-81776916D01*
X91785629Y-81776916D02*
X91813000Y-81780000D01*
X91813000Y-81780000D02*
X91821000Y-81780000D01*
X91821000Y-81780000D02*
X91848370Y-81776916D01*
X91848370Y-81776916D02*
X91874367Y-81767819D01*
X91874367Y-81767819D02*
X91897689Y-81753165D01*
X91897689Y-81753165D02*
X91917165Y-81733689D01*
X92021496Y-81286742D02*
X92077742Y-81230496D01*
X91944000Y-81657000D02*
X91944000Y-81508215D01*
X91952905Y-81429172D02*
X91979177Y-81354093D01*
X92077742Y-81230496D02*
X92145093Y-81188177D01*
X92220172Y-81161905D02*
X92299215Y-81153000D01*
X92986000Y-80750000D02*
X93000000Y-80750000D01*
X86750000Y-81592000D02*
X86750000Y-81296400D01*
X89377165Y-81453310D02*
X89391819Y-81476632D01*
X92267632Y-81419180D02*
X92293629Y-81410083D01*
X89357689Y-81433834D02*
X89377165Y-81453310D01*
X86750000Y-81296400D02*
X87579200Y-80467200D01*
X91712172Y-82025094D02*
X91791215Y-82034000D01*
X87579200Y-80467200D02*
X88011000Y-80467200D01*
X89759215Y-82034000D02*
X89810784Y-82034000D01*
X91921827Y-82025094D02*
X91996906Y-81998822D01*
X89605093Y-81998822D02*
X89680172Y-82025094D01*
X89680172Y-82025094D02*
X89759215Y-82034000D01*
X88011000Y-80467200D02*
X88950800Y-81407000D01*
X89810784Y-82034000D02*
X89889827Y-82025094D01*
X88950800Y-81407000D02*
X89281000Y-81407000D01*
X89964906Y-81998822D02*
X90032257Y-81956503D01*
X90032257Y-81956503D02*
X90088503Y-81900257D01*
X91842784Y-82034000D02*
X91921827Y-82025094D01*
X89889827Y-82025094D02*
X89964906Y-81998822D01*
X90088503Y-81900257D02*
X90130822Y-81832906D01*
X92064257Y-81956503D02*
X92120503Y-81900257D01*
X89281000Y-81407000D02*
X89308370Y-81410083D01*
X89308370Y-81410083D02*
X89334367Y-81419180D01*
X90130822Y-81832906D02*
X90157094Y-81757827D01*
X90157094Y-81757827D02*
X90166000Y-81678784D01*
X89334367Y-81419180D02*
X89357689Y-81433834D01*
X90166000Y-81678784D02*
X90166000Y-80903000D01*
X89391819Y-81476632D02*
X89400916Y-81502629D01*
X89400916Y-81502629D02*
X89404000Y-81530000D01*
X90166000Y-80903000D02*
X90169083Y-80875630D01*
X90169083Y-80875630D02*
X90178180Y-80849633D01*
X89404000Y-81530000D02*
X89404000Y-81678784D01*
X89404000Y-81678784D02*
X89412905Y-81757827D01*
X90178180Y-80849633D02*
X90192834Y-80826311D01*
X89412905Y-81757827D02*
X89439177Y-81832906D01*
X89439177Y-81832906D02*
X89481496Y-81900257D01*
X90212310Y-80806835D02*
X90235632Y-80792181D01*
X90192834Y-80826311D02*
X90212310Y-80806835D01*
X89481496Y-81900257D02*
X89537742Y-81956503D01*
X91791215Y-82034000D02*
X91842784Y-82034000D01*
X89537742Y-81956503D02*
X89605093Y-81998822D01*
X90235632Y-80792181D02*
X90261629Y-80783084D01*
X90261629Y-80783084D02*
X90289000Y-80780000D01*
X90289000Y-80780000D02*
X90297000Y-80780000D01*
X90297000Y-80780000D02*
X90324370Y-80783084D01*
X90324370Y-80783084D02*
X90350367Y-80792181D01*
X90350367Y-80792181D02*
X90373689Y-80806835D01*
X90373689Y-80806835D02*
X90393165Y-80826311D01*
X90393165Y-80826311D02*
X90407819Y-80849633D01*
X90416916Y-80875630D02*
X90420000Y-80903000D01*
X90407819Y-80849633D02*
X90416916Y-80875630D01*
X90420000Y-80903000D02*
X90420000Y-81678784D01*
X92210180Y-81476632D02*
X92224834Y-81453310D01*
X90428905Y-81757827D02*
X90455177Y-81832906D01*
X90420000Y-81678784D02*
X90428905Y-81757827D01*
X90497496Y-81900257D02*
X90553742Y-81956503D01*
X90455177Y-81832906D02*
X90497496Y-81900257D01*
X90553742Y-81956503D02*
X90621093Y-81998822D01*
X92162822Y-81832906D02*
X92189094Y-81757827D01*
X90621093Y-81998822D02*
X90696172Y-82025094D01*
X90696172Y-82025094D02*
X90775215Y-82034000D01*
X90775215Y-82034000D02*
X90826784Y-82034000D01*
X92224834Y-81453310D02*
X92244310Y-81433834D01*
X90826784Y-82034000D02*
X90905827Y-82025094D01*
X92198000Y-81530000D02*
X92201083Y-81502629D01*
X90905827Y-82025094D02*
X90980906Y-81998822D01*
X90980906Y-81998822D02*
X91048257Y-81956503D01*
X91182000Y-81678784D02*
X91182000Y-80928000D01*
X91173094Y-81757827D02*
X91182000Y-81678784D01*
X91146822Y-81832906D02*
X91173094Y-81757827D01*
X91104503Y-81900257D02*
X91146822Y-81832906D01*
X91048257Y-81956503D02*
X91104503Y-81900257D01*
X92244310Y-81433834D02*
X92267632Y-81419180D01*
X91182000Y-80928000D02*
X91184457Y-80906193D01*
X91191705Y-80885480D02*
X91203380Y-80866898D01*
X91184457Y-80906193D02*
X91191705Y-80885480D01*
X92120503Y-81900257D02*
X92162822Y-81832906D01*
X91203380Y-80866898D02*
X91218897Y-80851381D01*
X91218897Y-80851381D02*
X91237479Y-80839706D01*
X91237479Y-80839706D02*
X91258192Y-80832458D01*
X91258192Y-80832458D02*
X91280000Y-80830000D01*
X92201083Y-81502629D02*
X92210180Y-81476632D01*
X91280000Y-80830000D02*
X91338000Y-80830000D01*
X91338000Y-80830000D02*
X91359807Y-80832458D01*
X91359807Y-80832458D02*
X91380520Y-80839706D01*
X91380520Y-80839706D02*
X91399102Y-80851381D01*
X91399102Y-80851381D02*
X91414619Y-80866898D01*
X91414619Y-80866898D02*
X91426294Y-80885480D01*
X91426294Y-80885480D02*
X91433542Y-80906193D01*
X91433542Y-80906193D02*
X91436000Y-80928000D01*
X91436000Y-80928000D02*
X91436000Y-81678784D01*
X91436000Y-81678784D02*
X91444905Y-81757827D01*
X91444905Y-81757827D02*
X91471177Y-81832906D01*
X91471177Y-81832906D02*
X91513496Y-81900257D01*
X91513496Y-81900257D02*
X91569742Y-81956503D01*
X91569742Y-81956503D02*
X91637093Y-81998822D01*
X91637093Y-81998822D02*
X91712172Y-82025094D01*
X91996906Y-81998822D02*
X92064257Y-81956503D01*
X92189094Y-81757827D02*
X92198000Y-81678784D01*
X92198000Y-81678784D02*
X92198000Y-81530000D01*
X92293629Y-81410083D02*
X92321000Y-81407000D01*
X92321000Y-81407000D02*
X92583000Y-81407000D01*
X92583000Y-81407000D02*
X92926000Y-81750000D01*
X92926000Y-81750000D02*
X93000000Y-81750000D01*
X84210000Y-73972000D02*
X84210000Y-74075400D01*
X84210000Y-74075400D02*
X85249601Y-75115001D01*
X85249601Y-75115001D02*
X85581605Y-75115001D01*
X85581605Y-75115001D02*
X85852000Y-75385396D01*
X85852000Y-75385396D02*
X85852000Y-75871604D01*
X85852000Y-75871604D02*
X85598000Y-76125604D01*
X88773000Y-77724000D02*
X89916000Y-78867000D01*
X89916000Y-78867000D02*
X92583000Y-78867000D01*
X85598000Y-76125604D02*
X85598000Y-77139800D01*
X85598000Y-77139800D02*
X86182200Y-77724000D01*
X86182200Y-77724000D02*
X88773000Y-77724000D01*
X92583000Y-78867000D02*
X92950000Y-78500000D01*
X85353001Y-75368999D02*
X85476395Y-75368999D01*
X92962000Y-79500000D02*
X93000000Y-79500000D01*
X85344000Y-77268604D02*
X86053396Y-77978000D01*
X92583000Y-79121000D02*
X92962000Y-79500000D01*
X86053396Y-77978000D02*
X88646000Y-77978000D01*
X85344000Y-76020396D02*
X85344000Y-77268604D01*
X84210000Y-76512000D02*
X85353001Y-75368999D01*
X85476395Y-75368999D02*
X85598000Y-75490604D01*
X85598000Y-75490604D02*
X85598000Y-75766396D01*
X85598000Y-75766396D02*
X85344000Y-76020396D01*
X88646000Y-77978000D02*
X89789000Y-79121000D01*
X89789000Y-79121000D02*
X92583000Y-79121000D01*
X86750000Y-74100800D02*
X86750000Y-73972000D01*
X88121605Y-75115001D02*
X87764201Y-75115001D01*
X88392000Y-75385396D02*
X88121605Y-75115001D01*
X88392000Y-76401396D02*
X88392000Y-75385396D01*
X89151403Y-76596175D02*
X89135202Y-76598001D01*
X89180597Y-76582116D02*
X89166792Y-76590790D01*
X89135202Y-76598001D02*
X88588605Y-76598001D01*
X89192126Y-76570587D02*
X89180597Y-76582116D01*
X89215731Y-76310789D02*
X89208011Y-76379309D01*
X89238504Y-76245706D02*
X89215731Y-76310789D01*
X89275190Y-76187322D02*
X89238504Y-76245706D01*
X89323947Y-76138565D02*
X89275190Y-76187322D01*
X89382331Y-76101879D02*
X89323947Y-76138565D01*
X89447414Y-76079106D02*
X89382331Y-76101879D01*
X89515934Y-76071386D02*
X89447414Y-76079106D01*
X89662083Y-76071386D02*
X89515934Y-76071386D01*
X89902827Y-76187322D02*
X89854070Y-76138565D01*
X89939513Y-76245706D02*
X89902827Y-76187322D01*
X89970007Y-76379309D02*
X89962286Y-76310789D01*
X89971832Y-77068009D02*
X89970007Y-77051807D01*
X89977217Y-77083398D02*
X89971832Y-77068009D01*
X89985891Y-77097203D02*
X89977217Y-77083398D01*
X89997420Y-77108732D02*
X89985891Y-77097203D01*
X90011225Y-77117406D02*
X89997420Y-77108732D01*
X90151198Y-77124616D02*
X90042816Y-77124616D01*
X89854070Y-76138565D02*
X89795686Y-76101879D01*
X90167399Y-77122791D02*
X90151198Y-77124616D01*
X89200800Y-76556782D02*
X89192126Y-76570587D01*
X90196593Y-77108732D02*
X90182788Y-77117406D01*
X90231727Y-76310789D02*
X90224007Y-76379309D01*
X90291186Y-76187322D02*
X90254500Y-76245706D01*
X90463410Y-76079106D02*
X90398327Y-76101879D01*
X90870066Y-76138565D02*
X90811682Y-76101879D01*
X90978282Y-76310789D02*
X90955509Y-76245706D01*
X89962286Y-76310789D02*
X89939513Y-76245706D01*
X90208122Y-77097203D02*
X90196593Y-77108732D01*
X90955509Y-76245706D02*
X90918823Y-76187322D01*
X90986003Y-77051807D02*
X90986003Y-76379309D01*
X90987828Y-77068009D02*
X90986003Y-77051807D01*
X89208011Y-76525192D02*
X89206185Y-76541393D01*
X88588605Y-76598001D02*
X88392000Y-76401396D01*
X91001887Y-77097203D02*
X90993213Y-77083398D01*
X90986003Y-76379309D02*
X90978282Y-76310789D01*
X91027221Y-77117406D02*
X91013416Y-77108732D01*
X90042816Y-77124616D02*
X90026614Y-77122791D01*
X89795686Y-76101879D02*
X89730603Y-76079106D01*
X89206185Y-76541393D02*
X89200800Y-76556782D01*
X90746599Y-76079106D02*
X90678079Y-76071386D01*
X91058812Y-77124616D02*
X91042610Y-77122791D01*
X91167194Y-77124616D02*
X91058812Y-77124616D01*
X91183395Y-77122791D02*
X91167194Y-77124616D01*
X89208011Y-76379309D02*
X89208011Y-76525192D01*
X91198784Y-77117406D02*
X91183395Y-77122791D01*
X91224118Y-77097203D02*
X91212589Y-77108732D01*
X91232792Y-77083398D02*
X91224118Y-77097203D01*
X90398327Y-76101879D02*
X90339943Y-76138565D01*
X90531930Y-76071386D02*
X90463410Y-76079106D01*
X91238177Y-77068009D02*
X91232792Y-77083398D01*
X91240195Y-76725000D02*
X91240003Y-76725000D01*
X89970007Y-77051807D02*
X89970007Y-76379309D01*
X91042610Y-77122791D02*
X91027221Y-77117406D01*
X91240195Y-76379309D02*
X91240195Y-76725000D01*
X91247915Y-76310789D02*
X91240195Y-76379309D01*
X90678079Y-76071386D02*
X90531930Y-76071386D01*
X91270688Y-76245706D02*
X91247915Y-76310789D01*
X91356131Y-76138565D02*
X91307374Y-76187322D01*
X91240003Y-77051807D02*
X91238177Y-77068009D01*
X91240003Y-76725000D02*
X91240003Y-77051807D01*
X90339943Y-76138565D02*
X90291186Y-76187322D01*
X91414515Y-76101879D02*
X91356131Y-76138565D01*
X87764201Y-75115001D02*
X86750000Y-74100800D01*
X90993213Y-77083398D02*
X90987828Y-77068009D01*
X91479598Y-76079106D02*
X91414515Y-76101879D01*
X89730603Y-76079106D02*
X89662083Y-76071386D01*
X91762787Y-76079106D02*
X91694267Y-76071386D01*
X89166792Y-76590790D02*
X89151403Y-76596175D01*
X91971697Y-76245706D02*
X91935011Y-76187322D01*
X90222181Y-77068009D02*
X90216796Y-77083398D01*
X91013416Y-77108732D02*
X91001887Y-77097203D01*
X92002191Y-76525192D02*
X92002191Y-76379309D01*
X91827870Y-76101879D02*
X91762787Y-76079106D01*
X90224007Y-77051807D02*
X90222181Y-77068009D01*
X92009401Y-76556782D02*
X92004016Y-76541393D01*
X90224007Y-76379309D02*
X90224007Y-77051807D01*
X92018075Y-76570587D02*
X92009401Y-76556782D01*
X92029604Y-76582116D02*
X92018075Y-76570587D01*
X90811682Y-76101879D02*
X90746599Y-76079106D01*
X91307374Y-76187322D02*
X91270688Y-76245706D01*
X90182788Y-77117406D02*
X90167399Y-77122791D01*
X90026614Y-77122791D02*
X90011225Y-77117406D01*
X91935011Y-76187322D02*
X91886254Y-76138565D01*
X92043409Y-76590790D02*
X92029604Y-76582116D01*
X92075000Y-76598001D02*
X92058798Y-76596175D01*
X91694267Y-76071386D02*
X91548118Y-76071386D01*
X92058798Y-76596175D02*
X92043409Y-76590790D01*
X90216796Y-77083398D02*
X90208122Y-77097203D01*
X91886254Y-76138565D02*
X91827870Y-76101879D01*
X92601999Y-76598001D02*
X92075000Y-76598001D01*
X90254500Y-76245706D02*
X90231727Y-76310789D01*
X91212589Y-77108732D02*
X91198784Y-77117406D01*
X91994470Y-76310789D02*
X91971697Y-76245706D01*
X90918823Y-76187322D02*
X90870066Y-76138565D01*
X92002191Y-76379309D02*
X91994470Y-76310789D01*
X92004016Y-76541393D02*
X92002191Y-76525192D01*
X92950000Y-76250000D02*
X92601999Y-76598001D01*
X91548118Y-76071386D02*
X91479598Y-76079106D01*
X93000000Y-77250000D02*
X92601999Y-76851999D01*
X90410825Y-77262678D02*
X90362068Y-77311435D01*
X90470284Y-77139211D02*
X90447511Y-77204294D01*
X89659401Y-76327209D02*
X89643200Y-76325384D01*
X92601999Y-76851999D02*
X92056116Y-76851999D01*
X91463507Y-77204294D02*
X91426821Y-77262678D01*
X89462009Y-76398193D02*
X89462009Y-76544075D01*
X92056116Y-76851999D02*
X91987596Y-76844278D01*
X91254597Y-77370894D02*
X91186077Y-77378614D01*
X91987596Y-76844278D02*
X91922513Y-76821505D01*
X90732005Y-76398193D02*
X90730179Y-76381991D01*
X90906325Y-77348121D02*
X90847941Y-77311435D01*
X89674790Y-76332594D02*
X89659401Y-76327209D01*
X90493889Y-76352797D02*
X90485215Y-76366602D01*
X91922513Y-76821505D02*
X91864129Y-76784819D01*
X91864129Y-76784819D02*
X91815372Y-76736062D01*
X91815372Y-76736062D02*
X91778686Y-76677678D01*
X91567002Y-76325384D02*
X91550800Y-76327209D01*
X91778686Y-76677678D02*
X91755913Y-76612595D01*
X91755913Y-76612595D02*
X91748193Y-76544075D01*
X91706974Y-76332594D02*
X91691585Y-76327209D01*
X91748193Y-76544075D02*
X91748193Y-76398193D01*
X91748193Y-76398193D02*
X91746367Y-76381991D01*
X91550800Y-76327209D02*
X91535411Y-76332594D01*
X88483395Y-76851999D02*
X88138000Y-76506604D01*
X91746367Y-76381991D02*
X91740982Y-76366602D01*
X89890329Y-77348121D02*
X89831945Y-77311435D01*
X91494001Y-77070691D02*
X91486280Y-77139211D01*
X90534612Y-76327209D02*
X90519223Y-76332594D01*
X90762498Y-77204294D02*
X90739725Y-77139211D01*
X91732308Y-76352797D02*
X91720779Y-76341268D01*
X91740982Y-76366602D02*
X91732308Y-76352797D01*
X91535411Y-76332594D02*
X91521606Y-76341268D01*
X90704591Y-76341268D02*
X90690786Y-76332594D01*
X91720779Y-76341268D02*
X91706974Y-76332594D01*
X91691585Y-76327209D02*
X91675384Y-76325384D01*
X91501403Y-76366602D02*
X91496018Y-76381991D01*
X90675397Y-76327209D02*
X90659196Y-76325384D01*
X91675384Y-76325384D02*
X91567002Y-76325384D01*
X91521606Y-76341268D02*
X91510077Y-76352797D01*
X91510077Y-76352797D02*
X91501403Y-76366602D01*
X91496018Y-76381991D02*
X91494193Y-76398193D01*
X91494193Y-76398193D02*
X91494193Y-76725000D01*
X91494193Y-76725000D02*
X91494001Y-76725000D01*
X90724794Y-76366602D02*
X90716120Y-76352797D01*
X91494001Y-76725000D02*
X91494001Y-77070691D01*
X91486280Y-77139211D02*
X91463507Y-77204294D01*
X91426821Y-77262678D02*
X91378064Y-77311435D01*
X88016395Y-75368999D02*
X87889501Y-75368999D01*
X91378064Y-77311435D02*
X91319680Y-77348121D01*
X91319680Y-77348121D02*
X91254597Y-77370894D01*
X91186077Y-77378614D02*
X91039928Y-77378614D01*
X91039928Y-77378614D02*
X90971408Y-77370894D01*
X89431515Y-76677678D02*
X89394829Y-76736062D01*
X90659196Y-76325384D02*
X90550814Y-76325384D01*
X90971408Y-77370894D02*
X90906325Y-77348121D01*
X90847941Y-77311435D02*
X90799184Y-77262678D01*
X90799184Y-77262678D02*
X90762498Y-77204294D01*
X90739725Y-77139211D02*
X90732005Y-77070691D01*
X90732005Y-77070691D02*
X90732005Y-76398193D01*
X90730179Y-76381991D02*
X90724794Y-76366602D01*
X90716120Y-76352797D02*
X90704591Y-76341268D01*
X90690786Y-76332594D02*
X90675397Y-76327209D01*
X90550814Y-76325384D02*
X90534612Y-76327209D01*
X89708798Y-76366602D02*
X89700124Y-76352797D01*
X90478005Y-76398193D02*
X90478005Y-77070691D01*
X90519223Y-76332594D02*
X90505418Y-76341268D01*
X90505418Y-76341268D02*
X90493889Y-76352797D01*
X88138000Y-76506604D02*
X88138000Y-75490604D01*
X90485215Y-76366602D02*
X90479830Y-76381991D01*
X90479830Y-76381991D02*
X90478005Y-76398193D01*
X89394829Y-76736062D02*
X89346072Y-76784819D01*
X90478005Y-77070691D02*
X90470284Y-77139211D01*
X90447511Y-77204294D02*
X90410825Y-77262678D01*
X90362068Y-77311435D02*
X90303684Y-77348121D01*
X90303684Y-77348121D02*
X90238601Y-77370894D01*
X89534818Y-76325384D02*
X89518616Y-76327209D01*
X90238601Y-77370894D02*
X90170081Y-77378614D01*
X90170081Y-77378614D02*
X90023932Y-77378614D01*
X90023932Y-77378614D02*
X89955412Y-77370894D01*
X89643200Y-76325384D02*
X89534818Y-76325384D01*
X89955412Y-77370894D02*
X89890329Y-77348121D01*
X89716009Y-76398193D02*
X89714183Y-76381991D01*
X89831945Y-77311435D02*
X89783188Y-77262678D01*
X89518616Y-76327209D02*
X89503227Y-76332594D01*
X89783188Y-77262678D02*
X89746502Y-77204294D01*
X89746502Y-77204294D02*
X89723729Y-77139211D01*
X89723729Y-77139211D02*
X89716009Y-77070691D01*
X89716009Y-77070691D02*
X89716009Y-76398193D01*
X89714183Y-76381991D02*
X89708798Y-76366602D01*
X89700124Y-76352797D02*
X89688595Y-76341268D01*
X89688595Y-76341268D02*
X89674790Y-76332594D01*
X89222605Y-76844278D02*
X89154085Y-76851999D01*
X88138000Y-75490604D02*
X88016395Y-75368999D01*
X89503227Y-76332594D02*
X89489422Y-76341268D01*
X89489422Y-76341268D02*
X89477893Y-76352797D01*
X89477893Y-76352797D02*
X89469219Y-76366602D01*
X89469219Y-76366602D02*
X89463834Y-76381991D01*
X89463834Y-76381991D02*
X89462009Y-76398193D01*
X89462009Y-76544075D02*
X89454288Y-76612595D01*
X89454288Y-76612595D02*
X89431515Y-76677678D01*
X89346072Y-76784819D02*
X89287688Y-76821505D01*
X89287688Y-76821505D02*
X89222605Y-76844278D01*
X89154085Y-76851999D02*
X88483395Y-76851999D01*
X87889501Y-75368999D02*
X86750000Y-76508500D01*
X86750000Y-76508500D02*
X86750000Y-76512000D01*
X101346000Y-87038000D02*
X101346000Y-85979000D01*
X103251000Y-87884000D02*
X101346000Y-85979000D01*
X101346000Y-85979000D02*
X101346000Y-85471000D01*
X111252000Y-87884000D02*
X103251000Y-87884000D01*
X101264000Y-85389000D02*
X101346000Y-85471000D01*
X101264000Y-84714000D02*
X101264000Y-85389000D01*
D24*
X108458000Y-87445000D02*
X107061000Y-87445000D01*
X110871000Y-87376000D02*
X108527000Y-87376000D01*
X108527000Y-87376000D02*
X108458000Y-87445000D01*
D25*
X116454999Y-84704999D02*
X116205000Y-84455000D01*
X116893274Y-93926726D02*
X116893274Y-85143274D01*
X115595400Y-95224600D02*
X116893274Y-93926726D01*
X85817400Y-95224600D02*
X115595400Y-95224600D01*
X116893274Y-85143274D02*
X116454999Y-84704999D01*
X85817400Y-95224600D02*
X85826600Y-95215400D01*
X85826600Y-95215400D02*
X85826600Y-94287800D01*
X84210000Y-96832000D02*
X85817400Y-95224600D01*
D24*
X84210000Y-96832000D02*
X84210000Y-96765000D01*
D25*
X103914000Y-83564000D02*
X104847394Y-83564000D01*
X105039895Y-83756501D02*
X107993500Y-83756501D01*
X104847394Y-83564000D02*
X105039895Y-83756501D01*
X111061499Y-83756501D02*
X111252000Y-83566000D01*
X108542649Y-84196748D02*
X108542649Y-84051647D01*
X108288647Y-84051647D02*
X108288647Y-84196748D01*
X107993500Y-83756501D02*
X108059176Y-83763900D01*
X108550048Y-83985971D02*
X108571877Y-83923588D01*
X108121559Y-83785729D02*
X108177521Y-83820892D01*
X108177521Y-83820892D02*
X108224255Y-83867626D01*
X108059176Y-83763900D02*
X108121559Y-83785729D01*
X108290132Y-84209932D02*
X108294514Y-84222455D01*
X108288647Y-84196748D02*
X108290132Y-84209932D01*
X108709736Y-83785729D02*
X108772119Y-83763900D01*
X108653774Y-83820892D02*
X108709736Y-83785729D01*
X108520341Y-84243070D02*
X108529722Y-84233689D01*
X108224255Y-83867626D02*
X108259418Y-83923588D01*
X108259418Y-83923588D02*
X108281247Y-83985971D01*
X108281247Y-83985971D02*
X108288647Y-84051647D01*
X108294514Y-84222455D02*
X108301573Y-84233689D01*
X108301573Y-84233689D02*
X108310954Y-84243070D01*
X108837795Y-83756501D02*
X111061499Y-83756501D01*
X108310954Y-84243070D02*
X108322188Y-84250129D01*
X108322188Y-84250129D02*
X108334711Y-84254511D01*
X108334711Y-84254511D02*
X108347896Y-84255997D01*
X108541163Y-84209932D02*
X108542649Y-84196748D01*
X108347896Y-84255997D02*
X108483400Y-84255997D01*
X108483400Y-84255997D02*
X108496584Y-84254511D01*
X108607040Y-83867626D02*
X108653774Y-83820892D01*
X108496584Y-84254511D02*
X108509107Y-84250129D01*
X108509107Y-84250129D02*
X108520341Y-84243070D01*
X108529722Y-84233689D02*
X108536781Y-84222455D01*
X108536781Y-84222455D02*
X108541163Y-84209932D01*
X108542649Y-84051647D02*
X108550048Y-83985971D01*
X108571877Y-83923588D02*
X108607040Y-83867626D01*
X108772119Y-83763900D02*
X108837795Y-83756501D01*
X108195696Y-82494732D02*
X108198301Y-82498878D01*
X103914000Y-83064000D02*
X104439000Y-83064000D01*
X108963013Y-82503500D02*
X108964630Y-82498878D01*
X104439000Y-83064000D02*
X104562000Y-82941000D01*
X108206983Y-82709144D02*
X108226207Y-82764082D01*
X105071604Y-82941000D02*
X105526105Y-82486499D01*
X108192233Y-82491269D02*
X108195696Y-82494732D01*
X108760379Y-82904713D02*
X108815317Y-82885489D01*
X108964630Y-82498878D02*
X108967235Y-82494732D01*
X104562000Y-82941000D02*
X105071604Y-82941000D01*
X108199918Y-82503500D02*
X108200467Y-82508366D01*
X108200467Y-82508366D02*
X108200467Y-82651305D01*
X108962465Y-82651305D02*
X108962465Y-82508366D01*
X108974844Y-82488664D02*
X108979466Y-82487047D01*
X108402552Y-82904713D02*
X108460391Y-82911230D01*
X108905757Y-82813365D02*
X108936724Y-82764082D01*
X108815317Y-82885489D02*
X108864600Y-82854522D01*
X108864600Y-82854522D02*
X108905757Y-82813365D01*
X108178600Y-82486499D02*
X108183465Y-82487047D01*
X105526105Y-82486499D02*
X108178600Y-82486499D01*
X108183465Y-82487047D02*
X108188087Y-82488664D01*
X108936724Y-82764082D02*
X108955948Y-82709144D01*
X108226207Y-82764082D02*
X108257174Y-82813365D01*
X108188087Y-82488664D02*
X108192233Y-82491269D01*
X108702540Y-82911230D02*
X108760379Y-82904713D01*
X108198301Y-82498878D02*
X108199918Y-82503500D01*
X108200467Y-82651305D02*
X108206983Y-82709144D01*
X108257174Y-82813365D02*
X108298331Y-82854522D01*
X108298331Y-82854522D02*
X108347614Y-82885489D01*
X108347614Y-82885489D02*
X108402552Y-82904713D01*
X108460391Y-82911230D02*
X108702540Y-82911230D01*
X108955948Y-82709144D02*
X108962465Y-82651305D01*
X108962465Y-82508366D02*
X108963013Y-82503500D01*
X108967235Y-82494732D02*
X108970698Y-82491269D01*
X108970698Y-82491269D02*
X108974844Y-82488664D01*
X108979466Y-82487047D02*
X108984332Y-82486499D01*
X108984332Y-82486499D02*
X111061499Y-82486499D01*
X111061499Y-82486499D02*
X111252000Y-82677000D01*
X103914000Y-82564000D02*
X104439000Y-82564000D01*
X105420895Y-82232501D02*
X108194540Y-82232501D01*
X108708467Y-82492425D02*
X108714983Y-82434586D01*
X108447948Y-82434586D02*
X108454465Y-82492425D01*
X108471466Y-82656683D02*
X108476332Y-82657232D01*
X108455013Y-82640230D02*
X108456630Y-82644852D01*
X108454465Y-82492425D02*
X108454465Y-82635365D01*
X104439000Y-82564000D02*
X104562000Y-82687000D01*
X104562000Y-82687000D02*
X104966396Y-82687000D01*
X104966396Y-82687000D02*
X105420895Y-82232501D01*
X108428724Y-82379648D02*
X108447948Y-82434586D01*
X108252379Y-82239017D02*
X108307317Y-82258241D01*
X108194540Y-82232501D02*
X108252379Y-82239017D01*
X108855614Y-82258241D02*
X108910552Y-82239017D01*
X108456630Y-82644852D02*
X108459235Y-82648998D01*
X108307317Y-82258241D02*
X108356600Y-82289208D01*
X108714983Y-82434586D02*
X108734207Y-82379648D01*
X108356600Y-82289208D02*
X108397757Y-82330365D01*
X108397757Y-82330365D02*
X108428724Y-82379648D01*
X108454465Y-82635365D02*
X108455013Y-82640230D01*
X108459235Y-82648998D02*
X108462698Y-82652461D01*
X108462698Y-82652461D02*
X108466844Y-82655066D01*
X108765174Y-82330365D02*
X108806331Y-82289208D01*
X108466844Y-82655066D02*
X108471466Y-82656683D01*
X108476332Y-82657232D02*
X108686600Y-82657232D01*
X108686600Y-82657232D02*
X108691465Y-82656683D01*
X108734207Y-82379648D02*
X108765174Y-82330365D01*
X108691465Y-82656683D02*
X108696087Y-82655066D01*
X108696087Y-82655066D02*
X108700233Y-82652461D01*
X108700233Y-82652461D02*
X108703696Y-82648998D01*
X108703696Y-82648998D02*
X108706301Y-82644852D01*
X108706301Y-82644852D02*
X108707918Y-82640230D01*
X108707918Y-82640230D02*
X108708467Y-82635365D01*
X108708467Y-82635365D02*
X108708467Y-82492425D01*
X108806331Y-82289208D02*
X108855614Y-82258241D01*
X108910552Y-82239017D02*
X108968391Y-82232501D01*
X108968391Y-82232501D02*
X111061499Y-82232501D01*
X111061499Y-82232501D02*
X111252000Y-82042000D01*
X108178600Y-80962499D02*
X108178600Y-81102215D01*
X104439000Y-82064000D02*
X104562000Y-81941000D01*
X108183799Y-81148359D02*
X108199136Y-81192190D01*
X104562000Y-81941000D02*
X105055604Y-81941000D01*
X108385971Y-81309587D02*
X108733224Y-81309587D01*
X105055604Y-81941000D02*
X106034105Y-80962499D01*
X108935396Y-81148359D02*
X108940596Y-81102215D01*
X108920059Y-81192190D02*
X108935396Y-81148359D01*
X108256677Y-81264345D02*
X108295996Y-81289050D01*
X103914000Y-82064000D02*
X104439000Y-82064000D01*
X106034105Y-80962499D02*
X108178600Y-80962499D01*
X108178600Y-81102215D02*
X108183799Y-81148359D01*
X108199136Y-81192190D02*
X108223841Y-81231509D01*
X108295996Y-81289050D02*
X108339827Y-81304387D01*
X108223841Y-81231509D02*
X108256677Y-81264345D01*
X108339827Y-81304387D02*
X108385971Y-81309587D01*
X108733224Y-81309587D02*
X108779368Y-81304387D01*
X108862518Y-81264345D02*
X108895354Y-81231509D01*
X108779368Y-81304387D02*
X108823199Y-81289050D01*
X108823199Y-81289050D02*
X108862518Y-81264345D01*
X108895354Y-81231509D02*
X108920059Y-81192190D01*
X108940596Y-81102215D02*
X108940596Y-80962499D01*
X108940596Y-80962499D02*
X111061499Y-80962499D01*
X111061499Y-80962499D02*
X111252000Y-81153000D01*
X108837903Y-80729037D02*
X108881734Y-80713700D01*
X108765748Y-80786578D02*
X108798584Y-80753742D01*
X108741043Y-80825897D02*
X108765748Y-80786578D01*
X108725706Y-80869728D02*
X108741043Y-80825897D01*
X108798584Y-80753742D02*
X108837903Y-80729037D01*
X108881734Y-80713700D02*
X108927878Y-80708501D01*
X108720507Y-80915872D02*
X108725706Y-80869728D01*
X108720507Y-81055589D02*
X108720507Y-80915872D01*
X108398689Y-81055589D02*
X108720507Y-81055589D01*
X108378152Y-80825897D02*
X108393489Y-80869728D01*
X108320611Y-80753742D02*
X108353447Y-80786578D01*
X108398689Y-80915872D02*
X108398689Y-81055589D01*
X108927878Y-80708501D02*
X111061499Y-80708501D01*
X108281292Y-80729037D02*
X108320611Y-80753742D01*
X108393489Y-80869728D02*
X108398689Y-80915872D01*
X108191317Y-80708501D02*
X108237461Y-80713700D01*
X105928895Y-80708501D02*
X108191317Y-80708501D01*
X104950396Y-81687000D02*
X105928895Y-80708501D01*
X108353447Y-80786578D02*
X108378152Y-80825897D01*
X104562000Y-81687000D02*
X104950396Y-81687000D01*
X108237461Y-80713700D02*
X108281292Y-80729037D01*
X104439000Y-81564000D02*
X104562000Y-81687000D01*
X111061499Y-80708501D02*
X111252000Y-80518000D01*
X103914000Y-81564000D02*
X104439000Y-81564000D01*
X104439000Y-81064000D02*
X103914000Y-81064000D01*
X104562000Y-80941000D02*
X104439000Y-81064000D01*
X111252000Y-79629000D02*
X111061499Y-79438499D01*
X104785604Y-80941000D02*
X104562000Y-80941000D01*
X106288105Y-79438499D02*
X104785604Y-80941000D01*
X111061499Y-79438499D02*
X106288105Y-79438499D01*
X104439000Y-80564000D02*
X103914000Y-80564000D01*
X104680396Y-80687000D02*
X104562000Y-80687000D01*
X104562000Y-80687000D02*
X104439000Y-80564000D01*
X106182895Y-79184501D02*
X104680396Y-80687000D01*
X111061499Y-79184501D02*
X106182895Y-79184501D01*
X111252000Y-78994000D02*
X111061499Y-79184501D01*
X103914000Y-84064000D02*
X104439000Y-84064000D01*
X104439000Y-84064000D02*
X104606800Y-83896200D01*
X104606800Y-83896200D02*
X104790792Y-83896200D01*
X104790792Y-83896200D02*
X104905091Y-84010499D01*
X104905091Y-84010499D02*
X107975400Y-84010499D01*
X107975400Y-84010499D02*
X107988584Y-84011984D01*
X107988584Y-84011984D02*
X108001107Y-84016366D01*
X108001107Y-84016366D02*
X108012341Y-84023425D01*
X108012341Y-84023425D02*
X108021722Y-84032806D01*
X108021722Y-84032806D02*
X108028781Y-84044040D01*
X108028781Y-84044040D02*
X108033163Y-84056563D01*
X108033163Y-84056563D02*
X108034649Y-84069748D01*
X108034649Y-84214848D02*
X108042048Y-84280524D01*
X108034649Y-84069748D02*
X108034649Y-84214848D01*
X108042048Y-84280524D02*
X108063877Y-84342907D01*
X108063877Y-84342907D02*
X108099040Y-84398869D01*
X108201736Y-84480766D02*
X108264119Y-84502595D01*
X108099040Y-84398869D02*
X108145774Y-84445603D01*
X108830188Y-84016366D02*
X108842711Y-84011984D01*
X108145774Y-84445603D02*
X108201736Y-84480766D01*
X108629559Y-84480766D02*
X108685521Y-84445603D01*
X108264119Y-84502595D02*
X108329795Y-84509995D01*
X108818954Y-84023425D02*
X108830188Y-84016366D01*
X108685521Y-84445603D02*
X108732255Y-84398869D01*
X108732255Y-84398869D02*
X108767418Y-84342907D01*
X108501500Y-84509995D02*
X108567176Y-84502595D01*
X108329795Y-84509995D02*
X108501500Y-84509995D01*
X108567176Y-84502595D02*
X108629559Y-84480766D01*
X108767418Y-84342907D02*
X108789247Y-84280524D01*
X111061499Y-84010499D02*
X111252000Y-84201000D01*
X108789247Y-84280524D02*
X108796647Y-84214848D01*
X108796647Y-84214848D02*
X108796647Y-84069748D01*
X108796647Y-84069748D02*
X108798132Y-84056563D01*
X108798132Y-84056563D02*
X108802514Y-84044040D01*
X108855896Y-84010499D02*
X111061499Y-84010499D01*
X108802514Y-84044040D02*
X108809573Y-84032806D01*
X108809573Y-84032806D02*
X108818954Y-84023425D01*
X108842711Y-84011984D02*
X108855896Y-84010499D01*
X107061000Y-86545000D02*
X106484000Y-86545000D01*
X106484000Y-86545000D02*
X106299000Y-86360000D01*
X106299000Y-86360000D02*
X102743000Y-86360000D01*
X102743000Y-86360000D02*
X102264000Y-85881000D01*
X102264000Y-85881000D02*
X102264000Y-84714000D01*
X110363000Y-86106000D02*
X110639000Y-85830000D01*
X110639000Y-85830000D02*
X111274000Y-85830000D01*
X107950000Y-86106000D02*
X110363000Y-86106000D01*
X107511000Y-86545000D02*
X107950000Y-86106000D01*
X107061000Y-86545000D02*
X107511000Y-86545000D01*
X108458000Y-86545000D02*
X110686000Y-86545000D01*
X110686000Y-86545000D02*
X110871000Y-86360000D01*
X108458000Y-86545000D02*
X107892000Y-86545000D01*
X107892000Y-86545000D02*
X107442000Y-86995000D01*
X101854000Y-85979000D02*
X101854000Y-85217000D01*
X107442000Y-86995000D02*
X106553000Y-86995000D01*
X106553000Y-86995000D02*
X106273600Y-86715600D01*
X106273600Y-86715600D02*
X102590600Y-86715600D01*
X102590600Y-86715600D02*
X101854000Y-85979000D01*
X101854000Y-85217000D02*
X101764000Y-85127000D01*
X101764000Y-85127000D02*
X101764000Y-84714000D01*
X102764000Y-77116447D02*
X102764000Y-77470000D01*
X117401296Y-94137154D02*
X117401296Y-73862071D01*
X117401296Y-73862071D02*
X116558328Y-73019103D01*
X102764000Y-74879975D02*
X102764000Y-77116447D01*
X104624872Y-73019103D02*
X102764000Y-74879975D01*
X115805828Y-95732622D02*
X117401296Y-94137154D01*
X88738378Y-95732622D02*
X115805828Y-95732622D01*
X116558328Y-73019103D02*
X104624872Y-73019103D01*
X86750000Y-96832000D02*
X87639000Y-96832000D01*
X87639000Y-96832000D02*
X88738378Y-95732622D01*
X102764000Y-77470000D02*
X102764000Y-79437000D01*
X102764000Y-79437000D02*
X102764000Y-79914000D01*
X101764000Y-75161525D02*
X104414444Y-72511081D01*
X116768756Y-72511081D02*
X117909318Y-73651643D01*
X116016256Y-96240644D02*
X91719356Y-96240644D01*
X91719356Y-96240644D02*
X89349999Y-98610001D01*
X117909318Y-94347582D02*
X116016256Y-96240644D01*
X87511999Y-98610001D02*
X86750000Y-99372000D01*
X104414444Y-72511081D02*
X116768756Y-72511081D01*
X101764000Y-77470000D02*
X101764000Y-75161525D01*
X117909318Y-73651643D02*
X117909318Y-94347582D01*
X89349999Y-98610001D02*
X87511999Y-98610001D01*
X101764000Y-79914000D02*
X101764000Y-77470000D01*
X115911042Y-95986633D02*
X117655307Y-94242368D01*
X104519658Y-72765092D02*
X102264000Y-75020750D01*
X91614142Y-95986633D02*
X115911042Y-95986633D01*
X85792000Y-97790000D02*
X89810775Y-97790000D01*
X84210000Y-99372000D02*
X85792000Y-97790000D01*
X117655307Y-94242368D02*
X117655307Y-73756857D01*
X102264000Y-77624447D02*
X102264000Y-77978000D01*
X116663542Y-72765092D02*
X104519658Y-72765092D01*
X89810775Y-97790000D02*
X91614142Y-95986633D01*
X102264000Y-75020750D02*
X102264000Y-77624447D01*
X117655307Y-73756857D02*
X116663542Y-72765092D01*
X102264000Y-79437000D02*
X102264000Y-79914000D01*
X102264000Y-77978000D02*
X102264000Y-79437000D01*
X103264000Y-74739200D02*
X103264000Y-77624447D01*
X116453114Y-73273114D02*
X104730086Y-73273114D01*
X104730086Y-73273114D02*
X103264000Y-74739200D01*
X84661702Y-97790000D02*
X85725000Y-96726702D01*
X117147285Y-94031940D02*
X117147285Y-73967285D01*
X85725000Y-96726702D02*
X85725000Y-95990098D01*
X86236487Y-95478611D02*
X115700614Y-95478611D01*
X84382298Y-97790000D02*
X84661702Y-97790000D01*
X84210000Y-101912000D02*
X83185000Y-100887000D01*
X117147285Y-73967285D02*
X116453114Y-73273114D01*
X103264000Y-77624447D02*
X103264000Y-77978000D01*
X83185000Y-98987298D02*
X84382298Y-97790000D01*
X115700614Y-95478611D02*
X117147285Y-94031940D01*
X83185000Y-100887000D02*
X83185000Y-98987298D01*
X85725000Y-95990098D02*
X86236487Y-95478611D01*
X103264000Y-77978000D02*
X103264000Y-79914000D01*
X100264000Y-75943075D02*
X100264000Y-76021322D01*
X89560427Y-99118023D02*
X91929784Y-96748666D01*
X86750000Y-101912000D02*
X89543977Y-99118023D01*
X89543977Y-99118023D02*
X89560427Y-99118023D01*
X91929784Y-96748666D02*
X116226684Y-96748666D01*
X116226684Y-96748666D02*
X118417340Y-94558010D01*
X118417340Y-94558010D02*
X118417340Y-73441215D01*
X118417340Y-73441215D02*
X116979184Y-72003059D01*
X116979184Y-72003059D02*
X104204016Y-72003059D01*
X104204016Y-72003059D02*
X100264000Y-75943075D01*
X100264000Y-76021322D02*
X100264000Y-76374875D01*
X100264000Y-77470000D02*
X100264000Y-79437000D01*
X100264000Y-76374875D02*
X100264000Y-77470000D01*
X100264000Y-79437000D02*
X100264000Y-79914000D01*
X89455213Y-98864012D02*
X89438763Y-98864012D01*
X118163329Y-73546429D02*
X118163329Y-94452796D01*
X85797499Y-101454799D02*
X85797499Y-101734203D01*
X85797499Y-105404501D02*
X86750000Y-104452000D01*
X83179501Y-105404501D02*
X85797499Y-105404501D01*
X89438763Y-98864012D02*
X87343276Y-100959499D01*
X83185000Y-104067298D02*
X83185000Y-105399002D01*
X84382298Y-102870000D02*
X83185000Y-104067298D01*
X85797499Y-101734203D02*
X84661702Y-102870000D01*
X87343276Y-100959499D02*
X86292799Y-100959499D01*
X91824570Y-96494655D02*
X89455213Y-98864012D01*
X118163329Y-94452796D02*
X116121470Y-96494655D01*
X116873970Y-72257070D02*
X118163329Y-73546429D01*
X104309230Y-72257070D02*
X116873970Y-72257070D01*
X100764000Y-75802300D02*
X104309230Y-72257070D01*
X116121470Y-96494655D02*
X91824570Y-96494655D01*
X83185000Y-105399002D02*
X83179501Y-105404501D01*
X84661702Y-102870000D02*
X84382298Y-102870000D01*
X100764000Y-77978000D02*
X100764000Y-75802300D01*
X86292799Y-100959499D02*
X85797499Y-101454799D01*
X100764000Y-79914000D02*
X100764000Y-77978000D01*
X100764000Y-79437000D02*
X100764000Y-79914000D01*
X85411000Y-103251000D02*
X84210000Y-104452000D01*
X94615000Y-100761800D02*
X92125800Y-103251000D01*
X92125800Y-103251000D02*
X85411000Y-103251000D01*
X100076000Y-86106000D02*
X100711000Y-86106000D01*
X100764000Y-84714000D02*
X100764000Y-86053000D01*
X100764000Y-86053000D02*
X100711000Y-86106000D01*
X103264000Y-84714000D02*
X104849000Y-84714000D01*
X104849000Y-84714000D02*
X104902000Y-84767000D01*
X85826600Y-92887800D02*
X85826600Y-91795600D01*
X101264000Y-79914000D02*
X101264000Y-78745800D01*
X101264000Y-78745800D02*
X101269800Y-78740000D01*
X94100000Y-83000000D02*
X94550000Y-83000000D01*
X96670428Y-83025688D02*
X96750486Y-82997674D01*
X95423604Y-83687000D02*
X95781228Y-83687000D01*
X97177364Y-83130789D02*
X97222489Y-83202606D01*
X95109604Y-83373000D02*
X95423604Y-83687000D01*
X96122489Y-83901428D02*
X96150503Y-83981486D01*
X94550000Y-83000000D02*
X94923000Y-83373000D01*
X94923000Y-83373000D02*
X95109604Y-83373000D01*
X96192288Y-84530099D02*
X96215723Y-84553534D01*
X95781228Y-83687000D02*
X95865513Y-83696496D01*
X96160000Y-84437823D02*
X96163710Y-84470756D01*
X95865513Y-83696496D02*
X95945571Y-83724510D01*
X96340933Y-84582112D02*
X96372214Y-84571166D01*
X95945571Y-83724510D02*
X96017388Y-83769635D01*
X96160000Y-84065771D02*
X96160000Y-84437823D01*
X97263710Y-83571934D02*
X97274656Y-83603215D01*
X96017388Y-83769635D02*
X96077364Y-83829611D01*
X98766000Y-83687000D02*
X98889000Y-83564000D01*
X96174656Y-84502037D02*
X96192288Y-84530099D01*
X96077364Y-83829611D02*
X96122489Y-83901428D01*
X96456000Y-83366949D02*
X96465496Y-83282664D01*
X97408000Y-83687000D02*
X98766000Y-83687000D01*
X96150503Y-83981486D02*
X96160000Y-84065771D01*
X96465496Y-83282664D02*
X96493510Y-83202606D01*
X96243785Y-84571166D02*
X96275066Y-84582112D01*
X96163710Y-84470756D02*
X96174656Y-84502037D01*
X96423711Y-84530099D02*
X96441343Y-84502037D01*
X96215723Y-84553534D02*
X96243785Y-84571166D01*
X96538635Y-83130789D02*
X96598611Y-83070813D01*
X96275066Y-84582112D02*
X96308000Y-84585823D01*
X96308000Y-84585823D02*
X96340933Y-84582112D01*
X96372214Y-84571166D02*
X96400276Y-84553534D01*
X96400276Y-84553534D02*
X96423711Y-84530099D01*
X96493510Y-83202606D02*
X96538635Y-83130789D01*
X96441343Y-84502037D02*
X96452289Y-84470756D01*
X96452289Y-84470756D02*
X96456000Y-84437823D01*
X96456000Y-84437823D02*
X96456000Y-83366949D01*
X96598611Y-83070813D02*
X96670428Y-83025688D01*
X96750486Y-82997674D02*
X96834771Y-82988177D01*
X96834771Y-82988177D02*
X96881228Y-82988177D01*
X96881228Y-82988177D02*
X96965513Y-82997674D01*
X97260000Y-83539000D02*
X97263710Y-83571934D01*
X96965513Y-82997674D02*
X97045571Y-83025688D01*
X97045571Y-83025688D02*
X97117388Y-83070813D01*
X97117388Y-83070813D02*
X97177364Y-83130789D01*
X97222489Y-83202606D02*
X97250503Y-83282664D01*
X98889000Y-83564000D02*
X99114000Y-83564000D01*
X97292288Y-83631277D02*
X97315723Y-83654712D01*
X97250503Y-83282664D02*
X97260000Y-83366949D01*
X97260000Y-83366949D02*
X97260000Y-83539000D01*
X97274656Y-83603215D02*
X97292288Y-83631277D01*
X97315723Y-83654712D02*
X97343785Y-83672344D01*
X97343785Y-83672344D02*
X97375066Y-83683290D01*
X97375066Y-83683290D02*
X97408000Y-83687000D01*
X95822214Y-83955656D02*
X95850276Y-83973288D01*
X94100000Y-84000000D02*
X94550000Y-84000000D01*
X96627364Y-84697211D02*
X96672489Y-84625394D01*
X95318396Y-83941000D02*
X95758000Y-83941000D01*
X96048611Y-84757187D02*
X96120428Y-84802312D01*
X98766000Y-83941000D02*
X98889000Y-84064000D01*
X94923000Y-83627000D02*
X95004396Y-83627000D01*
X94550000Y-84000000D02*
X94923000Y-83627000D01*
X95902289Y-84056066D02*
X95906000Y-84089000D01*
X95906000Y-84461051D02*
X95915496Y-84545336D01*
X96331228Y-84839823D02*
X96415513Y-84830326D01*
X96567388Y-84757187D02*
X96627364Y-84697211D01*
X97300486Y-83931504D02*
X97384771Y-83941000D01*
X96890933Y-83245888D02*
X96922214Y-83256834D01*
X95891343Y-84024785D02*
X95902289Y-84056066D01*
X96672489Y-84625394D02*
X96700503Y-84545336D01*
X96710000Y-84461051D02*
X96710000Y-83390177D01*
X95850276Y-83973288D02*
X95873711Y-83996723D01*
X95906000Y-84089000D02*
X95906000Y-84461051D01*
X95790933Y-83944710D02*
X95822214Y-83955656D01*
X96825066Y-83245888D02*
X96858000Y-83242177D01*
X96858000Y-83242177D02*
X96890933Y-83245888D01*
X96713710Y-83357244D02*
X96724656Y-83325963D01*
X95915496Y-84545336D02*
X95943510Y-84625394D01*
X96922214Y-83256834D02*
X96950276Y-83274466D01*
X96120428Y-84802312D02*
X96200486Y-84830326D01*
X95988635Y-84697211D02*
X96048611Y-84757187D01*
X95873711Y-83996723D02*
X95891343Y-84024785D01*
X95004396Y-83627000D02*
X95318396Y-83941000D01*
X96200486Y-84830326D02*
X96284771Y-84839823D01*
X95758000Y-83941000D02*
X95790933Y-83944710D01*
X95943510Y-84625394D02*
X95988635Y-84697211D01*
X97148611Y-83858365D02*
X97220428Y-83903490D01*
X96284771Y-84839823D02*
X96331228Y-84839823D01*
X96415513Y-84830326D02*
X96495571Y-84802312D01*
X96973711Y-83297901D02*
X96991343Y-83325963D01*
X96495571Y-84802312D02*
X96567388Y-84757187D01*
X96700503Y-84545336D02*
X96710000Y-84461051D01*
X96710000Y-83390177D02*
X96713710Y-83357244D01*
X96724656Y-83325963D02*
X96742288Y-83297901D01*
X96742288Y-83297901D02*
X96765723Y-83274466D01*
X96765723Y-83274466D02*
X96793785Y-83256834D01*
X96793785Y-83256834D02*
X96825066Y-83245888D01*
X96950276Y-83274466D02*
X96973711Y-83297901D01*
X96991343Y-83325963D02*
X97002289Y-83357244D01*
X97002289Y-83357244D02*
X97006000Y-83390177D01*
X97006000Y-83390177D02*
X97006000Y-83562229D01*
X98889000Y-84064000D02*
X99114000Y-84064000D01*
X97006000Y-83562229D02*
X97015496Y-83646514D01*
X97015496Y-83646514D02*
X97043510Y-83726572D01*
X97043510Y-83726572D02*
X97088635Y-83798389D01*
X97088635Y-83798389D02*
X97148611Y-83858365D01*
X97220428Y-83903490D02*
X97300486Y-83931504D01*
X97384771Y-83941000D02*
X98766000Y-83941000D01*
X94100000Y-80750000D02*
X94110400Y-80750000D01*
X96083837Y-82102795D02*
X96109459Y-82090456D01*
X98889000Y-82564000D02*
X99114000Y-82564000D01*
X94483400Y-81123000D02*
X96034604Y-81123000D01*
X96034604Y-81123000D02*
X96124567Y-81212962D01*
X94110400Y-80750000D02*
X94483400Y-81123000D01*
X97350247Y-81665173D02*
X97366842Y-81737878D01*
X96174688Y-81275811D02*
X96209566Y-81348238D01*
X96124567Y-81212962D02*
X96174688Y-81275811D01*
X97366842Y-81737878D02*
X97366841Y-81812452D01*
X96227454Y-81426609D02*
X96227454Y-81506996D01*
X97366841Y-81812452D02*
X97350246Y-81885157D01*
X97350246Y-81885157D02*
X97317889Y-81952346D01*
X96209566Y-81348238D02*
X96227454Y-81426609D01*
X96227454Y-81506996D02*
X96209566Y-81585368D01*
X97317889Y-81952346D02*
X97271394Y-82010652D01*
X96209566Y-81585368D02*
X96174688Y-81657794D01*
X96174688Y-81657794D02*
X96124567Y-81720643D01*
X96124567Y-81720643D02*
X95952089Y-81893120D01*
X97271394Y-82010652D02*
X97256952Y-82025094D01*
X95934358Y-81915355D02*
X95922018Y-81940977D01*
X95952089Y-81893120D02*
X95934358Y-81915355D01*
X97256952Y-82025094D02*
X97167147Y-82114896D01*
X97167147Y-82114896D02*
X97153262Y-82132307D01*
X95922018Y-81940977D02*
X95915690Y-81968703D01*
X95915690Y-81968703D02*
X95915690Y-81997142D01*
X95915690Y-81997142D02*
X95922018Y-82024868D01*
X97153262Y-82132307D02*
X97143599Y-82152372D01*
X97143599Y-82152372D02*
X97138645Y-82174085D01*
X95922018Y-82024868D02*
X95934358Y-82050491D01*
X97138645Y-82174085D02*
X97138645Y-82196355D01*
X95934358Y-82050491D02*
X95952089Y-82072725D01*
X97138645Y-82196355D02*
X97143599Y-82218066D01*
X95952089Y-82072725D02*
X95974323Y-82090456D01*
X97143599Y-82218066D02*
X97153262Y-82238131D01*
X95974323Y-82090456D02*
X95999946Y-82102795D01*
X97153262Y-82238131D02*
X97167147Y-82255542D01*
X95999946Y-82102795D02*
X96027672Y-82109123D01*
X96056111Y-82109123D02*
X96083837Y-82102795D01*
X96027672Y-82109123D02*
X96056111Y-82109123D01*
X97167147Y-82255542D02*
X97598604Y-82687000D01*
X97598604Y-82687000D02*
X98766000Y-82687000D01*
X98766000Y-82687000D02*
X98889000Y-82564000D01*
X96109459Y-82090456D02*
X96131694Y-82072725D01*
X96131694Y-82072725D02*
X96732579Y-81471837D01*
X96732579Y-81471837D02*
X96790883Y-81425341D01*
X96790883Y-81425341D02*
X96858074Y-81392985D01*
X97078058Y-81392984D02*
X97145247Y-81425341D01*
X97271393Y-81539678D02*
X97317890Y-81597984D01*
X96858074Y-81392985D02*
X96930778Y-81376390D01*
X96930778Y-81376390D02*
X97005354Y-81376391D01*
X97005354Y-81376391D02*
X97078058Y-81392984D01*
X97145247Y-81425341D02*
X97203551Y-81471836D01*
X97203551Y-81471836D02*
X97271393Y-81539678D01*
X97317890Y-81597984D02*
X97350247Y-81665173D01*
X96897742Y-81665884D02*
X96915153Y-81651998D01*
X96082085Y-82370784D02*
X96160456Y-82352896D01*
X94100000Y-81750000D02*
X94100000Y-81744200D01*
X94100000Y-81744200D02*
X94467200Y-81377000D01*
X95923326Y-82352896D02*
X96001698Y-82370784D01*
X94467200Y-81377000D02*
X95929395Y-81377000D01*
X96915153Y-81651998D02*
X96935218Y-81642336D01*
X95929395Y-81377000D02*
X95947126Y-81399235D01*
X95947126Y-81399235D02*
X95959466Y-81424857D01*
X95959466Y-81424857D02*
X95965794Y-81452583D01*
X95965794Y-81452583D02*
X95965794Y-81481022D01*
X96956929Y-81637380D02*
X96979199Y-81637380D01*
X96935218Y-81642336D02*
X96956929Y-81637380D01*
X95965794Y-81481022D02*
X95959466Y-81508748D01*
X95959466Y-81508748D02*
X95947126Y-81534371D01*
X96979199Y-81637380D02*
X97000912Y-81642336D01*
X95947126Y-81534371D02*
X95929395Y-81556605D01*
X95929395Y-81556605D02*
X95756917Y-81729082D01*
X97000912Y-81642336D02*
X97020977Y-81651999D01*
X95756917Y-81729082D02*
X95706796Y-81791931D01*
X97020977Y-81651999D02*
X97038388Y-81665884D01*
X95671918Y-81864358D02*
X95654030Y-81942729D01*
X97077346Y-81704842D02*
X97091230Y-81722253D01*
X97091230Y-81722253D02*
X97100893Y-81742318D01*
X97100893Y-81742318D02*
X97105850Y-81764030D01*
X95706796Y-81791931D02*
X95671918Y-81864358D01*
X97038388Y-81665884D02*
X97077346Y-81704842D01*
X95654030Y-81942729D02*
X95654030Y-82023116D01*
X95654030Y-82023116D02*
X95671918Y-82101488D01*
X95671918Y-82101488D02*
X95706796Y-82173914D01*
X95756917Y-82236763D02*
X95788051Y-82267897D01*
X95706796Y-82173914D02*
X95756917Y-82236763D01*
X97105850Y-81764030D02*
X97105849Y-81786300D01*
X95788051Y-82267897D02*
X95850900Y-82318017D01*
X95850900Y-82318017D02*
X95923326Y-82352896D01*
X96001698Y-82370784D02*
X96082085Y-82370784D01*
X97091231Y-81828077D02*
X97077345Y-81845488D01*
X97077345Y-81845488D02*
X96973101Y-81949733D01*
X96973101Y-81949733D02*
X96926604Y-82008038D01*
X96160456Y-82352896D02*
X96232882Y-82318017D01*
X96232882Y-82318017D02*
X96295732Y-82267897D01*
X96295732Y-82267897D02*
X96897742Y-81665884D01*
X97105849Y-81786300D02*
X97100894Y-81808012D01*
X97100894Y-81808012D02*
X97091231Y-81828077D01*
X96926604Y-82008038D02*
X96894246Y-82075227D01*
X96894246Y-82075227D02*
X96877653Y-82147933D01*
X96877653Y-82147933D02*
X96877653Y-82222507D01*
X96877653Y-82222507D02*
X96894246Y-82295211D01*
X96894246Y-82295211D02*
X96926604Y-82362402D01*
X96926604Y-82362402D02*
X96973101Y-82420707D01*
X96973101Y-82420707D02*
X97493396Y-82941000D01*
X97493396Y-82941000D02*
X98766000Y-82941000D01*
X98766000Y-82941000D02*
X98889000Y-83064000D01*
X98889000Y-83064000D02*
X99114000Y-83064000D01*
X94107000Y-78500000D02*
X94121000Y-78500000D01*
X94121000Y-78500000D02*
X94490501Y-78869501D01*
X94490501Y-78869501D02*
X95432105Y-78869501D01*
X95432105Y-78869501D02*
X95683604Y-79121001D01*
X95683604Y-79121001D02*
X95709515Y-79141663D01*
X95709515Y-79141663D02*
X95739373Y-79156042D01*
X95739373Y-79156042D02*
X95771684Y-79163417D01*
X95771684Y-79163417D02*
X95804826Y-79163417D01*
X95837137Y-79156043D02*
X95866997Y-79141663D01*
X95804826Y-79163417D02*
X95837137Y-79156043D01*
X95866997Y-79141663D02*
X95892908Y-79121000D01*
X95892908Y-79121000D02*
X96202435Y-78811470D01*
X96202435Y-78811470D02*
X96268748Y-78758587D01*
X96268748Y-78758587D02*
X96345167Y-78721787D01*
X96345167Y-78721787D02*
X96427857Y-78702912D01*
X96427857Y-78702912D02*
X96512675Y-78702912D01*
X96512675Y-78702912D02*
X96595367Y-78721787D01*
X96595367Y-78721787D02*
X96671784Y-78758587D01*
X96671784Y-78758587D02*
X96738097Y-78811470D01*
X96738097Y-78811470D02*
X96770947Y-78844320D01*
X96770947Y-78844320D02*
X96823830Y-78910633D01*
X96860632Y-78987052D02*
X96879505Y-79069743D01*
X96823830Y-78910633D02*
X96860632Y-78987052D01*
X96879505Y-79069743D02*
X96879505Y-79154561D01*
X96879505Y-79154561D02*
X96860632Y-79237252D01*
X96860632Y-79237252D02*
X96823830Y-79313669D01*
X96823830Y-79313669D02*
X96770947Y-79379982D01*
X96461419Y-79689511D02*
X96440754Y-79715421D01*
X96770947Y-79379982D02*
X96461419Y-79689511D01*
X96426376Y-79745282D02*
X96419001Y-79777593D01*
X96440754Y-79715421D02*
X96426376Y-79745282D01*
X96419001Y-79777593D02*
X96419000Y-79810733D01*
X96419000Y-79810733D02*
X96426375Y-79843044D01*
X96426375Y-79843044D02*
X96440755Y-79872905D01*
X96440755Y-79872905D02*
X96461421Y-79898817D01*
X96461421Y-79898817D02*
X98249604Y-81687000D01*
X98249604Y-81687000D02*
X98466000Y-81687000D01*
X98466000Y-81687000D02*
X98589000Y-81564000D01*
X98589000Y-81564000D02*
X98786395Y-81564000D01*
X98786395Y-81564000D02*
X99114000Y-81564000D01*
X96175707Y-79669063D02*
X96156832Y-79751753D01*
X98466000Y-81941000D02*
X98589000Y-82064000D01*
X96574920Y-79216804D02*
X96265390Y-79526331D01*
X96609963Y-79161033D02*
X96595582Y-79190891D01*
X96421386Y-78972456D02*
X96453697Y-78965081D01*
X95586738Y-79369912D02*
X95663155Y-79406712D01*
X96519148Y-78972455D02*
X96549009Y-78986835D01*
X96156832Y-79751753D02*
X96156832Y-79836571D01*
X96156832Y-79836571D02*
X96175707Y-79919263D01*
X96574919Y-79007498D02*
X96595582Y-79033409D01*
X96617336Y-79095579D02*
X96617336Y-79128721D01*
X96453697Y-78965081D02*
X96486837Y-78965080D01*
X95989774Y-79369912D02*
X96056087Y-79317029D01*
X95830664Y-79425585D02*
X95913355Y-79406712D01*
X96265390Y-80061993D02*
X98144396Y-81941000D01*
X96609963Y-79063269D02*
X96617336Y-79095579D01*
X94100000Y-79500000D02*
X94476501Y-79123499D01*
X98786395Y-82064000D02*
X99114000Y-82064000D01*
X94476501Y-79123499D02*
X95326895Y-79123499D01*
X96391525Y-78986834D02*
X96421386Y-78972456D01*
X95326895Y-79123499D02*
X95520425Y-79317029D01*
X95520425Y-79317029D02*
X95586738Y-79369912D01*
X96365615Y-79007499D02*
X96391525Y-78986834D01*
X95663155Y-79406712D02*
X95745846Y-79425585D01*
X95745846Y-79425585D02*
X95830664Y-79425585D01*
X96595582Y-79033409D02*
X96609963Y-79063269D01*
X95913355Y-79406712D02*
X95989774Y-79369912D01*
X96056087Y-79317029D02*
X96072511Y-79300602D01*
X96072511Y-79300602D02*
X96365615Y-79007499D01*
X96486837Y-78965080D02*
X96519148Y-78972455D01*
X96212507Y-79995680D02*
X96265390Y-80061993D01*
X96549009Y-78986835D02*
X96574919Y-79007498D01*
X96617336Y-79128721D02*
X96609963Y-79161033D01*
X96595582Y-79190891D02*
X96574920Y-79216804D01*
X96265390Y-79526331D02*
X96212507Y-79592644D01*
X96212507Y-79592644D02*
X96175707Y-79669063D01*
X96175707Y-79919263D02*
X96212507Y-79995680D01*
X98144396Y-81941000D02*
X98466000Y-81941000D01*
X98589000Y-82064000D02*
X98786395Y-82064000D01*
X97917000Y-78433396D02*
X96103105Y-76619501D01*
X96103105Y-76619501D02*
X94476501Y-76619501D01*
X94476501Y-76619501D02*
X94107000Y-76250000D01*
X97917000Y-80062898D02*
X97917000Y-78433396D01*
X98541102Y-80687000D02*
X97917000Y-80062898D01*
X99114000Y-80564000D02*
X98889000Y-80564000D01*
X98889000Y-80564000D02*
X98766000Y-80687000D01*
X98766000Y-80687000D02*
X98541102Y-80687000D01*
X99114000Y-81064000D02*
X98889000Y-81064000D01*
X98889000Y-81064000D02*
X98766000Y-80941000D01*
X98766000Y-80941000D02*
X98435894Y-80941000D01*
X98435894Y-80941000D02*
X97663000Y-80168106D01*
X97663000Y-80168106D02*
X97663000Y-78562200D01*
X97663000Y-78562200D02*
X95986600Y-76885800D01*
X95986600Y-76885800D02*
X94464200Y-76885800D01*
X94464200Y-76885800D02*
X94100000Y-77250000D01*
D26*
G36*
X121873000Y-75206382D02*
X121834026Y-75010447D01*
X121568046Y-74612380D01*
X121169979Y-74346400D01*
X120700426Y-74253000D01*
X120091574Y-74253000D01*
X119622021Y-74346400D01*
X119223954Y-74612380D01*
X118957974Y-75010447D01*
X118864574Y-75480000D01*
X118957974Y-75949553D01*
X119223954Y-76347620D01*
X119622021Y-76613600D01*
X120091574Y-76707000D01*
X120700426Y-76707000D01*
X121169979Y-76613600D01*
X121568046Y-76347620D01*
X121834026Y-75949553D01*
X121873000Y-75753618D01*
X121873000Y-91206382D01*
X121834026Y-91010447D01*
X121568046Y-90612380D01*
X121169979Y-90346400D01*
X120700426Y-90253000D01*
X120091574Y-90253000D01*
X119622021Y-90346400D01*
X119223954Y-90612380D01*
X118957974Y-91010447D01*
X118864574Y-91480000D01*
X118957974Y-91949553D01*
X119223954Y-92347620D01*
X119622021Y-92613600D01*
X120091574Y-92707000D01*
X120700426Y-92707000D01*
X121169979Y-92613600D01*
X121568046Y-92347620D01*
X121834026Y-91949553D01*
X121873000Y-91753618D01*
X121873000Y-112873000D01*
X80802000Y-112873000D01*
X80802000Y-109747665D01*
X83120811Y-109747665D01*
X83286252Y-110148063D01*
X83592326Y-110454671D01*
X83992434Y-110620811D01*
X84425665Y-110621189D01*
X84826063Y-110455748D01*
X85132671Y-110149674D01*
X85201465Y-109984000D01*
X85758463Y-109984000D01*
X85826252Y-110148063D01*
X86132326Y-110454671D01*
X86532434Y-110620811D01*
X86965665Y-110621189D01*
X87366063Y-110455748D01*
X87672671Y-110149674D01*
X87838811Y-109749566D01*
X87839189Y-109316335D01*
X87673748Y-108915937D01*
X87367674Y-108609329D01*
X86967566Y-108443189D01*
X86534335Y-108442811D01*
X86133937Y-108608252D01*
X85827329Y-108914326D01*
X85758535Y-109080000D01*
X85201537Y-109080000D01*
X85133748Y-108915937D01*
X84827674Y-108609329D01*
X84427566Y-108443189D01*
X83994335Y-108442811D01*
X83593937Y-108608252D01*
X83287329Y-108914326D01*
X83121189Y-109314434D01*
X83120811Y-109747665D01*
X80802000Y-109747665D01*
X80802000Y-107735401D01*
X83499126Y-107735401D01*
X83576108Y-107903606D01*
X83973218Y-108076794D01*
X84406375Y-108084832D01*
X84809636Y-107926496D01*
X84843892Y-107903606D01*
X84920874Y-107735401D01*
X86039126Y-107735401D01*
X86116108Y-107903606D01*
X86513218Y-108076794D01*
X86946375Y-108084832D01*
X87349636Y-107926496D01*
X87383892Y-107903606D01*
X87460874Y-107735401D01*
X86750000Y-107024527D01*
X86039126Y-107735401D01*
X84920874Y-107735401D01*
X84210000Y-107024527D01*
X83499126Y-107735401D01*
X80802000Y-107735401D01*
X80802000Y-107188375D01*
X83117168Y-107188375D01*
X83275504Y-107591636D01*
X83298394Y-107625892D01*
X83466599Y-107702874D01*
X84177473Y-106992000D01*
X84242527Y-106992000D01*
X84953401Y-107702874D01*
X85121606Y-107625892D01*
X85294794Y-107228782D01*
X85295543Y-107188375D01*
X85657168Y-107188375D01*
X85815504Y-107591636D01*
X85838394Y-107625892D01*
X86006599Y-107702874D01*
X86717473Y-106992000D01*
X86782527Y-106992000D01*
X87493401Y-107702874D01*
X87661606Y-107625892D01*
X87834794Y-107228782D01*
X87842832Y-106795625D01*
X87684496Y-106392364D01*
X87661606Y-106358108D01*
X87493401Y-106281126D01*
X86782527Y-106992000D01*
X86717473Y-106992000D01*
X86006599Y-106281126D01*
X85838394Y-106358108D01*
X85665206Y-106755218D01*
X85657168Y-107188375D01*
X85295543Y-107188375D01*
X85302832Y-106795625D01*
X85144496Y-106392364D01*
X85121606Y-106358108D01*
X84953401Y-106281126D01*
X84242527Y-106992000D01*
X84177473Y-106992000D01*
X83466599Y-106281126D01*
X83298394Y-106358108D01*
X83125206Y-106755218D01*
X83117168Y-107188375D01*
X80802000Y-107188375D01*
X80802000Y-106248599D01*
X83499126Y-106248599D01*
X84210000Y-106959473D01*
X84920874Y-106248599D01*
X86039126Y-106248599D01*
X86750000Y-106959473D01*
X87460874Y-106248599D01*
X87383892Y-106080394D01*
X86986782Y-105907206D01*
X86553625Y-105899168D01*
X86150364Y-106057504D01*
X86116108Y-106080394D01*
X86039126Y-106248599D01*
X84920874Y-106248599D01*
X84843892Y-106080394D01*
X84446782Y-105907206D01*
X84013625Y-105899168D01*
X83610364Y-106057504D01*
X83576108Y-106080394D01*
X83499126Y-106248599D01*
X80802000Y-106248599D01*
X80802000Y-105404501D01*
X82789001Y-105404501D01*
X82818726Y-105553939D01*
X82903376Y-105680626D01*
X83030063Y-105765276D01*
X83179501Y-105795001D01*
X85797499Y-105795001D01*
X85946937Y-105765276D01*
X86073624Y-105680626D01*
X86128381Y-105625869D01*
X107296700Y-105625869D01*
X107384358Y-105838017D01*
X107546529Y-106000471D01*
X107758524Y-106088500D01*
X107988069Y-106088700D01*
X108200217Y-106001042D01*
X108237724Y-105963600D01*
X110938722Y-105963600D01*
X110975529Y-106000471D01*
X111187524Y-106088500D01*
X111417069Y-106088700D01*
X111629217Y-106001042D01*
X111666724Y-105963600D01*
X116048413Y-105963600D01*
X116209524Y-106030500D01*
X116439069Y-106030700D01*
X116651217Y-105943042D01*
X116813671Y-105780871D01*
X116901700Y-105568876D01*
X116901900Y-105339331D01*
X116814242Y-105127183D01*
X116652071Y-104964729D01*
X116440076Y-104876700D01*
X116210531Y-104876500D01*
X115998383Y-104964158D01*
X115902774Y-105059600D01*
X111666878Y-105059600D01*
X111630071Y-105022729D01*
X111418076Y-104934700D01*
X111188531Y-104934500D01*
X110976383Y-105022158D01*
X110938876Y-105059600D01*
X108237878Y-105059600D01*
X108201071Y-105022729D01*
X107989076Y-104934700D01*
X107759531Y-104934500D01*
X107547383Y-105022158D01*
X107384929Y-105184329D01*
X107296900Y-105396324D01*
X107296700Y-105625869D01*
X86128381Y-105625869D01*
X86307034Y-105447216D01*
X86532434Y-105540811D01*
X86965665Y-105541189D01*
X87366063Y-105375748D01*
X87672671Y-105069674D01*
X87838811Y-104669566D01*
X87839189Y-104236335D01*
X87673748Y-103835937D01*
X87479650Y-103641500D01*
X92125800Y-103641500D01*
X92275238Y-103611775D01*
X92401925Y-103527125D01*
X94590271Y-101338779D01*
X94729269Y-101338900D01*
X94941417Y-101251242D01*
X95103871Y-101089071D01*
X95191900Y-100877076D01*
X95192100Y-100647531D01*
X95104442Y-100435383D01*
X94942271Y-100272929D01*
X94730276Y-100184900D01*
X94500731Y-100184700D01*
X94288583Y-100272358D01*
X94126129Y-100434529D01*
X94038100Y-100646524D01*
X94037978Y-100786572D01*
X91964050Y-102860500D01*
X87306159Y-102860500D01*
X87366063Y-102835748D01*
X87672671Y-102529674D01*
X87838811Y-102129566D01*
X87839189Y-101696335D01*
X87745254Y-101468996D01*
X89786977Y-99427273D01*
X89836552Y-99394148D01*
X92091534Y-97139166D01*
X116226684Y-97139166D01*
X116376122Y-97109441D01*
X116502809Y-97024791D01*
X118693465Y-94834135D01*
X118778115Y-94707448D01*
X118807840Y-94558010D01*
X118807840Y-73441215D01*
X118778115Y-73291777D01*
X118693465Y-73165090D01*
X117255309Y-71726934D01*
X117128622Y-71642284D01*
X116979184Y-71612559D01*
X104204016Y-71612559D01*
X104054578Y-71642284D01*
X103927891Y-71726934D01*
X99987875Y-75666950D01*
X99903225Y-75793637D01*
X99873500Y-75943075D01*
X99873500Y-75949404D01*
X99775129Y-76047604D01*
X99687100Y-76259599D01*
X99686900Y-76489144D01*
X99774558Y-76701292D01*
X99873500Y-76800407D01*
X99873500Y-77316708D01*
X99841217Y-77238770D01*
X99749231Y-77146783D01*
X99629045Y-77097000D01*
X99418750Y-77097000D01*
X99337000Y-77178750D01*
X99337000Y-77701000D01*
X99357000Y-77701000D01*
X99357000Y-77747000D01*
X99337000Y-77747000D01*
X99337000Y-77767000D01*
X99291000Y-77767000D01*
X99291000Y-77747000D01*
X98818750Y-77747000D01*
X98737000Y-77828750D01*
X98737000Y-78089044D01*
X98786783Y-78209230D01*
X98850412Y-78272859D01*
X98831526Y-78285012D01*
X98756862Y-78394286D01*
X98730594Y-78524000D01*
X98730594Y-79124000D01*
X98753395Y-79245179D01*
X98825012Y-79356474D01*
X98862000Y-79381747D01*
X98862000Y-79392973D01*
X98860583Y-79393558D01*
X98698129Y-79555729D01*
X98610100Y-79767724D01*
X98609900Y-79997269D01*
X98662547Y-80124683D01*
X98642821Y-80128395D01*
X98577062Y-80170710D01*
X98307500Y-79901148D01*
X98307500Y-78433396D01*
X98277775Y-78283958D01*
X98193125Y-78157271D01*
X97394810Y-77358956D01*
X98737000Y-77358956D01*
X98737000Y-77619250D01*
X98818750Y-77701000D01*
X99291000Y-77701000D01*
X99291000Y-77178750D01*
X99209250Y-77097000D01*
X98998955Y-77097000D01*
X98878769Y-77146783D01*
X98786783Y-77238770D01*
X98737000Y-77358956D01*
X97394810Y-77358956D01*
X96379230Y-76343376D01*
X96252543Y-76258726D01*
X96103105Y-76229001D01*
X94740406Y-76229001D01*
X94740406Y-76000000D01*
X94717605Y-75878821D01*
X94645988Y-75767526D01*
X94536714Y-75692862D01*
X94407000Y-75666594D01*
X93807000Y-75666594D01*
X93685821Y-75689395D01*
X93574526Y-75761012D01*
X93557670Y-75785681D01*
X93545988Y-75767526D01*
X93436714Y-75692862D01*
X93307000Y-75666594D01*
X92707000Y-75666594D01*
X92585821Y-75689395D01*
X92474526Y-75761012D01*
X92399862Y-75870286D01*
X92373594Y-76000000D01*
X92373594Y-76207501D01*
X92366683Y-76207501D01*
X92363057Y-76181817D01*
X92340284Y-76116735D01*
X92317990Y-76078940D01*
X92302340Y-76037944D01*
X92265655Y-75979560D01*
X92235510Y-75947676D01*
X92211136Y-75911197D01*
X92162379Y-75862440D01*
X92125900Y-75838066D01*
X92094016Y-75807921D01*
X92035632Y-75771235D01*
X91994633Y-75755584D01*
X91956841Y-75733292D01*
X91891758Y-75710519D01*
X91848315Y-75704386D01*
X91806508Y-75691061D01*
X91737987Y-75683341D01*
X91715953Y-75685200D01*
X91694267Y-75680886D01*
X91548118Y-75680886D01*
X91526432Y-75685200D01*
X91504398Y-75683341D01*
X91435878Y-75691061D01*
X91394071Y-75704386D01*
X91350626Y-75710519D01*
X91285544Y-75733292D01*
X91247749Y-75755586D01*
X91206753Y-75771236D01*
X91148369Y-75807921D01*
X91116485Y-75838066D01*
X91113099Y-75840328D01*
X91109712Y-75838066D01*
X91077828Y-75807921D01*
X91019444Y-75771235D01*
X90978445Y-75755584D01*
X90940653Y-75733292D01*
X90875570Y-75710519D01*
X90832127Y-75704386D01*
X90790320Y-75691061D01*
X90721799Y-75683341D01*
X90699765Y-75685200D01*
X90678079Y-75680886D01*
X90531930Y-75680886D01*
X90510244Y-75685200D01*
X90488210Y-75683341D01*
X90419690Y-75691061D01*
X90377883Y-75704386D01*
X90334438Y-75710519D01*
X90269356Y-75733292D01*
X90231561Y-75755586D01*
X90190565Y-75771236D01*
X90132181Y-75807921D01*
X90100297Y-75838066D01*
X90097007Y-75840264D01*
X90093716Y-75838066D01*
X90061832Y-75807921D01*
X90003448Y-75771235D01*
X89962449Y-75755584D01*
X89924657Y-75733292D01*
X89859574Y-75710519D01*
X89816131Y-75704386D01*
X89774324Y-75691061D01*
X89705803Y-75683341D01*
X89683769Y-75685200D01*
X89662083Y-75680886D01*
X89515934Y-75680886D01*
X89494248Y-75685200D01*
X89472214Y-75683341D01*
X89403694Y-75691061D01*
X89361887Y-75704386D01*
X89318442Y-75710519D01*
X89253360Y-75733292D01*
X89215565Y-75755586D01*
X89174569Y-75771236D01*
X89116185Y-75807921D01*
X89084301Y-75838066D01*
X89047822Y-75862440D01*
X88999065Y-75911197D01*
X88974691Y-75947676D01*
X88944546Y-75979560D01*
X88907860Y-76037944D01*
X88892209Y-76078943D01*
X88869917Y-76116735D01*
X88847144Y-76181818D01*
X88843518Y-76207501D01*
X88782500Y-76207501D01*
X88782500Y-75385396D01*
X88752775Y-75235958D01*
X88668125Y-75109271D01*
X88397730Y-74838876D01*
X88271043Y-74754226D01*
X88121605Y-74724501D01*
X87925951Y-74724501D01*
X87845406Y-74643956D01*
X87845406Y-73210000D01*
X87822605Y-73088821D01*
X87750988Y-72977526D01*
X87641714Y-72902862D01*
X87512000Y-72876594D01*
X85988000Y-72876594D01*
X85866821Y-72899395D01*
X85755526Y-72971012D01*
X85680862Y-73080286D01*
X85654594Y-73210000D01*
X85654594Y-74734000D01*
X85655575Y-74739215D01*
X85581605Y-74724501D01*
X85411351Y-74724501D01*
X85174878Y-74488028D01*
X85298811Y-74189566D01*
X85299189Y-73756335D01*
X85133748Y-73355937D01*
X84827674Y-73049329D01*
X84427566Y-72883189D01*
X83994335Y-72882811D01*
X83593937Y-73048252D01*
X83287329Y-73354326D01*
X83121189Y-73754434D01*
X83120811Y-74187665D01*
X83286252Y-74588063D01*
X83592326Y-74894671D01*
X83992434Y-75060811D01*
X84425665Y-75061189D01*
X84579837Y-74997487D01*
X84876050Y-75293700D01*
X84652966Y-75516784D01*
X84427566Y-75423189D01*
X83994335Y-75422811D01*
X83593937Y-75588252D01*
X83287329Y-75894326D01*
X83121189Y-76294434D01*
X83120811Y-76727665D01*
X83286252Y-77128063D01*
X83592326Y-77434671D01*
X83992434Y-77600811D01*
X84425665Y-77601189D01*
X84826063Y-77435748D01*
X84960127Y-77301918D01*
X84983225Y-77418042D01*
X85067875Y-77544729D01*
X85777270Y-78254125D01*
X85853816Y-78305271D01*
X85903958Y-78338775D01*
X85919875Y-78341941D01*
X85827329Y-78434326D01*
X85661189Y-78834434D01*
X85660811Y-79267665D01*
X85826252Y-79668063D01*
X86132326Y-79974671D01*
X86532434Y-80140811D01*
X86965665Y-80141189D01*
X87029969Y-80114619D01*
X87204750Y-80289400D01*
X86984097Y-80510053D01*
X86967566Y-80503189D01*
X86534335Y-80502811D01*
X86242500Y-80623395D01*
X86242500Y-80465396D01*
X86212775Y-80315958D01*
X86128125Y-80189271D01*
X85857730Y-79918876D01*
X85731043Y-79834226D01*
X85581605Y-79804501D01*
X85514752Y-79804501D01*
X85205216Y-79494966D01*
X85298811Y-79269566D01*
X85299189Y-78836335D01*
X85133748Y-78435937D01*
X84827674Y-78129329D01*
X84427566Y-77963189D01*
X83994335Y-77962811D01*
X83593937Y-78128252D01*
X83287329Y-78434326D01*
X83121189Y-78834434D01*
X83120811Y-79267665D01*
X83286252Y-79668063D01*
X83592326Y-79974671D01*
X83992434Y-80140811D01*
X84425665Y-80141189D01*
X84653004Y-80047255D01*
X84927749Y-80322000D01*
X84652966Y-80596784D01*
X84427566Y-80503189D01*
X83994335Y-80502811D01*
X83593937Y-80668252D01*
X83287329Y-80974326D01*
X83121189Y-81374434D01*
X83120811Y-81807665D01*
X83286252Y-82208063D01*
X83592326Y-82514671D01*
X83992434Y-82680811D01*
X84425665Y-82681189D01*
X84826063Y-82515748D01*
X84902700Y-82439244D01*
X84902700Y-82651600D01*
X84932425Y-82801038D01*
X85017075Y-82927725D01*
X85423475Y-83334125D01*
X85550162Y-83418775D01*
X85699600Y-83448500D01*
X85946787Y-83448500D01*
X85838394Y-83498108D01*
X85665206Y-83895218D01*
X85657168Y-84328375D01*
X85815504Y-84731636D01*
X85838394Y-84765892D01*
X86006599Y-84842874D01*
X86717473Y-84132000D01*
X86703331Y-84117858D01*
X86735858Y-84085331D01*
X86750000Y-84099473D01*
X86764142Y-84085331D01*
X86796669Y-84117858D01*
X86782527Y-84132000D01*
X87493401Y-84842874D01*
X87661606Y-84765892D01*
X87834794Y-84368782D01*
X87842832Y-83935625D01*
X87684496Y-83532364D01*
X87661606Y-83498108D01*
X87553213Y-83448500D01*
X88281050Y-83448500D01*
X88735675Y-83903126D01*
X88798737Y-83945262D01*
X88862362Y-83987775D01*
X89011800Y-84017500D01*
X92015250Y-84017500D01*
X92273875Y-84276125D01*
X92385550Y-84350744D01*
X92389395Y-84371179D01*
X92461012Y-84482474D01*
X92570286Y-84557138D01*
X92700000Y-84583406D01*
X93300000Y-84583406D01*
X93421179Y-84560605D01*
X93532474Y-84488988D01*
X93549330Y-84464319D01*
X93561012Y-84482474D01*
X93670286Y-84557138D01*
X93800000Y-84583406D01*
X94400000Y-84583406D01*
X94521179Y-84560605D01*
X94632474Y-84488988D01*
X94707138Y-84379714D01*
X94712778Y-84351861D01*
X94826125Y-84276125D01*
X94963698Y-84138552D01*
X95042271Y-84217125D01*
X95168958Y-84301775D01*
X95318396Y-84331500D01*
X95515500Y-84331500D01*
X95515500Y-84461051D01*
X95519814Y-84482737D01*
X95517955Y-84504770D01*
X95527451Y-84589055D01*
X95540776Y-84630861D01*
X95546910Y-84674312D01*
X95574924Y-84754370D01*
X95597217Y-84792161D01*
X95612863Y-84833151D01*
X95657988Y-84904967D01*
X95688132Y-84936852D01*
X95712510Y-84973336D01*
X95772486Y-85033312D01*
X95808968Y-85057689D01*
X95840854Y-85087834D01*
X95912671Y-85132959D01*
X95953661Y-85148605D01*
X95991452Y-85170898D01*
X96071510Y-85198912D01*
X96114959Y-85205046D01*
X96156762Y-85218370D01*
X96241047Y-85227867D01*
X96263081Y-85226009D01*
X96284771Y-85230323D01*
X96331228Y-85230323D01*
X96352918Y-85226009D01*
X96374952Y-85227867D01*
X96459236Y-85218370D01*
X96501038Y-85205047D01*
X96544489Y-85198912D01*
X96624547Y-85170898D01*
X96662338Y-85148605D01*
X96703328Y-85132959D01*
X96775144Y-85087834D01*
X96807029Y-85057690D01*
X96843513Y-85033312D01*
X96903489Y-84973336D01*
X96927866Y-84936854D01*
X96958011Y-84904968D01*
X97003136Y-84833151D01*
X97008632Y-84818750D01*
X99312000Y-84818750D01*
X99312000Y-85129044D01*
X99361783Y-85249230D01*
X99453769Y-85341217D01*
X99573955Y-85391000D01*
X99659250Y-85391000D01*
X99741000Y-85309250D01*
X99741000Y-84737000D01*
X99393750Y-84737000D01*
X99312000Y-84818750D01*
X97008632Y-84818750D01*
X97018782Y-84792161D01*
X97041075Y-84754370D01*
X97069089Y-84674312D01*
X97075223Y-84630863D01*
X97088547Y-84589060D01*
X97098044Y-84504775D01*
X97096186Y-84482741D01*
X97100500Y-84461051D01*
X97100500Y-84275242D01*
X97171510Y-84300090D01*
X97214960Y-84306224D01*
X97256767Y-84319549D01*
X97341052Y-84329045D01*
X97363085Y-84327186D01*
X97384771Y-84331500D01*
X98467115Y-84331500D01*
X98525012Y-84421474D01*
X98634286Y-84496138D01*
X98764000Y-84522406D01*
X99312000Y-84522406D01*
X99312000Y-84609250D01*
X99393750Y-84691000D01*
X99741000Y-84691000D01*
X99741000Y-84671000D01*
X99787000Y-84671000D01*
X99787000Y-84691000D01*
X99805594Y-84691000D01*
X99805594Y-84737000D01*
X99787000Y-84737000D01*
X99787000Y-85309250D01*
X99868750Y-85391000D01*
X99954045Y-85391000D01*
X100006535Y-85369258D01*
X100009286Y-85371138D01*
X100139000Y-85397406D01*
X100373500Y-85397406D01*
X100373500Y-85492338D01*
X100276000Y-85472594D01*
X99876000Y-85472594D01*
X99754821Y-85495395D01*
X99643526Y-85567012D01*
X99625639Y-85593191D01*
X99561230Y-85528783D01*
X99441044Y-85479000D01*
X99280750Y-85479000D01*
X99199000Y-85560750D01*
X99199000Y-86083000D01*
X99219000Y-86083000D01*
X99219000Y-86129000D01*
X99199000Y-86129000D01*
X99199000Y-86651250D01*
X99280750Y-86733000D01*
X99441044Y-86733000D01*
X99561230Y-86683217D01*
X99624859Y-86619588D01*
X99637012Y-86638474D01*
X99746286Y-86713138D01*
X99876000Y-86739406D01*
X100276000Y-86739406D01*
X100397179Y-86716605D01*
X100506885Y-86646010D01*
X100595724Y-86682900D01*
X100773721Y-86683055D01*
X100762594Y-86738000D01*
X100762594Y-87338000D01*
X100785395Y-87459179D01*
X100857012Y-87570474D01*
X100883191Y-87588361D01*
X100818783Y-87652770D01*
X100769000Y-87772956D01*
X100769000Y-88033250D01*
X100850750Y-88115000D01*
X101323000Y-88115000D01*
X101323000Y-88095000D01*
X101369000Y-88095000D01*
X101369000Y-88115000D01*
X101841250Y-88115000D01*
X101923000Y-88033250D01*
X101923000Y-87772956D01*
X101873217Y-87652770D01*
X101809588Y-87589141D01*
X101828474Y-87576988D01*
X101903138Y-87467714D01*
X101929406Y-87338000D01*
X101929406Y-87114656D01*
X102974875Y-88160125D01*
X103101562Y-88244775D01*
X103251000Y-88274500D01*
X110826529Y-88274500D01*
X110924729Y-88372871D01*
X111136724Y-88460900D01*
X111366269Y-88461100D01*
X111578417Y-88373442D01*
X111740871Y-88211271D01*
X111828900Y-87999276D01*
X111829100Y-87769731D01*
X111741442Y-87557583D01*
X111579271Y-87395129D01*
X111448031Y-87340633D01*
X111448100Y-87261731D01*
X111360442Y-87049583D01*
X111198271Y-86887129D01*
X111152353Y-86868062D01*
X111197417Y-86849442D01*
X111359871Y-86687271D01*
X111447900Y-86475276D01*
X111447981Y-86382427D01*
X111600417Y-86319442D01*
X111762871Y-86157271D01*
X111850900Y-85945276D01*
X111851100Y-85715731D01*
X111763442Y-85503583D01*
X111601271Y-85341129D01*
X111389276Y-85253100D01*
X111159731Y-85252900D01*
X110947583Y-85340558D01*
X110848468Y-85439500D01*
X110639000Y-85439500D01*
X110489562Y-85469225D01*
X110362875Y-85553875D01*
X110201250Y-85715500D01*
X107950000Y-85715500D01*
X107800562Y-85745225D01*
X107673875Y-85829875D01*
X107470069Y-86033681D01*
X107361000Y-86011594D01*
X106761000Y-86011594D01*
X106639821Y-86034395D01*
X106569141Y-86079877D01*
X106448438Y-85999225D01*
X106299000Y-85969500D01*
X105513485Y-85969500D01*
X105529000Y-85932044D01*
X105529000Y-85771750D01*
X105447250Y-85690000D01*
X104925000Y-85690000D01*
X104925000Y-85710000D01*
X104879000Y-85710000D01*
X104879000Y-85690000D01*
X104356750Y-85690000D01*
X104275000Y-85771750D01*
X104275000Y-85932044D01*
X104290515Y-85969500D01*
X103278521Y-85969500D01*
X103340900Y-85819276D01*
X103341100Y-85589731D01*
X103261633Y-85397406D01*
X103389000Y-85397406D01*
X103510179Y-85374605D01*
X103621474Y-85302988D01*
X103696138Y-85193714D01*
X103714204Y-85104500D01*
X104301897Y-85104500D01*
X104363012Y-85199474D01*
X104389191Y-85217361D01*
X104324783Y-85281770D01*
X104275000Y-85401956D01*
X104275000Y-85562250D01*
X104356750Y-85644000D01*
X104879000Y-85644000D01*
X104879000Y-85624000D01*
X104925000Y-85624000D01*
X104925000Y-85644000D01*
X105447250Y-85644000D01*
X105529000Y-85562250D01*
X105529000Y-85401956D01*
X105479217Y-85281770D01*
X105415588Y-85218141D01*
X105434474Y-85205988D01*
X105509138Y-85096714D01*
X105535406Y-84967000D01*
X105535406Y-84567000D01*
X105512605Y-84445821D01*
X105483763Y-84400999D01*
X107672262Y-84400999D01*
X107673462Y-84409499D01*
X107695291Y-84471882D01*
X107717584Y-84509675D01*
X107733231Y-84550664D01*
X107768393Y-84606626D01*
X107798538Y-84638512D01*
X107822915Y-84674994D01*
X107869649Y-84721728D01*
X107906134Y-84746106D01*
X107938017Y-84776249D01*
X107993978Y-84811412D01*
X108034970Y-84827060D01*
X108072761Y-84849352D01*
X108135144Y-84871181D01*
X108178588Y-84877314D01*
X108220396Y-84890640D01*
X108286073Y-84898040D01*
X108308108Y-84896181D01*
X108329795Y-84900495D01*
X108501500Y-84900495D01*
X108523187Y-84896181D01*
X108545223Y-84898040D01*
X108610899Y-84890640D01*
X108652706Y-84877315D01*
X108696151Y-84871181D01*
X108758534Y-84849352D01*
X108796327Y-84827059D01*
X108837316Y-84811412D01*
X108893278Y-84776250D01*
X108925164Y-84746105D01*
X108961646Y-84721728D01*
X109008380Y-84674994D01*
X109032758Y-84638509D01*
X109062901Y-84606626D01*
X109098064Y-84550665D01*
X109113712Y-84509673D01*
X109136004Y-84471882D01*
X109157833Y-84409499D01*
X109159033Y-84400999D01*
X110710323Y-84400999D01*
X110762558Y-84527417D01*
X110924729Y-84689871D01*
X111136724Y-84777900D01*
X111366269Y-84778100D01*
X111578417Y-84690442D01*
X111740871Y-84528271D01*
X111828900Y-84316276D01*
X111829100Y-84086731D01*
X111745028Y-83883261D01*
X111828900Y-83681276D01*
X111829100Y-83451731D01*
X111741442Y-83239583D01*
X111623501Y-83121436D01*
X111740871Y-83004271D01*
X111828900Y-82792276D01*
X111829100Y-82562731D01*
X111745028Y-82359261D01*
X111828900Y-82157276D01*
X111829100Y-81927731D01*
X111741442Y-81715583D01*
X111623501Y-81597436D01*
X111740871Y-81480271D01*
X111828900Y-81268276D01*
X111829100Y-81038731D01*
X111745028Y-80835261D01*
X111828900Y-80633276D01*
X111829100Y-80403731D01*
X111741442Y-80191583D01*
X111623501Y-80073436D01*
X111740871Y-79956271D01*
X111828900Y-79744276D01*
X111829100Y-79514731D01*
X111745028Y-79311261D01*
X111828900Y-79109276D01*
X111829100Y-78879731D01*
X111741442Y-78667583D01*
X111579271Y-78505129D01*
X111367276Y-78417100D01*
X111137731Y-78416900D01*
X110925583Y-78504558D01*
X110763129Y-78666729D01*
X110710280Y-78794001D01*
X106182895Y-78794001D01*
X106033457Y-78823726D01*
X105906769Y-78908376D01*
X104602515Y-80212631D01*
X104588438Y-80203225D01*
X104461081Y-80177892D01*
X104397690Y-80134579D01*
X104412100Y-80099876D01*
X104412300Y-79870331D01*
X104324642Y-79658183D01*
X104162471Y-79495729D01*
X103950476Y-79407700D01*
X103720931Y-79407500D01*
X103686130Y-79421880D01*
X103654500Y-79372726D01*
X103654500Y-78403471D01*
X103752871Y-78305271D01*
X103840900Y-78093276D01*
X103841100Y-77863731D01*
X103753442Y-77651583D01*
X103654500Y-77552468D01*
X103654500Y-76080000D01*
X112318309Y-76080000D01*
X112411709Y-76549553D01*
X112677689Y-76947620D01*
X113075756Y-77213600D01*
X113545309Y-77307000D01*
X115326691Y-77307000D01*
X115796244Y-77213600D01*
X116194311Y-76947620D01*
X116460291Y-76549553D01*
X116553691Y-76080000D01*
X116460291Y-75610447D01*
X116194311Y-75212380D01*
X115796244Y-74946400D01*
X115326691Y-74853000D01*
X113545309Y-74853000D01*
X113075756Y-74946400D01*
X112677689Y-75212380D01*
X112411709Y-75610447D01*
X112318309Y-76080000D01*
X103654500Y-76080000D01*
X103654500Y-75555933D01*
X103719924Y-75583100D01*
X103949469Y-75583300D01*
X104161617Y-75495642D01*
X104324071Y-75333471D01*
X104412100Y-75121476D01*
X104412190Y-75017634D01*
X105040369Y-74389455D01*
X105092469Y-74389500D01*
X105304617Y-74301842D01*
X105467071Y-74139671D01*
X105555100Y-73927676D01*
X105555300Y-73698131D01*
X105541038Y-73663614D01*
X116291364Y-73663614D01*
X116756785Y-74129035D01*
X116756785Y-84279464D01*
X116694442Y-84128583D01*
X116532271Y-83966129D01*
X116320276Y-83878100D01*
X116090731Y-83877900D01*
X115878583Y-83965558D01*
X115716129Y-84127729D01*
X115628100Y-84339724D01*
X115627900Y-84569269D01*
X115715558Y-84781417D01*
X115877729Y-84943871D01*
X116089724Y-85031900D01*
X116229772Y-85032022D01*
X116502774Y-85305025D01*
X116502774Y-90624023D01*
X116460291Y-90410447D01*
X116194311Y-90012380D01*
X115796244Y-89746400D01*
X115326691Y-89653000D01*
X113545309Y-89653000D01*
X113075756Y-89746400D01*
X112677689Y-90012380D01*
X112411709Y-90410447D01*
X112318309Y-90880000D01*
X112411709Y-91349553D01*
X112677689Y-91747620D01*
X113075756Y-92013600D01*
X113545309Y-92107000D01*
X115326691Y-92107000D01*
X115796244Y-92013600D01*
X116194311Y-91747620D01*
X116460291Y-91349553D01*
X116502774Y-91135977D01*
X116502774Y-93764976D01*
X115433650Y-94834100D01*
X86397711Y-94834100D01*
X86409074Y-94826788D01*
X86483738Y-94717514D01*
X86510006Y-94587800D01*
X86510006Y-93987800D01*
X86487205Y-93866621D01*
X86415588Y-93755326D01*
X86306314Y-93680662D01*
X86176600Y-93654394D01*
X85476600Y-93654394D01*
X85355421Y-93677195D01*
X85244126Y-93748812D01*
X85169462Y-93858086D01*
X85143194Y-93987800D01*
X85143194Y-94587800D01*
X85165995Y-94708979D01*
X85237612Y-94820274D01*
X85346886Y-94894938D01*
X85436100Y-94913004D01*
X85436100Y-95053650D01*
X84652966Y-95836784D01*
X84427566Y-95743189D01*
X83994335Y-95742811D01*
X83593937Y-95908252D01*
X83287329Y-96214326D01*
X83121189Y-96614434D01*
X83120811Y-97047665D01*
X83286252Y-97448063D01*
X83592326Y-97754671D01*
X83785262Y-97834786D01*
X82908875Y-98711173D01*
X82824225Y-98837860D01*
X82794500Y-98987298D01*
X82794500Y-100887000D01*
X82824225Y-101036438D01*
X82908875Y-101163125D01*
X83214784Y-101469034D01*
X83121189Y-101694434D01*
X83120811Y-102127665D01*
X83286252Y-102528063D01*
X83592326Y-102834671D01*
X83785262Y-102914786D01*
X82908875Y-103791173D01*
X82824225Y-103917860D01*
X82794500Y-104067298D01*
X82794500Y-105376856D01*
X82789001Y-105404501D01*
X80802000Y-105404501D01*
X80802000Y-91909869D01*
X83776300Y-91909869D01*
X83863958Y-92122017D01*
X84026129Y-92284471D01*
X84238124Y-92372500D01*
X84467669Y-92372700D01*
X84520797Y-92350748D01*
X84596886Y-92402738D01*
X84726600Y-92429006D01*
X85126600Y-92429006D01*
X85198586Y-92415461D01*
X85169462Y-92458086D01*
X85143194Y-92587800D01*
X85143194Y-93187800D01*
X85165995Y-93308979D01*
X85237612Y-93420274D01*
X85346886Y-93494938D01*
X85476600Y-93521206D01*
X86176600Y-93521206D01*
X86297779Y-93498405D01*
X86409074Y-93426788D01*
X86483738Y-93317514D01*
X86510006Y-93187800D01*
X86510006Y-92587800D01*
X86487205Y-92466621D01*
X86415588Y-92355326D01*
X86306314Y-92280662D01*
X86297184Y-92278813D01*
X86333738Y-92225314D01*
X86360006Y-92095600D01*
X86360006Y-91495600D01*
X86337205Y-91374421D01*
X86265588Y-91263126D01*
X86156314Y-91188462D01*
X86026600Y-91162194D01*
X85626600Y-91162194D01*
X85505421Y-91184995D01*
X85394126Y-91256612D01*
X85377270Y-91281281D01*
X85365588Y-91263126D01*
X85256314Y-91188462D01*
X85126600Y-91162194D01*
X84726600Y-91162194D01*
X84605421Y-91184995D01*
X84519953Y-91239992D01*
X84468676Y-91218700D01*
X84239131Y-91218500D01*
X84026983Y-91306158D01*
X83864529Y-91468329D01*
X83776500Y-91680324D01*
X83776300Y-91909869D01*
X80802000Y-91909869D01*
X80802000Y-88242750D01*
X100769000Y-88242750D01*
X100769000Y-88503044D01*
X100818783Y-88623230D01*
X100910769Y-88715217D01*
X101030955Y-88765000D01*
X101241250Y-88765000D01*
X101323000Y-88683250D01*
X101323000Y-88161000D01*
X101369000Y-88161000D01*
X101369000Y-88683250D01*
X101450750Y-88765000D01*
X101661045Y-88765000D01*
X101781231Y-88715217D01*
X101873217Y-88623230D01*
X101923000Y-88503044D01*
X101923000Y-88242750D01*
X101841250Y-88161000D01*
X101369000Y-88161000D01*
X101323000Y-88161000D01*
X100850750Y-88161000D01*
X100769000Y-88242750D01*
X80802000Y-88242750D01*
X80802000Y-86887665D01*
X83120811Y-86887665D01*
X83286252Y-87288063D01*
X83592326Y-87594671D01*
X83992434Y-87760811D01*
X84425665Y-87761189D01*
X84826063Y-87595748D01*
X85132671Y-87289674D01*
X85201465Y-87124000D01*
X85758463Y-87124000D01*
X85826252Y-87288063D01*
X86132326Y-87594671D01*
X86532434Y-87760811D01*
X86965665Y-87761189D01*
X87366063Y-87595748D01*
X87672671Y-87289674D01*
X87838811Y-86889566D01*
X87839189Y-86456335D01*
X87737716Y-86210750D01*
X98649000Y-86210750D01*
X98649000Y-86471045D01*
X98698783Y-86591231D01*
X98790770Y-86683217D01*
X98910956Y-86733000D01*
X99071250Y-86733000D01*
X99153000Y-86651250D01*
X99153000Y-86129000D01*
X98730750Y-86129000D01*
X98649000Y-86210750D01*
X87737716Y-86210750D01*
X87673748Y-86055937D01*
X87367674Y-85749329D01*
X87347508Y-85740955D01*
X98649000Y-85740955D01*
X98649000Y-86001250D01*
X98730750Y-86083000D01*
X99153000Y-86083000D01*
X99153000Y-85560750D01*
X99071250Y-85479000D01*
X98910956Y-85479000D01*
X98790770Y-85528783D01*
X98698783Y-85620769D01*
X98649000Y-85740955D01*
X87347508Y-85740955D01*
X86967566Y-85583189D01*
X86534335Y-85582811D01*
X86133937Y-85748252D01*
X85827329Y-86054326D01*
X85758535Y-86220000D01*
X85201537Y-86220000D01*
X85133748Y-86055937D01*
X84827674Y-85749329D01*
X84427566Y-85583189D01*
X83994335Y-85582811D01*
X83593937Y-85748252D01*
X83287329Y-86054326D01*
X83121189Y-86454434D01*
X83120811Y-86887665D01*
X80802000Y-86887665D01*
X80802000Y-84875401D01*
X83499126Y-84875401D01*
X83576108Y-85043606D01*
X83973218Y-85216794D01*
X84406375Y-85224832D01*
X84809636Y-85066496D01*
X84843892Y-85043606D01*
X84920874Y-84875401D01*
X86039126Y-84875401D01*
X86116108Y-85043606D01*
X86513218Y-85216794D01*
X86946375Y-85224832D01*
X87349636Y-85066496D01*
X87383892Y-85043606D01*
X87460874Y-84875401D01*
X86750000Y-84164527D01*
X86039126Y-84875401D01*
X84920874Y-84875401D01*
X84210000Y-84164527D01*
X83499126Y-84875401D01*
X80802000Y-84875401D01*
X80802000Y-84328375D01*
X83117168Y-84328375D01*
X83275504Y-84731636D01*
X83298394Y-84765892D01*
X83466599Y-84842874D01*
X84177473Y-84132000D01*
X84242527Y-84132000D01*
X84953401Y-84842874D01*
X85121606Y-84765892D01*
X85294794Y-84368782D01*
X85302832Y-83935625D01*
X85144496Y-83532364D01*
X85121606Y-83498108D01*
X84953401Y-83421126D01*
X84242527Y-84132000D01*
X84177473Y-84132000D01*
X83466599Y-83421126D01*
X83298394Y-83498108D01*
X83125206Y-83895218D01*
X83117168Y-84328375D01*
X80802000Y-84328375D01*
X80802000Y-83388599D01*
X83499126Y-83388599D01*
X84210000Y-84099473D01*
X84920874Y-83388599D01*
X84843892Y-83220394D01*
X84446782Y-83047206D01*
X84013625Y-83039168D01*
X83610364Y-83197504D01*
X83576108Y-83220394D01*
X83499126Y-83388599D01*
X80802000Y-83388599D01*
X80802000Y-70627000D01*
X121873000Y-70627000D01*
X121873000Y-75206382D01*
X121873000Y-75206382D01*
G37*
X121873000Y-75206382D02*
X121834026Y-75010447D01*
X121568046Y-74612380D01*
X121169979Y-74346400D01*
X120700426Y-74253000D01*
X120091574Y-74253000D01*
X119622021Y-74346400D01*
X119223954Y-74612380D01*
X118957974Y-75010447D01*
X118864574Y-75480000D01*
X118957974Y-75949553D01*
X119223954Y-76347620D01*
X119622021Y-76613600D01*
X120091574Y-76707000D01*
X120700426Y-76707000D01*
X121169979Y-76613600D01*
X121568046Y-76347620D01*
X121834026Y-75949553D01*
X121873000Y-75753618D01*
X121873000Y-91206382D01*
X121834026Y-91010447D01*
X121568046Y-90612380D01*
X121169979Y-90346400D01*
X120700426Y-90253000D01*
X120091574Y-90253000D01*
X119622021Y-90346400D01*
X119223954Y-90612380D01*
X118957974Y-91010447D01*
X118864574Y-91480000D01*
X118957974Y-91949553D01*
X119223954Y-92347620D01*
X119622021Y-92613600D01*
X120091574Y-92707000D01*
X120700426Y-92707000D01*
X121169979Y-92613600D01*
X121568046Y-92347620D01*
X121834026Y-91949553D01*
X121873000Y-91753618D01*
X121873000Y-112873000D01*
X80802000Y-112873000D01*
X80802000Y-109747665D01*
X83120811Y-109747665D01*
X83286252Y-110148063D01*
X83592326Y-110454671D01*
X83992434Y-110620811D01*
X84425665Y-110621189D01*
X84826063Y-110455748D01*
X85132671Y-110149674D01*
X85201465Y-109984000D01*
X85758463Y-109984000D01*
X85826252Y-110148063D01*
X86132326Y-110454671D01*
X86532434Y-110620811D01*
X86965665Y-110621189D01*
X87366063Y-110455748D01*
X87672671Y-110149674D01*
X87838811Y-109749566D01*
X87839189Y-109316335D01*
X87673748Y-108915937D01*
X87367674Y-108609329D01*
X86967566Y-108443189D01*
X86534335Y-108442811D01*
X86133937Y-108608252D01*
X85827329Y-108914326D01*
X85758535Y-109080000D01*
X85201537Y-109080000D01*
X85133748Y-108915937D01*
X84827674Y-108609329D01*
X84427566Y-108443189D01*
X83994335Y-108442811D01*
X83593937Y-108608252D01*
X83287329Y-108914326D01*
X83121189Y-109314434D01*
X83120811Y-109747665D01*
X80802000Y-109747665D01*
X80802000Y-107735401D01*
X83499126Y-107735401D01*
X83576108Y-107903606D01*
X83973218Y-108076794D01*
X84406375Y-108084832D01*
X84809636Y-107926496D01*
X84843892Y-107903606D01*
X84920874Y-107735401D01*
X86039126Y-107735401D01*
X86116108Y-107903606D01*
X86513218Y-108076794D01*
X86946375Y-108084832D01*
X87349636Y-107926496D01*
X87383892Y-107903606D01*
X87460874Y-107735401D01*
X86750000Y-107024527D01*
X86039126Y-107735401D01*
X84920874Y-107735401D01*
X84210000Y-107024527D01*
X83499126Y-107735401D01*
X80802000Y-107735401D01*
X80802000Y-107188375D01*
X83117168Y-107188375D01*
X83275504Y-107591636D01*
X83298394Y-107625892D01*
X83466599Y-107702874D01*
X84177473Y-106992000D01*
X84242527Y-106992000D01*
X84953401Y-107702874D01*
X85121606Y-107625892D01*
X85294794Y-107228782D01*
X85295543Y-107188375D01*
X85657168Y-107188375D01*
X85815504Y-107591636D01*
X85838394Y-107625892D01*
X86006599Y-107702874D01*
X86717473Y-106992000D01*
X86782527Y-106992000D01*
X87493401Y-107702874D01*
X87661606Y-107625892D01*
X87834794Y-107228782D01*
X87842832Y-106795625D01*
X87684496Y-106392364D01*
X87661606Y-106358108D01*
X87493401Y-106281126D01*
X86782527Y-106992000D01*
X86717473Y-106992000D01*
X86006599Y-106281126D01*
X85838394Y-106358108D01*
X85665206Y-106755218D01*
X85657168Y-107188375D01*
X85295543Y-107188375D01*
X85302832Y-106795625D01*
X85144496Y-106392364D01*
X85121606Y-106358108D01*
X84953401Y-106281126D01*
X84242527Y-106992000D01*
X84177473Y-106992000D01*
X83466599Y-106281126D01*
X83298394Y-106358108D01*
X83125206Y-106755218D01*
X83117168Y-107188375D01*
X80802000Y-107188375D01*
X80802000Y-106248599D01*
X83499126Y-106248599D01*
X84210000Y-106959473D01*
X84920874Y-106248599D01*
X86039126Y-106248599D01*
X86750000Y-106959473D01*
X87460874Y-106248599D01*
X87383892Y-106080394D01*
X86986782Y-105907206D01*
X86553625Y-105899168D01*
X86150364Y-106057504D01*
X86116108Y-106080394D01*
X86039126Y-106248599D01*
X84920874Y-106248599D01*
X84843892Y-106080394D01*
X84446782Y-105907206D01*
X84013625Y-105899168D01*
X83610364Y-106057504D01*
X83576108Y-106080394D01*
X83499126Y-106248599D01*
X80802000Y-106248599D01*
X80802000Y-105404501D01*
X82789001Y-105404501D01*
X82818726Y-105553939D01*
X82903376Y-105680626D01*
X83030063Y-105765276D01*
X83179501Y-105795001D01*
X85797499Y-105795001D01*
X85946937Y-105765276D01*
X86073624Y-105680626D01*
X86128381Y-105625869D01*
X107296700Y-105625869D01*
X107384358Y-105838017D01*
X107546529Y-106000471D01*
X107758524Y-106088500D01*
X107988069Y-106088700D01*
X108200217Y-106001042D01*
X108237724Y-105963600D01*
X110938722Y-105963600D01*
X110975529Y-106000471D01*
X111187524Y-106088500D01*
X111417069Y-106088700D01*
X111629217Y-106001042D01*
X111666724Y-105963600D01*
X116048413Y-105963600D01*
X116209524Y-106030500D01*
X116439069Y-106030700D01*
X116651217Y-105943042D01*
X116813671Y-105780871D01*
X116901700Y-105568876D01*
X116901900Y-105339331D01*
X116814242Y-105127183D01*
X116652071Y-104964729D01*
X116440076Y-104876700D01*
X116210531Y-104876500D01*
X115998383Y-104964158D01*
X115902774Y-105059600D01*
X111666878Y-105059600D01*
X111630071Y-105022729D01*
X111418076Y-104934700D01*
X111188531Y-104934500D01*
X110976383Y-105022158D01*
X110938876Y-105059600D01*
X108237878Y-105059600D01*
X108201071Y-105022729D01*
X107989076Y-104934700D01*
X107759531Y-104934500D01*
X107547383Y-105022158D01*
X107384929Y-105184329D01*
X107296900Y-105396324D01*
X107296700Y-105625869D01*
X86128381Y-105625869D01*
X86307034Y-105447216D01*
X86532434Y-105540811D01*
X86965665Y-105541189D01*
X87366063Y-105375748D01*
X87672671Y-105069674D01*
X87838811Y-104669566D01*
X87839189Y-104236335D01*
X87673748Y-103835937D01*
X87479650Y-103641500D01*
X92125800Y-103641500D01*
X92275238Y-103611775D01*
X92401925Y-103527125D01*
X94590271Y-101338779D01*
X94729269Y-101338900D01*
X94941417Y-101251242D01*
X95103871Y-101089071D01*
X95191900Y-100877076D01*
X95192100Y-100647531D01*
X95104442Y-100435383D01*
X94942271Y-100272929D01*
X94730276Y-100184900D01*
X94500731Y-100184700D01*
X94288583Y-100272358D01*
X94126129Y-100434529D01*
X94038100Y-100646524D01*
X94037978Y-100786572D01*
X91964050Y-102860500D01*
X87306159Y-102860500D01*
X87366063Y-102835748D01*
X87672671Y-102529674D01*
X87838811Y-102129566D01*
X87839189Y-101696335D01*
X87745254Y-101468996D01*
X89786977Y-99427273D01*
X89836552Y-99394148D01*
X92091534Y-97139166D01*
X116226684Y-97139166D01*
X116376122Y-97109441D01*
X116502809Y-97024791D01*
X118693465Y-94834135D01*
X118778115Y-94707448D01*
X118807840Y-94558010D01*
X118807840Y-73441215D01*
X118778115Y-73291777D01*
X118693465Y-73165090D01*
X117255309Y-71726934D01*
X117128622Y-71642284D01*
X116979184Y-71612559D01*
X104204016Y-71612559D01*
X104054578Y-71642284D01*
X103927891Y-71726934D01*
X99987875Y-75666950D01*
X99903225Y-75793637D01*
X99873500Y-75943075D01*
X99873500Y-75949404D01*
X99775129Y-76047604D01*
X99687100Y-76259599D01*
X99686900Y-76489144D01*
X99774558Y-76701292D01*
X99873500Y-76800407D01*
X99873500Y-77316708D01*
X99841217Y-77238770D01*
X99749231Y-77146783D01*
X99629045Y-77097000D01*
X99418750Y-77097000D01*
X99337000Y-77178750D01*
X99337000Y-77701000D01*
X99357000Y-77701000D01*
X99357000Y-77747000D01*
X99337000Y-77747000D01*
X99337000Y-77767000D01*
X99291000Y-77767000D01*
X99291000Y-77747000D01*
X98818750Y-77747000D01*
X98737000Y-77828750D01*
X98737000Y-78089044D01*
X98786783Y-78209230D01*
X98850412Y-78272859D01*
X98831526Y-78285012D01*
X98756862Y-78394286D01*
X98730594Y-78524000D01*
X98730594Y-79124000D01*
X98753395Y-79245179D01*
X98825012Y-79356474D01*
X98862000Y-79381747D01*
X98862000Y-79392973D01*
X98860583Y-79393558D01*
X98698129Y-79555729D01*
X98610100Y-79767724D01*
X98609900Y-79997269D01*
X98662547Y-80124683D01*
X98642821Y-80128395D01*
X98577062Y-80170710D01*
X98307500Y-79901148D01*
X98307500Y-78433396D01*
X98277775Y-78283958D01*
X98193125Y-78157271D01*
X97394810Y-77358956D01*
X98737000Y-77358956D01*
X98737000Y-77619250D01*
X98818750Y-77701000D01*
X99291000Y-77701000D01*
X99291000Y-77178750D01*
X99209250Y-77097000D01*
X98998955Y-77097000D01*
X98878769Y-77146783D01*
X98786783Y-77238770D01*
X98737000Y-77358956D01*
X97394810Y-77358956D01*
X96379230Y-76343376D01*
X96252543Y-76258726D01*
X96103105Y-76229001D01*
X94740406Y-76229001D01*
X94740406Y-76000000D01*
X94717605Y-75878821D01*
X94645988Y-75767526D01*
X94536714Y-75692862D01*
X94407000Y-75666594D01*
X93807000Y-75666594D01*
X93685821Y-75689395D01*
X93574526Y-75761012D01*
X93557670Y-75785681D01*
X93545988Y-75767526D01*
X93436714Y-75692862D01*
X93307000Y-75666594D01*
X92707000Y-75666594D01*
X92585821Y-75689395D01*
X92474526Y-75761012D01*
X92399862Y-75870286D01*
X92373594Y-76000000D01*
X92373594Y-76207501D01*
X92366683Y-76207501D01*
X92363057Y-76181817D01*
X92340284Y-76116735D01*
X92317990Y-76078940D01*
X92302340Y-76037944D01*
X92265655Y-75979560D01*
X92235510Y-75947676D01*
X92211136Y-75911197D01*
X92162379Y-75862440D01*
X92125900Y-75838066D01*
X92094016Y-75807921D01*
X92035632Y-75771235D01*
X91994633Y-75755584D01*
X91956841Y-75733292D01*
X91891758Y-75710519D01*
X91848315Y-75704386D01*
X91806508Y-75691061D01*
X91737987Y-75683341D01*
X91715953Y-75685200D01*
X91694267Y-75680886D01*
X91548118Y-75680886D01*
X91526432Y-75685200D01*
X91504398Y-75683341D01*
X91435878Y-75691061D01*
X91394071Y-75704386D01*
X91350626Y-75710519D01*
X91285544Y-75733292D01*
X91247749Y-75755586D01*
X91206753Y-75771236D01*
X91148369Y-75807921D01*
X91116485Y-75838066D01*
X91113099Y-75840328D01*
X91109712Y-75838066D01*
X91077828Y-75807921D01*
X91019444Y-75771235D01*
X90978445Y-75755584D01*
X90940653Y-75733292D01*
X90875570Y-75710519D01*
X90832127Y-75704386D01*
X90790320Y-75691061D01*
X90721799Y-75683341D01*
X90699765Y-75685200D01*
X90678079Y-75680886D01*
X90531930Y-75680886D01*
X90510244Y-75685200D01*
X90488210Y-75683341D01*
X90419690Y-75691061D01*
X90377883Y-75704386D01*
X90334438Y-75710519D01*
X90269356Y-75733292D01*
X90231561Y-75755586D01*
X90190565Y-75771236D01*
X90132181Y-75807921D01*
X90100297Y-75838066D01*
X90097007Y-75840264D01*
X90093716Y-75838066D01*
X90061832Y-75807921D01*
X90003448Y-75771235D01*
X89962449Y-75755584D01*
X89924657Y-75733292D01*
X89859574Y-75710519D01*
X89816131Y-75704386D01*
X89774324Y-75691061D01*
X89705803Y-75683341D01*
X89683769Y-75685200D01*
X89662083Y-75680886D01*
X89515934Y-75680886D01*
X89494248Y-75685200D01*
X89472214Y-75683341D01*
X89403694Y-75691061D01*
X89361887Y-75704386D01*
X89318442Y-75710519D01*
X89253360Y-75733292D01*
X89215565Y-75755586D01*
X89174569Y-75771236D01*
X89116185Y-75807921D01*
X89084301Y-75838066D01*
X89047822Y-75862440D01*
X88999065Y-75911197D01*
X88974691Y-75947676D01*
X88944546Y-75979560D01*
X88907860Y-76037944D01*
X88892209Y-76078943D01*
X88869917Y-76116735D01*
X88847144Y-76181818D01*
X88843518Y-76207501D01*
X88782500Y-76207501D01*
X88782500Y-75385396D01*
X88752775Y-75235958D01*
X88668125Y-75109271D01*
X88397730Y-74838876D01*
X88271043Y-74754226D01*
X88121605Y-74724501D01*
X87925951Y-74724501D01*
X87845406Y-74643956D01*
X87845406Y-73210000D01*
X87822605Y-73088821D01*
X87750988Y-72977526D01*
X87641714Y-72902862D01*
X87512000Y-72876594D01*
X85988000Y-72876594D01*
X85866821Y-72899395D01*
X85755526Y-72971012D01*
X85680862Y-73080286D01*
X85654594Y-73210000D01*
X85654594Y-74734000D01*
X85655575Y-74739215D01*
X85581605Y-74724501D01*
X85411351Y-74724501D01*
X85174878Y-74488028D01*
X85298811Y-74189566D01*
X85299189Y-73756335D01*
X85133748Y-73355937D01*
X84827674Y-73049329D01*
X84427566Y-72883189D01*
X83994335Y-72882811D01*
X83593937Y-73048252D01*
X83287329Y-73354326D01*
X83121189Y-73754434D01*
X83120811Y-74187665D01*
X83286252Y-74588063D01*
X83592326Y-74894671D01*
X83992434Y-75060811D01*
X84425665Y-75061189D01*
X84579837Y-74997487D01*
X84876050Y-75293700D01*
X84652966Y-75516784D01*
X84427566Y-75423189D01*
X83994335Y-75422811D01*
X83593937Y-75588252D01*
X83287329Y-75894326D01*
X83121189Y-76294434D01*
X83120811Y-76727665D01*
X83286252Y-77128063D01*
X83592326Y-77434671D01*
X83992434Y-77600811D01*
X84425665Y-77601189D01*
X84826063Y-77435748D01*
X84960127Y-77301918D01*
X84983225Y-77418042D01*
X85067875Y-77544729D01*
X85777270Y-78254125D01*
X85853816Y-78305271D01*
X85903958Y-78338775D01*
X85919875Y-78341941D01*
X85827329Y-78434326D01*
X85661189Y-78834434D01*
X85660811Y-79267665D01*
X85826252Y-79668063D01*
X86132326Y-79974671D01*
X86532434Y-80140811D01*
X86965665Y-80141189D01*
X87029969Y-80114619D01*
X87204750Y-80289400D01*
X86984097Y-80510053D01*
X86967566Y-80503189D01*
X86534335Y-80502811D01*
X86242500Y-80623395D01*
X86242500Y-80465396D01*
X86212775Y-80315958D01*
X86128125Y-80189271D01*
X85857730Y-79918876D01*
X85731043Y-79834226D01*
X85581605Y-79804501D01*
X85514752Y-79804501D01*
X85205216Y-79494966D01*
X85298811Y-79269566D01*
X85299189Y-78836335D01*
X85133748Y-78435937D01*
X84827674Y-78129329D01*
X84427566Y-77963189D01*
X83994335Y-77962811D01*
X83593937Y-78128252D01*
X83287329Y-78434326D01*
X83121189Y-78834434D01*
X83120811Y-79267665D01*
X83286252Y-79668063D01*
X83592326Y-79974671D01*
X83992434Y-80140811D01*
X84425665Y-80141189D01*
X84653004Y-80047255D01*
X84927749Y-80322000D01*
X84652966Y-80596784D01*
X84427566Y-80503189D01*
X83994335Y-80502811D01*
X83593937Y-80668252D01*
X83287329Y-80974326D01*
X83121189Y-81374434D01*
X83120811Y-81807665D01*
X83286252Y-82208063D01*
X83592326Y-82514671D01*
X83992434Y-82680811D01*
X84425665Y-82681189D01*
X84826063Y-82515748D01*
X84902700Y-82439244D01*
X84902700Y-82651600D01*
X84932425Y-82801038D01*
X85017075Y-82927725D01*
X85423475Y-83334125D01*
X85550162Y-83418775D01*
X85699600Y-83448500D01*
X85946787Y-83448500D01*
X85838394Y-83498108D01*
X85665206Y-83895218D01*
X85657168Y-84328375D01*
X85815504Y-84731636D01*
X85838394Y-84765892D01*
X86006599Y-84842874D01*
X86717473Y-84132000D01*
X86703331Y-84117858D01*
X86735858Y-84085331D01*
X86750000Y-84099473D01*
X86764142Y-84085331D01*
X86796669Y-84117858D01*
X86782527Y-84132000D01*
X87493401Y-84842874D01*
X87661606Y-84765892D01*
X87834794Y-84368782D01*
X87842832Y-83935625D01*
X87684496Y-83532364D01*
X87661606Y-83498108D01*
X87553213Y-83448500D01*
X88281050Y-83448500D01*
X88735675Y-83903126D01*
X88798737Y-83945262D01*
X88862362Y-83987775D01*
X89011800Y-84017500D01*
X92015250Y-84017500D01*
X92273875Y-84276125D01*
X92385550Y-84350744D01*
X92389395Y-84371179D01*
X92461012Y-84482474D01*
X92570286Y-84557138D01*
X92700000Y-84583406D01*
X93300000Y-84583406D01*
X93421179Y-84560605D01*
X93532474Y-84488988D01*
X93549330Y-84464319D01*
X93561012Y-84482474D01*
X93670286Y-84557138D01*
X93800000Y-84583406D01*
X94400000Y-84583406D01*
X94521179Y-84560605D01*
X94632474Y-84488988D01*
X94707138Y-84379714D01*
X94712778Y-84351861D01*
X94826125Y-84276125D01*
X94963698Y-84138552D01*
X95042271Y-84217125D01*
X95168958Y-84301775D01*
X95318396Y-84331500D01*
X95515500Y-84331500D01*
X95515500Y-84461051D01*
X95519814Y-84482737D01*
X95517955Y-84504770D01*
X95527451Y-84589055D01*
X95540776Y-84630861D01*
X95546910Y-84674312D01*
X95574924Y-84754370D01*
X95597217Y-84792161D01*
X95612863Y-84833151D01*
X95657988Y-84904967D01*
X95688132Y-84936852D01*
X95712510Y-84973336D01*
X95772486Y-85033312D01*
X95808968Y-85057689D01*
X95840854Y-85087834D01*
X95912671Y-85132959D01*
X95953661Y-85148605D01*
X95991452Y-85170898D01*
X96071510Y-85198912D01*
X96114959Y-85205046D01*
X96156762Y-85218370D01*
X96241047Y-85227867D01*
X96263081Y-85226009D01*
X96284771Y-85230323D01*
X96331228Y-85230323D01*
X96352918Y-85226009D01*
X96374952Y-85227867D01*
X96459236Y-85218370D01*
X96501038Y-85205047D01*
X96544489Y-85198912D01*
X96624547Y-85170898D01*
X96662338Y-85148605D01*
X96703328Y-85132959D01*
X96775144Y-85087834D01*
X96807029Y-85057690D01*
X96843513Y-85033312D01*
X96903489Y-84973336D01*
X96927866Y-84936854D01*
X96958011Y-84904968D01*
X97003136Y-84833151D01*
X97008632Y-84818750D01*
X99312000Y-84818750D01*
X99312000Y-85129044D01*
X99361783Y-85249230D01*
X99453769Y-85341217D01*
X99573955Y-85391000D01*
X99659250Y-85391000D01*
X99741000Y-85309250D01*
X99741000Y-84737000D01*
X99393750Y-84737000D01*
X99312000Y-84818750D01*
X97008632Y-84818750D01*
X97018782Y-84792161D01*
X97041075Y-84754370D01*
X97069089Y-84674312D01*
X97075223Y-84630863D01*
X97088547Y-84589060D01*
X97098044Y-84504775D01*
X97096186Y-84482741D01*
X97100500Y-84461051D01*
X97100500Y-84275242D01*
X97171510Y-84300090D01*
X97214960Y-84306224D01*
X97256767Y-84319549D01*
X97341052Y-84329045D01*
X97363085Y-84327186D01*
X97384771Y-84331500D01*
X98467115Y-84331500D01*
X98525012Y-84421474D01*
X98634286Y-84496138D01*
X98764000Y-84522406D01*
X99312000Y-84522406D01*
X99312000Y-84609250D01*
X99393750Y-84691000D01*
X99741000Y-84691000D01*
X99741000Y-84671000D01*
X99787000Y-84671000D01*
X99787000Y-84691000D01*
X99805594Y-84691000D01*
X99805594Y-84737000D01*
X99787000Y-84737000D01*
X99787000Y-85309250D01*
X99868750Y-85391000D01*
X99954045Y-85391000D01*
X100006535Y-85369258D01*
X100009286Y-85371138D01*
X100139000Y-85397406D01*
X100373500Y-85397406D01*
X100373500Y-85492338D01*
X100276000Y-85472594D01*
X99876000Y-85472594D01*
X99754821Y-85495395D01*
X99643526Y-85567012D01*
X99625639Y-85593191D01*
X99561230Y-85528783D01*
X99441044Y-85479000D01*
X99280750Y-85479000D01*
X99199000Y-85560750D01*
X99199000Y-86083000D01*
X99219000Y-86083000D01*
X99219000Y-86129000D01*
X99199000Y-86129000D01*
X99199000Y-86651250D01*
X99280750Y-86733000D01*
X99441044Y-86733000D01*
X99561230Y-86683217D01*
X99624859Y-86619588D01*
X99637012Y-86638474D01*
X99746286Y-86713138D01*
X99876000Y-86739406D01*
X100276000Y-86739406D01*
X100397179Y-86716605D01*
X100506885Y-86646010D01*
X100595724Y-86682900D01*
X100773721Y-86683055D01*
X100762594Y-86738000D01*
X100762594Y-87338000D01*
X100785395Y-87459179D01*
X100857012Y-87570474D01*
X100883191Y-87588361D01*
X100818783Y-87652770D01*
X100769000Y-87772956D01*
X100769000Y-88033250D01*
X100850750Y-88115000D01*
X101323000Y-88115000D01*
X101323000Y-88095000D01*
X101369000Y-88095000D01*
X101369000Y-88115000D01*
X101841250Y-88115000D01*
X101923000Y-88033250D01*
X101923000Y-87772956D01*
X101873217Y-87652770D01*
X101809588Y-87589141D01*
X101828474Y-87576988D01*
X101903138Y-87467714D01*
X101929406Y-87338000D01*
X101929406Y-87114656D01*
X102974875Y-88160125D01*
X103101562Y-88244775D01*
X103251000Y-88274500D01*
X110826529Y-88274500D01*
X110924729Y-88372871D01*
X111136724Y-88460900D01*
X111366269Y-88461100D01*
X111578417Y-88373442D01*
X111740871Y-88211271D01*
X111828900Y-87999276D01*
X111829100Y-87769731D01*
X111741442Y-87557583D01*
X111579271Y-87395129D01*
X111448031Y-87340633D01*
X111448100Y-87261731D01*
X111360442Y-87049583D01*
X111198271Y-86887129D01*
X111152353Y-86868062D01*
X111197417Y-86849442D01*
X111359871Y-86687271D01*
X111447900Y-86475276D01*
X111447981Y-86382427D01*
X111600417Y-86319442D01*
X111762871Y-86157271D01*
X111850900Y-85945276D01*
X111851100Y-85715731D01*
X111763442Y-85503583D01*
X111601271Y-85341129D01*
X111389276Y-85253100D01*
X111159731Y-85252900D01*
X110947583Y-85340558D01*
X110848468Y-85439500D01*
X110639000Y-85439500D01*
X110489562Y-85469225D01*
X110362875Y-85553875D01*
X110201250Y-85715500D01*
X107950000Y-85715500D01*
X107800562Y-85745225D01*
X107673875Y-85829875D01*
X107470069Y-86033681D01*
X107361000Y-86011594D01*
X106761000Y-86011594D01*
X106639821Y-86034395D01*
X106569141Y-86079877D01*
X106448438Y-85999225D01*
X106299000Y-85969500D01*
X105513485Y-85969500D01*
X105529000Y-85932044D01*
X105529000Y-85771750D01*
X105447250Y-85690000D01*
X104925000Y-85690000D01*
X104925000Y-85710000D01*
X104879000Y-85710000D01*
X104879000Y-85690000D01*
X104356750Y-85690000D01*
X104275000Y-85771750D01*
X104275000Y-85932044D01*
X104290515Y-85969500D01*
X103278521Y-85969500D01*
X103340900Y-85819276D01*
X103341100Y-85589731D01*
X103261633Y-85397406D01*
X103389000Y-85397406D01*
X103510179Y-85374605D01*
X103621474Y-85302988D01*
X103696138Y-85193714D01*
X103714204Y-85104500D01*
X104301897Y-85104500D01*
X104363012Y-85199474D01*
X104389191Y-85217361D01*
X104324783Y-85281770D01*
X104275000Y-85401956D01*
X104275000Y-85562250D01*
X104356750Y-85644000D01*
X104879000Y-85644000D01*
X104879000Y-85624000D01*
X104925000Y-85624000D01*
X104925000Y-85644000D01*
X105447250Y-85644000D01*
X105529000Y-85562250D01*
X105529000Y-85401956D01*
X105479217Y-85281770D01*
X105415588Y-85218141D01*
X105434474Y-85205988D01*
X105509138Y-85096714D01*
X105535406Y-84967000D01*
X105535406Y-84567000D01*
X105512605Y-84445821D01*
X105483763Y-84400999D01*
X107672262Y-84400999D01*
X107673462Y-84409499D01*
X107695291Y-84471882D01*
X107717584Y-84509675D01*
X107733231Y-84550664D01*
X107768393Y-84606626D01*
X107798538Y-84638512D01*
X107822915Y-84674994D01*
X107869649Y-84721728D01*
X107906134Y-84746106D01*
X107938017Y-84776249D01*
X107993978Y-84811412D01*
X108034970Y-84827060D01*
X108072761Y-84849352D01*
X108135144Y-84871181D01*
X108178588Y-84877314D01*
X108220396Y-84890640D01*
X108286073Y-84898040D01*
X108308108Y-84896181D01*
X108329795Y-84900495D01*
X108501500Y-84900495D01*
X108523187Y-84896181D01*
X108545223Y-84898040D01*
X108610899Y-84890640D01*
X108652706Y-84877315D01*
X108696151Y-84871181D01*
X108758534Y-84849352D01*
X108796327Y-84827059D01*
X108837316Y-84811412D01*
X108893278Y-84776250D01*
X108925164Y-84746105D01*
X108961646Y-84721728D01*
X109008380Y-84674994D01*
X109032758Y-84638509D01*
X109062901Y-84606626D01*
X109098064Y-84550665D01*
X109113712Y-84509673D01*
X109136004Y-84471882D01*
X109157833Y-84409499D01*
X109159033Y-84400999D01*
X110710323Y-84400999D01*
X110762558Y-84527417D01*
X110924729Y-84689871D01*
X111136724Y-84777900D01*
X111366269Y-84778100D01*
X111578417Y-84690442D01*
X111740871Y-84528271D01*
X111828900Y-84316276D01*
X111829100Y-84086731D01*
X111745028Y-83883261D01*
X111828900Y-83681276D01*
X111829100Y-83451731D01*
X111741442Y-83239583D01*
X111623501Y-83121436D01*
X111740871Y-83004271D01*
X111828900Y-82792276D01*
X111829100Y-82562731D01*
X111745028Y-82359261D01*
X111828900Y-82157276D01*
X111829100Y-81927731D01*
X111741442Y-81715583D01*
X111623501Y-81597436D01*
X111740871Y-81480271D01*
X111828900Y-81268276D01*
X111829100Y-81038731D01*
X111745028Y-80835261D01*
X111828900Y-80633276D01*
X111829100Y-80403731D01*
X111741442Y-80191583D01*
X111623501Y-80073436D01*
X111740871Y-79956271D01*
X111828900Y-79744276D01*
X111829100Y-79514731D01*
X111745028Y-79311261D01*
X111828900Y-79109276D01*
X111829100Y-78879731D01*
X111741442Y-78667583D01*
X111579271Y-78505129D01*
X111367276Y-78417100D01*
X111137731Y-78416900D01*
X110925583Y-78504558D01*
X110763129Y-78666729D01*
X110710280Y-78794001D01*
X106182895Y-78794001D01*
X106033457Y-78823726D01*
X105906769Y-78908376D01*
X104602515Y-80212631D01*
X104588438Y-80203225D01*
X104461081Y-80177892D01*
X104397690Y-80134579D01*
X104412100Y-80099876D01*
X104412300Y-79870331D01*
X104324642Y-79658183D01*
X104162471Y-79495729D01*
X103950476Y-79407700D01*
X103720931Y-79407500D01*
X103686130Y-79421880D01*
X103654500Y-79372726D01*
X103654500Y-78403471D01*
X103752871Y-78305271D01*
X103840900Y-78093276D01*
X103841100Y-77863731D01*
X103753442Y-77651583D01*
X103654500Y-77552468D01*
X103654500Y-76080000D01*
X112318309Y-76080000D01*
X112411709Y-76549553D01*
X112677689Y-76947620D01*
X113075756Y-77213600D01*
X113545309Y-77307000D01*
X115326691Y-77307000D01*
X115796244Y-77213600D01*
X116194311Y-76947620D01*
X116460291Y-76549553D01*
X116553691Y-76080000D01*
X116460291Y-75610447D01*
X116194311Y-75212380D01*
X115796244Y-74946400D01*
X115326691Y-74853000D01*
X113545309Y-74853000D01*
X113075756Y-74946400D01*
X112677689Y-75212380D01*
X112411709Y-75610447D01*
X112318309Y-76080000D01*
X103654500Y-76080000D01*
X103654500Y-75555933D01*
X103719924Y-75583100D01*
X103949469Y-75583300D01*
X104161617Y-75495642D01*
X104324071Y-75333471D01*
X104412100Y-75121476D01*
X104412190Y-75017634D01*
X105040369Y-74389455D01*
X105092469Y-74389500D01*
X105304617Y-74301842D01*
X105467071Y-74139671D01*
X105555100Y-73927676D01*
X105555300Y-73698131D01*
X105541038Y-73663614D01*
X116291364Y-73663614D01*
X116756785Y-74129035D01*
X116756785Y-84279464D01*
X116694442Y-84128583D01*
X116532271Y-83966129D01*
X116320276Y-83878100D01*
X116090731Y-83877900D01*
X115878583Y-83965558D01*
X115716129Y-84127729D01*
X115628100Y-84339724D01*
X115627900Y-84569269D01*
X115715558Y-84781417D01*
X115877729Y-84943871D01*
X116089724Y-85031900D01*
X116229772Y-85032022D01*
X116502774Y-85305025D01*
X116502774Y-90624023D01*
X116460291Y-90410447D01*
X116194311Y-90012380D01*
X115796244Y-89746400D01*
X115326691Y-89653000D01*
X113545309Y-89653000D01*
X113075756Y-89746400D01*
X112677689Y-90012380D01*
X112411709Y-90410447D01*
X112318309Y-90880000D01*
X112411709Y-91349553D01*
X112677689Y-91747620D01*
X113075756Y-92013600D01*
X113545309Y-92107000D01*
X115326691Y-92107000D01*
X115796244Y-92013600D01*
X116194311Y-91747620D01*
X116460291Y-91349553D01*
X116502774Y-91135977D01*
X116502774Y-93764976D01*
X115433650Y-94834100D01*
X86397711Y-94834100D01*
X86409074Y-94826788D01*
X86483738Y-94717514D01*
X86510006Y-94587800D01*
X86510006Y-93987800D01*
X86487205Y-93866621D01*
X86415588Y-93755326D01*
X86306314Y-93680662D01*
X86176600Y-93654394D01*
X85476600Y-93654394D01*
X85355421Y-93677195D01*
X85244126Y-93748812D01*
X85169462Y-93858086D01*
X85143194Y-93987800D01*
X85143194Y-94587800D01*
X85165995Y-94708979D01*
X85237612Y-94820274D01*
X85346886Y-94894938D01*
X85436100Y-94913004D01*
X85436100Y-95053650D01*
X84652966Y-95836784D01*
X84427566Y-95743189D01*
X83994335Y-95742811D01*
X83593937Y-95908252D01*
X83287329Y-96214326D01*
X83121189Y-96614434D01*
X83120811Y-97047665D01*
X83286252Y-97448063D01*
X83592326Y-97754671D01*
X83785262Y-97834786D01*
X82908875Y-98711173D01*
X82824225Y-98837860D01*
X82794500Y-98987298D01*
X82794500Y-100887000D01*
X82824225Y-101036438D01*
X82908875Y-101163125D01*
X83214784Y-101469034D01*
X83121189Y-101694434D01*
X83120811Y-102127665D01*
X83286252Y-102528063D01*
X83592326Y-102834671D01*
X83785262Y-102914786D01*
X82908875Y-103791173D01*
X82824225Y-103917860D01*
X82794500Y-104067298D01*
X82794500Y-105376856D01*
X82789001Y-105404501D01*
X80802000Y-105404501D01*
X80802000Y-91909869D01*
X83776300Y-91909869D01*
X83863958Y-92122017D01*
X84026129Y-92284471D01*
X84238124Y-92372500D01*
X84467669Y-92372700D01*
X84520797Y-92350748D01*
X84596886Y-92402738D01*
X84726600Y-92429006D01*
X85126600Y-92429006D01*
X85198586Y-92415461D01*
X85169462Y-92458086D01*
X85143194Y-92587800D01*
X85143194Y-93187800D01*
X85165995Y-93308979D01*
X85237612Y-93420274D01*
X85346886Y-93494938D01*
X85476600Y-93521206D01*
X86176600Y-93521206D01*
X86297779Y-93498405D01*
X86409074Y-93426788D01*
X86483738Y-93317514D01*
X86510006Y-93187800D01*
X86510006Y-92587800D01*
X86487205Y-92466621D01*
X86415588Y-92355326D01*
X86306314Y-92280662D01*
X86297184Y-92278813D01*
X86333738Y-92225314D01*
X86360006Y-92095600D01*
X86360006Y-91495600D01*
X86337205Y-91374421D01*
X86265588Y-91263126D01*
X86156314Y-91188462D01*
X86026600Y-91162194D01*
X85626600Y-91162194D01*
X85505421Y-91184995D01*
X85394126Y-91256612D01*
X85377270Y-91281281D01*
X85365588Y-91263126D01*
X85256314Y-91188462D01*
X85126600Y-91162194D01*
X84726600Y-91162194D01*
X84605421Y-91184995D01*
X84519953Y-91239992D01*
X84468676Y-91218700D01*
X84239131Y-91218500D01*
X84026983Y-91306158D01*
X83864529Y-91468329D01*
X83776500Y-91680324D01*
X83776300Y-91909869D01*
X80802000Y-91909869D01*
X80802000Y-88242750D01*
X100769000Y-88242750D01*
X100769000Y-88503044D01*
X100818783Y-88623230D01*
X100910769Y-88715217D01*
X101030955Y-88765000D01*
X101241250Y-88765000D01*
X101323000Y-88683250D01*
X101323000Y-88161000D01*
X101369000Y-88161000D01*
X101369000Y-88683250D01*
X101450750Y-88765000D01*
X101661045Y-88765000D01*
X101781231Y-88715217D01*
X101873217Y-88623230D01*
X101923000Y-88503044D01*
X101923000Y-88242750D01*
X101841250Y-88161000D01*
X101369000Y-88161000D01*
X101323000Y-88161000D01*
X100850750Y-88161000D01*
X100769000Y-88242750D01*
X80802000Y-88242750D01*
X80802000Y-86887665D01*
X83120811Y-86887665D01*
X83286252Y-87288063D01*
X83592326Y-87594671D01*
X83992434Y-87760811D01*
X84425665Y-87761189D01*
X84826063Y-87595748D01*
X85132671Y-87289674D01*
X85201465Y-87124000D01*
X85758463Y-87124000D01*
X85826252Y-87288063D01*
X86132326Y-87594671D01*
X86532434Y-87760811D01*
X86965665Y-87761189D01*
X87366063Y-87595748D01*
X87672671Y-87289674D01*
X87838811Y-86889566D01*
X87839189Y-86456335D01*
X87737716Y-86210750D01*
X98649000Y-86210750D01*
X98649000Y-86471045D01*
X98698783Y-86591231D01*
X98790770Y-86683217D01*
X98910956Y-86733000D01*
X99071250Y-86733000D01*
X99153000Y-86651250D01*
X99153000Y-86129000D01*
X98730750Y-86129000D01*
X98649000Y-86210750D01*
X87737716Y-86210750D01*
X87673748Y-86055937D01*
X87367674Y-85749329D01*
X87347508Y-85740955D01*
X98649000Y-85740955D01*
X98649000Y-86001250D01*
X98730750Y-86083000D01*
X99153000Y-86083000D01*
X99153000Y-85560750D01*
X99071250Y-85479000D01*
X98910956Y-85479000D01*
X98790770Y-85528783D01*
X98698783Y-85620769D01*
X98649000Y-85740955D01*
X87347508Y-85740955D01*
X86967566Y-85583189D01*
X86534335Y-85582811D01*
X86133937Y-85748252D01*
X85827329Y-86054326D01*
X85758535Y-86220000D01*
X85201537Y-86220000D01*
X85133748Y-86055937D01*
X84827674Y-85749329D01*
X84427566Y-85583189D01*
X83994335Y-85582811D01*
X83593937Y-85748252D01*
X83287329Y-86054326D01*
X83121189Y-86454434D01*
X83120811Y-86887665D01*
X80802000Y-86887665D01*
X80802000Y-84875401D01*
X83499126Y-84875401D01*
X83576108Y-85043606D01*
X83973218Y-85216794D01*
X84406375Y-85224832D01*
X84809636Y-85066496D01*
X84843892Y-85043606D01*
X84920874Y-84875401D01*
X86039126Y-84875401D01*
X86116108Y-85043606D01*
X86513218Y-85216794D01*
X86946375Y-85224832D01*
X87349636Y-85066496D01*
X87383892Y-85043606D01*
X87460874Y-84875401D01*
X86750000Y-84164527D01*
X86039126Y-84875401D01*
X84920874Y-84875401D01*
X84210000Y-84164527D01*
X83499126Y-84875401D01*
X80802000Y-84875401D01*
X80802000Y-84328375D01*
X83117168Y-84328375D01*
X83275504Y-84731636D01*
X83298394Y-84765892D01*
X83466599Y-84842874D01*
X84177473Y-84132000D01*
X84242527Y-84132000D01*
X84953401Y-84842874D01*
X85121606Y-84765892D01*
X85294794Y-84368782D01*
X85302832Y-83935625D01*
X85144496Y-83532364D01*
X85121606Y-83498108D01*
X84953401Y-83421126D01*
X84242527Y-84132000D01*
X84177473Y-84132000D01*
X83466599Y-83421126D01*
X83298394Y-83498108D01*
X83125206Y-83895218D01*
X83117168Y-84328375D01*
X80802000Y-84328375D01*
X80802000Y-83388599D01*
X83499126Y-83388599D01*
X84210000Y-84099473D01*
X84920874Y-83388599D01*
X84843892Y-83220394D01*
X84446782Y-83047206D01*
X84013625Y-83039168D01*
X83610364Y-83197504D01*
X83576108Y-83220394D01*
X83499126Y-83388599D01*
X80802000Y-83388599D01*
X80802000Y-70627000D01*
X121873000Y-70627000D01*
X121873000Y-75206382D01*
G36*
X106276875Y-87271125D02*
X106403562Y-87355775D01*
X106427594Y-87360555D01*
X106427594Y-87493500D01*
X103412750Y-87493500D01*
X103025350Y-87106100D01*
X106111850Y-87106100D01*
X106276875Y-87271125D01*
X106276875Y-87271125D01*
G37*
X106276875Y-87271125D02*
X106403562Y-87355775D01*
X106427594Y-87360555D01*
X106427594Y-87493500D01*
X103412750Y-87493500D01*
X103025350Y-87106100D01*
X106111850Y-87106100D01*
X106276875Y-87271125D01*
G36*
X107857621Y-82893058D02*
X107879916Y-82930853D01*
X107895563Y-82971843D01*
X107926530Y-83021126D01*
X107956673Y-83053009D01*
X107981049Y-83089490D01*
X108022206Y-83130647D01*
X108058687Y-83155023D01*
X108090570Y-83185166D01*
X108139854Y-83216134D01*
X108180846Y-83231782D01*
X108218638Y-83254075D01*
X108273576Y-83273299D01*
X108317023Y-83279433D01*
X108358829Y-83292758D01*
X108416668Y-83299275D01*
X108438704Y-83297416D01*
X108460391Y-83301730D01*
X108702540Y-83301730D01*
X108724227Y-83297416D01*
X108746263Y-83299275D01*
X108804102Y-83292758D01*
X108845908Y-83279433D01*
X108889355Y-83273299D01*
X108944293Y-83254075D01*
X108982088Y-83231780D01*
X109023078Y-83216133D01*
X109072361Y-83185166D01*
X109104244Y-83155023D01*
X109140725Y-83130647D01*
X109181882Y-83089490D01*
X109206258Y-83053009D01*
X109236401Y-83021126D01*
X109267369Y-82971842D01*
X109283017Y-82930850D01*
X109305310Y-82893058D01*
X109310929Y-82876999D01*
X110710323Y-82876999D01*
X110762558Y-83003417D01*
X110880499Y-83121564D01*
X110763129Y-83238729D01*
X110710280Y-83366001D01*
X108837795Y-83366001D01*
X108816109Y-83370315D01*
X108794078Y-83368456D01*
X108728402Y-83375855D01*
X108686595Y-83389180D01*
X108643144Y-83395314D01*
X108580761Y-83417143D01*
X108542970Y-83439435D01*
X108501978Y-83455083D01*
X108446017Y-83490246D01*
X108415648Y-83518957D01*
X108385278Y-83490245D01*
X108329316Y-83455083D01*
X108288327Y-83439436D01*
X108250534Y-83417143D01*
X108188151Y-83395314D01*
X108144698Y-83389179D01*
X108102892Y-83375855D01*
X108037217Y-83368456D01*
X108015186Y-83370315D01*
X107993500Y-83366001D01*
X105201645Y-83366001D01*
X105151293Y-83315649D01*
X105221042Y-83301775D01*
X105347729Y-83217125D01*
X105687856Y-82876999D01*
X107852002Y-82876999D01*
X107857621Y-82893058D01*
X107857621Y-82893058D01*
G37*
X107857621Y-82893058D02*
X107879916Y-82930853D01*
X107895563Y-82971843D01*
X107926530Y-83021126D01*
X107956673Y-83053009D01*
X107981049Y-83089490D01*
X108022206Y-83130647D01*
X108058687Y-83155023D01*
X108090570Y-83185166D01*
X108139854Y-83216134D01*
X108180846Y-83231782D01*
X108218638Y-83254075D01*
X108273576Y-83273299D01*
X108317023Y-83279433D01*
X108358829Y-83292758D01*
X108416668Y-83299275D01*
X108438704Y-83297416D01*
X108460391Y-83301730D01*
X108702540Y-83301730D01*
X108724227Y-83297416D01*
X108746263Y-83299275D01*
X108804102Y-83292758D01*
X108845908Y-83279433D01*
X108889355Y-83273299D01*
X108944293Y-83254075D01*
X108982088Y-83231780D01*
X109023078Y-83216133D01*
X109072361Y-83185166D01*
X109104244Y-83155023D01*
X109140725Y-83130647D01*
X109181882Y-83089490D01*
X109206258Y-83053009D01*
X109236401Y-83021126D01*
X109267369Y-82971842D01*
X109283017Y-82930850D01*
X109305310Y-82893058D01*
X109310929Y-82876999D01*
X110710323Y-82876999D01*
X110762558Y-83003417D01*
X110880499Y-83121564D01*
X110763129Y-83238729D01*
X110710280Y-83366001D01*
X108837795Y-83366001D01*
X108816109Y-83370315D01*
X108794078Y-83368456D01*
X108728402Y-83375855D01*
X108686595Y-83389180D01*
X108643144Y-83395314D01*
X108580761Y-83417143D01*
X108542970Y-83439435D01*
X108501978Y-83455083D01*
X108446017Y-83490246D01*
X108415648Y-83518957D01*
X108385278Y-83490245D01*
X108329316Y-83455083D01*
X108288327Y-83439436D01*
X108250534Y-83417143D01*
X108188151Y-83395314D01*
X108144698Y-83389179D01*
X108102892Y-83375855D01*
X108037217Y-83368456D01*
X108015186Y-83370315D01*
X107993500Y-83366001D01*
X105201645Y-83366001D01*
X105151293Y-83315649D01*
X105221042Y-83301775D01*
X105347729Y-83217125D01*
X105687856Y-82876999D01*
X107852002Y-82876999D01*
X107857621Y-82893058D01*
G36*
X88674675Y-81683125D02*
X88801362Y-81767775D01*
X88950800Y-81797500D01*
X89024404Y-81797500D01*
X89024860Y-81801544D01*
X89038185Y-81843354D01*
X89044320Y-81886804D01*
X89070592Y-81961883D01*
X89092883Y-81999671D01*
X89108530Y-82040663D01*
X89150849Y-82108014D01*
X89180994Y-82139900D01*
X89205371Y-82176382D01*
X89261617Y-82232628D01*
X89298098Y-82257004D01*
X89329985Y-82287150D01*
X89397336Y-82329469D01*
X89438328Y-82345116D01*
X89476116Y-82367407D01*
X89551195Y-82393679D01*
X89594640Y-82399813D01*
X89636450Y-82413139D01*
X89715493Y-82422045D01*
X89737528Y-82420186D01*
X89759215Y-82424500D01*
X89810784Y-82424500D01*
X89832471Y-82420186D01*
X89854506Y-82422045D01*
X89933549Y-82413139D01*
X89975359Y-82399813D01*
X90018804Y-82393679D01*
X90093883Y-82367407D01*
X90131671Y-82345116D01*
X90172663Y-82329469D01*
X90240014Y-82287150D01*
X90271900Y-82257005D01*
X90293000Y-82242906D01*
X90314098Y-82257004D01*
X90345985Y-82287150D01*
X90413336Y-82329469D01*
X90454328Y-82345116D01*
X90492116Y-82367407D01*
X90567195Y-82393679D01*
X90610640Y-82399813D01*
X90652450Y-82413139D01*
X90731493Y-82422045D01*
X90753528Y-82420186D01*
X90775215Y-82424500D01*
X90826784Y-82424500D01*
X90848471Y-82420186D01*
X90870506Y-82422045D01*
X90949549Y-82413139D01*
X90991359Y-82399813D01*
X91034804Y-82393679D01*
X91109883Y-82367407D01*
X91147671Y-82345116D01*
X91188663Y-82329469D01*
X91256014Y-82287150D01*
X91287900Y-82257005D01*
X91309000Y-82242906D01*
X91330098Y-82257004D01*
X91361985Y-82287150D01*
X91429336Y-82329469D01*
X91470328Y-82345116D01*
X91508116Y-82367407D01*
X91583195Y-82393679D01*
X91626640Y-82399813D01*
X91668450Y-82413139D01*
X91747493Y-82422045D01*
X91769528Y-82420186D01*
X91791215Y-82424500D01*
X91842784Y-82424500D01*
X91864471Y-82420186D01*
X91886506Y-82422045D01*
X91965549Y-82413139D01*
X92007359Y-82399813D01*
X92050804Y-82393679D01*
X92125883Y-82367407D01*
X92163671Y-82345116D01*
X92204663Y-82329469D01*
X92272014Y-82287150D01*
X92303900Y-82257005D01*
X92340382Y-82232628D01*
X92396628Y-82176382D01*
X92411039Y-82154814D01*
X92461012Y-82232474D01*
X92570286Y-82307138D01*
X92700000Y-82333406D01*
X93300000Y-82333406D01*
X93421179Y-82310605D01*
X93532474Y-82238988D01*
X93549330Y-82214319D01*
X93561012Y-82232474D01*
X93670286Y-82307138D01*
X93800000Y-82333406D01*
X94400000Y-82333406D01*
X94521179Y-82310605D01*
X94632474Y-82238988D01*
X94707138Y-82129714D01*
X94733406Y-82000000D01*
X94733406Y-81767500D01*
X95295667Y-81767500D01*
X95291209Y-81777462D01*
X95273321Y-81855833D01*
X95272090Y-81899694D01*
X95263530Y-81942729D01*
X95263530Y-82023116D01*
X95272090Y-82066151D01*
X95273321Y-82110011D01*
X95291209Y-82188383D01*
X95309130Y-82228432D01*
X95320089Y-82270918D01*
X95354967Y-82343344D01*
X95381351Y-82378403D01*
X95401492Y-82417389D01*
X95451613Y-82480237D01*
X95468507Y-82494503D01*
X95480792Y-82512888D01*
X95511926Y-82544022D01*
X95530311Y-82556307D01*
X95544579Y-82573203D01*
X95607429Y-82623323D01*
X95646410Y-82643461D01*
X95681467Y-82669844D01*
X95753893Y-82704723D01*
X95796379Y-82715683D01*
X95836431Y-82733605D01*
X95914804Y-82751493D01*
X95958663Y-82752724D01*
X96001698Y-82761284D01*
X96082085Y-82761284D01*
X96125120Y-82752724D01*
X96168981Y-82751493D01*
X96247352Y-82733605D01*
X96287405Y-82715682D01*
X96329889Y-82704723D01*
X96402315Y-82669844D01*
X96437369Y-82643463D01*
X96476351Y-82623325D01*
X96539201Y-82573205D01*
X96553468Y-82556310D01*
X96571858Y-82544022D01*
X96578756Y-82537124D01*
X96601161Y-82566894D01*
X96621300Y-82605876D01*
X96637959Y-82626766D01*
X96621510Y-82629088D01*
X96541452Y-82657102D01*
X96503661Y-82679395D01*
X96462671Y-82695041D01*
X96390854Y-82740166D01*
X96358968Y-82770311D01*
X96322486Y-82794688D01*
X96262510Y-82854664D01*
X96238132Y-82891148D01*
X96207988Y-82923033D01*
X96162863Y-82994849D01*
X96147217Y-83035839D01*
X96124924Y-83073630D01*
X96096910Y-83153688D01*
X96090776Y-83197139D01*
X96077451Y-83238945D01*
X96067955Y-83323230D01*
X96069814Y-83345263D01*
X96068139Y-83353682D01*
X95994489Y-83327910D01*
X95951038Y-83321776D01*
X95909232Y-83308451D01*
X95824947Y-83298955D01*
X95802914Y-83300814D01*
X95781228Y-83296500D01*
X95585354Y-83296500D01*
X95385729Y-83096875D01*
X95259042Y-83012225D01*
X95109604Y-82982500D01*
X95084750Y-82982500D01*
X94826125Y-82723875D01*
X94714450Y-82649256D01*
X94710605Y-82628821D01*
X94638988Y-82517526D01*
X94529714Y-82442862D01*
X94400000Y-82416594D01*
X93800000Y-82416594D01*
X93678821Y-82439395D01*
X93567526Y-82511012D01*
X93550670Y-82535681D01*
X93538988Y-82517526D01*
X93429714Y-82442862D01*
X93300000Y-82416594D01*
X92700000Y-82416594D01*
X92578821Y-82439395D01*
X92467526Y-82511012D01*
X92392862Y-82620286D01*
X92387222Y-82648139D01*
X92273875Y-82723875D01*
X92015250Y-82982500D01*
X89300551Y-82982500D01*
X88845925Y-82527875D01*
X88719238Y-82443225D01*
X88569800Y-82413500D01*
X87468489Y-82413500D01*
X87672671Y-82209674D01*
X87838811Y-81809566D01*
X87839189Y-81376335D01*
X87673748Y-80975937D01*
X87648253Y-80950397D01*
X87740950Y-80857700D01*
X87849250Y-80857700D01*
X88674675Y-81683125D01*
X88674675Y-81683125D01*
G37*
X88674675Y-81683125D02*
X88801362Y-81767775D01*
X88950800Y-81797500D01*
X89024404Y-81797500D01*
X89024860Y-81801544D01*
X89038185Y-81843354D01*
X89044320Y-81886804D01*
X89070592Y-81961883D01*
X89092883Y-81999671D01*
X89108530Y-82040663D01*
X89150849Y-82108014D01*
X89180994Y-82139900D01*
X89205371Y-82176382D01*
X89261617Y-82232628D01*
X89298098Y-82257004D01*
X89329985Y-82287150D01*
X89397336Y-82329469D01*
X89438328Y-82345116D01*
X89476116Y-82367407D01*
X89551195Y-82393679D01*
X89594640Y-82399813D01*
X89636450Y-82413139D01*
X89715493Y-82422045D01*
X89737528Y-82420186D01*
X89759215Y-82424500D01*
X89810784Y-82424500D01*
X89832471Y-82420186D01*
X89854506Y-82422045D01*
X89933549Y-82413139D01*
X89975359Y-82399813D01*
X90018804Y-82393679D01*
X90093883Y-82367407D01*
X90131671Y-82345116D01*
X90172663Y-82329469D01*
X90240014Y-82287150D01*
X90271900Y-82257005D01*
X90293000Y-82242906D01*
X90314098Y-82257004D01*
X90345985Y-82287150D01*
X90413336Y-82329469D01*
X90454328Y-82345116D01*
X90492116Y-82367407D01*
X90567195Y-82393679D01*
X90610640Y-82399813D01*
X90652450Y-82413139D01*
X90731493Y-82422045D01*
X90753528Y-82420186D01*
X90775215Y-82424500D01*
X90826784Y-82424500D01*
X90848471Y-82420186D01*
X90870506Y-82422045D01*
X90949549Y-82413139D01*
X90991359Y-82399813D01*
X91034804Y-82393679D01*
X91109883Y-82367407D01*
X91147671Y-82345116D01*
X91188663Y-82329469D01*
X91256014Y-82287150D01*
X91287900Y-82257005D01*
X91309000Y-82242906D01*
X91330098Y-82257004D01*
X91361985Y-82287150D01*
X91429336Y-82329469D01*
X91470328Y-82345116D01*
X91508116Y-82367407D01*
X91583195Y-82393679D01*
X91626640Y-82399813D01*
X91668450Y-82413139D01*
X91747493Y-82422045D01*
X91769528Y-82420186D01*
X91791215Y-82424500D01*
X91842784Y-82424500D01*
X91864471Y-82420186D01*
X91886506Y-82422045D01*
X91965549Y-82413139D01*
X92007359Y-82399813D01*
X92050804Y-82393679D01*
X92125883Y-82367407D01*
X92163671Y-82345116D01*
X92204663Y-82329469D01*
X92272014Y-82287150D01*
X92303900Y-82257005D01*
X92340382Y-82232628D01*
X92396628Y-82176382D01*
X92411039Y-82154814D01*
X92461012Y-82232474D01*
X92570286Y-82307138D01*
X92700000Y-82333406D01*
X93300000Y-82333406D01*
X93421179Y-82310605D01*
X93532474Y-82238988D01*
X93549330Y-82214319D01*
X93561012Y-82232474D01*
X93670286Y-82307138D01*
X93800000Y-82333406D01*
X94400000Y-82333406D01*
X94521179Y-82310605D01*
X94632474Y-82238988D01*
X94707138Y-82129714D01*
X94733406Y-82000000D01*
X94733406Y-81767500D01*
X95295667Y-81767500D01*
X95291209Y-81777462D01*
X95273321Y-81855833D01*
X95272090Y-81899694D01*
X95263530Y-81942729D01*
X95263530Y-82023116D01*
X95272090Y-82066151D01*
X95273321Y-82110011D01*
X95291209Y-82188383D01*
X95309130Y-82228432D01*
X95320089Y-82270918D01*
X95354967Y-82343344D01*
X95381351Y-82378403D01*
X95401492Y-82417389D01*
X95451613Y-82480237D01*
X95468507Y-82494503D01*
X95480792Y-82512888D01*
X95511926Y-82544022D01*
X95530311Y-82556307D01*
X95544579Y-82573203D01*
X95607429Y-82623323D01*
X95646410Y-82643461D01*
X95681467Y-82669844D01*
X95753893Y-82704723D01*
X95796379Y-82715683D01*
X95836431Y-82733605D01*
X95914804Y-82751493D01*
X95958663Y-82752724D01*
X96001698Y-82761284D01*
X96082085Y-82761284D01*
X96125120Y-82752724D01*
X96168981Y-82751493D01*
X96247352Y-82733605D01*
X96287405Y-82715682D01*
X96329889Y-82704723D01*
X96402315Y-82669844D01*
X96437369Y-82643463D01*
X96476351Y-82623325D01*
X96539201Y-82573205D01*
X96553468Y-82556310D01*
X96571858Y-82544022D01*
X96578756Y-82537124D01*
X96601161Y-82566894D01*
X96621300Y-82605876D01*
X96637959Y-82626766D01*
X96621510Y-82629088D01*
X96541452Y-82657102D01*
X96503661Y-82679395D01*
X96462671Y-82695041D01*
X96390854Y-82740166D01*
X96358968Y-82770311D01*
X96322486Y-82794688D01*
X96262510Y-82854664D01*
X96238132Y-82891148D01*
X96207988Y-82923033D01*
X96162863Y-82994849D01*
X96147217Y-83035839D01*
X96124924Y-83073630D01*
X96096910Y-83153688D01*
X96090776Y-83197139D01*
X96077451Y-83238945D01*
X96067955Y-83323230D01*
X96069814Y-83345263D01*
X96068139Y-83353682D01*
X95994489Y-83327910D01*
X95951038Y-83321776D01*
X95909232Y-83308451D01*
X95824947Y-83298955D01*
X95802914Y-83300814D01*
X95781228Y-83296500D01*
X95585354Y-83296500D01*
X95385729Y-83096875D01*
X95259042Y-83012225D01*
X95109604Y-82982500D01*
X95084750Y-82982500D01*
X94826125Y-82723875D01*
X94714450Y-82649256D01*
X94710605Y-82628821D01*
X94638988Y-82517526D01*
X94529714Y-82442862D01*
X94400000Y-82416594D01*
X93800000Y-82416594D01*
X93678821Y-82439395D01*
X93567526Y-82511012D01*
X93550670Y-82535681D01*
X93538988Y-82517526D01*
X93429714Y-82442862D01*
X93300000Y-82416594D01*
X92700000Y-82416594D01*
X92578821Y-82439395D01*
X92467526Y-82511012D01*
X92392862Y-82620286D01*
X92387222Y-82648139D01*
X92273875Y-82723875D01*
X92015250Y-82982500D01*
X89300551Y-82982500D01*
X88845925Y-82527875D01*
X88719238Y-82443225D01*
X88569800Y-82413500D01*
X87468489Y-82413500D01*
X87672671Y-82209674D01*
X87838811Y-81809566D01*
X87839189Y-81376335D01*
X87673748Y-80975937D01*
X87648253Y-80950397D01*
X87740950Y-80857700D01*
X87849250Y-80857700D01*
X88674675Y-81683125D01*
G36*
X100674500Y-81428500D02*
X102353500Y-81428500D01*
X102353500Y-81408500D01*
X102399500Y-81408500D01*
X102399500Y-81428500D01*
X102419500Y-81428500D01*
X102419500Y-81474500D01*
X102399500Y-81474500D01*
X102399500Y-83153500D01*
X102419500Y-83153500D01*
X102419500Y-83199500D01*
X102399500Y-83199500D01*
X102399500Y-83219500D01*
X102353500Y-83219500D01*
X102353500Y-83199500D01*
X100674500Y-83199500D01*
X100674500Y-83219500D01*
X100628500Y-83219500D01*
X100628500Y-83199500D01*
X100608500Y-83199500D01*
X100608500Y-83153500D01*
X100628500Y-83153500D01*
X100628500Y-81474500D01*
X100674500Y-81474500D01*
X100674500Y-83153500D01*
X102353500Y-83153500D01*
X102353500Y-81474500D01*
X100674500Y-81474500D01*
X100628500Y-81474500D01*
X100608500Y-81474500D01*
X100608500Y-81428500D01*
X100628500Y-81428500D01*
X100628500Y-81408500D01*
X100674500Y-81408500D01*
X100674500Y-81428500D01*
X100674500Y-81428500D01*
G37*
X100674500Y-81428500D02*
X102353500Y-81428500D01*
X102353500Y-81408500D01*
X102399500Y-81408500D01*
X102399500Y-81428500D01*
X102419500Y-81428500D01*
X102419500Y-81474500D01*
X102399500Y-81474500D01*
X102399500Y-83153500D01*
X102419500Y-83153500D01*
X102419500Y-83199500D01*
X102399500Y-83199500D01*
X102399500Y-83219500D01*
X102353500Y-83219500D01*
X102353500Y-83199500D01*
X100674500Y-83199500D01*
X100674500Y-83219500D01*
X100628500Y-83219500D01*
X100628500Y-83199500D01*
X100608500Y-83199500D01*
X100608500Y-83153500D01*
X100628500Y-83153500D01*
X100628500Y-81474500D01*
X100674500Y-81474500D01*
X100674500Y-83153500D01*
X102353500Y-83153500D01*
X102353500Y-81474500D01*
X100674500Y-81474500D01*
X100628500Y-81474500D01*
X100608500Y-81474500D01*
X100608500Y-81428500D01*
X100628500Y-81428500D01*
X100628500Y-81408500D01*
X100674500Y-81408500D01*
X100674500Y-81428500D01*
G36*
X97868270Y-82217125D02*
X97982699Y-82293584D01*
X97987063Y-82296500D01*
X97760355Y-82296500D01*
X97635622Y-82171767D01*
X97643336Y-82156832D01*
X97669716Y-82121780D01*
X97702073Y-82054591D01*
X97702824Y-82051679D01*
X97868270Y-82217125D01*
X97868270Y-82217125D01*
G37*
X97868270Y-82217125D02*
X97982699Y-82293584D01*
X97987063Y-82296500D01*
X97760355Y-82296500D01*
X97635622Y-82171767D01*
X97643336Y-82156832D01*
X97669716Y-82121780D01*
X97702073Y-82054591D01*
X97702824Y-82051679D01*
X97868270Y-82217125D01*
G36*
X107852840Y-81358953D02*
X107868487Y-81399944D01*
X107893192Y-81439263D01*
X107923339Y-81471151D01*
X107947716Y-81507634D01*
X107980552Y-81540470D01*
X108017035Y-81564847D01*
X108048923Y-81594994D01*
X108088242Y-81619699D01*
X108129233Y-81635346D01*
X108167023Y-81657637D01*
X108210854Y-81672974D01*
X108254298Y-81679107D01*
X108296098Y-81692431D01*
X108342242Y-81697631D01*
X108364280Y-81695772D01*
X108385971Y-81700087D01*
X108733224Y-81700087D01*
X108754915Y-81695772D01*
X108776953Y-81697631D01*
X108823097Y-81692431D01*
X108864897Y-81679107D01*
X108908341Y-81672974D01*
X108952172Y-81657637D01*
X108989962Y-81635346D01*
X109030953Y-81619699D01*
X109070272Y-81594994D01*
X109102160Y-81564847D01*
X109138643Y-81540470D01*
X109171479Y-81507634D01*
X109195856Y-81471151D01*
X109226003Y-81439263D01*
X109250708Y-81399944D01*
X109266355Y-81358953D01*
X109269867Y-81352999D01*
X110710323Y-81352999D01*
X110762558Y-81479417D01*
X110880499Y-81597564D01*
X110763129Y-81714729D01*
X110710280Y-81842001D01*
X108968391Y-81842001D01*
X108946706Y-81846314D01*
X108924675Y-81844456D01*
X108866836Y-81850972D01*
X108825029Y-81864296D01*
X108781576Y-81870431D01*
X108726638Y-81889655D01*
X108688846Y-81911948D01*
X108647854Y-81927596D01*
X108598570Y-81958564D01*
X108581465Y-81974735D01*
X108564361Y-81958564D01*
X108515078Y-81927597D01*
X108474088Y-81911950D01*
X108436293Y-81889655D01*
X108381355Y-81870431D01*
X108337902Y-81864296D01*
X108296095Y-81850972D01*
X108238256Y-81844456D01*
X108216225Y-81846314D01*
X108194540Y-81842001D01*
X105706853Y-81842001D01*
X106195855Y-81352999D01*
X107849328Y-81352999D01*
X107852840Y-81358953D01*
X107852840Y-81358953D01*
G37*
X107852840Y-81358953D02*
X107868487Y-81399944D01*
X107893192Y-81439263D01*
X107923339Y-81471151D01*
X107947716Y-81507634D01*
X107980552Y-81540470D01*
X108017035Y-81564847D01*
X108048923Y-81594994D01*
X108088242Y-81619699D01*
X108129233Y-81635346D01*
X108167023Y-81657637D01*
X108210854Y-81672974D01*
X108254298Y-81679107D01*
X108296098Y-81692431D01*
X108342242Y-81697631D01*
X108364280Y-81695772D01*
X108385971Y-81700087D01*
X108733224Y-81700087D01*
X108754915Y-81695772D01*
X108776953Y-81697631D01*
X108823097Y-81692431D01*
X108864897Y-81679107D01*
X108908341Y-81672974D01*
X108952172Y-81657637D01*
X108989962Y-81635346D01*
X109030953Y-81619699D01*
X109070272Y-81594994D01*
X109102160Y-81564847D01*
X109138643Y-81540470D01*
X109171479Y-81507634D01*
X109195856Y-81471151D01*
X109226003Y-81439263D01*
X109250708Y-81399944D01*
X109266355Y-81358953D01*
X109269867Y-81352999D01*
X110710323Y-81352999D01*
X110762558Y-81479417D01*
X110880499Y-81597564D01*
X110763129Y-81714729D01*
X110710280Y-81842001D01*
X108968391Y-81842001D01*
X108946706Y-81846314D01*
X108924675Y-81844456D01*
X108866836Y-81850972D01*
X108825029Y-81864296D01*
X108781576Y-81870431D01*
X108726638Y-81889655D01*
X108688846Y-81911948D01*
X108647854Y-81927596D01*
X108598570Y-81958564D01*
X108581465Y-81974735D01*
X108564361Y-81958564D01*
X108515078Y-81927597D01*
X108474088Y-81911950D01*
X108436293Y-81889655D01*
X108381355Y-81870431D01*
X108337902Y-81864296D01*
X108296095Y-81850972D01*
X108238256Y-81844456D01*
X108216225Y-81846314D01*
X108194540Y-81842001D01*
X105706853Y-81842001D01*
X106195855Y-81352999D01*
X107849328Y-81352999D01*
X107852840Y-81358953D01*
G36*
X89512875Y-79397125D02*
X89639562Y-79481775D01*
X89789000Y-79511500D01*
X92366594Y-79511500D01*
X92366594Y-79750000D01*
X92389395Y-79871179D01*
X92461012Y-79982474D01*
X92570286Y-80057138D01*
X92700000Y-80083406D01*
X93300000Y-80083406D01*
X93421179Y-80060605D01*
X93532474Y-79988988D01*
X93549330Y-79964319D01*
X93561012Y-79982474D01*
X93670286Y-80057138D01*
X93800000Y-80083406D01*
X94400000Y-80083406D01*
X94521179Y-80060605D01*
X94632474Y-79988988D01*
X94707138Y-79879714D01*
X94733406Y-79750000D01*
X94733406Y-79513999D01*
X95165145Y-79513999D01*
X95244300Y-79593154D01*
X95262685Y-79605439D01*
X95276952Y-79622334D01*
X95343265Y-79675217D01*
X95382248Y-79695356D01*
X95417308Y-79721741D01*
X95493725Y-79758541D01*
X95536213Y-79769501D01*
X95576264Y-79787422D01*
X95658954Y-79806295D01*
X95702813Y-79807525D01*
X95745846Y-79816085D01*
X95766332Y-79816085D01*
X95766332Y-79836571D01*
X95774893Y-79879608D01*
X95776124Y-79923470D01*
X95794999Y-80006162D01*
X95812919Y-80046209D01*
X95823878Y-80088693D01*
X95860678Y-80165110D01*
X95887062Y-80200169D01*
X95907202Y-80239153D01*
X95960085Y-80305466D01*
X95976980Y-80319733D01*
X95989265Y-80338118D01*
X96691552Y-81040405D01*
X96688649Y-81041154D01*
X96621458Y-81073510D01*
X96586396Y-81099895D01*
X96547410Y-81120036D01*
X96537065Y-81128286D01*
X96526518Y-81106383D01*
X96500134Y-81071324D01*
X96479992Y-81032336D01*
X96429871Y-80969487D01*
X96412976Y-80955221D01*
X96400691Y-80936835D01*
X96310728Y-80846873D01*
X96201455Y-80773860D01*
X96184042Y-80762225D01*
X96184041Y-80762225D01*
X96184040Y-80762224D01*
X96081675Y-80741863D01*
X96034604Y-80732500D01*
X94733406Y-80732500D01*
X94733406Y-80500000D01*
X94710605Y-80378821D01*
X94638988Y-80267526D01*
X94529714Y-80192862D01*
X94400000Y-80166594D01*
X93800000Y-80166594D01*
X93678821Y-80189395D01*
X93567526Y-80261012D01*
X93550670Y-80285681D01*
X93538988Y-80267526D01*
X93429714Y-80192862D01*
X93300000Y-80166594D01*
X92700000Y-80166594D01*
X92578821Y-80189395D01*
X92467526Y-80261012D01*
X92392862Y-80370286D01*
X92366594Y-80500000D01*
X92366594Y-80762500D01*
X92299215Y-80762500D01*
X92277529Y-80766814D01*
X92255498Y-80764955D01*
X92176455Y-80773860D01*
X92134645Y-80787185D01*
X92091195Y-80793320D01*
X92070888Y-80800426D01*
X92069728Y-80790134D01*
X92056405Y-80748334D01*
X92050271Y-80704886D01*
X92025742Y-80634785D01*
X92003448Y-80596991D01*
X91987801Y-80556001D01*
X91948288Y-80493116D01*
X91918144Y-80461231D01*
X91893767Y-80424749D01*
X91841251Y-80372233D01*
X91804769Y-80347856D01*
X91772883Y-80317711D01*
X91709999Y-80278199D01*
X91669006Y-80262551D01*
X91631215Y-80240259D01*
X91561115Y-80215729D01*
X91517666Y-80209595D01*
X91475866Y-80196272D01*
X91402064Y-80187956D01*
X91380029Y-80189814D01*
X91358339Y-80185500D01*
X91259660Y-80185500D01*
X91237970Y-80189814D01*
X91215935Y-80187956D01*
X91142133Y-80196272D01*
X91100333Y-80209595D01*
X91056885Y-80215729D01*
X90986784Y-80240258D01*
X90948990Y-80262552D01*
X90908000Y-80278199D01*
X90845115Y-80317712D01*
X90825380Y-80336370D01*
X90816382Y-80327372D01*
X90779900Y-80302995D01*
X90748014Y-80272850D01*
X90680663Y-80230531D01*
X90639671Y-80214884D01*
X90601883Y-80192593D01*
X90526804Y-80166321D01*
X90483359Y-80160187D01*
X90441549Y-80146861D01*
X90362506Y-80137955D01*
X90340471Y-80139814D01*
X90318784Y-80135500D01*
X90267215Y-80135500D01*
X90245528Y-80139814D01*
X90223493Y-80137955D01*
X90144450Y-80146861D01*
X90102640Y-80160187D01*
X90059195Y-80166321D01*
X89984116Y-80192593D01*
X89946328Y-80214884D01*
X89905336Y-80230531D01*
X89837985Y-80272850D01*
X89806098Y-80302996D01*
X89769617Y-80327372D01*
X89713371Y-80383618D01*
X89688994Y-80420100D01*
X89658849Y-80451986D01*
X89616530Y-80519337D01*
X89600883Y-80560329D01*
X89578592Y-80598117D01*
X89552320Y-80673196D01*
X89546185Y-80716646D01*
X89532860Y-80758456D01*
X89528245Y-80799423D01*
X89510804Y-80793320D01*
X89467354Y-80787185D01*
X89425544Y-80773860D01*
X89346501Y-80764955D01*
X89324470Y-80766814D01*
X89302784Y-80762500D01*
X89239551Y-80762500D01*
X88824158Y-80347108D01*
X88820525Y-80341671D01*
X88397730Y-79918876D01*
X88271043Y-79834226D01*
X88121605Y-79804501D01*
X87824351Y-79804501D01*
X87677616Y-79657766D01*
X87838811Y-79269566D01*
X87839189Y-78836335D01*
X87673748Y-78435937D01*
X87606428Y-78368500D01*
X88484250Y-78368500D01*
X89512875Y-79397125D01*
X89512875Y-79397125D01*
G37*
X89512875Y-79397125D02*
X89639562Y-79481775D01*
X89789000Y-79511500D01*
X92366594Y-79511500D01*
X92366594Y-79750000D01*
X92389395Y-79871179D01*
X92461012Y-79982474D01*
X92570286Y-80057138D01*
X92700000Y-80083406D01*
X93300000Y-80083406D01*
X93421179Y-80060605D01*
X93532474Y-79988988D01*
X93549330Y-79964319D01*
X93561012Y-79982474D01*
X93670286Y-80057138D01*
X93800000Y-80083406D01*
X94400000Y-80083406D01*
X94521179Y-80060605D01*
X94632474Y-79988988D01*
X94707138Y-79879714D01*
X94733406Y-79750000D01*
X94733406Y-79513999D01*
X95165145Y-79513999D01*
X95244300Y-79593154D01*
X95262685Y-79605439D01*
X95276952Y-79622334D01*
X95343265Y-79675217D01*
X95382248Y-79695356D01*
X95417308Y-79721741D01*
X95493725Y-79758541D01*
X95536213Y-79769501D01*
X95576264Y-79787422D01*
X95658954Y-79806295D01*
X95702813Y-79807525D01*
X95745846Y-79816085D01*
X95766332Y-79816085D01*
X95766332Y-79836571D01*
X95774893Y-79879608D01*
X95776124Y-79923470D01*
X95794999Y-80006162D01*
X95812919Y-80046209D01*
X95823878Y-80088693D01*
X95860678Y-80165110D01*
X95887062Y-80200169D01*
X95907202Y-80239153D01*
X95960085Y-80305466D01*
X95976980Y-80319733D01*
X95989265Y-80338118D01*
X96691552Y-81040405D01*
X96688649Y-81041154D01*
X96621458Y-81073510D01*
X96586396Y-81099895D01*
X96547410Y-81120036D01*
X96537065Y-81128286D01*
X96526518Y-81106383D01*
X96500134Y-81071324D01*
X96479992Y-81032336D01*
X96429871Y-80969487D01*
X96412976Y-80955221D01*
X96400691Y-80936835D01*
X96310728Y-80846873D01*
X96201455Y-80773860D01*
X96184042Y-80762225D01*
X96184041Y-80762225D01*
X96184040Y-80762224D01*
X96081675Y-80741863D01*
X96034604Y-80732500D01*
X94733406Y-80732500D01*
X94733406Y-80500000D01*
X94710605Y-80378821D01*
X94638988Y-80267526D01*
X94529714Y-80192862D01*
X94400000Y-80166594D01*
X93800000Y-80166594D01*
X93678821Y-80189395D01*
X93567526Y-80261012D01*
X93550670Y-80285681D01*
X93538988Y-80267526D01*
X93429714Y-80192862D01*
X93300000Y-80166594D01*
X92700000Y-80166594D01*
X92578821Y-80189395D01*
X92467526Y-80261012D01*
X92392862Y-80370286D01*
X92366594Y-80500000D01*
X92366594Y-80762500D01*
X92299215Y-80762500D01*
X92277529Y-80766814D01*
X92255498Y-80764955D01*
X92176455Y-80773860D01*
X92134645Y-80787185D01*
X92091195Y-80793320D01*
X92070888Y-80800426D01*
X92069728Y-80790134D01*
X92056405Y-80748334D01*
X92050271Y-80704886D01*
X92025742Y-80634785D01*
X92003448Y-80596991D01*
X91987801Y-80556001D01*
X91948288Y-80493116D01*
X91918144Y-80461231D01*
X91893767Y-80424749D01*
X91841251Y-80372233D01*
X91804769Y-80347856D01*
X91772883Y-80317711D01*
X91709999Y-80278199D01*
X91669006Y-80262551D01*
X91631215Y-80240259D01*
X91561115Y-80215729D01*
X91517666Y-80209595D01*
X91475866Y-80196272D01*
X91402064Y-80187956D01*
X91380029Y-80189814D01*
X91358339Y-80185500D01*
X91259660Y-80185500D01*
X91237970Y-80189814D01*
X91215935Y-80187956D01*
X91142133Y-80196272D01*
X91100333Y-80209595D01*
X91056885Y-80215729D01*
X90986784Y-80240258D01*
X90948990Y-80262552D01*
X90908000Y-80278199D01*
X90845115Y-80317712D01*
X90825380Y-80336370D01*
X90816382Y-80327372D01*
X90779900Y-80302995D01*
X90748014Y-80272850D01*
X90680663Y-80230531D01*
X90639671Y-80214884D01*
X90601883Y-80192593D01*
X90526804Y-80166321D01*
X90483359Y-80160187D01*
X90441549Y-80146861D01*
X90362506Y-80137955D01*
X90340471Y-80139814D01*
X90318784Y-80135500D01*
X90267215Y-80135500D01*
X90245528Y-80139814D01*
X90223493Y-80137955D01*
X90144450Y-80146861D01*
X90102640Y-80160187D01*
X90059195Y-80166321D01*
X89984116Y-80192593D01*
X89946328Y-80214884D01*
X89905336Y-80230531D01*
X89837985Y-80272850D01*
X89806098Y-80302996D01*
X89769617Y-80327372D01*
X89713371Y-80383618D01*
X89688994Y-80420100D01*
X89658849Y-80451986D01*
X89616530Y-80519337D01*
X89600883Y-80560329D01*
X89578592Y-80598117D01*
X89552320Y-80673196D01*
X89546185Y-80716646D01*
X89532860Y-80758456D01*
X89528245Y-80799423D01*
X89510804Y-80793320D01*
X89467354Y-80787185D01*
X89425544Y-80773860D01*
X89346501Y-80764955D01*
X89324470Y-80766814D01*
X89302784Y-80762500D01*
X89239551Y-80762500D01*
X88824158Y-80347108D01*
X88820525Y-80341671D01*
X88397730Y-79918876D01*
X88271043Y-79834226D01*
X88121605Y-79804501D01*
X87824351Y-79804501D01*
X87677616Y-79657766D01*
X87838811Y-79269566D01*
X87839189Y-78836335D01*
X87673748Y-78435937D01*
X87606428Y-78368500D01*
X88484250Y-78368500D01*
X89512875Y-79397125D01*
G36*
X110762558Y-79955417D02*
X110880499Y-80073564D01*
X110763129Y-80190729D01*
X110710280Y-80318001D01*
X108927878Y-80318001D01*
X108906192Y-80322315D01*
X108884157Y-80320456D01*
X108838013Y-80325655D01*
X108796207Y-80338980D01*
X108752761Y-80345113D01*
X108708930Y-80360450D01*
X108671140Y-80382741D01*
X108630149Y-80398388D01*
X108590830Y-80423093D01*
X108559597Y-80452620D01*
X108528365Y-80423093D01*
X108489046Y-80398388D01*
X108448055Y-80382741D01*
X108410265Y-80360450D01*
X108366434Y-80345113D01*
X108322986Y-80338979D01*
X108281182Y-80325655D01*
X108235038Y-80320456D01*
X108213003Y-80322315D01*
X108191317Y-80318001D01*
X105960853Y-80318001D01*
X106449855Y-79828999D01*
X110710323Y-79828999D01*
X110762558Y-79955417D01*
X110762558Y-79955417D01*
G37*
X110762558Y-79955417D02*
X110880499Y-80073564D01*
X110763129Y-80190729D01*
X110710280Y-80318001D01*
X108927878Y-80318001D01*
X108906192Y-80322315D01*
X108884157Y-80320456D01*
X108838013Y-80325655D01*
X108796207Y-80338980D01*
X108752761Y-80345113D01*
X108708930Y-80360450D01*
X108671140Y-80382741D01*
X108630149Y-80398388D01*
X108590830Y-80423093D01*
X108559597Y-80452620D01*
X108528365Y-80423093D01*
X108489046Y-80398388D01*
X108448055Y-80382741D01*
X108410265Y-80360450D01*
X108366434Y-80345113D01*
X108322986Y-80338979D01*
X108281182Y-80325655D01*
X108235038Y-80320456D01*
X108213003Y-80322315D01*
X108191317Y-80318001D01*
X105960853Y-80318001D01*
X106449855Y-79828999D01*
X110710323Y-79828999D01*
X110762558Y-79955417D01*
G36*
X87861875Y-76782729D02*
X88207270Y-77128124D01*
X88333957Y-77212774D01*
X88483395Y-77242499D01*
X89154085Y-77242499D01*
X89175775Y-77238185D01*
X89197811Y-77240043D01*
X89266331Y-77232322D01*
X89308133Y-77218998D01*
X89345498Y-77213723D01*
X89349009Y-77224739D01*
X89355142Y-77268182D01*
X89377915Y-77333265D01*
X89400207Y-77371057D01*
X89415858Y-77412056D01*
X89452544Y-77470440D01*
X89482689Y-77502324D01*
X89507063Y-77538803D01*
X89555820Y-77587560D01*
X89592299Y-77611934D01*
X89624183Y-77642079D01*
X89682567Y-77678764D01*
X89723563Y-77694414D01*
X89761358Y-77716708D01*
X89826440Y-77739481D01*
X89869885Y-77745614D01*
X89911692Y-77758939D01*
X89980212Y-77766659D01*
X90002246Y-77764800D01*
X90023932Y-77769114D01*
X90170081Y-77769114D01*
X90191767Y-77764800D01*
X90213801Y-77766659D01*
X90282322Y-77758939D01*
X90324129Y-77745614D01*
X90367572Y-77739481D01*
X90432655Y-77716708D01*
X90470447Y-77694416D01*
X90511446Y-77678765D01*
X90569830Y-77642079D01*
X90601714Y-77611934D01*
X90605005Y-77609736D01*
X90608295Y-77611934D01*
X90640179Y-77642079D01*
X90698563Y-77678764D01*
X90739559Y-77694414D01*
X90777354Y-77716708D01*
X90842436Y-77739481D01*
X90885881Y-77745614D01*
X90927688Y-77758939D01*
X90996208Y-77766659D01*
X91018242Y-77764800D01*
X91039928Y-77769114D01*
X91186077Y-77769114D01*
X91207763Y-77764800D01*
X91229797Y-77766659D01*
X91298318Y-77758939D01*
X91340125Y-77745614D01*
X91383568Y-77739481D01*
X91448651Y-77716708D01*
X91486443Y-77694416D01*
X91527442Y-77678765D01*
X91585826Y-77642079D01*
X91617710Y-77611934D01*
X91654189Y-77587560D01*
X91702946Y-77538803D01*
X91727320Y-77502324D01*
X91757465Y-77470440D01*
X91794150Y-77412056D01*
X91809800Y-77371060D01*
X91832094Y-77333265D01*
X91854867Y-77268183D01*
X91861000Y-77224739D01*
X91864520Y-77213697D01*
X91902068Y-77218998D01*
X91943870Y-77232322D01*
X92012391Y-77240043D01*
X92034426Y-77238185D01*
X92056116Y-77242499D01*
X92366594Y-77242499D01*
X92366594Y-77500000D01*
X92389395Y-77621179D01*
X92461012Y-77732474D01*
X92570286Y-77807138D01*
X92700000Y-77833406D01*
X93300000Y-77833406D01*
X93421179Y-77810605D01*
X93532474Y-77738988D01*
X93549330Y-77714319D01*
X93561012Y-77732474D01*
X93670286Y-77807138D01*
X93800000Y-77833406D01*
X94400000Y-77833406D01*
X94521179Y-77810605D01*
X94632474Y-77738988D01*
X94707138Y-77629714D01*
X94733406Y-77500000D01*
X94733406Y-77276300D01*
X95824850Y-77276300D01*
X97272500Y-78723950D01*
X97272500Y-80157646D01*
X96909017Y-79794163D01*
X97047072Y-79656107D01*
X97059357Y-79637722D01*
X97076252Y-79623455D01*
X97129135Y-79557142D01*
X97149271Y-79518164D01*
X97175656Y-79483106D01*
X97212458Y-79406689D01*
X97223420Y-79364196D01*
X97241342Y-79324143D01*
X97260215Y-79241453D01*
X97261445Y-79197594D01*
X97270005Y-79154561D01*
X97270005Y-79069743D01*
X97261445Y-79026710D01*
X97260215Y-78982851D01*
X97241342Y-78900161D01*
X97223420Y-78860108D01*
X97212459Y-78817618D01*
X97175657Y-78741199D01*
X97149273Y-78706141D01*
X97129135Y-78667160D01*
X97076252Y-78600847D01*
X97059357Y-78586580D01*
X97047072Y-78568195D01*
X97014222Y-78535345D01*
X96995837Y-78523060D01*
X96981570Y-78506165D01*
X96915257Y-78453282D01*
X96876273Y-78433142D01*
X96841214Y-78406758D01*
X96764797Y-78369958D01*
X96722313Y-78358999D01*
X96682266Y-78341079D01*
X96599574Y-78322204D01*
X96555712Y-78320973D01*
X96512675Y-78312412D01*
X96427857Y-78312412D01*
X96384820Y-78320973D01*
X96340956Y-78322204D01*
X96258266Y-78341079D01*
X96218220Y-78358999D01*
X96175741Y-78369956D01*
X96099322Y-78406756D01*
X96064260Y-78433142D01*
X96025275Y-78453282D01*
X95958962Y-78506165D01*
X95944696Y-78523060D01*
X95926308Y-78535346D01*
X95788255Y-78673400D01*
X95708231Y-78593376D01*
X95581544Y-78508726D01*
X95432106Y-78479001D01*
X94740406Y-78479001D01*
X94740406Y-78250000D01*
X94717605Y-78128821D01*
X94645988Y-78017526D01*
X94536714Y-77942862D01*
X94407000Y-77916594D01*
X93807000Y-77916594D01*
X93685821Y-77939395D01*
X93574526Y-78011012D01*
X93557670Y-78035681D01*
X93545988Y-78017526D01*
X93436714Y-77942862D01*
X93307000Y-77916594D01*
X92707000Y-77916594D01*
X92585821Y-77939395D01*
X92474526Y-78011012D01*
X92399862Y-78120286D01*
X92373594Y-78250000D01*
X92373594Y-78476500D01*
X90077750Y-78476500D01*
X89049125Y-77447875D01*
X88922438Y-77363225D01*
X88773000Y-77333500D01*
X87468489Y-77333500D01*
X87672671Y-77129674D01*
X87834036Y-76741065D01*
X87861875Y-76782729D01*
X87861875Y-76782729D01*
G37*
X87861875Y-76782729D02*
X88207270Y-77128124D01*
X88333957Y-77212774D01*
X88483395Y-77242499D01*
X89154085Y-77242499D01*
X89175775Y-77238185D01*
X89197811Y-77240043D01*
X89266331Y-77232322D01*
X89308133Y-77218998D01*
X89345498Y-77213723D01*
X89349009Y-77224739D01*
X89355142Y-77268182D01*
X89377915Y-77333265D01*
X89400207Y-77371057D01*
X89415858Y-77412056D01*
X89452544Y-77470440D01*
X89482689Y-77502324D01*
X89507063Y-77538803D01*
X89555820Y-77587560D01*
X89592299Y-77611934D01*
X89624183Y-77642079D01*
X89682567Y-77678764D01*
X89723563Y-77694414D01*
X89761358Y-77716708D01*
X89826440Y-77739481D01*
X89869885Y-77745614D01*
X89911692Y-77758939D01*
X89980212Y-77766659D01*
X90002246Y-77764800D01*
X90023932Y-77769114D01*
X90170081Y-77769114D01*
X90191767Y-77764800D01*
X90213801Y-77766659D01*
X90282322Y-77758939D01*
X90324129Y-77745614D01*
X90367572Y-77739481D01*
X90432655Y-77716708D01*
X90470447Y-77694416D01*
X90511446Y-77678765D01*
X90569830Y-77642079D01*
X90601714Y-77611934D01*
X90605005Y-77609736D01*
X90608295Y-77611934D01*
X90640179Y-77642079D01*
X90698563Y-77678764D01*
X90739559Y-77694414D01*
X90777354Y-77716708D01*
X90842436Y-77739481D01*
X90885881Y-77745614D01*
X90927688Y-77758939D01*
X90996208Y-77766659D01*
X91018242Y-77764800D01*
X91039928Y-77769114D01*
X91186077Y-77769114D01*
X91207763Y-77764800D01*
X91229797Y-77766659D01*
X91298318Y-77758939D01*
X91340125Y-77745614D01*
X91383568Y-77739481D01*
X91448651Y-77716708D01*
X91486443Y-77694416D01*
X91527442Y-77678765D01*
X91585826Y-77642079D01*
X91617710Y-77611934D01*
X91654189Y-77587560D01*
X91702946Y-77538803D01*
X91727320Y-77502324D01*
X91757465Y-77470440D01*
X91794150Y-77412056D01*
X91809800Y-77371060D01*
X91832094Y-77333265D01*
X91854867Y-77268183D01*
X91861000Y-77224739D01*
X91864520Y-77213697D01*
X91902068Y-77218998D01*
X91943870Y-77232322D01*
X92012391Y-77240043D01*
X92034426Y-77238185D01*
X92056116Y-77242499D01*
X92366594Y-77242499D01*
X92366594Y-77500000D01*
X92389395Y-77621179D01*
X92461012Y-77732474D01*
X92570286Y-77807138D01*
X92700000Y-77833406D01*
X93300000Y-77833406D01*
X93421179Y-77810605D01*
X93532474Y-77738988D01*
X93549330Y-77714319D01*
X93561012Y-77732474D01*
X93670286Y-77807138D01*
X93800000Y-77833406D01*
X94400000Y-77833406D01*
X94521179Y-77810605D01*
X94632474Y-77738988D01*
X94707138Y-77629714D01*
X94733406Y-77500000D01*
X94733406Y-77276300D01*
X95824850Y-77276300D01*
X97272500Y-78723950D01*
X97272500Y-80157646D01*
X96909017Y-79794163D01*
X97047072Y-79656107D01*
X97059357Y-79637722D01*
X97076252Y-79623455D01*
X97129135Y-79557142D01*
X97149271Y-79518164D01*
X97175656Y-79483106D01*
X97212458Y-79406689D01*
X97223420Y-79364196D01*
X97241342Y-79324143D01*
X97260215Y-79241453D01*
X97261445Y-79197594D01*
X97270005Y-79154561D01*
X97270005Y-79069743D01*
X97261445Y-79026710D01*
X97260215Y-78982851D01*
X97241342Y-78900161D01*
X97223420Y-78860108D01*
X97212459Y-78817618D01*
X97175657Y-78741199D01*
X97149273Y-78706141D01*
X97129135Y-78667160D01*
X97076252Y-78600847D01*
X97059357Y-78586580D01*
X97047072Y-78568195D01*
X97014222Y-78535345D01*
X96995837Y-78523060D01*
X96981570Y-78506165D01*
X96915257Y-78453282D01*
X96876273Y-78433142D01*
X96841214Y-78406758D01*
X96764797Y-78369958D01*
X96722313Y-78358999D01*
X96682266Y-78341079D01*
X96599574Y-78322204D01*
X96555712Y-78320973D01*
X96512675Y-78312412D01*
X96427857Y-78312412D01*
X96384820Y-78320973D01*
X96340956Y-78322204D01*
X96258266Y-78341079D01*
X96218220Y-78358999D01*
X96175741Y-78369956D01*
X96099322Y-78406756D01*
X96064260Y-78433142D01*
X96025275Y-78453282D01*
X95958962Y-78506165D01*
X95944696Y-78523060D01*
X95926308Y-78535346D01*
X95788255Y-78673400D01*
X95708231Y-78593376D01*
X95581544Y-78508726D01*
X95432106Y-78479001D01*
X94740406Y-78479001D01*
X94740406Y-78250000D01*
X94717605Y-78128821D01*
X94645988Y-78017526D01*
X94536714Y-77942862D01*
X94407000Y-77916594D01*
X93807000Y-77916594D01*
X93685821Y-77939395D01*
X93574526Y-78011012D01*
X93557670Y-78035681D01*
X93545988Y-78017526D01*
X93436714Y-77942862D01*
X93307000Y-77916594D01*
X92707000Y-77916594D01*
X92585821Y-77939395D01*
X92474526Y-78011012D01*
X92399862Y-78120286D01*
X92373594Y-78250000D01*
X92373594Y-78476500D01*
X90077750Y-78476500D01*
X89049125Y-77447875D01*
X88922438Y-77363225D01*
X88773000Y-77333500D01*
X87468489Y-77333500D01*
X87672671Y-77129674D01*
X87834036Y-76741065D01*
X87861875Y-76782729D01*
G36*
X87401600Y-75304650D02*
X87190493Y-75515757D01*
X86967566Y-75423189D01*
X86534335Y-75422811D01*
X86242500Y-75543395D01*
X86242500Y-75385396D01*
X86212775Y-75235958D01*
X86128125Y-75109271D01*
X86086260Y-75067406D01*
X87164356Y-75067406D01*
X87401600Y-75304650D01*
X87401600Y-75304650D01*
G37*
X87401600Y-75304650D02*
X87190493Y-75515757D01*
X86967566Y-75423189D01*
X86534335Y-75422811D01*
X86242500Y-75543395D01*
X86242500Y-75385396D01*
X86212775Y-75235958D01*
X86128125Y-75109271D01*
X86086260Y-75067406D01*
X87164356Y-75067406D01*
X87401600Y-75304650D01*
D27*
X104978200Y-73812400D03*
X103835200Y-75006200D03*
X103835200Y-79984600D03*
X84353400Y-91795600D03*
X102764000Y-85704000D03*
X107873800Y-105511600D03*
X111302800Y-105511600D03*
X116324800Y-105453600D03*
X99187000Y-79883000D03*
X110159800Y-85547200D03*
X110693200Y-83134200D03*
X110693200Y-81584800D03*
X110693200Y-80060800D03*
X106273600Y-80187800D03*
X106019600Y-81711800D03*
X105511600Y-83235800D03*
X110617000Y-84531200D03*
X109245400Y-84531200D03*
X107594400Y-84531200D03*
X105664000Y-84531200D03*
X100330000Y-74295000D03*
X98425000Y-74930000D03*
X97155000Y-72390000D03*
X99695000Y-72390000D03*
X100965000Y-71120000D03*
X102870000Y-71120000D03*
X104775000Y-71120000D03*
X106680000Y-71120000D03*
X108585000Y-71120000D03*
X110490000Y-71120000D03*
X112395000Y-71120000D03*
X114300000Y-71120000D03*
X116205000Y-71120000D03*
X118745000Y-71120000D03*
X120650000Y-71120000D03*
X120650000Y-73025000D03*
X120650000Y-76835000D03*
X120650000Y-78740000D03*
X120650000Y-80645000D03*
X120650000Y-82550000D03*
X120650000Y-84455012D03*
X120650000Y-86360000D03*
X120650000Y-88265000D03*
X120650000Y-90170000D03*
X107315000Y-78663800D03*
X82981800Y-81610200D03*
X82981800Y-79019400D03*
X83007200Y-76200000D03*
X83261200Y-73177400D03*
X86893400Y-72745600D03*
X87985600Y-74599800D03*
X93548200Y-75615800D03*
X94869000Y-76098400D03*
X97205800Y-76987400D03*
X98450400Y-79832200D03*
X97231200Y-84455000D03*
X94970600Y-84328000D03*
X95961200Y-83185000D03*
X94843600Y-81889600D03*
X94869000Y-80594200D03*
X94843600Y-79629000D03*
X94869000Y-78333600D03*
X94843600Y-77393800D03*
X89357200Y-82854800D03*
X87833200Y-83566000D03*
X85648800Y-83591400D03*
X84785200Y-82677000D03*
X84734400Y-80314800D03*
X87833200Y-79629000D03*
X87858600Y-78511400D03*
X87833200Y-82270600D03*
X87807800Y-81000600D03*
X87198200Y-75285600D03*
X86334600Y-75285600D03*
X86360000Y-80441800D03*
X87020400Y-80289400D03*
X85369400Y-79451200D03*
X85699600Y-78384400D03*
X84912200Y-77546200D03*
X85445600Y-74498200D03*
X84658200Y-75285600D03*
X91948000Y-84150200D03*
X92329000Y-82423000D03*
X91465400Y-80035400D03*
X91440000Y-82473800D03*
X92227400Y-77368400D03*
X92252800Y-78333600D03*
X92227400Y-80619600D03*
X92227400Y-79654400D03*
X88900000Y-75844400D03*
X108712000Y-90170002D03*
X108712004Y-92710000D03*
X107315000Y-83058000D03*
X109982000Y-83058000D03*
X109982000Y-81534000D03*
X107315000Y-81534000D03*
X107315000Y-80010000D03*
X109982000Y-80010000D03*
X109982000Y-78740000D03*
X107315000Y-77978000D03*
X109982000Y-77978000D03*
X115189000Y-77978000D03*
X115189000Y-86817200D03*
X115189000Y-83820000D03*
X115189000Y-82321400D03*
X115189000Y-80822800D03*
X89408000Y-101400009D03*
X97764600Y-82194400D03*
X95250000Y-72263008D03*
X91440000Y-72262996D03*
X88391988Y-72263000D03*
X85090000Y-72263008D03*
X81915000Y-72262976D03*
X81914994Y-107315000D03*
X81914998Y-104140000D03*
X81915008Y-98933000D03*
X81915008Y-93218000D03*
X81915000Y-89534988D03*
X88138000Y-77216000D03*
X88138000Y-78994036D03*
X115189000Y-88900000D03*
X111760000Y-88900000D03*
X81915000Y-81280000D03*
X81915000Y-76200000D03*
X88900000Y-87630000D03*
X91440000Y-87630000D03*
X91440000Y-85090000D03*
X95250000Y-87630000D03*
X95250000Y-85090000D03*
X95250000Y-73660000D03*
X91440000Y-73660000D03*
X88392000Y-73660000D03*
X104140000Y-90170000D03*
X99695000Y-90170000D03*
X95250000Y-90170000D03*
X90170000Y-90170000D03*
X83820000Y-90170000D03*
X83820000Y-92710000D03*
X90170000Y-92710000D03*
X95250000Y-92710000D03*
X95250000Y-107061000D03*
X90170000Y-107061000D03*
X108712000Y-85598000D03*
X100651500Y-83176500D03*
X89408000Y-102489000D03*
X106172000Y-87376000D03*
X106426000Y-85725000D03*
X95250000Y-75565000D03*
X95250000Y-77978000D03*
X95250000Y-80010000D03*
X95250000Y-82423000D03*
X91440000Y-75565000D03*
X91440000Y-77978000D03*
X99822000Y-92710000D03*
X104140000Y-92710000D03*
X119684800Y-103606600D03*
X114223800Y-102336600D03*
X109651800Y-102209600D03*
X104140000Y-85725000D03*
X102376500Y-81451500D03*
X100651500Y-81451500D03*
X102376500Y-83176500D03*
X115189000Y-79330000D03*
X111252000Y-87884000D03*
X110871000Y-87376000D03*
X116205000Y-84455000D03*
X111252000Y-83566000D03*
X111252000Y-82677000D03*
X111252000Y-82042000D03*
X111252000Y-81153000D03*
X111252000Y-80518000D03*
X111252000Y-79629000D03*
X111252000Y-78994000D03*
X111252000Y-84201000D03*
X111274000Y-85830000D03*
X110871000Y-86360000D03*
X102764000Y-77470000D03*
X101764000Y-77470000D03*
X102264000Y-77978000D03*
X103264000Y-77978000D03*
X100264000Y-76374875D03*
X100764000Y-77978000D03*
X94615000Y-100761800D03*
X100711000Y-86106000D03*
X101269800Y-78740000D03*
D28*
X114436000Y-90880000D03*
X114436000Y-76080000D03*
D29*
X120396000Y-91480000D03*
X120396000Y-75480000D03*
D30*
X86750000Y-73972000D03*
X84210000Y-73972000D03*
X86750000Y-76512000D03*
X84210000Y-76512000D03*
X86750000Y-79052000D03*
X84210000Y-79052000D03*
X86750000Y-81592000D03*
X84210000Y-81592000D03*
X86750000Y-84132000D03*
X84210000Y-84132000D03*
X86750000Y-86672000D03*
X84210000Y-86672000D03*
X86750000Y-96832000D03*
X84210000Y-96832000D03*
X86750000Y-99372000D03*
X84210000Y-99372000D03*
X86750000Y-101912000D03*
X84210000Y-101912000D03*
X86750000Y-104452000D03*
X84210000Y-104452000D03*
X86750000Y-106992000D03*
X84210000Y-106992000D03*
X86750000Y-109532000D03*
X84210000Y-109532000D03*
M02*
