G04 #@! TF.FileFunction,Copper,L1,Top,Signal*
%FSLAX46Y46*%
G04 Gerber Fmt 4.6, Leading zero omitted, Abs format (unit mm)*
G04 Created by KiCad (PCBNEW 4.0.6-e0-6349~53~ubuntu14.04.1) date Sat Jul 15 18:22:04 2017*
%MOMM*%
%LPD*%
G01*
G04 APERTURE LIST*
%ADD10C,0.350000*%
%ADD11R,0.800000X0.750000*%
%ADD12R,0.500000X0.600000*%
%ADD13R,1.600000X1.000000*%
%ADD14R,2.750000X0.330200*%
%ADD15O,3.500000X1.800000*%
%ADD16O,2.350000X1.800000*%
%ADD17R,1.198880X0.599440*%
%ADD18R,0.400000X0.600000*%
%ADD19R,0.650000X1.060000*%
%ADD20R,1.060000X0.650000*%
%ADD21R,0.600000X0.500000*%
%ADD22R,1.524000X1.524000*%
%ADD23C,1.524000*%
%ADD24C,0.500000*%
%ADD25C,0.250000*%
%ADD26C,0.127000*%
%ADD27C,0.200000*%
%ADD28C,0.254000*%
%ADD29C,0.250000*%
%ADD30O,2.750000X1.100000*%
%ADD31O,1.800000X1.100000*%
%ADD32C,0.350000*%
G04 APERTURE END LIST*
D10*
D11*
X111290800Y-104709600D03*
X109790800Y-104709600D03*
D12*
X119557800Y-101746600D03*
X119557800Y-102846600D03*
D11*
X118172800Y-104582600D03*
X119672800Y-104582600D03*
D13*
X114223800Y-100542600D03*
X114223800Y-103542600D03*
D14*
X113136000Y-83330000D03*
X113136000Y-82830000D03*
X113136000Y-82330000D03*
X113136000Y-81830000D03*
X113136000Y-81330000D03*
X113136000Y-80830000D03*
X113136000Y-80330000D03*
X113136000Y-79830000D03*
X113136000Y-79330000D03*
X113136000Y-78830000D03*
X113136000Y-83830000D03*
X113136000Y-84330000D03*
X113136000Y-84830000D03*
X113136000Y-85330000D03*
X113136000Y-85830000D03*
X113136000Y-86330000D03*
X113136000Y-86830000D03*
X113136000Y-87330000D03*
X113136000Y-87830000D03*
D15*
X114436000Y-90880000D03*
X114436000Y-76080000D03*
D16*
X120396000Y-91480000D03*
X120396000Y-75480000D03*
D17*
X107111800Y-101976560D03*
X107111800Y-103378640D03*
D18*
X108704800Y-104709600D03*
X107804800Y-104709600D03*
X115424800Y-104582600D03*
X116324800Y-104582600D03*
X99303000Y-77724000D03*
X100203000Y-77724000D03*
X101208000Y-73406000D03*
X102108000Y-73406000D03*
X100468000Y-75438000D03*
X99568000Y-75438000D03*
D19*
X108828800Y-103396600D03*
X109778800Y-103396600D03*
X110728800Y-103396600D03*
X110728800Y-101196600D03*
X108828800Y-101196600D03*
D20*
X116044800Y-101346600D03*
X116044800Y-102296600D03*
X116044800Y-103246600D03*
X118244800Y-103246600D03*
X118244800Y-101346600D03*
X118244800Y-102296600D03*
D21*
X101676200Y-84709000D03*
X102776200Y-84709000D03*
D18*
X101208000Y-75438000D03*
X102108000Y-75438000D03*
X101208000Y-74422000D03*
X102108000Y-74422000D03*
X100711000Y-78740000D03*
X99811000Y-78740000D03*
D22*
X86750000Y-73972000D03*
D23*
X84210000Y-73972000D03*
X86750000Y-76512000D03*
X84210000Y-76512000D03*
X86750000Y-79052000D03*
X84210000Y-79052000D03*
X86750000Y-81592000D03*
X84210000Y-81592000D03*
X86750000Y-84132000D03*
X84210000Y-84132000D03*
X86750000Y-86672000D03*
X84210000Y-86672000D03*
D22*
X86750000Y-96832000D03*
D23*
X84210000Y-96832000D03*
X86750000Y-99372000D03*
X84210000Y-99372000D03*
X86750000Y-101912000D03*
X84210000Y-101912000D03*
X86750000Y-104452000D03*
X84210000Y-104452000D03*
X86750000Y-106992000D03*
X84210000Y-106992000D03*
X86750000Y-109532000D03*
X84210000Y-109532000D03*
D24*
X104978200Y-73812400D03*
X103835200Y-75006200D03*
X103835200Y-79984600D03*
X84353400Y-91795600D03*
X102764000Y-85704000D03*
X107873800Y-105511600D03*
X111302800Y-105511600D03*
X116324800Y-105453600D03*
X99187000Y-79883000D03*
X110159800Y-85547200D03*
X110693200Y-83134200D03*
X110693200Y-81584800D03*
X110693200Y-80060800D03*
X106273600Y-80187800D03*
X106019600Y-81711800D03*
X105511600Y-83235800D03*
X110617000Y-84531200D03*
X109245400Y-84531200D03*
X107594400Y-84531200D03*
X105664000Y-84531200D03*
X100330000Y-74295000D03*
X98425000Y-74930000D03*
X97155000Y-72390000D03*
X99695000Y-72390000D03*
X100965000Y-71120000D03*
X102870000Y-71120000D03*
X104775000Y-71120000D03*
X106680000Y-71120000D03*
X108585000Y-71120000D03*
X110490000Y-71120000D03*
X112395000Y-71120000D03*
X114300000Y-71120000D03*
X116205000Y-71120000D03*
X118745000Y-71120000D03*
X120650000Y-71120000D03*
X120650000Y-73025000D03*
X120650000Y-76835000D03*
X120650000Y-78740000D03*
X120650000Y-80645000D03*
X120650000Y-82550000D03*
X120650000Y-84455012D03*
X120650000Y-86360000D03*
X120650000Y-88265000D03*
X120650000Y-90170000D03*
X107315000Y-78663800D03*
X82981800Y-81610200D03*
X82981800Y-79019400D03*
X83007200Y-76200000D03*
X83261200Y-73177400D03*
X86893400Y-72745600D03*
X87985600Y-74599800D03*
X93548200Y-75615800D03*
X94869000Y-76098400D03*
X97205800Y-76987400D03*
X98450400Y-79832200D03*
X97231200Y-84455000D03*
X94970600Y-84328000D03*
X95961200Y-83185000D03*
X94843600Y-81889600D03*
X94869000Y-80594200D03*
X94843600Y-79629000D03*
X94869000Y-78333600D03*
X94843600Y-77393800D03*
X89357200Y-82854800D03*
X87833200Y-83566000D03*
X85648800Y-83591400D03*
X84785200Y-82677000D03*
X84734400Y-80314800D03*
X87833200Y-79629000D03*
X87858600Y-78511400D03*
X87833200Y-82270600D03*
X87807800Y-81000600D03*
X87198200Y-75285600D03*
X86334600Y-75285600D03*
X86360000Y-80441800D03*
X87020400Y-80289400D03*
X85369400Y-79451200D03*
X85699600Y-78384400D03*
X84912200Y-77546200D03*
X85445600Y-74498200D03*
X84658200Y-75285600D03*
X91948000Y-84150200D03*
X92329000Y-82423000D03*
X91465400Y-80035400D03*
X91440000Y-82473800D03*
X92227400Y-77368400D03*
X92252800Y-78333600D03*
X92227400Y-80619600D03*
X92227400Y-79654400D03*
X88900000Y-75844400D03*
X108712000Y-90170002D03*
X108712004Y-92710000D03*
X107315000Y-83058000D03*
X109982000Y-83058000D03*
X109982000Y-81534000D03*
X107315000Y-81534000D03*
X107315000Y-80010000D03*
X109982000Y-80010000D03*
X109982000Y-78740000D03*
X107315000Y-77978000D03*
X109982000Y-77978000D03*
X115189000Y-77978000D03*
X115189000Y-86817200D03*
X115189000Y-83820000D03*
X115189000Y-82321400D03*
X115189000Y-80822800D03*
X89408000Y-101400009D03*
X97764600Y-82194400D03*
X95250000Y-72263008D03*
X91440000Y-72262996D03*
X88391988Y-72263000D03*
X85090000Y-72263008D03*
X81915000Y-72262976D03*
X81914994Y-107315000D03*
X81914998Y-104140000D03*
X81915008Y-98933000D03*
X81915008Y-93218000D03*
X81915000Y-89534988D03*
X88138000Y-77216000D03*
X88138000Y-78994036D03*
X115189000Y-88900000D03*
X111760000Y-88900000D03*
X81915000Y-81280000D03*
X81915000Y-76200000D03*
X88900000Y-87630000D03*
X91440000Y-87630000D03*
X91440000Y-85090000D03*
X95250000Y-87630000D03*
X95250000Y-85090000D03*
X95250000Y-73660000D03*
X91440000Y-73660000D03*
X88392000Y-73660000D03*
X104140000Y-90170000D03*
X99695000Y-90170000D03*
X95250000Y-90170000D03*
X90170000Y-90170000D03*
X83820000Y-90170000D03*
X83820000Y-92710000D03*
X90170000Y-92710000D03*
X95250000Y-92710000D03*
X95250000Y-107061000D03*
X90170000Y-107061000D03*
X108712000Y-85598000D03*
X100651500Y-83176500D03*
X89408000Y-102489000D03*
X106172000Y-87376000D03*
X106426000Y-85725000D03*
X95250000Y-75565000D03*
X95250000Y-77978000D03*
X95250000Y-80010000D03*
X95250000Y-82423000D03*
X91440000Y-75565000D03*
X91440000Y-77978000D03*
X99822000Y-92710000D03*
X104140000Y-92710000D03*
X119684800Y-103606600D03*
X114223800Y-102336600D03*
X109651800Y-102209600D03*
X104140000Y-85725000D03*
X102376500Y-81451500D03*
X100651500Y-81451500D03*
X102376500Y-83176500D03*
X115189000Y-79330000D03*
X111252000Y-87884000D03*
X110871000Y-87376000D03*
X116205000Y-84455000D03*
X111252000Y-83566000D03*
X111252000Y-82677000D03*
X111252000Y-82042000D03*
X111252000Y-81153000D03*
X111252000Y-80518000D03*
X111252000Y-79629000D03*
X111252000Y-78994000D03*
X111252000Y-84201000D03*
X111274000Y-85830000D03*
X110871000Y-86360000D03*
X102764000Y-77470000D03*
X101764000Y-77470000D03*
X102264000Y-77978000D03*
X103264000Y-77978000D03*
X100264000Y-76374875D03*
X100764000Y-77978000D03*
X94615000Y-100761800D03*
X100711000Y-86106000D03*
X101269800Y-78740000D03*
D25*
X103835200Y-79984600D02*
X103835200Y-75006200D01*
X107315000Y-109220000D02*
X106654600Y-108559600D01*
X106654600Y-108559600D02*
X87722400Y-108559600D01*
X87722400Y-108559600D02*
X86750000Y-109532000D01*
X99187000Y-79883000D02*
X99187000Y-79502000D01*
X99187000Y-79502000D02*
X98704400Y-79019400D01*
X98704400Y-79019400D02*
X98704400Y-76479400D01*
X99472000Y-71120000D02*
X101208000Y-72856000D01*
X101208000Y-72856000D02*
X101208000Y-73406000D01*
X98704400Y-76479400D02*
X96520000Y-74295000D01*
X96520000Y-74295000D02*
X96520000Y-71120000D01*
X96520000Y-71120000D02*
X99472000Y-71120000D01*
X84353400Y-91795600D02*
X81254600Y-91795600D01*
X106553640Y-103378640D02*
X104673400Y-101498400D01*
X104673400Y-101498400D02*
X104673400Y-95326200D01*
X107111800Y-103378640D02*
X106553640Y-103378640D01*
X110490000Y-109220000D02*
X107315000Y-109220000D01*
X111302800Y-108407200D02*
X110490000Y-109220000D01*
X111302800Y-105511600D02*
X111302800Y-108407200D01*
X107873800Y-108661200D02*
X107315000Y-109220000D01*
X107873800Y-105511600D02*
X107873800Y-108661200D01*
X102764000Y-93416800D02*
X104673400Y-95326200D01*
X102764000Y-85704000D02*
X102764000Y-93416800D01*
X102764000Y-85704000D02*
X102764000Y-84721200D01*
X101208000Y-74422000D02*
X101208000Y-73406000D01*
X101208000Y-75438000D02*
X101208000Y-74422000D01*
X100468000Y-75438000D02*
X101208000Y-75438000D01*
X84210000Y-109532000D02*
X84210000Y-109483000D01*
D26*
X107804800Y-105442600D02*
X107873800Y-105511600D01*
X107804800Y-104709600D02*
X107804800Y-105442600D01*
X107325800Y-104709600D02*
X107111800Y-104495600D01*
X107111800Y-104495600D02*
X107111800Y-103378640D01*
X107804800Y-104709600D02*
X107325800Y-104709600D01*
X110728800Y-103396600D02*
X110728800Y-104147600D01*
X110728800Y-104147600D02*
X111290800Y-104709600D01*
X111302800Y-105511600D02*
X111290800Y-105499600D01*
X111290800Y-105499600D02*
X111290800Y-104709600D01*
X116324800Y-104582600D02*
X116324800Y-105453600D01*
X116324800Y-104582600D02*
X117144800Y-104582600D01*
X117144800Y-104582600D02*
X118172800Y-104582600D01*
X117311800Y-102296600D02*
X117144800Y-102463600D01*
X117144800Y-102463600D02*
X117144800Y-104582600D01*
X118244800Y-102296600D02*
X117311800Y-102296600D01*
D25*
X99060000Y-74295000D02*
X100330000Y-74295000D01*
X98425000Y-74930000D02*
X99060000Y-74295000D01*
X99695000Y-72390000D02*
X97155000Y-72390000D01*
X104775000Y-71120000D02*
X102870000Y-71120000D01*
X108585000Y-71120000D02*
X106680000Y-71120000D01*
X112395000Y-71120000D02*
X110490000Y-71120000D01*
X116205000Y-71120000D02*
X114300000Y-71120000D01*
X120650000Y-71120000D02*
X118745000Y-71120000D01*
X118110000Y-73025000D02*
X120650000Y-73025000D01*
X118110000Y-76835000D02*
X118110000Y-73025000D01*
X120650000Y-76835000D02*
X118110000Y-76835000D01*
X120650000Y-78740000D02*
X120650000Y-76835000D01*
X120650000Y-80645000D02*
X120650000Y-78740000D01*
X120650000Y-84455012D02*
X120650000Y-82550000D01*
X120650000Y-86360000D02*
X120650000Y-84455012D01*
X119380000Y-88900000D02*
X120400001Y-89920001D01*
X120400001Y-89920001D02*
X120650000Y-90170000D01*
X115189000Y-88900000D02*
X119380000Y-88900000D01*
X107315000Y-78663800D02*
X107315000Y-80010000D01*
X107315000Y-77978000D02*
X107315000Y-78663800D01*
X82981800Y-79019400D02*
X82981800Y-81610200D01*
X81915000Y-76200000D02*
X83007200Y-76200000D01*
X84785200Y-82931000D02*
X85445600Y-83591400D01*
X85445600Y-83591400D02*
X85648800Y-83591400D01*
X84785200Y-82677000D02*
X84785200Y-82931000D01*
X88138000Y-81965800D02*
X87833200Y-82270600D01*
X88138000Y-84132000D02*
X88138000Y-82575400D01*
X88138000Y-82575400D02*
X87833200Y-82270600D01*
X88138000Y-78994036D02*
X88138000Y-81965800D01*
X86334600Y-75285600D02*
X87198200Y-75285600D01*
X85775800Y-75285600D02*
X86334600Y-75285600D01*
X85445600Y-74955400D02*
X85775800Y-75285600D01*
X85445600Y-74498200D02*
X85445600Y-74955400D01*
X91440000Y-80060800D02*
X91465400Y-80035400D01*
X91465400Y-80035400D02*
X91440000Y-80010000D01*
X91440000Y-80010000D02*
X91440000Y-77978000D01*
X91465400Y-80035400D02*
X91846400Y-80035400D01*
X91440000Y-82550000D02*
X91440000Y-80060800D01*
X91846400Y-80035400D02*
X92227400Y-79654400D01*
X91440000Y-82473800D02*
X91440000Y-85090000D01*
X92252800Y-78333600D02*
X91897200Y-77978000D01*
X91897200Y-77978000D02*
X91440000Y-77978000D01*
X88900000Y-75844400D02*
X89179400Y-75565000D01*
X89179400Y-75565000D02*
X91440000Y-75565000D01*
X107188000Y-84963000D02*
X106426000Y-85725000D01*
X107315000Y-83058000D02*
X107315000Y-84836000D01*
X107315000Y-84836000D02*
X107188000Y-84963000D01*
X107315000Y-83058000D02*
X107315000Y-81534000D01*
X109982000Y-81534000D02*
X109982000Y-83058000D01*
X109982000Y-80010000D02*
X109982000Y-81534000D01*
X107315000Y-81534000D02*
X107315000Y-80010000D01*
X109982000Y-78740000D02*
X109982000Y-80010000D01*
X109982000Y-77978000D02*
X109982000Y-78740000D01*
X109982000Y-77978000D02*
X107315000Y-77978000D01*
X109982000Y-77978000D02*
X115189000Y-77978000D01*
X115176200Y-86830000D02*
X113136000Y-86830000D01*
X115189000Y-86817200D02*
X115176200Y-86830000D01*
X115179000Y-83830000D02*
X113136000Y-83830000D01*
X115189000Y-83820000D02*
X115179000Y-83830000D01*
X115180400Y-82330000D02*
X115189000Y-82321400D01*
X113136000Y-82330000D02*
X115180400Y-82330000D01*
X115189000Y-80822800D02*
X115181800Y-80830000D01*
X115181800Y-80830000D02*
X113136000Y-80830000D01*
X81914994Y-107315000D02*
X83887000Y-107315000D01*
X83887000Y-107315000D02*
X84210000Y-106992000D01*
X102376500Y-83176500D02*
X102376500Y-81451500D01*
X104140000Y-85725000D02*
X104140000Y-83827500D01*
X104140000Y-83827500D02*
X103489000Y-83176500D01*
X103489000Y-83176500D02*
X102376500Y-83176500D01*
X89408000Y-102489000D02*
X89408000Y-101400009D01*
X100651500Y-82321400D02*
X100651500Y-81451500D01*
X100651500Y-83176500D02*
X100651500Y-82321400D01*
X100651500Y-82321400D02*
X97891600Y-82321400D01*
X97891600Y-82321400D02*
X97764600Y-82194400D01*
X95250000Y-73660000D02*
X95250000Y-72263008D01*
X91440000Y-73660000D02*
X91440000Y-72262996D01*
X88138000Y-76862447D02*
X88138000Y-77216000D01*
X88138000Y-73914000D02*
X88138000Y-76862447D01*
X88392000Y-73660000D02*
X88138000Y-73914000D01*
X88138000Y-77343000D02*
X88138000Y-77216000D01*
X88138000Y-78994000D02*
X88138000Y-77343000D01*
X88138000Y-77343000D02*
X88138000Y-78867000D01*
X88138000Y-78867000D02*
X88138000Y-78994000D01*
X88138000Y-78994000D02*
X88138000Y-78994036D01*
X88900000Y-84132000D02*
X89858000Y-84132000D01*
X88138000Y-84132000D02*
X88900000Y-84132000D01*
X88900000Y-84132000D02*
X88900000Y-87630000D01*
X91440000Y-85090000D02*
X91440000Y-87630000D01*
X95250000Y-87630000D02*
X95250000Y-90170000D01*
X95250000Y-85090000D02*
X95250000Y-87630000D01*
X95250000Y-82423000D02*
X95250000Y-85090000D01*
X95250000Y-75565000D02*
X95250000Y-73660000D01*
X91440000Y-73660000D02*
X95250000Y-73660000D01*
X91440000Y-75565000D02*
X91440000Y-73660000D01*
X88392000Y-73660000D02*
X91440000Y-73660000D01*
X86750000Y-84132000D02*
X88138000Y-84132000D01*
X90101000Y-106992000D02*
X90170000Y-107061000D01*
X86750000Y-106992000D02*
X90101000Y-106992000D01*
D26*
X100211500Y-83176500D02*
X100651500Y-83176500D01*
X101083500Y-83176500D02*
X100651500Y-83176500D01*
D25*
X89408000Y-104394000D02*
X89408000Y-102489000D01*
X86810000Y-106992000D02*
X89408000Y-104394000D01*
X86750000Y-106992000D02*
X86810000Y-106992000D01*
X106426000Y-87122000D02*
X106172000Y-87376000D01*
X106426000Y-85725000D02*
X106426000Y-87122000D01*
X104140000Y-92710000D02*
X104140000Y-87249000D01*
X104140000Y-85725000D02*
X104140000Y-87249000D01*
X95250000Y-77978000D02*
X95250000Y-75438000D01*
X95250000Y-80010000D02*
X95250000Y-77978000D01*
X95250000Y-82550000D02*
X95250000Y-80010000D01*
X91440000Y-82550000D02*
X95250000Y-82550000D01*
X91440000Y-77978000D02*
X91440000Y-75565000D01*
X89858000Y-84132000D02*
X91440000Y-82550000D01*
X113136000Y-79330000D02*
X115189000Y-79330000D01*
D26*
X119684800Y-103606600D02*
X119672800Y-103618600D01*
X119672800Y-103618600D02*
X119672800Y-104582600D01*
X114223800Y-103542600D02*
X114223800Y-102336600D01*
X114691800Y-102336600D02*
X114731800Y-102296600D01*
X114223800Y-102336600D02*
X114691800Y-102336600D01*
X114731800Y-102296600D02*
X116044800Y-102296600D01*
X109778800Y-102336600D02*
X109651800Y-102209600D01*
X109778800Y-103396600D02*
X109778800Y-102336600D01*
X109778800Y-103396600D02*
X109778800Y-104697600D01*
X109778800Y-104697600D02*
X109790800Y-104709600D01*
X100076000Y-83312000D02*
X100211500Y-83176500D01*
X100076000Y-83624000D02*
X100076000Y-83312000D01*
X100754000Y-81349000D02*
X100651500Y-81451500D01*
X102743000Y-83905000D02*
X102743000Y-83543000D01*
X102743000Y-83543000D02*
X102376500Y-83176500D01*
X100649000Y-81449000D02*
X100651500Y-81451500D01*
X114935000Y-86792000D02*
X114897000Y-86830000D01*
X114890000Y-80854000D02*
X114935000Y-80899000D01*
X113136000Y-86830000D02*
X114897000Y-86830000D01*
X113136000Y-79330000D02*
X114890000Y-79330000D01*
X114866000Y-80830000D02*
X114935000Y-80899000D01*
X113136000Y-80830000D02*
X114866000Y-80830000D01*
X114925000Y-83830000D02*
X114935000Y-83820000D01*
X113136000Y-83830000D02*
X114925000Y-83830000D01*
X119557800Y-101701600D02*
X119202800Y-101346600D01*
X119202800Y-101346600D02*
X118244800Y-101346600D01*
X119557800Y-101746600D02*
X119557800Y-101701600D01*
X119555800Y-102846600D02*
X119155800Y-103246600D01*
X119155800Y-103246600D02*
X118244800Y-103246600D01*
X119557800Y-102846600D02*
X119555800Y-102846600D01*
X111306000Y-87830000D02*
X111252000Y-87884000D01*
X113136000Y-87830000D02*
X111306000Y-87830000D01*
D25*
X110728800Y-100558600D02*
X110490000Y-100319800D01*
X110490000Y-100319800D02*
X110490000Y-87757000D01*
X110490000Y-87757000D02*
X110871000Y-87376000D01*
X110744800Y-100542600D02*
X114223800Y-100542600D01*
X110871000Y-87376000D02*
X113090000Y-87376000D01*
X113090000Y-87376000D02*
X113136000Y-87330000D01*
X110728800Y-101196600D02*
X110728800Y-100558600D01*
X112826800Y-100542600D02*
X110744800Y-100542600D01*
X110744800Y-100542600D02*
X110728800Y-100558600D01*
X115858800Y-100542600D02*
X116044800Y-100728600D01*
X116044800Y-100728600D02*
X116044800Y-101346600D01*
X114223800Y-100542600D02*
X115858800Y-100542600D01*
D26*
X115830000Y-84830000D02*
X116205000Y-84455000D01*
X114903600Y-84830000D02*
X115830000Y-84830000D01*
X113136000Y-84830000D02*
X114903600Y-84830000D01*
X111252000Y-83566000D02*
X111270000Y-83566000D01*
X113136000Y-83330000D02*
X111506000Y-83330000D01*
X111270000Y-83566000D02*
X111506000Y-83330000D01*
X111405000Y-82830000D02*
X111252000Y-82677000D01*
X113136000Y-82830000D02*
X111405000Y-82830000D01*
X111464000Y-81830000D02*
X111252000Y-82042000D01*
X113136000Y-81830000D02*
X111464000Y-81830000D01*
X111429000Y-81330000D02*
X111252000Y-81153000D01*
X113136000Y-81330000D02*
X111429000Y-81330000D01*
X113136000Y-80330000D02*
X111567000Y-80330000D01*
X111567000Y-80330000D02*
X111440000Y-80330000D01*
X111440000Y-80330000D02*
X111252000Y-80518000D01*
X111453000Y-79830000D02*
X111252000Y-79629000D01*
X113136000Y-79830000D02*
X111453000Y-79830000D01*
X111416000Y-78830000D02*
X111252000Y-78994000D01*
X113136000Y-78830000D02*
X111416000Y-78830000D01*
X111381000Y-84330000D02*
X111252000Y-84201000D01*
X113136000Y-84330000D02*
X111381000Y-84330000D01*
X113136000Y-85830000D02*
X111274000Y-85830000D01*
X110901000Y-86330000D02*
X110871000Y-86360000D01*
X113136000Y-86330000D02*
X110901000Y-86330000D01*
X107362800Y-101196600D02*
X107111800Y-101447600D01*
X107111800Y-101447600D02*
X107111800Y-101976560D01*
X108828800Y-101196600D02*
X107362800Y-101196600D01*
X102689000Y-74422000D02*
X102108000Y-74422000D01*
X102764000Y-77470000D02*
X102764000Y-74497000D01*
X102764000Y-74497000D02*
X102689000Y-74422000D01*
X102264000Y-75594000D02*
X102108000Y-75438000D01*
X102264000Y-77978000D02*
X102264000Y-75594000D01*
X102689000Y-73406000D02*
X102108000Y-73406000D01*
X103264000Y-77978000D02*
X103264000Y-73981000D01*
X103264000Y-73981000D02*
X102689000Y-73406000D01*
X99568000Y-75946000D02*
X99568000Y-75438000D01*
X100264000Y-76374875D02*
X99996875Y-76374875D01*
X99996875Y-76374875D02*
X99568000Y-75946000D01*
X100203000Y-77724000D02*
X100510000Y-77724000D01*
X100510000Y-77724000D02*
X100764000Y-77978000D01*
X94615000Y-100761800D02*
X100711000Y-94665800D01*
X100711000Y-94665800D02*
X100711000Y-86417098D01*
X100711000Y-86417098D02*
X100711000Y-86106000D01*
X108828800Y-103396600D02*
X108828800Y-104585600D01*
X108828800Y-104585600D02*
X108704800Y-104709600D01*
X115853800Y-103246600D02*
X115424800Y-103675600D01*
X115424800Y-103675600D02*
X115424800Y-104582600D01*
X116044800Y-103246600D02*
X115853800Y-103246600D01*
X101269800Y-78740000D02*
X100711000Y-78740000D01*
D27*
G36*
X121900000Y-108031000D02*
X111727800Y-108031000D01*
X111727800Y-105864481D01*
X111768795Y-105823557D01*
X111852704Y-105621482D01*
X111852895Y-105402678D01*
X111831389Y-105350629D01*
X111904079Y-105303855D01*
X111972578Y-105203603D01*
X111996677Y-105084600D01*
X111996677Y-104334600D01*
X111975758Y-104223427D01*
X111910055Y-104121321D01*
X111809803Y-104052822D01*
X111690800Y-104028723D01*
X111338996Y-104028723D01*
X111359677Y-103926600D01*
X111359677Y-103642600D01*
X113123800Y-103642600D01*
X113123800Y-104102274D01*
X113169472Y-104212537D01*
X113253864Y-104296928D01*
X113364127Y-104342600D01*
X114123800Y-104342600D01*
X114198800Y-104267600D01*
X114198800Y-103567600D01*
X113198800Y-103567600D01*
X113123800Y-103642600D01*
X111359677Y-103642600D01*
X111359677Y-102982926D01*
X113123800Y-102982926D01*
X113123800Y-103442600D01*
X113198800Y-103517600D01*
X114198800Y-103517600D01*
X114198800Y-102817600D01*
X114123800Y-102742600D01*
X113364127Y-102742600D01*
X113253864Y-102788272D01*
X113169472Y-102872663D01*
X113123800Y-102982926D01*
X111359677Y-102982926D01*
X111359677Y-102866600D01*
X111338758Y-102755427D01*
X111273055Y-102653321D01*
X111172803Y-102584822D01*
X111053800Y-102560723D01*
X110403800Y-102560723D01*
X110292627Y-102581642D01*
X110256270Y-102605037D01*
X110163473Y-102566600D01*
X109878800Y-102566600D01*
X109803800Y-102641600D01*
X109803800Y-103371600D01*
X109823800Y-103371600D01*
X109823800Y-103421600D01*
X109803800Y-103421600D01*
X109803800Y-104151600D01*
X109815800Y-104163600D01*
X109815800Y-104684600D01*
X110415800Y-104684600D01*
X110490800Y-104609600D01*
X110490800Y-104423666D01*
X110584923Y-104517789D01*
X110584923Y-105084600D01*
X110605842Y-105195773D01*
X110671545Y-105297879D01*
X110768505Y-105364128D01*
X110752896Y-105401718D01*
X110752705Y-105620522D01*
X110836261Y-105822743D01*
X110877800Y-105864355D01*
X110877800Y-108031000D01*
X108298800Y-108031000D01*
X108298800Y-105864481D01*
X108339795Y-105823557D01*
X108423704Y-105621482D01*
X108423895Y-105402678D01*
X108374803Y-105283866D01*
X108385797Y-105291378D01*
X108504800Y-105315477D01*
X108904800Y-105315477D01*
X109015973Y-105294558D01*
X109118079Y-105228855D01*
X109122908Y-105221788D01*
X109136472Y-105254536D01*
X109220863Y-105338928D01*
X109331126Y-105384600D01*
X109690800Y-105384600D01*
X109765800Y-105309600D01*
X109765800Y-104734600D01*
X109815800Y-104734600D01*
X109815800Y-105309600D01*
X109890800Y-105384600D01*
X110250474Y-105384600D01*
X110360737Y-105338928D01*
X110445128Y-105254536D01*
X110490800Y-105144273D01*
X110490800Y-104809600D01*
X110415800Y-104734600D01*
X109815800Y-104734600D01*
X109765800Y-104734600D01*
X109745800Y-104734600D01*
X109745800Y-104684600D01*
X109765800Y-104684600D01*
X109765800Y-104109600D01*
X109753800Y-104097600D01*
X109753800Y-103421600D01*
X109733800Y-103421600D01*
X109733800Y-103371600D01*
X109753800Y-103371600D01*
X109753800Y-102641600D01*
X109678800Y-102566600D01*
X109394127Y-102566600D01*
X109301990Y-102604764D01*
X109272803Y-102584822D01*
X109153800Y-102560723D01*
X108503800Y-102560723D01*
X108392627Y-102581642D01*
X108290521Y-102647345D01*
X108222022Y-102747597D01*
X108197923Y-102866600D01*
X108197923Y-103926600D01*
X108218842Y-104037773D01*
X108284545Y-104139879D01*
X108325966Y-104168181D01*
X108291521Y-104190345D01*
X108254796Y-104244094D01*
X108224055Y-104196321D01*
X108123803Y-104127822D01*
X108004800Y-104103723D01*
X107604800Y-104103723D01*
X107493627Y-104124642D01*
X107475300Y-104136435D01*
X107475300Y-103984237D01*
X107711240Y-103984237D01*
X107822413Y-103963318D01*
X107924519Y-103897615D01*
X107993018Y-103797363D01*
X108017117Y-103678360D01*
X108017117Y-103078920D01*
X107996198Y-102967747D01*
X107930495Y-102865641D01*
X107830243Y-102797142D01*
X107711240Y-102773043D01*
X106549083Y-102773043D01*
X105452880Y-101676840D01*
X106206483Y-101676840D01*
X106206483Y-102276280D01*
X106227402Y-102387453D01*
X106293105Y-102489559D01*
X106393357Y-102558058D01*
X106512360Y-102582157D01*
X107711240Y-102582157D01*
X107822413Y-102561238D01*
X107924519Y-102495535D01*
X107993018Y-102395283D01*
X108017117Y-102276280D01*
X108017117Y-101676840D01*
X107996198Y-101565667D01*
X107992616Y-101560100D01*
X108197923Y-101560100D01*
X108197923Y-101726600D01*
X108218842Y-101837773D01*
X108284545Y-101939879D01*
X108384797Y-102008378D01*
X108503800Y-102032477D01*
X109153800Y-102032477D01*
X109264973Y-102011558D01*
X109367079Y-101945855D01*
X109435578Y-101845603D01*
X109459677Y-101726600D01*
X109459677Y-100666600D01*
X109438758Y-100555427D01*
X109373055Y-100453321D01*
X109272803Y-100384822D01*
X109153800Y-100360723D01*
X108503800Y-100360723D01*
X108392627Y-100381642D01*
X108290521Y-100447345D01*
X108222022Y-100547597D01*
X108197923Y-100666600D01*
X108197923Y-100833100D01*
X107362800Y-100833100D01*
X107223695Y-100860770D01*
X107105767Y-100939566D01*
X106854767Y-101190567D01*
X106775970Y-101308494D01*
X106763544Y-101370963D01*
X106512360Y-101370963D01*
X106401187Y-101391882D01*
X106299081Y-101457585D01*
X106230582Y-101557837D01*
X106206483Y-101676840D01*
X105452880Y-101676840D01*
X105098400Y-101322360D01*
X105098400Y-95326200D01*
X105066049Y-95163560D01*
X104976339Y-95029300D01*
X104973920Y-95025679D01*
X103189000Y-93240760D01*
X103189000Y-87757000D01*
X110065000Y-87757000D01*
X110065000Y-100319800D01*
X110086538Y-100428080D01*
X110097351Y-100482441D01*
X110131560Y-100533638D01*
X110122022Y-100547597D01*
X110097923Y-100666600D01*
X110097923Y-101726600D01*
X110118842Y-101837773D01*
X110184545Y-101939879D01*
X110284797Y-102008378D01*
X110403800Y-102032477D01*
X111053800Y-102032477D01*
X111164973Y-102011558D01*
X111267079Y-101945855D01*
X111335578Y-101845603D01*
X111359677Y-101726600D01*
X111359677Y-100967600D01*
X113117923Y-100967600D01*
X113117923Y-101042600D01*
X113138842Y-101153773D01*
X113204545Y-101255879D01*
X113304797Y-101324378D01*
X113423800Y-101348477D01*
X115023800Y-101348477D01*
X115134973Y-101327558D01*
X115208923Y-101279973D01*
X115208923Y-101671600D01*
X115229842Y-101782773D01*
X115253237Y-101819130D01*
X115214800Y-101911927D01*
X115214800Y-102196600D01*
X115289800Y-102271600D01*
X116019800Y-102271600D01*
X116019800Y-102251600D01*
X116069800Y-102251600D01*
X116069800Y-102271600D01*
X116089800Y-102271600D01*
X116089800Y-102321600D01*
X116069800Y-102321600D01*
X116069800Y-102341600D01*
X116019800Y-102341600D01*
X116019800Y-102321600D01*
X115289800Y-102321600D01*
X115214800Y-102396600D01*
X115214800Y-102681273D01*
X115252964Y-102773410D01*
X115233022Y-102802597D01*
X115228819Y-102823354D01*
X115193736Y-102788272D01*
X115083473Y-102742600D01*
X114323800Y-102742600D01*
X114248800Y-102817600D01*
X114248800Y-103517600D01*
X114268800Y-103517600D01*
X114268800Y-103567600D01*
X114248800Y-103567600D01*
X114248800Y-104267600D01*
X114323800Y-104342600D01*
X114918923Y-104342600D01*
X114918923Y-104882600D01*
X114939842Y-104993773D01*
X115005545Y-105095879D01*
X115105797Y-105164378D01*
X115224800Y-105188477D01*
X115624800Y-105188477D01*
X115735973Y-105167558D01*
X115838079Y-105101855D01*
X115874804Y-105048106D01*
X115905195Y-105095334D01*
X115858805Y-105141643D01*
X115774896Y-105343718D01*
X115774705Y-105562522D01*
X115858261Y-105764743D01*
X116012843Y-105919595D01*
X116214918Y-106003504D01*
X116433722Y-106003695D01*
X116635943Y-105920139D01*
X116790795Y-105765557D01*
X116874704Y-105563482D01*
X116874895Y-105344678D01*
X116791339Y-105142457D01*
X116743251Y-105094285D01*
X116806578Y-105001603D01*
X116817818Y-104946100D01*
X117466923Y-104946100D01*
X117466923Y-104957600D01*
X117487842Y-105068773D01*
X117553545Y-105170879D01*
X117653797Y-105239378D01*
X117772800Y-105263477D01*
X118572800Y-105263477D01*
X118683973Y-105242558D01*
X118786079Y-105176855D01*
X118854578Y-105076603D01*
X118878677Y-104957600D01*
X118878677Y-104682600D01*
X118972800Y-104682600D01*
X118972800Y-105017273D01*
X119018472Y-105127536D01*
X119102863Y-105211928D01*
X119213126Y-105257600D01*
X119572800Y-105257600D01*
X119647800Y-105182600D01*
X119647800Y-104607600D01*
X119697800Y-104607600D01*
X119697800Y-105182600D01*
X119772800Y-105257600D01*
X120132474Y-105257600D01*
X120242737Y-105211928D01*
X120327128Y-105127536D01*
X120372800Y-105017273D01*
X120372800Y-104682600D01*
X120297800Y-104607600D01*
X119697800Y-104607600D01*
X119647800Y-104607600D01*
X119047800Y-104607600D01*
X118972800Y-104682600D01*
X118878677Y-104682600D01*
X118878677Y-104207600D01*
X118867449Y-104147927D01*
X118972800Y-104147927D01*
X118972800Y-104482600D01*
X119047800Y-104557600D01*
X119647800Y-104557600D01*
X119647800Y-103982600D01*
X119697800Y-103982600D01*
X119697800Y-104557600D01*
X120297800Y-104557600D01*
X120372800Y-104482600D01*
X120372800Y-104147927D01*
X120327128Y-104037664D01*
X120242737Y-103953272D01*
X120132474Y-103907600D01*
X119772800Y-103907600D01*
X119697800Y-103982600D01*
X119647800Y-103982600D01*
X119572800Y-103907600D01*
X119213126Y-103907600D01*
X119102863Y-103953272D01*
X119018472Y-104037664D01*
X118972800Y-104147927D01*
X118867449Y-104147927D01*
X118857758Y-104096427D01*
X118792055Y-103994321D01*
X118691803Y-103925822D01*
X118572800Y-103901723D01*
X117772800Y-103901723D01*
X117661627Y-103922642D01*
X117559521Y-103988345D01*
X117508300Y-104063310D01*
X117508300Y-103793594D01*
X117595797Y-103853378D01*
X117714800Y-103877477D01*
X118774800Y-103877477D01*
X118885973Y-103856558D01*
X118988079Y-103790855D01*
X119056578Y-103690603D01*
X119072880Y-103610100D01*
X119155800Y-103610100D01*
X119294906Y-103582430D01*
X119412833Y-103503633D01*
X119463989Y-103452477D01*
X119807800Y-103452477D01*
X119918973Y-103431558D01*
X120021079Y-103365855D01*
X120089578Y-103265603D01*
X120113677Y-103146600D01*
X120113677Y-102546600D01*
X120092758Y-102435427D01*
X120027055Y-102333321D01*
X119973306Y-102296596D01*
X120021079Y-102265855D01*
X120089578Y-102165603D01*
X120113677Y-102046600D01*
X120113677Y-101446600D01*
X120092758Y-101335427D01*
X120027055Y-101233321D01*
X119926803Y-101164822D01*
X119807800Y-101140723D01*
X119510989Y-101140723D01*
X119459833Y-101089567D01*
X119341906Y-101010770D01*
X119202800Y-100983100D01*
X119073433Y-100983100D01*
X119059758Y-100910427D01*
X118994055Y-100808321D01*
X118893803Y-100739822D01*
X118774800Y-100715723D01*
X117714800Y-100715723D01*
X117603627Y-100736642D01*
X117501521Y-100802345D01*
X117433022Y-100902597D01*
X117408923Y-101021600D01*
X117408923Y-101671600D01*
X117429842Y-101782773D01*
X117454523Y-101821129D01*
X117433022Y-101852597D01*
X117416720Y-101933100D01*
X117311800Y-101933100D01*
X117172695Y-101960770D01*
X117054767Y-102039566D01*
X116887767Y-102206567D01*
X116844314Y-102271598D01*
X116799802Y-102271598D01*
X116874800Y-102196600D01*
X116874800Y-101911927D01*
X116836636Y-101819790D01*
X116856578Y-101790603D01*
X116880677Y-101671600D01*
X116880677Y-101021600D01*
X116859758Y-100910427D01*
X116794055Y-100808321D01*
X116693803Y-100739822D01*
X116574800Y-100715723D01*
X116467239Y-100715723D01*
X116465153Y-100705240D01*
X116437449Y-100565959D01*
X116345321Y-100428080D01*
X116159320Y-100242080D01*
X116021441Y-100149951D01*
X115994457Y-100144584D01*
X115858800Y-100117600D01*
X115329677Y-100117600D01*
X115329677Y-100042600D01*
X115308758Y-99931427D01*
X115243055Y-99829321D01*
X115142803Y-99760822D01*
X115023800Y-99736723D01*
X113423800Y-99736723D01*
X113312627Y-99757642D01*
X113210521Y-99823345D01*
X113142022Y-99923597D01*
X113117923Y-100042600D01*
X113117923Y-100117600D01*
X110915000Y-100117600D01*
X110915000Y-90880000D01*
X112345838Y-90880000D01*
X112437183Y-91339220D01*
X112697310Y-91728528D01*
X113086618Y-91988655D01*
X113545838Y-92080000D01*
X115326162Y-92080000D01*
X115785382Y-91988655D01*
X116174690Y-91728528D01*
X116340750Y-91480000D01*
X118892103Y-91480000D01*
X118983448Y-91939220D01*
X119243575Y-92328528D01*
X119632883Y-92588655D01*
X120092103Y-92680000D01*
X120699897Y-92680000D01*
X121159117Y-92588655D01*
X121548425Y-92328528D01*
X121808552Y-91939220D01*
X121899897Y-91480000D01*
X121808552Y-91020780D01*
X121548425Y-90631472D01*
X121159117Y-90371345D01*
X120699897Y-90280000D01*
X120092103Y-90280000D01*
X119632883Y-90371345D01*
X119243575Y-90631472D01*
X118983448Y-91020780D01*
X118892103Y-91480000D01*
X116340750Y-91480000D01*
X116434817Y-91339220D01*
X116526162Y-90880000D01*
X116434817Y-90420780D01*
X116174690Y-90031472D01*
X115785382Y-89771345D01*
X115326162Y-89680000D01*
X113545838Y-89680000D01*
X113086618Y-89771345D01*
X112697310Y-90031472D01*
X112437183Y-90420780D01*
X112345838Y-90880000D01*
X110915000Y-90880000D01*
X110915000Y-88324908D01*
X110940043Y-88349995D01*
X111142118Y-88433904D01*
X111360922Y-88434095D01*
X111563143Y-88350539D01*
X111638990Y-88274824D01*
X111641997Y-88276878D01*
X111761000Y-88300977D01*
X114511000Y-88300977D01*
X114622173Y-88280058D01*
X114724279Y-88214355D01*
X114792778Y-88114103D01*
X114816877Y-87995100D01*
X114816877Y-87664900D01*
X114800315Y-87576883D01*
X114816877Y-87495100D01*
X114816877Y-87164900D01*
X114800792Y-87079418D01*
X114811000Y-87054774D01*
X114811000Y-86930000D01*
X114736000Y-86855000D01*
X113161000Y-86855000D01*
X113161000Y-86859023D01*
X113111000Y-86859023D01*
X113111000Y-86855000D01*
X111536000Y-86855000D01*
X111461000Y-86930000D01*
X111461000Y-86951000D01*
X111223881Y-86951000D01*
X111182957Y-86910005D01*
X111081799Y-86868000D01*
X111182143Y-86826539D01*
X111315414Y-86693500D01*
X111461000Y-86693500D01*
X111461000Y-86730000D01*
X111536000Y-86805000D01*
X113111000Y-86805000D01*
X113111000Y-86800977D01*
X113161000Y-86800977D01*
X113161000Y-86805000D01*
X114736000Y-86805000D01*
X114811000Y-86730000D01*
X114811000Y-86605226D01*
X114799969Y-86578594D01*
X114816877Y-86495100D01*
X114816877Y-86164900D01*
X114800315Y-86076883D01*
X114816877Y-85995100D01*
X114816877Y-85664900D01*
X114800315Y-85576883D01*
X114816877Y-85495100D01*
X114816877Y-85193500D01*
X115830000Y-85193500D01*
X115969106Y-85165830D01*
X116087033Y-85087033D01*
X116169097Y-85004969D01*
X116313922Y-85005095D01*
X116516143Y-84921539D01*
X116670995Y-84766957D01*
X116754904Y-84564882D01*
X116755095Y-84346078D01*
X116671539Y-84143857D01*
X116516957Y-83989005D01*
X116314882Y-83905096D01*
X116096078Y-83904905D01*
X115893857Y-83988461D01*
X115739005Y-84143043D01*
X115655096Y-84345118D01*
X115654990Y-84466500D01*
X114816877Y-84466500D01*
X114816877Y-84164900D01*
X114800792Y-84079418D01*
X114811000Y-84054774D01*
X114811000Y-83930000D01*
X114736000Y-83855000D01*
X113161000Y-83855000D01*
X113161000Y-83859023D01*
X113111000Y-83859023D01*
X113111000Y-83855000D01*
X113091000Y-83855000D01*
X113091000Y-83805000D01*
X113111000Y-83805000D01*
X113111000Y-83800977D01*
X113161000Y-83800977D01*
X113161000Y-83805000D01*
X114736000Y-83805000D01*
X114811000Y-83730000D01*
X114811000Y-83605226D01*
X114799969Y-83578594D01*
X114816877Y-83495100D01*
X114816877Y-83164900D01*
X114800315Y-83076883D01*
X114816877Y-82995100D01*
X114816877Y-82664900D01*
X114800792Y-82579418D01*
X114811000Y-82554774D01*
X114811000Y-82430000D01*
X114736000Y-82355000D01*
X113161000Y-82355000D01*
X113161000Y-82359023D01*
X113111000Y-82359023D01*
X113111000Y-82355000D01*
X113091000Y-82355000D01*
X113091000Y-82305000D01*
X113111000Y-82305000D01*
X113111000Y-82300977D01*
X113161000Y-82300977D01*
X113161000Y-82305000D01*
X114736000Y-82305000D01*
X114811000Y-82230000D01*
X114811000Y-82105226D01*
X114799969Y-82078594D01*
X114816877Y-81995100D01*
X114816877Y-81664900D01*
X114800315Y-81576883D01*
X114816877Y-81495100D01*
X114816877Y-81164900D01*
X114800792Y-81079418D01*
X114811000Y-81054774D01*
X114811000Y-80930000D01*
X114736000Y-80855000D01*
X113161000Y-80855000D01*
X113161000Y-80859023D01*
X113111000Y-80859023D01*
X113111000Y-80855000D01*
X113091000Y-80855000D01*
X113091000Y-80805000D01*
X113111000Y-80805000D01*
X113111000Y-80800977D01*
X113161000Y-80800977D01*
X113161000Y-80805000D01*
X114736000Y-80805000D01*
X114811000Y-80730000D01*
X114811000Y-80605226D01*
X114799969Y-80578594D01*
X114816877Y-80495100D01*
X114816877Y-80164900D01*
X114800315Y-80076883D01*
X114816877Y-79995100D01*
X114816877Y-79664900D01*
X114800792Y-79579418D01*
X114811000Y-79554774D01*
X114811000Y-79430000D01*
X114736000Y-79355000D01*
X113161000Y-79355000D01*
X113161000Y-79359023D01*
X113111000Y-79359023D01*
X113111000Y-79355000D01*
X113091000Y-79355000D01*
X113091000Y-79305000D01*
X113111000Y-79305000D01*
X113111000Y-79300977D01*
X113161000Y-79300977D01*
X113161000Y-79305000D01*
X114736000Y-79305000D01*
X114811000Y-79230000D01*
X114811000Y-79105226D01*
X114799969Y-79078594D01*
X114816877Y-78995100D01*
X114816877Y-78664900D01*
X114795958Y-78553727D01*
X114730255Y-78451621D01*
X114630003Y-78383122D01*
X114511000Y-78359023D01*
X111761000Y-78359023D01*
X111649827Y-78379942D01*
X111547721Y-78445645D01*
X111533471Y-78466500D01*
X111416000Y-78466500D01*
X111415890Y-78466522D01*
X111361882Y-78444096D01*
X111143078Y-78443905D01*
X110940857Y-78527461D01*
X110786005Y-78682043D01*
X110702096Y-78884118D01*
X110701905Y-79102922D01*
X110785461Y-79305143D01*
X110791683Y-79311375D01*
X110786005Y-79317043D01*
X110702096Y-79519118D01*
X110701905Y-79737922D01*
X110785461Y-79940143D01*
X110918682Y-80073597D01*
X110786005Y-80206043D01*
X110702096Y-80408118D01*
X110701905Y-80626922D01*
X110785461Y-80829143D01*
X110791683Y-80835375D01*
X110786005Y-80841043D01*
X110702096Y-81043118D01*
X110701905Y-81261922D01*
X110785461Y-81464143D01*
X110918682Y-81597597D01*
X110786005Y-81730043D01*
X110702096Y-81932118D01*
X110701905Y-82150922D01*
X110785461Y-82353143D01*
X110791683Y-82359375D01*
X110786005Y-82365043D01*
X110702096Y-82567118D01*
X110701905Y-82785922D01*
X110785461Y-82988143D01*
X110918682Y-83121597D01*
X110786005Y-83254043D01*
X110702096Y-83456118D01*
X110701905Y-83674922D01*
X110785461Y-83877143D01*
X110791683Y-83883375D01*
X110786005Y-83889043D01*
X110702096Y-84091118D01*
X110701905Y-84309922D01*
X110785461Y-84512143D01*
X110940043Y-84666995D01*
X111142118Y-84750904D01*
X111360922Y-84751095D01*
X111455123Y-84712172D01*
X111455123Y-84995100D01*
X111471685Y-85083117D01*
X111455123Y-85164900D01*
X111455123Y-85309678D01*
X111383882Y-85280096D01*
X111165078Y-85279905D01*
X110962857Y-85363461D01*
X110808005Y-85518043D01*
X110724096Y-85720118D01*
X110724004Y-85825637D01*
X110559857Y-85893461D01*
X110405005Y-86048043D01*
X110321096Y-86250118D01*
X110320905Y-86468922D01*
X110404461Y-86671143D01*
X110559043Y-86825995D01*
X110660201Y-86868000D01*
X110559857Y-86909461D01*
X110405005Y-87064043D01*
X110321096Y-87266118D01*
X110321045Y-87324915D01*
X110189480Y-87456480D01*
X110097351Y-87594359D01*
X110097351Y-87594360D01*
X110065000Y-87757000D01*
X103189000Y-87757000D01*
X103189000Y-86056881D01*
X103229995Y-86015957D01*
X103313904Y-85813882D01*
X103314095Y-85595078D01*
X103230539Y-85392857D01*
X103189000Y-85351245D01*
X103189000Y-85242911D01*
X103289479Y-85178255D01*
X103357978Y-85078003D01*
X103382077Y-84959000D01*
X103382077Y-84459000D01*
X103361158Y-84347827D01*
X103295455Y-84245721D01*
X103195203Y-84177222D01*
X103076200Y-84153123D01*
X102476200Y-84153123D01*
X102365027Y-84174042D01*
X102262921Y-84239745D01*
X102229753Y-84288289D01*
X102146137Y-84204672D01*
X102035874Y-84159000D01*
X101776200Y-84159000D01*
X101701200Y-84234000D01*
X101701200Y-84684000D01*
X101721200Y-84684000D01*
X101721200Y-84734000D01*
X101701200Y-84734000D01*
X101701200Y-85184000D01*
X101776200Y-85259000D01*
X102035874Y-85259000D01*
X102146137Y-85213328D01*
X102229632Y-85129832D01*
X102256945Y-85172279D01*
X102339000Y-85228345D01*
X102339000Y-85351119D01*
X102298005Y-85392043D01*
X102214096Y-85594118D01*
X102213905Y-85812922D01*
X102297461Y-86015143D01*
X102339000Y-86056755D01*
X102339000Y-93416800D01*
X102365984Y-93552457D01*
X102371351Y-93579441D01*
X102463480Y-93717320D01*
X104248400Y-95502241D01*
X104248400Y-101498400D01*
X104265965Y-101586706D01*
X104280751Y-101661041D01*
X104372880Y-101798920D01*
X106206483Y-103632523D01*
X106206483Y-103678360D01*
X106227402Y-103789533D01*
X106293105Y-103891639D01*
X106393357Y-103960138D01*
X106512360Y-103984237D01*
X106748300Y-103984237D01*
X106748300Y-104495600D01*
X106775970Y-104634706D01*
X106854767Y-104752633D01*
X107068767Y-104966634D01*
X107144555Y-105017273D01*
X107186695Y-105045430D01*
X107310291Y-105070015D01*
X107319842Y-105120773D01*
X107385545Y-105222879D01*
X107395369Y-105229592D01*
X107323896Y-105401718D01*
X107323705Y-105620522D01*
X107407261Y-105822743D01*
X107448800Y-105864355D01*
X107448800Y-108031000D01*
X87010501Y-108031000D01*
X87336930Y-107901935D01*
X87366063Y-107882469D01*
X87444730Y-107722085D01*
X86750000Y-107027355D01*
X86055270Y-107722085D01*
X86133937Y-107882469D01*
X86476729Y-108031000D01*
X84470501Y-108031000D01*
X84796930Y-107901935D01*
X84826063Y-107882469D01*
X84904730Y-107722085D01*
X84210000Y-107027355D01*
X83515270Y-107722085D01*
X83593937Y-107882469D01*
X83936729Y-108031000D01*
X81834000Y-108031000D01*
X81834000Y-107186036D01*
X83144721Y-107186036D01*
X83300065Y-107578930D01*
X83319531Y-107608063D01*
X83479915Y-107686730D01*
X84174645Y-106992000D01*
X84245355Y-106992000D01*
X84940085Y-107686730D01*
X85100469Y-107608063D01*
X85268443Y-107220399D01*
X85268999Y-107186036D01*
X85684721Y-107186036D01*
X85840065Y-107578930D01*
X85859531Y-107608063D01*
X86019915Y-107686730D01*
X86714645Y-106992000D01*
X86785355Y-106992000D01*
X87480085Y-107686730D01*
X87640469Y-107608063D01*
X87808443Y-107220399D01*
X87815279Y-106797964D01*
X87659935Y-106405070D01*
X87640469Y-106375937D01*
X87480085Y-106297270D01*
X86785355Y-106992000D01*
X86714645Y-106992000D01*
X86019915Y-106297270D01*
X85859531Y-106375937D01*
X85691557Y-106763601D01*
X85684721Y-107186036D01*
X85268999Y-107186036D01*
X85275279Y-106797964D01*
X85119935Y-106405070D01*
X85100469Y-106375937D01*
X84940085Y-106297270D01*
X84245355Y-106992000D01*
X84174645Y-106992000D01*
X83479915Y-106297270D01*
X83319531Y-106375937D01*
X83151557Y-106763601D01*
X83144721Y-107186036D01*
X81834000Y-107186036D01*
X81834000Y-106261915D01*
X83515270Y-106261915D01*
X84210000Y-106956645D01*
X84904730Y-106261915D01*
X86055270Y-106261915D01*
X86750000Y-106956645D01*
X87444730Y-106261915D01*
X87366063Y-106101531D01*
X86978399Y-105933557D01*
X86555964Y-105926721D01*
X86163070Y-106082065D01*
X86133937Y-106101531D01*
X86055270Y-106261915D01*
X84904730Y-106261915D01*
X84826063Y-106101531D01*
X84438399Y-105933557D01*
X84015964Y-105926721D01*
X83623070Y-106082065D01*
X83593937Y-106101531D01*
X83515270Y-106261915D01*
X81834000Y-106261915D01*
X81834000Y-104662318D01*
X83147816Y-104662318D01*
X83309155Y-105052789D01*
X83607640Y-105351795D01*
X83997828Y-105513815D01*
X84420318Y-105514184D01*
X84810789Y-105352845D01*
X85109795Y-105054360D01*
X85271815Y-104664172D01*
X85271816Y-104662318D01*
X85687816Y-104662318D01*
X85849155Y-105052789D01*
X86147640Y-105351795D01*
X86537828Y-105513815D01*
X86960318Y-105514184D01*
X87350789Y-105352845D01*
X87649795Y-105054360D01*
X87811815Y-104664172D01*
X87812184Y-104241682D01*
X87650845Y-103851211D01*
X87352360Y-103552205D01*
X86962172Y-103390185D01*
X86539682Y-103389816D01*
X86149211Y-103551155D01*
X85850205Y-103849640D01*
X85688185Y-104239828D01*
X85687816Y-104662318D01*
X85271816Y-104662318D01*
X85272184Y-104241682D01*
X85110845Y-103851211D01*
X84812360Y-103552205D01*
X84422172Y-103390185D01*
X83999682Y-103389816D01*
X83609211Y-103551155D01*
X83310205Y-103849640D01*
X83148185Y-104239828D01*
X83147816Y-104662318D01*
X81834000Y-104662318D01*
X81834000Y-102122318D01*
X83147816Y-102122318D01*
X83309155Y-102512789D01*
X83607640Y-102811795D01*
X83997828Y-102973815D01*
X84420318Y-102974184D01*
X84810789Y-102812845D01*
X85109795Y-102514360D01*
X85271815Y-102124172D01*
X85271816Y-102122318D01*
X85687816Y-102122318D01*
X85849155Y-102512789D01*
X86147640Y-102811795D01*
X86537828Y-102973815D01*
X86960318Y-102974184D01*
X87350789Y-102812845D01*
X87649795Y-102514360D01*
X87811815Y-102124172D01*
X87812184Y-101701682D01*
X87650845Y-101311211D01*
X87352360Y-101012205D01*
X87011631Y-100870722D01*
X94064905Y-100870722D01*
X94148461Y-101072943D01*
X94303043Y-101227795D01*
X94505118Y-101311704D01*
X94723922Y-101311895D01*
X94926143Y-101228339D01*
X95080995Y-101073757D01*
X95164904Y-100871682D01*
X95165031Y-100725835D01*
X100968033Y-94922833D01*
X101046830Y-94804905D01*
X101074500Y-94665800D01*
X101074500Y-86520273D01*
X101176995Y-86417957D01*
X101260904Y-86215882D01*
X101261095Y-85997078D01*
X101177539Y-85794857D01*
X101022957Y-85640005D01*
X100820882Y-85556096D01*
X100602078Y-85555905D01*
X100399857Y-85639461D01*
X100245005Y-85794043D01*
X100161096Y-85996118D01*
X100160905Y-86214922D01*
X100244461Y-86417143D01*
X100347500Y-86520362D01*
X100347500Y-94515234D01*
X94650903Y-100211831D01*
X94506078Y-100211705D01*
X94303857Y-100295261D01*
X94149005Y-100449843D01*
X94065096Y-100651918D01*
X94064905Y-100870722D01*
X87011631Y-100870722D01*
X86962172Y-100850185D01*
X86539682Y-100849816D01*
X86149211Y-101011155D01*
X85850205Y-101309640D01*
X85688185Y-101699828D01*
X85687816Y-102122318D01*
X85271816Y-102122318D01*
X85272184Y-101701682D01*
X85110845Y-101311211D01*
X84812360Y-101012205D01*
X84422172Y-100850185D01*
X83999682Y-100849816D01*
X83609211Y-101011155D01*
X83310205Y-101309640D01*
X83148185Y-101699828D01*
X83147816Y-102122318D01*
X81834000Y-102122318D01*
X81834000Y-99582318D01*
X83147816Y-99582318D01*
X83309155Y-99972789D01*
X83607640Y-100271795D01*
X83997828Y-100433815D01*
X84420318Y-100434184D01*
X84810789Y-100272845D01*
X85109795Y-99974360D01*
X85271815Y-99584172D01*
X85271816Y-99582318D01*
X85687816Y-99582318D01*
X85849155Y-99972789D01*
X86147640Y-100271795D01*
X86537828Y-100433815D01*
X86960318Y-100434184D01*
X87350789Y-100272845D01*
X87649795Y-99974360D01*
X87811815Y-99584172D01*
X87812184Y-99161682D01*
X87650845Y-98771211D01*
X87352360Y-98472205D01*
X86962172Y-98310185D01*
X86539682Y-98309816D01*
X86149211Y-98471155D01*
X85850205Y-98769640D01*
X85688185Y-99159828D01*
X85687816Y-99582318D01*
X85271816Y-99582318D01*
X85272184Y-99161682D01*
X85110845Y-98771211D01*
X84812360Y-98472205D01*
X84422172Y-98310185D01*
X83999682Y-98309816D01*
X83609211Y-98471155D01*
X83310205Y-98769640D01*
X83148185Y-99159828D01*
X83147816Y-99582318D01*
X81834000Y-99582318D01*
X81834000Y-97042318D01*
X83147816Y-97042318D01*
X83309155Y-97432789D01*
X83607640Y-97731795D01*
X83997828Y-97893815D01*
X84420318Y-97894184D01*
X84810789Y-97732845D01*
X85109795Y-97434360D01*
X85271815Y-97044172D01*
X85272184Y-96621682D01*
X85110845Y-96231211D01*
X84949915Y-96070000D01*
X85682123Y-96070000D01*
X85682123Y-97594000D01*
X85703042Y-97705173D01*
X85768745Y-97807279D01*
X85868997Y-97875778D01*
X85988000Y-97899877D01*
X87512000Y-97899877D01*
X87623173Y-97878958D01*
X87725279Y-97813255D01*
X87793778Y-97713003D01*
X87817877Y-97594000D01*
X87817877Y-96070000D01*
X87796958Y-95958827D01*
X87731255Y-95856721D01*
X87631003Y-95788222D01*
X87512000Y-95764123D01*
X85988000Y-95764123D01*
X85876827Y-95785042D01*
X85774721Y-95850745D01*
X85706222Y-95950997D01*
X85682123Y-96070000D01*
X84949915Y-96070000D01*
X84812360Y-95932205D01*
X84422172Y-95770185D01*
X83999682Y-95769816D01*
X83609211Y-95931155D01*
X83310205Y-96229640D01*
X83148185Y-96619828D01*
X83147816Y-97042318D01*
X81834000Y-97042318D01*
X81834000Y-92220600D01*
X84000519Y-92220600D01*
X84041443Y-92261595D01*
X84243518Y-92345504D01*
X84462322Y-92345695D01*
X84664543Y-92262139D01*
X84819395Y-92107557D01*
X84903304Y-91905482D01*
X84903495Y-91686678D01*
X84819939Y-91484457D01*
X84665357Y-91329605D01*
X84463282Y-91245696D01*
X84244478Y-91245505D01*
X84042257Y-91329061D01*
X84000645Y-91370600D01*
X81834000Y-91370600D01*
X81834000Y-88184000D01*
X88392000Y-88184000D01*
X88501037Y-88163483D01*
X88601181Y-88099042D01*
X88668364Y-88000717D01*
X88692000Y-87884000D01*
X88692000Y-85344000D01*
X88671483Y-85234963D01*
X88607042Y-85134819D01*
X88508717Y-85067636D01*
X88392000Y-85044000D01*
X87331707Y-85044000D01*
X87336930Y-85041935D01*
X87366063Y-85022469D01*
X87444730Y-84862085D01*
X86750000Y-84167355D01*
X86055270Y-84862085D01*
X86133937Y-85022469D01*
X86183628Y-85044000D01*
X84791707Y-85044000D01*
X84796930Y-85041935D01*
X84826063Y-85022469D01*
X84904730Y-84862085D01*
X84210000Y-84167355D01*
X83515270Y-84862085D01*
X83593937Y-85022469D01*
X83643628Y-85044000D01*
X81834000Y-85044000D01*
X81834000Y-84326036D01*
X83144721Y-84326036D01*
X83300065Y-84718930D01*
X83319531Y-84748063D01*
X83479915Y-84826730D01*
X84174645Y-84132000D01*
X84245355Y-84132000D01*
X84940085Y-84826730D01*
X85100469Y-84748063D01*
X85268443Y-84360399D01*
X85268999Y-84326036D01*
X85684721Y-84326036D01*
X85840065Y-84718930D01*
X85859531Y-84748063D01*
X86019915Y-84826730D01*
X86714645Y-84132000D01*
X86785355Y-84132000D01*
X87480085Y-84826730D01*
X87516232Y-84809000D01*
X101076200Y-84809000D01*
X101076200Y-85018673D01*
X101121872Y-85128936D01*
X101206263Y-85213328D01*
X101316526Y-85259000D01*
X101576200Y-85259000D01*
X101651200Y-85184000D01*
X101651200Y-84734000D01*
X101151200Y-84734000D01*
X101076200Y-84809000D01*
X87516232Y-84809000D01*
X87640469Y-84748063D01*
X87791575Y-84399327D01*
X101076200Y-84399327D01*
X101076200Y-84609000D01*
X101151200Y-84684000D01*
X101651200Y-84684000D01*
X101651200Y-84234000D01*
X101576200Y-84159000D01*
X101316526Y-84159000D01*
X101206263Y-84204672D01*
X101121872Y-84289064D01*
X101076200Y-84399327D01*
X87791575Y-84399327D01*
X87808443Y-84360399D01*
X87815279Y-83937964D01*
X87659935Y-83545070D01*
X87640469Y-83515937D01*
X87480085Y-83437270D01*
X86785355Y-84132000D01*
X86714645Y-84132000D01*
X86019915Y-83437270D01*
X85859531Y-83515937D01*
X85691557Y-83903601D01*
X85684721Y-84326036D01*
X85268999Y-84326036D01*
X85275279Y-83937964D01*
X85119935Y-83545070D01*
X85100469Y-83515937D01*
X84940085Y-83437270D01*
X84245355Y-84132000D01*
X84174645Y-84132000D01*
X83479915Y-83437270D01*
X83319531Y-83515937D01*
X83151557Y-83903601D01*
X83144721Y-84326036D01*
X81834000Y-84326036D01*
X81834000Y-83401915D01*
X83515270Y-83401915D01*
X84210000Y-84096645D01*
X84904730Y-83401915D01*
X86055270Y-83401915D01*
X86750000Y-84096645D01*
X87444730Y-83401915D01*
X87366063Y-83241531D01*
X86978399Y-83073557D01*
X86555964Y-83066721D01*
X86163070Y-83222065D01*
X86133937Y-83241531D01*
X86055270Y-83401915D01*
X84904730Y-83401915D01*
X84826063Y-83241531D01*
X84438399Y-83073557D01*
X84015964Y-83066721D01*
X83623070Y-83222065D01*
X83593937Y-83241531D01*
X83515270Y-83401915D01*
X81834000Y-83401915D01*
X81834000Y-81802318D01*
X83147816Y-81802318D01*
X83309155Y-82192789D01*
X83607640Y-82491795D01*
X83997828Y-82653815D01*
X84420318Y-82654184D01*
X84810789Y-82492845D01*
X85109795Y-82194360D01*
X85271815Y-81804172D01*
X85271816Y-81802318D01*
X85687816Y-81802318D01*
X85849155Y-82192789D01*
X86147640Y-82491795D01*
X86537828Y-82653815D01*
X86960318Y-82654184D01*
X87350789Y-82492845D01*
X87649795Y-82194360D01*
X87811815Y-81804172D01*
X87812184Y-81381682D01*
X87650845Y-80991211D01*
X87352360Y-80692205D01*
X86962172Y-80530185D01*
X86539682Y-80529816D01*
X86149211Y-80691155D01*
X85850205Y-80989640D01*
X85688185Y-81379828D01*
X85687816Y-81802318D01*
X85271816Y-81802318D01*
X85272184Y-81381682D01*
X85110845Y-80991211D01*
X84812360Y-80692205D01*
X84422172Y-80530185D01*
X83999682Y-80529816D01*
X83609211Y-80691155D01*
X83310205Y-80989640D01*
X83148185Y-81379828D01*
X83147816Y-81802318D01*
X81834000Y-81802318D01*
X81834000Y-79262318D01*
X83147816Y-79262318D01*
X83309155Y-79652789D01*
X83607640Y-79951795D01*
X83997828Y-80113815D01*
X84420318Y-80114184D01*
X84810789Y-79952845D01*
X85109795Y-79654360D01*
X85271815Y-79264172D01*
X85271816Y-79262318D01*
X85687816Y-79262318D01*
X85849155Y-79652789D01*
X86147640Y-79951795D01*
X86537828Y-80113815D01*
X86960318Y-80114184D01*
X87350789Y-79952845D01*
X87649795Y-79654360D01*
X87811815Y-79264172D01*
X87812184Y-78841682D01*
X87650845Y-78451211D01*
X87352360Y-78152205D01*
X86962172Y-77990185D01*
X86539682Y-77989816D01*
X86149211Y-78151155D01*
X85850205Y-78449640D01*
X85688185Y-78839828D01*
X85687816Y-79262318D01*
X85271816Y-79262318D01*
X85272184Y-78841682D01*
X85110845Y-78451211D01*
X84812360Y-78152205D01*
X84422172Y-77990185D01*
X83999682Y-77989816D01*
X83609211Y-78151155D01*
X83310205Y-78449640D01*
X83148185Y-78839828D01*
X83147816Y-79262318D01*
X81834000Y-79262318D01*
X81834000Y-76722318D01*
X83147816Y-76722318D01*
X83309155Y-77112789D01*
X83607640Y-77411795D01*
X83997828Y-77573815D01*
X84420318Y-77574184D01*
X84810789Y-77412845D01*
X85109795Y-77114360D01*
X85271815Y-76724172D01*
X85271816Y-76722318D01*
X85687816Y-76722318D01*
X85849155Y-77112789D01*
X86147640Y-77411795D01*
X86537828Y-77573815D01*
X86960318Y-77574184D01*
X87350789Y-77412845D01*
X87649795Y-77114360D01*
X87811815Y-76724172D01*
X87812184Y-76301682D01*
X87650845Y-75911211D01*
X87352360Y-75612205D01*
X86962172Y-75450185D01*
X86539682Y-75449816D01*
X86149211Y-75611155D01*
X85850205Y-75909640D01*
X85688185Y-76299828D01*
X85687816Y-76722318D01*
X85271816Y-76722318D01*
X85272184Y-76301682D01*
X85110845Y-75911211D01*
X84812360Y-75612205D01*
X84422172Y-75450185D01*
X83999682Y-75449816D01*
X83609211Y-75611155D01*
X83310205Y-75909640D01*
X83148185Y-76299828D01*
X83147816Y-76722318D01*
X81834000Y-76722318D01*
X81834000Y-74182318D01*
X83147816Y-74182318D01*
X83309155Y-74572789D01*
X83607640Y-74871795D01*
X83997828Y-75033815D01*
X84420318Y-75034184D01*
X84810789Y-74872845D01*
X85109795Y-74574360D01*
X85271815Y-74184172D01*
X85272184Y-73761682D01*
X85110845Y-73371211D01*
X84949915Y-73210000D01*
X85682123Y-73210000D01*
X85682123Y-74734000D01*
X85703042Y-74845173D01*
X85768745Y-74947279D01*
X85868997Y-75015778D01*
X85988000Y-75039877D01*
X87512000Y-75039877D01*
X87623173Y-75018958D01*
X87725279Y-74953255D01*
X87793778Y-74853003D01*
X87817877Y-74734000D01*
X87817877Y-73210000D01*
X87796958Y-73098827D01*
X87731255Y-72996721D01*
X87631003Y-72928222D01*
X87512000Y-72904123D01*
X85988000Y-72904123D01*
X85876827Y-72925042D01*
X85774721Y-72990745D01*
X85706222Y-73090997D01*
X85682123Y-73210000D01*
X84949915Y-73210000D01*
X84812360Y-73072205D01*
X84422172Y-72910185D01*
X83999682Y-72909816D01*
X83609211Y-73071155D01*
X83310205Y-73369640D01*
X83148185Y-73759828D01*
X83147816Y-74182318D01*
X81834000Y-74182318D01*
X81834000Y-72055000D01*
X96095000Y-72055000D01*
X96095000Y-74295000D01*
X96107511Y-74357895D01*
X96127351Y-74457641D01*
X96219480Y-74595520D01*
X98279400Y-76655440D01*
X98279400Y-79019400D01*
X98305611Y-79151173D01*
X98311751Y-79182041D01*
X98403880Y-79319920D01*
X98701640Y-79617680D01*
X98637096Y-79773118D01*
X98636905Y-79991922D01*
X98720461Y-80194143D01*
X98875043Y-80348995D01*
X99077118Y-80432904D01*
X99295922Y-80433095D01*
X99498143Y-80349539D01*
X99652995Y-80194957D01*
X99736904Y-79992882D01*
X99737095Y-79774078D01*
X99653539Y-79571857D01*
X99612000Y-79530245D01*
X99612000Y-79502000D01*
X99579776Y-79340000D01*
X99711000Y-79340000D01*
X99786000Y-79265000D01*
X99786000Y-78765000D01*
X99386000Y-78765000D01*
X99311000Y-78840000D01*
X99311000Y-79024959D01*
X99129400Y-78843360D01*
X99129400Y-78380327D01*
X99311000Y-78380327D01*
X99311000Y-78640000D01*
X99386000Y-78715000D01*
X99786000Y-78715000D01*
X99786000Y-78695000D01*
X99836000Y-78695000D01*
X99836000Y-78715000D01*
X99856000Y-78715000D01*
X99856000Y-78765000D01*
X99836000Y-78765000D01*
X99836000Y-79265000D01*
X99911000Y-79340000D01*
X100070674Y-79340000D01*
X100180937Y-79294328D01*
X100264432Y-79210832D01*
X100291745Y-79253279D01*
X100391997Y-79321778D01*
X100511000Y-79345877D01*
X100911000Y-79345877D01*
X101022173Y-79324958D01*
X101109308Y-79268889D01*
X101159918Y-79289904D01*
X101378722Y-79290095D01*
X101580943Y-79206539D01*
X101735795Y-79051957D01*
X101819704Y-78849882D01*
X101819895Y-78631078D01*
X101736339Y-78428857D01*
X101581757Y-78274005D01*
X101379682Y-78190096D01*
X101271500Y-78190002D01*
X101313904Y-78087882D01*
X101314095Y-77869078D01*
X101230539Y-77666857D01*
X101075957Y-77512005D01*
X100873882Y-77428096D01*
X100708877Y-77427952D01*
X100708877Y-77424000D01*
X100687958Y-77312827D01*
X100622255Y-77210721D01*
X100522003Y-77142222D01*
X100403000Y-77118123D01*
X100003000Y-77118123D01*
X99891827Y-77139042D01*
X99789721Y-77204745D01*
X99756553Y-77253289D01*
X99672937Y-77169672D01*
X99562674Y-77124000D01*
X99403000Y-77124000D01*
X99328000Y-77199000D01*
X99328000Y-77699000D01*
X99348000Y-77699000D01*
X99348000Y-77749000D01*
X99328000Y-77749000D01*
X99328000Y-78249000D01*
X99354444Y-78275444D01*
X99311000Y-78380327D01*
X99129400Y-78380327D01*
X99129400Y-78324000D01*
X99203000Y-78324000D01*
X99278000Y-78249000D01*
X99278000Y-77749000D01*
X99258000Y-77749000D01*
X99258000Y-77699000D01*
X99278000Y-77699000D01*
X99278000Y-77199000D01*
X99203000Y-77124000D01*
X99129400Y-77124000D01*
X99129400Y-76479400D01*
X99097049Y-76316760D01*
X99097049Y-76316759D01*
X99004920Y-76178880D01*
X96945000Y-74118960D01*
X96945000Y-72055000D01*
X98298000Y-72055000D01*
X98407037Y-72034483D01*
X98507181Y-71970042D01*
X98574364Y-71871717D01*
X98598000Y-71755000D01*
X98598000Y-71545000D01*
X99295960Y-71545000D01*
X100730985Y-72980026D01*
X100726222Y-72986997D01*
X100702123Y-73106000D01*
X100702123Y-73706000D01*
X100723042Y-73817173D01*
X100783000Y-73910351D01*
X100783000Y-73919899D01*
X100726222Y-74002997D01*
X100702123Y-74122000D01*
X100702123Y-74722000D01*
X100723042Y-74833173D01*
X100730512Y-74844782D01*
X100668000Y-74832123D01*
X100268000Y-74832123D01*
X100156827Y-74853042D01*
X100054721Y-74918745D01*
X100017996Y-74972494D01*
X99987255Y-74924721D01*
X99887003Y-74856222D01*
X99768000Y-74832123D01*
X99368000Y-74832123D01*
X99256827Y-74853042D01*
X99154721Y-74918745D01*
X99086222Y-75018997D01*
X99062123Y-75138000D01*
X99062123Y-75738000D01*
X99083042Y-75849173D01*
X99148745Y-75951279D01*
X99214485Y-75996197D01*
X99232170Y-76085106D01*
X99310967Y-76203033D01*
X99739842Y-76631908D01*
X99788551Y-76664454D01*
X99797461Y-76686018D01*
X99952043Y-76840870D01*
X100154118Y-76924779D01*
X100372922Y-76924970D01*
X100575143Y-76841414D01*
X100729995Y-76686832D01*
X100813904Y-76484757D01*
X100814095Y-76265953D01*
X100730539Y-76063732D01*
X100703963Y-76037110D01*
X100779173Y-76022958D01*
X100838129Y-75985021D01*
X100888997Y-76019778D01*
X101008000Y-76043877D01*
X101408000Y-76043877D01*
X101519173Y-76022958D01*
X101621279Y-75957255D01*
X101658004Y-75903506D01*
X101688745Y-75951279D01*
X101788997Y-76019778D01*
X101900500Y-76042358D01*
X101900500Y-76931149D01*
X101873882Y-76920096D01*
X101655078Y-76919905D01*
X101452857Y-77003461D01*
X101298005Y-77158043D01*
X101214096Y-77360118D01*
X101213905Y-77578922D01*
X101297461Y-77781143D01*
X101452043Y-77935995D01*
X101654118Y-78019904D01*
X101713963Y-78019956D01*
X101713905Y-78086922D01*
X101797461Y-78289143D01*
X101952043Y-78443995D01*
X102154118Y-78527904D01*
X102372922Y-78528095D01*
X102575143Y-78444539D01*
X102729995Y-78289957D01*
X102763980Y-78208112D01*
X102797461Y-78289143D01*
X102952043Y-78443995D01*
X103154118Y-78527904D01*
X103372922Y-78528095D01*
X103410200Y-78512692D01*
X103410200Y-79631719D01*
X103369205Y-79672643D01*
X103285296Y-79874718D01*
X103285105Y-80093522D01*
X103368661Y-80295743D01*
X103523243Y-80450595D01*
X103725318Y-80534504D01*
X103944122Y-80534695D01*
X104146343Y-80451139D01*
X104301195Y-80296557D01*
X104385104Y-80094482D01*
X104385295Y-79875678D01*
X104301739Y-79673457D01*
X104260200Y-79631845D01*
X104260200Y-76080000D01*
X112345838Y-76080000D01*
X112437183Y-76539220D01*
X112697310Y-76928528D01*
X113086618Y-77188655D01*
X113545838Y-77280000D01*
X115326162Y-77280000D01*
X115785382Y-77188655D01*
X116174690Y-76928528D01*
X116434817Y-76539220D01*
X116526162Y-76080000D01*
X116434817Y-75620780D01*
X116340751Y-75480000D01*
X118892103Y-75480000D01*
X118983448Y-75939220D01*
X119243575Y-76328528D01*
X119632883Y-76588655D01*
X120092103Y-76680000D01*
X120699897Y-76680000D01*
X121159117Y-76588655D01*
X121548425Y-76328528D01*
X121808552Y-75939220D01*
X121899897Y-75480000D01*
X121808552Y-75020780D01*
X121548425Y-74631472D01*
X121159117Y-74371345D01*
X120699897Y-74280000D01*
X120092103Y-74280000D01*
X119632883Y-74371345D01*
X119243575Y-74631472D01*
X118983448Y-75020780D01*
X118892103Y-75480000D01*
X116340751Y-75480000D01*
X116174690Y-75231472D01*
X115785382Y-74971345D01*
X115326162Y-74880000D01*
X113545838Y-74880000D01*
X113086618Y-74971345D01*
X112697310Y-75231472D01*
X112437183Y-75620780D01*
X112345838Y-76080000D01*
X104260200Y-76080000D01*
X104260200Y-75359081D01*
X104301195Y-75318157D01*
X104385104Y-75116082D01*
X104385295Y-74897278D01*
X104301739Y-74695057D01*
X104147157Y-74540205D01*
X103945082Y-74456296D01*
X103726278Y-74456105D01*
X103627500Y-74496919D01*
X103627500Y-73981000D01*
X103615630Y-73921322D01*
X104428105Y-73921322D01*
X104511661Y-74123543D01*
X104666243Y-74278395D01*
X104868318Y-74362304D01*
X105087122Y-74362495D01*
X105289343Y-74278939D01*
X105444195Y-74124357D01*
X105528104Y-73922282D01*
X105528295Y-73703478D01*
X105444739Y-73501257D01*
X105290157Y-73346405D01*
X105088082Y-73262496D01*
X104869278Y-73262305D01*
X104667057Y-73345861D01*
X104512205Y-73500443D01*
X104428296Y-73702518D01*
X104428105Y-73921322D01*
X103615630Y-73921322D01*
X103599830Y-73841895D01*
X103521033Y-73723967D01*
X102946033Y-73148967D01*
X102828106Y-73070170D01*
X102689000Y-73042500D01*
X102601928Y-73042500D01*
X102592958Y-72994827D01*
X102527255Y-72892721D01*
X102427003Y-72824222D01*
X102308000Y-72800123D01*
X101908000Y-72800123D01*
X101796827Y-72821042D01*
X101694721Y-72886745D01*
X101657996Y-72940494D01*
X101633000Y-72901649D01*
X101633000Y-72856000D01*
X101600649Y-72693360D01*
X101600649Y-72693359D01*
X101508521Y-72555480D01*
X99772520Y-70819480D01*
X99634641Y-70727351D01*
X99607657Y-70721984D01*
X99472000Y-70695000D01*
X98598000Y-70695000D01*
X98598000Y-70600000D01*
X121900000Y-70600000D01*
X121900000Y-108031000D01*
X121900000Y-108031000D01*
G37*
X121900000Y-108031000D02*
X111727800Y-108031000D01*
X111727800Y-105864481D01*
X111768795Y-105823557D01*
X111852704Y-105621482D01*
X111852895Y-105402678D01*
X111831389Y-105350629D01*
X111904079Y-105303855D01*
X111972578Y-105203603D01*
X111996677Y-105084600D01*
X111996677Y-104334600D01*
X111975758Y-104223427D01*
X111910055Y-104121321D01*
X111809803Y-104052822D01*
X111690800Y-104028723D01*
X111338996Y-104028723D01*
X111359677Y-103926600D01*
X111359677Y-103642600D01*
X113123800Y-103642600D01*
X113123800Y-104102274D01*
X113169472Y-104212537D01*
X113253864Y-104296928D01*
X113364127Y-104342600D01*
X114123800Y-104342600D01*
X114198800Y-104267600D01*
X114198800Y-103567600D01*
X113198800Y-103567600D01*
X113123800Y-103642600D01*
X111359677Y-103642600D01*
X111359677Y-102982926D01*
X113123800Y-102982926D01*
X113123800Y-103442600D01*
X113198800Y-103517600D01*
X114198800Y-103517600D01*
X114198800Y-102817600D01*
X114123800Y-102742600D01*
X113364127Y-102742600D01*
X113253864Y-102788272D01*
X113169472Y-102872663D01*
X113123800Y-102982926D01*
X111359677Y-102982926D01*
X111359677Y-102866600D01*
X111338758Y-102755427D01*
X111273055Y-102653321D01*
X111172803Y-102584822D01*
X111053800Y-102560723D01*
X110403800Y-102560723D01*
X110292627Y-102581642D01*
X110256270Y-102605037D01*
X110163473Y-102566600D01*
X109878800Y-102566600D01*
X109803800Y-102641600D01*
X109803800Y-103371600D01*
X109823800Y-103371600D01*
X109823800Y-103421600D01*
X109803800Y-103421600D01*
X109803800Y-104151600D01*
X109815800Y-104163600D01*
X109815800Y-104684600D01*
X110415800Y-104684600D01*
X110490800Y-104609600D01*
X110490800Y-104423666D01*
X110584923Y-104517789D01*
X110584923Y-105084600D01*
X110605842Y-105195773D01*
X110671545Y-105297879D01*
X110768505Y-105364128D01*
X110752896Y-105401718D01*
X110752705Y-105620522D01*
X110836261Y-105822743D01*
X110877800Y-105864355D01*
X110877800Y-108031000D01*
X108298800Y-108031000D01*
X108298800Y-105864481D01*
X108339795Y-105823557D01*
X108423704Y-105621482D01*
X108423895Y-105402678D01*
X108374803Y-105283866D01*
X108385797Y-105291378D01*
X108504800Y-105315477D01*
X108904800Y-105315477D01*
X109015973Y-105294558D01*
X109118079Y-105228855D01*
X109122908Y-105221788D01*
X109136472Y-105254536D01*
X109220863Y-105338928D01*
X109331126Y-105384600D01*
X109690800Y-105384600D01*
X109765800Y-105309600D01*
X109765800Y-104734600D01*
X109815800Y-104734600D01*
X109815800Y-105309600D01*
X109890800Y-105384600D01*
X110250474Y-105384600D01*
X110360737Y-105338928D01*
X110445128Y-105254536D01*
X110490800Y-105144273D01*
X110490800Y-104809600D01*
X110415800Y-104734600D01*
X109815800Y-104734600D01*
X109765800Y-104734600D01*
X109745800Y-104734600D01*
X109745800Y-104684600D01*
X109765800Y-104684600D01*
X109765800Y-104109600D01*
X109753800Y-104097600D01*
X109753800Y-103421600D01*
X109733800Y-103421600D01*
X109733800Y-103371600D01*
X109753800Y-103371600D01*
X109753800Y-102641600D01*
X109678800Y-102566600D01*
X109394127Y-102566600D01*
X109301990Y-102604764D01*
X109272803Y-102584822D01*
X109153800Y-102560723D01*
X108503800Y-102560723D01*
X108392627Y-102581642D01*
X108290521Y-102647345D01*
X108222022Y-102747597D01*
X108197923Y-102866600D01*
X108197923Y-103926600D01*
X108218842Y-104037773D01*
X108284545Y-104139879D01*
X108325966Y-104168181D01*
X108291521Y-104190345D01*
X108254796Y-104244094D01*
X108224055Y-104196321D01*
X108123803Y-104127822D01*
X108004800Y-104103723D01*
X107604800Y-104103723D01*
X107493627Y-104124642D01*
X107475300Y-104136435D01*
X107475300Y-103984237D01*
X107711240Y-103984237D01*
X107822413Y-103963318D01*
X107924519Y-103897615D01*
X107993018Y-103797363D01*
X108017117Y-103678360D01*
X108017117Y-103078920D01*
X107996198Y-102967747D01*
X107930495Y-102865641D01*
X107830243Y-102797142D01*
X107711240Y-102773043D01*
X106549083Y-102773043D01*
X105452880Y-101676840D01*
X106206483Y-101676840D01*
X106206483Y-102276280D01*
X106227402Y-102387453D01*
X106293105Y-102489559D01*
X106393357Y-102558058D01*
X106512360Y-102582157D01*
X107711240Y-102582157D01*
X107822413Y-102561238D01*
X107924519Y-102495535D01*
X107993018Y-102395283D01*
X108017117Y-102276280D01*
X108017117Y-101676840D01*
X107996198Y-101565667D01*
X107992616Y-101560100D01*
X108197923Y-101560100D01*
X108197923Y-101726600D01*
X108218842Y-101837773D01*
X108284545Y-101939879D01*
X108384797Y-102008378D01*
X108503800Y-102032477D01*
X109153800Y-102032477D01*
X109264973Y-102011558D01*
X109367079Y-101945855D01*
X109435578Y-101845603D01*
X109459677Y-101726600D01*
X109459677Y-100666600D01*
X109438758Y-100555427D01*
X109373055Y-100453321D01*
X109272803Y-100384822D01*
X109153800Y-100360723D01*
X108503800Y-100360723D01*
X108392627Y-100381642D01*
X108290521Y-100447345D01*
X108222022Y-100547597D01*
X108197923Y-100666600D01*
X108197923Y-100833100D01*
X107362800Y-100833100D01*
X107223695Y-100860770D01*
X107105767Y-100939566D01*
X106854767Y-101190567D01*
X106775970Y-101308494D01*
X106763544Y-101370963D01*
X106512360Y-101370963D01*
X106401187Y-101391882D01*
X106299081Y-101457585D01*
X106230582Y-101557837D01*
X106206483Y-101676840D01*
X105452880Y-101676840D01*
X105098400Y-101322360D01*
X105098400Y-95326200D01*
X105066049Y-95163560D01*
X104976339Y-95029300D01*
X104973920Y-95025679D01*
X103189000Y-93240760D01*
X103189000Y-87757000D01*
X110065000Y-87757000D01*
X110065000Y-100319800D01*
X110086538Y-100428080D01*
X110097351Y-100482441D01*
X110131560Y-100533638D01*
X110122022Y-100547597D01*
X110097923Y-100666600D01*
X110097923Y-101726600D01*
X110118842Y-101837773D01*
X110184545Y-101939879D01*
X110284797Y-102008378D01*
X110403800Y-102032477D01*
X111053800Y-102032477D01*
X111164973Y-102011558D01*
X111267079Y-101945855D01*
X111335578Y-101845603D01*
X111359677Y-101726600D01*
X111359677Y-100967600D01*
X113117923Y-100967600D01*
X113117923Y-101042600D01*
X113138842Y-101153773D01*
X113204545Y-101255879D01*
X113304797Y-101324378D01*
X113423800Y-101348477D01*
X115023800Y-101348477D01*
X115134973Y-101327558D01*
X115208923Y-101279973D01*
X115208923Y-101671600D01*
X115229842Y-101782773D01*
X115253237Y-101819130D01*
X115214800Y-101911927D01*
X115214800Y-102196600D01*
X115289800Y-102271600D01*
X116019800Y-102271600D01*
X116019800Y-102251600D01*
X116069800Y-102251600D01*
X116069800Y-102271600D01*
X116089800Y-102271600D01*
X116089800Y-102321600D01*
X116069800Y-102321600D01*
X116069800Y-102341600D01*
X116019800Y-102341600D01*
X116019800Y-102321600D01*
X115289800Y-102321600D01*
X115214800Y-102396600D01*
X115214800Y-102681273D01*
X115252964Y-102773410D01*
X115233022Y-102802597D01*
X115228819Y-102823354D01*
X115193736Y-102788272D01*
X115083473Y-102742600D01*
X114323800Y-102742600D01*
X114248800Y-102817600D01*
X114248800Y-103517600D01*
X114268800Y-103517600D01*
X114268800Y-103567600D01*
X114248800Y-103567600D01*
X114248800Y-104267600D01*
X114323800Y-104342600D01*
X114918923Y-104342600D01*
X114918923Y-104882600D01*
X114939842Y-104993773D01*
X115005545Y-105095879D01*
X115105797Y-105164378D01*
X115224800Y-105188477D01*
X115624800Y-105188477D01*
X115735973Y-105167558D01*
X115838079Y-105101855D01*
X115874804Y-105048106D01*
X115905195Y-105095334D01*
X115858805Y-105141643D01*
X115774896Y-105343718D01*
X115774705Y-105562522D01*
X115858261Y-105764743D01*
X116012843Y-105919595D01*
X116214918Y-106003504D01*
X116433722Y-106003695D01*
X116635943Y-105920139D01*
X116790795Y-105765557D01*
X116874704Y-105563482D01*
X116874895Y-105344678D01*
X116791339Y-105142457D01*
X116743251Y-105094285D01*
X116806578Y-105001603D01*
X116817818Y-104946100D01*
X117466923Y-104946100D01*
X117466923Y-104957600D01*
X117487842Y-105068773D01*
X117553545Y-105170879D01*
X117653797Y-105239378D01*
X117772800Y-105263477D01*
X118572800Y-105263477D01*
X118683973Y-105242558D01*
X118786079Y-105176855D01*
X118854578Y-105076603D01*
X118878677Y-104957600D01*
X118878677Y-104682600D01*
X118972800Y-104682600D01*
X118972800Y-105017273D01*
X119018472Y-105127536D01*
X119102863Y-105211928D01*
X119213126Y-105257600D01*
X119572800Y-105257600D01*
X119647800Y-105182600D01*
X119647800Y-104607600D01*
X119697800Y-104607600D01*
X119697800Y-105182600D01*
X119772800Y-105257600D01*
X120132474Y-105257600D01*
X120242737Y-105211928D01*
X120327128Y-105127536D01*
X120372800Y-105017273D01*
X120372800Y-104682600D01*
X120297800Y-104607600D01*
X119697800Y-104607600D01*
X119647800Y-104607600D01*
X119047800Y-104607600D01*
X118972800Y-104682600D01*
X118878677Y-104682600D01*
X118878677Y-104207600D01*
X118867449Y-104147927D01*
X118972800Y-104147927D01*
X118972800Y-104482600D01*
X119047800Y-104557600D01*
X119647800Y-104557600D01*
X119647800Y-103982600D01*
X119697800Y-103982600D01*
X119697800Y-104557600D01*
X120297800Y-104557600D01*
X120372800Y-104482600D01*
X120372800Y-104147927D01*
X120327128Y-104037664D01*
X120242737Y-103953272D01*
X120132474Y-103907600D01*
X119772800Y-103907600D01*
X119697800Y-103982600D01*
X119647800Y-103982600D01*
X119572800Y-103907600D01*
X119213126Y-103907600D01*
X119102863Y-103953272D01*
X119018472Y-104037664D01*
X118972800Y-104147927D01*
X118867449Y-104147927D01*
X118857758Y-104096427D01*
X118792055Y-103994321D01*
X118691803Y-103925822D01*
X118572800Y-103901723D01*
X117772800Y-103901723D01*
X117661627Y-103922642D01*
X117559521Y-103988345D01*
X117508300Y-104063310D01*
X117508300Y-103793594D01*
X117595797Y-103853378D01*
X117714800Y-103877477D01*
X118774800Y-103877477D01*
X118885973Y-103856558D01*
X118988079Y-103790855D01*
X119056578Y-103690603D01*
X119072880Y-103610100D01*
X119155800Y-103610100D01*
X119294906Y-103582430D01*
X119412833Y-103503633D01*
X119463989Y-103452477D01*
X119807800Y-103452477D01*
X119918973Y-103431558D01*
X120021079Y-103365855D01*
X120089578Y-103265603D01*
X120113677Y-103146600D01*
X120113677Y-102546600D01*
X120092758Y-102435427D01*
X120027055Y-102333321D01*
X119973306Y-102296596D01*
X120021079Y-102265855D01*
X120089578Y-102165603D01*
X120113677Y-102046600D01*
X120113677Y-101446600D01*
X120092758Y-101335427D01*
X120027055Y-101233321D01*
X119926803Y-101164822D01*
X119807800Y-101140723D01*
X119510989Y-101140723D01*
X119459833Y-101089567D01*
X119341906Y-101010770D01*
X119202800Y-100983100D01*
X119073433Y-100983100D01*
X119059758Y-100910427D01*
X118994055Y-100808321D01*
X118893803Y-100739822D01*
X118774800Y-100715723D01*
X117714800Y-100715723D01*
X117603627Y-100736642D01*
X117501521Y-100802345D01*
X117433022Y-100902597D01*
X117408923Y-101021600D01*
X117408923Y-101671600D01*
X117429842Y-101782773D01*
X117454523Y-101821129D01*
X117433022Y-101852597D01*
X117416720Y-101933100D01*
X117311800Y-101933100D01*
X117172695Y-101960770D01*
X117054767Y-102039566D01*
X116887767Y-102206567D01*
X116844314Y-102271598D01*
X116799802Y-102271598D01*
X116874800Y-102196600D01*
X116874800Y-101911927D01*
X116836636Y-101819790D01*
X116856578Y-101790603D01*
X116880677Y-101671600D01*
X116880677Y-101021600D01*
X116859758Y-100910427D01*
X116794055Y-100808321D01*
X116693803Y-100739822D01*
X116574800Y-100715723D01*
X116467239Y-100715723D01*
X116465153Y-100705240D01*
X116437449Y-100565959D01*
X116345321Y-100428080D01*
X116159320Y-100242080D01*
X116021441Y-100149951D01*
X115994457Y-100144584D01*
X115858800Y-100117600D01*
X115329677Y-100117600D01*
X115329677Y-100042600D01*
X115308758Y-99931427D01*
X115243055Y-99829321D01*
X115142803Y-99760822D01*
X115023800Y-99736723D01*
X113423800Y-99736723D01*
X113312627Y-99757642D01*
X113210521Y-99823345D01*
X113142022Y-99923597D01*
X113117923Y-100042600D01*
X113117923Y-100117600D01*
X110915000Y-100117600D01*
X110915000Y-90880000D01*
X112345838Y-90880000D01*
X112437183Y-91339220D01*
X112697310Y-91728528D01*
X113086618Y-91988655D01*
X113545838Y-92080000D01*
X115326162Y-92080000D01*
X115785382Y-91988655D01*
X116174690Y-91728528D01*
X116340750Y-91480000D01*
X118892103Y-91480000D01*
X118983448Y-91939220D01*
X119243575Y-92328528D01*
X119632883Y-92588655D01*
X120092103Y-92680000D01*
X120699897Y-92680000D01*
X121159117Y-92588655D01*
X121548425Y-92328528D01*
X121808552Y-91939220D01*
X121899897Y-91480000D01*
X121808552Y-91020780D01*
X121548425Y-90631472D01*
X121159117Y-90371345D01*
X120699897Y-90280000D01*
X120092103Y-90280000D01*
X119632883Y-90371345D01*
X119243575Y-90631472D01*
X118983448Y-91020780D01*
X118892103Y-91480000D01*
X116340750Y-91480000D01*
X116434817Y-91339220D01*
X116526162Y-90880000D01*
X116434817Y-90420780D01*
X116174690Y-90031472D01*
X115785382Y-89771345D01*
X115326162Y-89680000D01*
X113545838Y-89680000D01*
X113086618Y-89771345D01*
X112697310Y-90031472D01*
X112437183Y-90420780D01*
X112345838Y-90880000D01*
X110915000Y-90880000D01*
X110915000Y-88324908D01*
X110940043Y-88349995D01*
X111142118Y-88433904D01*
X111360922Y-88434095D01*
X111563143Y-88350539D01*
X111638990Y-88274824D01*
X111641997Y-88276878D01*
X111761000Y-88300977D01*
X114511000Y-88300977D01*
X114622173Y-88280058D01*
X114724279Y-88214355D01*
X114792778Y-88114103D01*
X114816877Y-87995100D01*
X114816877Y-87664900D01*
X114800315Y-87576883D01*
X114816877Y-87495100D01*
X114816877Y-87164900D01*
X114800792Y-87079418D01*
X114811000Y-87054774D01*
X114811000Y-86930000D01*
X114736000Y-86855000D01*
X113161000Y-86855000D01*
X113161000Y-86859023D01*
X113111000Y-86859023D01*
X113111000Y-86855000D01*
X111536000Y-86855000D01*
X111461000Y-86930000D01*
X111461000Y-86951000D01*
X111223881Y-86951000D01*
X111182957Y-86910005D01*
X111081799Y-86868000D01*
X111182143Y-86826539D01*
X111315414Y-86693500D01*
X111461000Y-86693500D01*
X111461000Y-86730000D01*
X111536000Y-86805000D01*
X113111000Y-86805000D01*
X113111000Y-86800977D01*
X113161000Y-86800977D01*
X113161000Y-86805000D01*
X114736000Y-86805000D01*
X114811000Y-86730000D01*
X114811000Y-86605226D01*
X114799969Y-86578594D01*
X114816877Y-86495100D01*
X114816877Y-86164900D01*
X114800315Y-86076883D01*
X114816877Y-85995100D01*
X114816877Y-85664900D01*
X114800315Y-85576883D01*
X114816877Y-85495100D01*
X114816877Y-85193500D01*
X115830000Y-85193500D01*
X115969106Y-85165830D01*
X116087033Y-85087033D01*
X116169097Y-85004969D01*
X116313922Y-85005095D01*
X116516143Y-84921539D01*
X116670995Y-84766957D01*
X116754904Y-84564882D01*
X116755095Y-84346078D01*
X116671539Y-84143857D01*
X116516957Y-83989005D01*
X116314882Y-83905096D01*
X116096078Y-83904905D01*
X115893857Y-83988461D01*
X115739005Y-84143043D01*
X115655096Y-84345118D01*
X115654990Y-84466500D01*
X114816877Y-84466500D01*
X114816877Y-84164900D01*
X114800792Y-84079418D01*
X114811000Y-84054774D01*
X114811000Y-83930000D01*
X114736000Y-83855000D01*
X113161000Y-83855000D01*
X113161000Y-83859023D01*
X113111000Y-83859023D01*
X113111000Y-83855000D01*
X113091000Y-83855000D01*
X113091000Y-83805000D01*
X113111000Y-83805000D01*
X113111000Y-83800977D01*
X113161000Y-83800977D01*
X113161000Y-83805000D01*
X114736000Y-83805000D01*
X114811000Y-83730000D01*
X114811000Y-83605226D01*
X114799969Y-83578594D01*
X114816877Y-83495100D01*
X114816877Y-83164900D01*
X114800315Y-83076883D01*
X114816877Y-82995100D01*
X114816877Y-82664900D01*
X114800792Y-82579418D01*
X114811000Y-82554774D01*
X114811000Y-82430000D01*
X114736000Y-82355000D01*
X113161000Y-82355000D01*
X113161000Y-82359023D01*
X113111000Y-82359023D01*
X113111000Y-82355000D01*
X113091000Y-82355000D01*
X113091000Y-82305000D01*
X113111000Y-82305000D01*
X113111000Y-82300977D01*
X113161000Y-82300977D01*
X113161000Y-82305000D01*
X114736000Y-82305000D01*
X114811000Y-82230000D01*
X114811000Y-82105226D01*
X114799969Y-82078594D01*
X114816877Y-81995100D01*
X114816877Y-81664900D01*
X114800315Y-81576883D01*
X114816877Y-81495100D01*
X114816877Y-81164900D01*
X114800792Y-81079418D01*
X114811000Y-81054774D01*
X114811000Y-80930000D01*
X114736000Y-80855000D01*
X113161000Y-80855000D01*
X113161000Y-80859023D01*
X113111000Y-80859023D01*
X113111000Y-80855000D01*
X113091000Y-80855000D01*
X113091000Y-80805000D01*
X113111000Y-80805000D01*
X113111000Y-80800977D01*
X113161000Y-80800977D01*
X113161000Y-80805000D01*
X114736000Y-80805000D01*
X114811000Y-80730000D01*
X114811000Y-80605226D01*
X114799969Y-80578594D01*
X114816877Y-80495100D01*
X114816877Y-80164900D01*
X114800315Y-80076883D01*
X114816877Y-79995100D01*
X114816877Y-79664900D01*
X114800792Y-79579418D01*
X114811000Y-79554774D01*
X114811000Y-79430000D01*
X114736000Y-79355000D01*
X113161000Y-79355000D01*
X113161000Y-79359023D01*
X113111000Y-79359023D01*
X113111000Y-79355000D01*
X113091000Y-79355000D01*
X113091000Y-79305000D01*
X113111000Y-79305000D01*
X113111000Y-79300977D01*
X113161000Y-79300977D01*
X113161000Y-79305000D01*
X114736000Y-79305000D01*
X114811000Y-79230000D01*
X114811000Y-79105226D01*
X114799969Y-79078594D01*
X114816877Y-78995100D01*
X114816877Y-78664900D01*
X114795958Y-78553727D01*
X114730255Y-78451621D01*
X114630003Y-78383122D01*
X114511000Y-78359023D01*
X111761000Y-78359023D01*
X111649827Y-78379942D01*
X111547721Y-78445645D01*
X111533471Y-78466500D01*
X111416000Y-78466500D01*
X111415890Y-78466522D01*
X111361882Y-78444096D01*
X111143078Y-78443905D01*
X110940857Y-78527461D01*
X110786005Y-78682043D01*
X110702096Y-78884118D01*
X110701905Y-79102922D01*
X110785461Y-79305143D01*
X110791683Y-79311375D01*
X110786005Y-79317043D01*
X110702096Y-79519118D01*
X110701905Y-79737922D01*
X110785461Y-79940143D01*
X110918682Y-80073597D01*
X110786005Y-80206043D01*
X110702096Y-80408118D01*
X110701905Y-80626922D01*
X110785461Y-80829143D01*
X110791683Y-80835375D01*
X110786005Y-80841043D01*
X110702096Y-81043118D01*
X110701905Y-81261922D01*
X110785461Y-81464143D01*
X110918682Y-81597597D01*
X110786005Y-81730043D01*
X110702096Y-81932118D01*
X110701905Y-82150922D01*
X110785461Y-82353143D01*
X110791683Y-82359375D01*
X110786005Y-82365043D01*
X110702096Y-82567118D01*
X110701905Y-82785922D01*
X110785461Y-82988143D01*
X110918682Y-83121597D01*
X110786005Y-83254043D01*
X110702096Y-83456118D01*
X110701905Y-83674922D01*
X110785461Y-83877143D01*
X110791683Y-83883375D01*
X110786005Y-83889043D01*
X110702096Y-84091118D01*
X110701905Y-84309922D01*
X110785461Y-84512143D01*
X110940043Y-84666995D01*
X111142118Y-84750904D01*
X111360922Y-84751095D01*
X111455123Y-84712172D01*
X111455123Y-84995100D01*
X111471685Y-85083117D01*
X111455123Y-85164900D01*
X111455123Y-85309678D01*
X111383882Y-85280096D01*
X111165078Y-85279905D01*
X110962857Y-85363461D01*
X110808005Y-85518043D01*
X110724096Y-85720118D01*
X110724004Y-85825637D01*
X110559857Y-85893461D01*
X110405005Y-86048043D01*
X110321096Y-86250118D01*
X110320905Y-86468922D01*
X110404461Y-86671143D01*
X110559043Y-86825995D01*
X110660201Y-86868000D01*
X110559857Y-86909461D01*
X110405005Y-87064043D01*
X110321096Y-87266118D01*
X110321045Y-87324915D01*
X110189480Y-87456480D01*
X110097351Y-87594359D01*
X110097351Y-87594360D01*
X110065000Y-87757000D01*
X103189000Y-87757000D01*
X103189000Y-86056881D01*
X103229995Y-86015957D01*
X103313904Y-85813882D01*
X103314095Y-85595078D01*
X103230539Y-85392857D01*
X103189000Y-85351245D01*
X103189000Y-85242911D01*
X103289479Y-85178255D01*
X103357978Y-85078003D01*
X103382077Y-84959000D01*
X103382077Y-84459000D01*
X103361158Y-84347827D01*
X103295455Y-84245721D01*
X103195203Y-84177222D01*
X103076200Y-84153123D01*
X102476200Y-84153123D01*
X102365027Y-84174042D01*
X102262921Y-84239745D01*
X102229753Y-84288289D01*
X102146137Y-84204672D01*
X102035874Y-84159000D01*
X101776200Y-84159000D01*
X101701200Y-84234000D01*
X101701200Y-84684000D01*
X101721200Y-84684000D01*
X101721200Y-84734000D01*
X101701200Y-84734000D01*
X101701200Y-85184000D01*
X101776200Y-85259000D01*
X102035874Y-85259000D01*
X102146137Y-85213328D01*
X102229632Y-85129832D01*
X102256945Y-85172279D01*
X102339000Y-85228345D01*
X102339000Y-85351119D01*
X102298005Y-85392043D01*
X102214096Y-85594118D01*
X102213905Y-85812922D01*
X102297461Y-86015143D01*
X102339000Y-86056755D01*
X102339000Y-93416800D01*
X102365984Y-93552457D01*
X102371351Y-93579441D01*
X102463480Y-93717320D01*
X104248400Y-95502241D01*
X104248400Y-101498400D01*
X104265965Y-101586706D01*
X104280751Y-101661041D01*
X104372880Y-101798920D01*
X106206483Y-103632523D01*
X106206483Y-103678360D01*
X106227402Y-103789533D01*
X106293105Y-103891639D01*
X106393357Y-103960138D01*
X106512360Y-103984237D01*
X106748300Y-103984237D01*
X106748300Y-104495600D01*
X106775970Y-104634706D01*
X106854767Y-104752633D01*
X107068767Y-104966634D01*
X107144555Y-105017273D01*
X107186695Y-105045430D01*
X107310291Y-105070015D01*
X107319842Y-105120773D01*
X107385545Y-105222879D01*
X107395369Y-105229592D01*
X107323896Y-105401718D01*
X107323705Y-105620522D01*
X107407261Y-105822743D01*
X107448800Y-105864355D01*
X107448800Y-108031000D01*
X87010501Y-108031000D01*
X87336930Y-107901935D01*
X87366063Y-107882469D01*
X87444730Y-107722085D01*
X86750000Y-107027355D01*
X86055270Y-107722085D01*
X86133937Y-107882469D01*
X86476729Y-108031000D01*
X84470501Y-108031000D01*
X84796930Y-107901935D01*
X84826063Y-107882469D01*
X84904730Y-107722085D01*
X84210000Y-107027355D01*
X83515270Y-107722085D01*
X83593937Y-107882469D01*
X83936729Y-108031000D01*
X81834000Y-108031000D01*
X81834000Y-107186036D01*
X83144721Y-107186036D01*
X83300065Y-107578930D01*
X83319531Y-107608063D01*
X83479915Y-107686730D01*
X84174645Y-106992000D01*
X84245355Y-106992000D01*
X84940085Y-107686730D01*
X85100469Y-107608063D01*
X85268443Y-107220399D01*
X85268999Y-107186036D01*
X85684721Y-107186036D01*
X85840065Y-107578930D01*
X85859531Y-107608063D01*
X86019915Y-107686730D01*
X86714645Y-106992000D01*
X86785355Y-106992000D01*
X87480085Y-107686730D01*
X87640469Y-107608063D01*
X87808443Y-107220399D01*
X87815279Y-106797964D01*
X87659935Y-106405070D01*
X87640469Y-106375937D01*
X87480085Y-106297270D01*
X86785355Y-106992000D01*
X86714645Y-106992000D01*
X86019915Y-106297270D01*
X85859531Y-106375937D01*
X85691557Y-106763601D01*
X85684721Y-107186036D01*
X85268999Y-107186036D01*
X85275279Y-106797964D01*
X85119935Y-106405070D01*
X85100469Y-106375937D01*
X84940085Y-106297270D01*
X84245355Y-106992000D01*
X84174645Y-106992000D01*
X83479915Y-106297270D01*
X83319531Y-106375937D01*
X83151557Y-106763601D01*
X83144721Y-107186036D01*
X81834000Y-107186036D01*
X81834000Y-106261915D01*
X83515270Y-106261915D01*
X84210000Y-106956645D01*
X84904730Y-106261915D01*
X86055270Y-106261915D01*
X86750000Y-106956645D01*
X87444730Y-106261915D01*
X87366063Y-106101531D01*
X86978399Y-105933557D01*
X86555964Y-105926721D01*
X86163070Y-106082065D01*
X86133937Y-106101531D01*
X86055270Y-106261915D01*
X84904730Y-106261915D01*
X84826063Y-106101531D01*
X84438399Y-105933557D01*
X84015964Y-105926721D01*
X83623070Y-106082065D01*
X83593937Y-106101531D01*
X83515270Y-106261915D01*
X81834000Y-106261915D01*
X81834000Y-104662318D01*
X83147816Y-104662318D01*
X83309155Y-105052789D01*
X83607640Y-105351795D01*
X83997828Y-105513815D01*
X84420318Y-105514184D01*
X84810789Y-105352845D01*
X85109795Y-105054360D01*
X85271815Y-104664172D01*
X85271816Y-104662318D01*
X85687816Y-104662318D01*
X85849155Y-105052789D01*
X86147640Y-105351795D01*
X86537828Y-105513815D01*
X86960318Y-105514184D01*
X87350789Y-105352845D01*
X87649795Y-105054360D01*
X87811815Y-104664172D01*
X87812184Y-104241682D01*
X87650845Y-103851211D01*
X87352360Y-103552205D01*
X86962172Y-103390185D01*
X86539682Y-103389816D01*
X86149211Y-103551155D01*
X85850205Y-103849640D01*
X85688185Y-104239828D01*
X85687816Y-104662318D01*
X85271816Y-104662318D01*
X85272184Y-104241682D01*
X85110845Y-103851211D01*
X84812360Y-103552205D01*
X84422172Y-103390185D01*
X83999682Y-103389816D01*
X83609211Y-103551155D01*
X83310205Y-103849640D01*
X83148185Y-104239828D01*
X83147816Y-104662318D01*
X81834000Y-104662318D01*
X81834000Y-102122318D01*
X83147816Y-102122318D01*
X83309155Y-102512789D01*
X83607640Y-102811795D01*
X83997828Y-102973815D01*
X84420318Y-102974184D01*
X84810789Y-102812845D01*
X85109795Y-102514360D01*
X85271815Y-102124172D01*
X85271816Y-102122318D01*
X85687816Y-102122318D01*
X85849155Y-102512789D01*
X86147640Y-102811795D01*
X86537828Y-102973815D01*
X86960318Y-102974184D01*
X87350789Y-102812845D01*
X87649795Y-102514360D01*
X87811815Y-102124172D01*
X87812184Y-101701682D01*
X87650845Y-101311211D01*
X87352360Y-101012205D01*
X87011631Y-100870722D01*
X94064905Y-100870722D01*
X94148461Y-101072943D01*
X94303043Y-101227795D01*
X94505118Y-101311704D01*
X94723922Y-101311895D01*
X94926143Y-101228339D01*
X95080995Y-101073757D01*
X95164904Y-100871682D01*
X95165031Y-100725835D01*
X100968033Y-94922833D01*
X101046830Y-94804905D01*
X101074500Y-94665800D01*
X101074500Y-86520273D01*
X101176995Y-86417957D01*
X101260904Y-86215882D01*
X101261095Y-85997078D01*
X101177539Y-85794857D01*
X101022957Y-85640005D01*
X100820882Y-85556096D01*
X100602078Y-85555905D01*
X100399857Y-85639461D01*
X100245005Y-85794043D01*
X100161096Y-85996118D01*
X100160905Y-86214922D01*
X100244461Y-86417143D01*
X100347500Y-86520362D01*
X100347500Y-94515234D01*
X94650903Y-100211831D01*
X94506078Y-100211705D01*
X94303857Y-100295261D01*
X94149005Y-100449843D01*
X94065096Y-100651918D01*
X94064905Y-100870722D01*
X87011631Y-100870722D01*
X86962172Y-100850185D01*
X86539682Y-100849816D01*
X86149211Y-101011155D01*
X85850205Y-101309640D01*
X85688185Y-101699828D01*
X85687816Y-102122318D01*
X85271816Y-102122318D01*
X85272184Y-101701682D01*
X85110845Y-101311211D01*
X84812360Y-101012205D01*
X84422172Y-100850185D01*
X83999682Y-100849816D01*
X83609211Y-101011155D01*
X83310205Y-101309640D01*
X83148185Y-101699828D01*
X83147816Y-102122318D01*
X81834000Y-102122318D01*
X81834000Y-99582318D01*
X83147816Y-99582318D01*
X83309155Y-99972789D01*
X83607640Y-100271795D01*
X83997828Y-100433815D01*
X84420318Y-100434184D01*
X84810789Y-100272845D01*
X85109795Y-99974360D01*
X85271815Y-99584172D01*
X85271816Y-99582318D01*
X85687816Y-99582318D01*
X85849155Y-99972789D01*
X86147640Y-100271795D01*
X86537828Y-100433815D01*
X86960318Y-100434184D01*
X87350789Y-100272845D01*
X87649795Y-99974360D01*
X87811815Y-99584172D01*
X87812184Y-99161682D01*
X87650845Y-98771211D01*
X87352360Y-98472205D01*
X86962172Y-98310185D01*
X86539682Y-98309816D01*
X86149211Y-98471155D01*
X85850205Y-98769640D01*
X85688185Y-99159828D01*
X85687816Y-99582318D01*
X85271816Y-99582318D01*
X85272184Y-99161682D01*
X85110845Y-98771211D01*
X84812360Y-98472205D01*
X84422172Y-98310185D01*
X83999682Y-98309816D01*
X83609211Y-98471155D01*
X83310205Y-98769640D01*
X83148185Y-99159828D01*
X83147816Y-99582318D01*
X81834000Y-99582318D01*
X81834000Y-97042318D01*
X83147816Y-97042318D01*
X83309155Y-97432789D01*
X83607640Y-97731795D01*
X83997828Y-97893815D01*
X84420318Y-97894184D01*
X84810789Y-97732845D01*
X85109795Y-97434360D01*
X85271815Y-97044172D01*
X85272184Y-96621682D01*
X85110845Y-96231211D01*
X84949915Y-96070000D01*
X85682123Y-96070000D01*
X85682123Y-97594000D01*
X85703042Y-97705173D01*
X85768745Y-97807279D01*
X85868997Y-97875778D01*
X85988000Y-97899877D01*
X87512000Y-97899877D01*
X87623173Y-97878958D01*
X87725279Y-97813255D01*
X87793778Y-97713003D01*
X87817877Y-97594000D01*
X87817877Y-96070000D01*
X87796958Y-95958827D01*
X87731255Y-95856721D01*
X87631003Y-95788222D01*
X87512000Y-95764123D01*
X85988000Y-95764123D01*
X85876827Y-95785042D01*
X85774721Y-95850745D01*
X85706222Y-95950997D01*
X85682123Y-96070000D01*
X84949915Y-96070000D01*
X84812360Y-95932205D01*
X84422172Y-95770185D01*
X83999682Y-95769816D01*
X83609211Y-95931155D01*
X83310205Y-96229640D01*
X83148185Y-96619828D01*
X83147816Y-97042318D01*
X81834000Y-97042318D01*
X81834000Y-92220600D01*
X84000519Y-92220600D01*
X84041443Y-92261595D01*
X84243518Y-92345504D01*
X84462322Y-92345695D01*
X84664543Y-92262139D01*
X84819395Y-92107557D01*
X84903304Y-91905482D01*
X84903495Y-91686678D01*
X84819939Y-91484457D01*
X84665357Y-91329605D01*
X84463282Y-91245696D01*
X84244478Y-91245505D01*
X84042257Y-91329061D01*
X84000645Y-91370600D01*
X81834000Y-91370600D01*
X81834000Y-88184000D01*
X88392000Y-88184000D01*
X88501037Y-88163483D01*
X88601181Y-88099042D01*
X88668364Y-88000717D01*
X88692000Y-87884000D01*
X88692000Y-85344000D01*
X88671483Y-85234963D01*
X88607042Y-85134819D01*
X88508717Y-85067636D01*
X88392000Y-85044000D01*
X87331707Y-85044000D01*
X87336930Y-85041935D01*
X87366063Y-85022469D01*
X87444730Y-84862085D01*
X86750000Y-84167355D01*
X86055270Y-84862085D01*
X86133937Y-85022469D01*
X86183628Y-85044000D01*
X84791707Y-85044000D01*
X84796930Y-85041935D01*
X84826063Y-85022469D01*
X84904730Y-84862085D01*
X84210000Y-84167355D01*
X83515270Y-84862085D01*
X83593937Y-85022469D01*
X83643628Y-85044000D01*
X81834000Y-85044000D01*
X81834000Y-84326036D01*
X83144721Y-84326036D01*
X83300065Y-84718930D01*
X83319531Y-84748063D01*
X83479915Y-84826730D01*
X84174645Y-84132000D01*
X84245355Y-84132000D01*
X84940085Y-84826730D01*
X85100469Y-84748063D01*
X85268443Y-84360399D01*
X85268999Y-84326036D01*
X85684721Y-84326036D01*
X85840065Y-84718930D01*
X85859531Y-84748063D01*
X86019915Y-84826730D01*
X86714645Y-84132000D01*
X86785355Y-84132000D01*
X87480085Y-84826730D01*
X87516232Y-84809000D01*
X101076200Y-84809000D01*
X101076200Y-85018673D01*
X101121872Y-85128936D01*
X101206263Y-85213328D01*
X101316526Y-85259000D01*
X101576200Y-85259000D01*
X101651200Y-85184000D01*
X101651200Y-84734000D01*
X101151200Y-84734000D01*
X101076200Y-84809000D01*
X87516232Y-84809000D01*
X87640469Y-84748063D01*
X87791575Y-84399327D01*
X101076200Y-84399327D01*
X101076200Y-84609000D01*
X101151200Y-84684000D01*
X101651200Y-84684000D01*
X101651200Y-84234000D01*
X101576200Y-84159000D01*
X101316526Y-84159000D01*
X101206263Y-84204672D01*
X101121872Y-84289064D01*
X101076200Y-84399327D01*
X87791575Y-84399327D01*
X87808443Y-84360399D01*
X87815279Y-83937964D01*
X87659935Y-83545070D01*
X87640469Y-83515937D01*
X87480085Y-83437270D01*
X86785355Y-84132000D01*
X86714645Y-84132000D01*
X86019915Y-83437270D01*
X85859531Y-83515937D01*
X85691557Y-83903601D01*
X85684721Y-84326036D01*
X85268999Y-84326036D01*
X85275279Y-83937964D01*
X85119935Y-83545070D01*
X85100469Y-83515937D01*
X84940085Y-83437270D01*
X84245355Y-84132000D01*
X84174645Y-84132000D01*
X83479915Y-83437270D01*
X83319531Y-83515937D01*
X83151557Y-83903601D01*
X83144721Y-84326036D01*
X81834000Y-84326036D01*
X81834000Y-83401915D01*
X83515270Y-83401915D01*
X84210000Y-84096645D01*
X84904730Y-83401915D01*
X86055270Y-83401915D01*
X86750000Y-84096645D01*
X87444730Y-83401915D01*
X87366063Y-83241531D01*
X86978399Y-83073557D01*
X86555964Y-83066721D01*
X86163070Y-83222065D01*
X86133937Y-83241531D01*
X86055270Y-83401915D01*
X84904730Y-83401915D01*
X84826063Y-83241531D01*
X84438399Y-83073557D01*
X84015964Y-83066721D01*
X83623070Y-83222065D01*
X83593937Y-83241531D01*
X83515270Y-83401915D01*
X81834000Y-83401915D01*
X81834000Y-81802318D01*
X83147816Y-81802318D01*
X83309155Y-82192789D01*
X83607640Y-82491795D01*
X83997828Y-82653815D01*
X84420318Y-82654184D01*
X84810789Y-82492845D01*
X85109795Y-82194360D01*
X85271815Y-81804172D01*
X85271816Y-81802318D01*
X85687816Y-81802318D01*
X85849155Y-82192789D01*
X86147640Y-82491795D01*
X86537828Y-82653815D01*
X86960318Y-82654184D01*
X87350789Y-82492845D01*
X87649795Y-82194360D01*
X87811815Y-81804172D01*
X87812184Y-81381682D01*
X87650845Y-80991211D01*
X87352360Y-80692205D01*
X86962172Y-80530185D01*
X86539682Y-80529816D01*
X86149211Y-80691155D01*
X85850205Y-80989640D01*
X85688185Y-81379828D01*
X85687816Y-81802318D01*
X85271816Y-81802318D01*
X85272184Y-81381682D01*
X85110845Y-80991211D01*
X84812360Y-80692205D01*
X84422172Y-80530185D01*
X83999682Y-80529816D01*
X83609211Y-80691155D01*
X83310205Y-80989640D01*
X83148185Y-81379828D01*
X83147816Y-81802318D01*
X81834000Y-81802318D01*
X81834000Y-79262318D01*
X83147816Y-79262318D01*
X83309155Y-79652789D01*
X83607640Y-79951795D01*
X83997828Y-80113815D01*
X84420318Y-80114184D01*
X84810789Y-79952845D01*
X85109795Y-79654360D01*
X85271815Y-79264172D01*
X85271816Y-79262318D01*
X85687816Y-79262318D01*
X85849155Y-79652789D01*
X86147640Y-79951795D01*
X86537828Y-80113815D01*
X86960318Y-80114184D01*
X87350789Y-79952845D01*
X87649795Y-79654360D01*
X87811815Y-79264172D01*
X87812184Y-78841682D01*
X87650845Y-78451211D01*
X87352360Y-78152205D01*
X86962172Y-77990185D01*
X86539682Y-77989816D01*
X86149211Y-78151155D01*
X85850205Y-78449640D01*
X85688185Y-78839828D01*
X85687816Y-79262318D01*
X85271816Y-79262318D01*
X85272184Y-78841682D01*
X85110845Y-78451211D01*
X84812360Y-78152205D01*
X84422172Y-77990185D01*
X83999682Y-77989816D01*
X83609211Y-78151155D01*
X83310205Y-78449640D01*
X83148185Y-78839828D01*
X83147816Y-79262318D01*
X81834000Y-79262318D01*
X81834000Y-76722318D01*
X83147816Y-76722318D01*
X83309155Y-77112789D01*
X83607640Y-77411795D01*
X83997828Y-77573815D01*
X84420318Y-77574184D01*
X84810789Y-77412845D01*
X85109795Y-77114360D01*
X85271815Y-76724172D01*
X85271816Y-76722318D01*
X85687816Y-76722318D01*
X85849155Y-77112789D01*
X86147640Y-77411795D01*
X86537828Y-77573815D01*
X86960318Y-77574184D01*
X87350789Y-77412845D01*
X87649795Y-77114360D01*
X87811815Y-76724172D01*
X87812184Y-76301682D01*
X87650845Y-75911211D01*
X87352360Y-75612205D01*
X86962172Y-75450185D01*
X86539682Y-75449816D01*
X86149211Y-75611155D01*
X85850205Y-75909640D01*
X85688185Y-76299828D01*
X85687816Y-76722318D01*
X85271816Y-76722318D01*
X85272184Y-76301682D01*
X85110845Y-75911211D01*
X84812360Y-75612205D01*
X84422172Y-75450185D01*
X83999682Y-75449816D01*
X83609211Y-75611155D01*
X83310205Y-75909640D01*
X83148185Y-76299828D01*
X83147816Y-76722318D01*
X81834000Y-76722318D01*
X81834000Y-74182318D01*
X83147816Y-74182318D01*
X83309155Y-74572789D01*
X83607640Y-74871795D01*
X83997828Y-75033815D01*
X84420318Y-75034184D01*
X84810789Y-74872845D01*
X85109795Y-74574360D01*
X85271815Y-74184172D01*
X85272184Y-73761682D01*
X85110845Y-73371211D01*
X84949915Y-73210000D01*
X85682123Y-73210000D01*
X85682123Y-74734000D01*
X85703042Y-74845173D01*
X85768745Y-74947279D01*
X85868997Y-75015778D01*
X85988000Y-75039877D01*
X87512000Y-75039877D01*
X87623173Y-75018958D01*
X87725279Y-74953255D01*
X87793778Y-74853003D01*
X87817877Y-74734000D01*
X87817877Y-73210000D01*
X87796958Y-73098827D01*
X87731255Y-72996721D01*
X87631003Y-72928222D01*
X87512000Y-72904123D01*
X85988000Y-72904123D01*
X85876827Y-72925042D01*
X85774721Y-72990745D01*
X85706222Y-73090997D01*
X85682123Y-73210000D01*
X84949915Y-73210000D01*
X84812360Y-73072205D01*
X84422172Y-72910185D01*
X83999682Y-72909816D01*
X83609211Y-73071155D01*
X83310205Y-73369640D01*
X83148185Y-73759828D01*
X83147816Y-74182318D01*
X81834000Y-74182318D01*
X81834000Y-72055000D01*
X96095000Y-72055000D01*
X96095000Y-74295000D01*
X96107511Y-74357895D01*
X96127351Y-74457641D01*
X96219480Y-74595520D01*
X98279400Y-76655440D01*
X98279400Y-79019400D01*
X98305611Y-79151173D01*
X98311751Y-79182041D01*
X98403880Y-79319920D01*
X98701640Y-79617680D01*
X98637096Y-79773118D01*
X98636905Y-79991922D01*
X98720461Y-80194143D01*
X98875043Y-80348995D01*
X99077118Y-80432904D01*
X99295922Y-80433095D01*
X99498143Y-80349539D01*
X99652995Y-80194957D01*
X99736904Y-79992882D01*
X99737095Y-79774078D01*
X99653539Y-79571857D01*
X99612000Y-79530245D01*
X99612000Y-79502000D01*
X99579776Y-79340000D01*
X99711000Y-79340000D01*
X99786000Y-79265000D01*
X99786000Y-78765000D01*
X99386000Y-78765000D01*
X99311000Y-78840000D01*
X99311000Y-79024959D01*
X99129400Y-78843360D01*
X99129400Y-78380327D01*
X99311000Y-78380327D01*
X99311000Y-78640000D01*
X99386000Y-78715000D01*
X99786000Y-78715000D01*
X99786000Y-78695000D01*
X99836000Y-78695000D01*
X99836000Y-78715000D01*
X99856000Y-78715000D01*
X99856000Y-78765000D01*
X99836000Y-78765000D01*
X99836000Y-79265000D01*
X99911000Y-79340000D01*
X100070674Y-79340000D01*
X100180937Y-79294328D01*
X100264432Y-79210832D01*
X100291745Y-79253279D01*
X100391997Y-79321778D01*
X100511000Y-79345877D01*
X100911000Y-79345877D01*
X101022173Y-79324958D01*
X101109308Y-79268889D01*
X101159918Y-79289904D01*
X101378722Y-79290095D01*
X101580943Y-79206539D01*
X101735795Y-79051957D01*
X101819704Y-78849882D01*
X101819895Y-78631078D01*
X101736339Y-78428857D01*
X101581757Y-78274005D01*
X101379682Y-78190096D01*
X101271500Y-78190002D01*
X101313904Y-78087882D01*
X101314095Y-77869078D01*
X101230539Y-77666857D01*
X101075957Y-77512005D01*
X100873882Y-77428096D01*
X100708877Y-77427952D01*
X100708877Y-77424000D01*
X100687958Y-77312827D01*
X100622255Y-77210721D01*
X100522003Y-77142222D01*
X100403000Y-77118123D01*
X100003000Y-77118123D01*
X99891827Y-77139042D01*
X99789721Y-77204745D01*
X99756553Y-77253289D01*
X99672937Y-77169672D01*
X99562674Y-77124000D01*
X99403000Y-77124000D01*
X99328000Y-77199000D01*
X99328000Y-77699000D01*
X99348000Y-77699000D01*
X99348000Y-77749000D01*
X99328000Y-77749000D01*
X99328000Y-78249000D01*
X99354444Y-78275444D01*
X99311000Y-78380327D01*
X99129400Y-78380327D01*
X99129400Y-78324000D01*
X99203000Y-78324000D01*
X99278000Y-78249000D01*
X99278000Y-77749000D01*
X99258000Y-77749000D01*
X99258000Y-77699000D01*
X99278000Y-77699000D01*
X99278000Y-77199000D01*
X99203000Y-77124000D01*
X99129400Y-77124000D01*
X99129400Y-76479400D01*
X99097049Y-76316760D01*
X99097049Y-76316759D01*
X99004920Y-76178880D01*
X96945000Y-74118960D01*
X96945000Y-72055000D01*
X98298000Y-72055000D01*
X98407037Y-72034483D01*
X98507181Y-71970042D01*
X98574364Y-71871717D01*
X98598000Y-71755000D01*
X98598000Y-71545000D01*
X99295960Y-71545000D01*
X100730985Y-72980026D01*
X100726222Y-72986997D01*
X100702123Y-73106000D01*
X100702123Y-73706000D01*
X100723042Y-73817173D01*
X100783000Y-73910351D01*
X100783000Y-73919899D01*
X100726222Y-74002997D01*
X100702123Y-74122000D01*
X100702123Y-74722000D01*
X100723042Y-74833173D01*
X100730512Y-74844782D01*
X100668000Y-74832123D01*
X100268000Y-74832123D01*
X100156827Y-74853042D01*
X100054721Y-74918745D01*
X100017996Y-74972494D01*
X99987255Y-74924721D01*
X99887003Y-74856222D01*
X99768000Y-74832123D01*
X99368000Y-74832123D01*
X99256827Y-74853042D01*
X99154721Y-74918745D01*
X99086222Y-75018997D01*
X99062123Y-75138000D01*
X99062123Y-75738000D01*
X99083042Y-75849173D01*
X99148745Y-75951279D01*
X99214485Y-75996197D01*
X99232170Y-76085106D01*
X99310967Y-76203033D01*
X99739842Y-76631908D01*
X99788551Y-76664454D01*
X99797461Y-76686018D01*
X99952043Y-76840870D01*
X100154118Y-76924779D01*
X100372922Y-76924970D01*
X100575143Y-76841414D01*
X100729995Y-76686832D01*
X100813904Y-76484757D01*
X100814095Y-76265953D01*
X100730539Y-76063732D01*
X100703963Y-76037110D01*
X100779173Y-76022958D01*
X100838129Y-75985021D01*
X100888997Y-76019778D01*
X101008000Y-76043877D01*
X101408000Y-76043877D01*
X101519173Y-76022958D01*
X101621279Y-75957255D01*
X101658004Y-75903506D01*
X101688745Y-75951279D01*
X101788997Y-76019778D01*
X101900500Y-76042358D01*
X101900500Y-76931149D01*
X101873882Y-76920096D01*
X101655078Y-76919905D01*
X101452857Y-77003461D01*
X101298005Y-77158043D01*
X101214096Y-77360118D01*
X101213905Y-77578922D01*
X101297461Y-77781143D01*
X101452043Y-77935995D01*
X101654118Y-78019904D01*
X101713963Y-78019956D01*
X101713905Y-78086922D01*
X101797461Y-78289143D01*
X101952043Y-78443995D01*
X102154118Y-78527904D01*
X102372922Y-78528095D01*
X102575143Y-78444539D01*
X102729995Y-78289957D01*
X102763980Y-78208112D01*
X102797461Y-78289143D01*
X102952043Y-78443995D01*
X103154118Y-78527904D01*
X103372922Y-78528095D01*
X103410200Y-78512692D01*
X103410200Y-79631719D01*
X103369205Y-79672643D01*
X103285296Y-79874718D01*
X103285105Y-80093522D01*
X103368661Y-80295743D01*
X103523243Y-80450595D01*
X103725318Y-80534504D01*
X103944122Y-80534695D01*
X104146343Y-80451139D01*
X104301195Y-80296557D01*
X104385104Y-80094482D01*
X104385295Y-79875678D01*
X104301739Y-79673457D01*
X104260200Y-79631845D01*
X104260200Y-76080000D01*
X112345838Y-76080000D01*
X112437183Y-76539220D01*
X112697310Y-76928528D01*
X113086618Y-77188655D01*
X113545838Y-77280000D01*
X115326162Y-77280000D01*
X115785382Y-77188655D01*
X116174690Y-76928528D01*
X116434817Y-76539220D01*
X116526162Y-76080000D01*
X116434817Y-75620780D01*
X116340751Y-75480000D01*
X118892103Y-75480000D01*
X118983448Y-75939220D01*
X119243575Y-76328528D01*
X119632883Y-76588655D01*
X120092103Y-76680000D01*
X120699897Y-76680000D01*
X121159117Y-76588655D01*
X121548425Y-76328528D01*
X121808552Y-75939220D01*
X121899897Y-75480000D01*
X121808552Y-75020780D01*
X121548425Y-74631472D01*
X121159117Y-74371345D01*
X120699897Y-74280000D01*
X120092103Y-74280000D01*
X119632883Y-74371345D01*
X119243575Y-74631472D01*
X118983448Y-75020780D01*
X118892103Y-75480000D01*
X116340751Y-75480000D01*
X116174690Y-75231472D01*
X115785382Y-74971345D01*
X115326162Y-74880000D01*
X113545838Y-74880000D01*
X113086618Y-74971345D01*
X112697310Y-75231472D01*
X112437183Y-75620780D01*
X112345838Y-76080000D01*
X104260200Y-76080000D01*
X104260200Y-75359081D01*
X104301195Y-75318157D01*
X104385104Y-75116082D01*
X104385295Y-74897278D01*
X104301739Y-74695057D01*
X104147157Y-74540205D01*
X103945082Y-74456296D01*
X103726278Y-74456105D01*
X103627500Y-74496919D01*
X103627500Y-73981000D01*
X103615630Y-73921322D01*
X104428105Y-73921322D01*
X104511661Y-74123543D01*
X104666243Y-74278395D01*
X104868318Y-74362304D01*
X105087122Y-74362495D01*
X105289343Y-74278939D01*
X105444195Y-74124357D01*
X105528104Y-73922282D01*
X105528295Y-73703478D01*
X105444739Y-73501257D01*
X105290157Y-73346405D01*
X105088082Y-73262496D01*
X104869278Y-73262305D01*
X104667057Y-73345861D01*
X104512205Y-73500443D01*
X104428296Y-73702518D01*
X104428105Y-73921322D01*
X103615630Y-73921322D01*
X103599830Y-73841895D01*
X103521033Y-73723967D01*
X102946033Y-73148967D01*
X102828106Y-73070170D01*
X102689000Y-73042500D01*
X102601928Y-73042500D01*
X102592958Y-72994827D01*
X102527255Y-72892721D01*
X102427003Y-72824222D01*
X102308000Y-72800123D01*
X101908000Y-72800123D01*
X101796827Y-72821042D01*
X101694721Y-72886745D01*
X101657996Y-72940494D01*
X101633000Y-72901649D01*
X101633000Y-72856000D01*
X101600649Y-72693360D01*
X101600649Y-72693359D01*
X101508521Y-72555480D01*
X99772520Y-70819480D01*
X99634641Y-70727351D01*
X99607657Y-70721984D01*
X99472000Y-70695000D01*
X98598000Y-70695000D01*
X98598000Y-70600000D01*
X121900000Y-70600000D01*
X121900000Y-108031000D01*
D28*
G36*
X98171000Y-71628000D02*
X81534000Y-71628000D01*
X81484590Y-71638006D01*
X81442965Y-71666447D01*
X81415685Y-71708841D01*
X81407000Y-71755000D01*
X81407000Y-71981772D01*
X81338100Y-72147700D01*
X81337900Y-72377245D01*
X81407000Y-72544479D01*
X81407000Y-75918796D01*
X81338100Y-76084724D01*
X81337900Y-76314269D01*
X81407000Y-76481503D01*
X81407000Y-80998796D01*
X81338100Y-81164724D01*
X81337900Y-81394269D01*
X81407000Y-81561503D01*
X81407000Y-85344000D01*
X81417006Y-85393410D01*
X81445447Y-85435035D01*
X81487841Y-85462315D01*
X81534000Y-85471000D01*
X83472720Y-85471000D01*
X83409392Y-85691787D01*
X84210000Y-86492395D01*
X85010608Y-85691787D01*
X84947280Y-85471000D01*
X86012720Y-85471000D01*
X85949392Y-85691787D01*
X86750000Y-86492395D01*
X87550608Y-85691787D01*
X87487280Y-85471000D01*
X88265000Y-85471000D01*
X88265000Y-87757000D01*
X87520552Y-87757000D01*
X87550608Y-87652213D01*
X86750000Y-86851605D01*
X85949392Y-87652213D01*
X85979448Y-87757000D01*
X84980552Y-87757000D01*
X85010608Y-87652213D01*
X84210000Y-86851605D01*
X83409392Y-87652213D01*
X83439448Y-87757000D01*
X81534000Y-87757000D01*
X81484590Y-87767006D01*
X81442965Y-87795447D01*
X81415685Y-87837841D01*
X81407000Y-87884000D01*
X81407000Y-89253784D01*
X81338100Y-89419712D01*
X81337900Y-89649257D01*
X81407000Y-89816491D01*
X81407000Y-92936815D01*
X81338108Y-93102724D01*
X81337908Y-93332269D01*
X81407000Y-93499484D01*
X81407000Y-98651815D01*
X81338108Y-98817724D01*
X81337908Y-99047269D01*
X81407000Y-99214484D01*
X81407000Y-103858791D01*
X81338098Y-104024724D01*
X81337898Y-104254269D01*
X81407000Y-104421508D01*
X81407000Y-107033782D01*
X81338094Y-107199724D01*
X81337894Y-107429269D01*
X81407000Y-107596518D01*
X81407000Y-108331000D01*
X81417006Y-108380410D01*
X81445447Y-108422035D01*
X81487841Y-108449315D01*
X81534000Y-108458000D01*
X83436293Y-108458000D01*
X83409392Y-108551787D01*
X84210000Y-109352395D01*
X85010608Y-108551787D01*
X84983707Y-108458000D01*
X85976293Y-108458000D01*
X85949392Y-108551787D01*
X86750000Y-109352395D01*
X87550608Y-108551787D01*
X87523707Y-108458000D01*
X121793000Y-108458000D01*
X121793000Y-112903000D01*
X80802000Y-112903000D01*
X80802000Y-110512213D01*
X83409392Y-110512213D01*
X83478857Y-110754397D01*
X84002302Y-110941144D01*
X84557368Y-110913362D01*
X84941143Y-110754397D01*
X85010608Y-110512213D01*
X85949392Y-110512213D01*
X86018857Y-110754397D01*
X86542302Y-110941144D01*
X87097368Y-110913362D01*
X87481143Y-110754397D01*
X87550608Y-110512213D01*
X86750000Y-109711605D01*
X85949392Y-110512213D01*
X85010608Y-110512213D01*
X84210000Y-109711605D01*
X83409392Y-110512213D01*
X80802000Y-110512213D01*
X80802000Y-109324302D01*
X82800856Y-109324302D01*
X82828638Y-109879368D01*
X82987603Y-110263143D01*
X83229787Y-110332608D01*
X84030395Y-109532000D01*
X84389605Y-109532000D01*
X85190213Y-110332608D01*
X85432397Y-110263143D01*
X85476453Y-110139656D01*
X85527603Y-110263143D01*
X85769787Y-110332608D01*
X86570395Y-109532000D01*
X86929605Y-109532000D01*
X87730213Y-110332608D01*
X87972397Y-110263143D01*
X88159144Y-109739698D01*
X88131362Y-109184632D01*
X87972397Y-108800857D01*
X87730213Y-108731392D01*
X86929605Y-109532000D01*
X86570395Y-109532000D01*
X85769787Y-108731392D01*
X85527603Y-108800857D01*
X85483547Y-108924344D01*
X85432397Y-108800857D01*
X85190213Y-108731392D01*
X84389605Y-109532000D01*
X84030395Y-109532000D01*
X83229787Y-108731392D01*
X82987603Y-108800857D01*
X82800856Y-109324302D01*
X80802000Y-109324302D01*
X80802000Y-86464302D01*
X82800856Y-86464302D01*
X82828638Y-87019368D01*
X82987603Y-87403143D01*
X83229787Y-87472608D01*
X84030395Y-86672000D01*
X84389605Y-86672000D01*
X85190213Y-87472608D01*
X85432397Y-87403143D01*
X85476453Y-87279656D01*
X85527603Y-87403143D01*
X85769787Y-87472608D01*
X86570395Y-86672000D01*
X86929605Y-86672000D01*
X87730213Y-87472608D01*
X87972397Y-87403143D01*
X88159144Y-86879698D01*
X88131362Y-86324632D01*
X87972397Y-85940857D01*
X87730213Y-85871392D01*
X86929605Y-86672000D01*
X86570395Y-86672000D01*
X85769787Y-85871392D01*
X85527603Y-85940857D01*
X85483547Y-86064344D01*
X85432397Y-85940857D01*
X85190213Y-85871392D01*
X84389605Y-86672000D01*
X84030395Y-86672000D01*
X83229787Y-85871392D01*
X82987603Y-85940857D01*
X82800856Y-86464302D01*
X80802000Y-86464302D01*
X80802000Y-70612000D01*
X98171000Y-70612000D01*
X98171000Y-71628000D01*
X98171000Y-71628000D01*
G37*
X98171000Y-71628000D02*
X81534000Y-71628000D01*
X81484590Y-71638006D01*
X81442965Y-71666447D01*
X81415685Y-71708841D01*
X81407000Y-71755000D01*
X81407000Y-71981772D01*
X81338100Y-72147700D01*
X81337900Y-72377245D01*
X81407000Y-72544479D01*
X81407000Y-75918796D01*
X81338100Y-76084724D01*
X81337900Y-76314269D01*
X81407000Y-76481503D01*
X81407000Y-80998796D01*
X81338100Y-81164724D01*
X81337900Y-81394269D01*
X81407000Y-81561503D01*
X81407000Y-85344000D01*
X81417006Y-85393410D01*
X81445447Y-85435035D01*
X81487841Y-85462315D01*
X81534000Y-85471000D01*
X83472720Y-85471000D01*
X83409392Y-85691787D01*
X84210000Y-86492395D01*
X85010608Y-85691787D01*
X84947280Y-85471000D01*
X86012720Y-85471000D01*
X85949392Y-85691787D01*
X86750000Y-86492395D01*
X87550608Y-85691787D01*
X87487280Y-85471000D01*
X88265000Y-85471000D01*
X88265000Y-87757000D01*
X87520552Y-87757000D01*
X87550608Y-87652213D01*
X86750000Y-86851605D01*
X85949392Y-87652213D01*
X85979448Y-87757000D01*
X84980552Y-87757000D01*
X85010608Y-87652213D01*
X84210000Y-86851605D01*
X83409392Y-87652213D01*
X83439448Y-87757000D01*
X81534000Y-87757000D01*
X81484590Y-87767006D01*
X81442965Y-87795447D01*
X81415685Y-87837841D01*
X81407000Y-87884000D01*
X81407000Y-89253784D01*
X81338100Y-89419712D01*
X81337900Y-89649257D01*
X81407000Y-89816491D01*
X81407000Y-92936815D01*
X81338108Y-93102724D01*
X81337908Y-93332269D01*
X81407000Y-93499484D01*
X81407000Y-98651815D01*
X81338108Y-98817724D01*
X81337908Y-99047269D01*
X81407000Y-99214484D01*
X81407000Y-103858791D01*
X81338098Y-104024724D01*
X81337898Y-104254269D01*
X81407000Y-104421508D01*
X81407000Y-107033782D01*
X81338094Y-107199724D01*
X81337894Y-107429269D01*
X81407000Y-107596518D01*
X81407000Y-108331000D01*
X81417006Y-108380410D01*
X81445447Y-108422035D01*
X81487841Y-108449315D01*
X81534000Y-108458000D01*
X83436293Y-108458000D01*
X83409392Y-108551787D01*
X84210000Y-109352395D01*
X85010608Y-108551787D01*
X84983707Y-108458000D01*
X85976293Y-108458000D01*
X85949392Y-108551787D01*
X86750000Y-109352395D01*
X87550608Y-108551787D01*
X87523707Y-108458000D01*
X121793000Y-108458000D01*
X121793000Y-112903000D01*
X80802000Y-112903000D01*
X80802000Y-110512213D01*
X83409392Y-110512213D01*
X83478857Y-110754397D01*
X84002302Y-110941144D01*
X84557368Y-110913362D01*
X84941143Y-110754397D01*
X85010608Y-110512213D01*
X85949392Y-110512213D01*
X86018857Y-110754397D01*
X86542302Y-110941144D01*
X87097368Y-110913362D01*
X87481143Y-110754397D01*
X87550608Y-110512213D01*
X86750000Y-109711605D01*
X85949392Y-110512213D01*
X85010608Y-110512213D01*
X84210000Y-109711605D01*
X83409392Y-110512213D01*
X80802000Y-110512213D01*
X80802000Y-109324302D01*
X82800856Y-109324302D01*
X82828638Y-109879368D01*
X82987603Y-110263143D01*
X83229787Y-110332608D01*
X84030395Y-109532000D01*
X84389605Y-109532000D01*
X85190213Y-110332608D01*
X85432397Y-110263143D01*
X85476453Y-110139656D01*
X85527603Y-110263143D01*
X85769787Y-110332608D01*
X86570395Y-109532000D01*
X86929605Y-109532000D01*
X87730213Y-110332608D01*
X87972397Y-110263143D01*
X88159144Y-109739698D01*
X88131362Y-109184632D01*
X87972397Y-108800857D01*
X87730213Y-108731392D01*
X86929605Y-109532000D01*
X86570395Y-109532000D01*
X85769787Y-108731392D01*
X85527603Y-108800857D01*
X85483547Y-108924344D01*
X85432397Y-108800857D01*
X85190213Y-108731392D01*
X84389605Y-109532000D01*
X84030395Y-109532000D01*
X83229787Y-108731392D01*
X82987603Y-108800857D01*
X82800856Y-109324302D01*
X80802000Y-109324302D01*
X80802000Y-86464302D01*
X82800856Y-86464302D01*
X82828638Y-87019368D01*
X82987603Y-87403143D01*
X83229787Y-87472608D01*
X84030395Y-86672000D01*
X84389605Y-86672000D01*
X85190213Y-87472608D01*
X85432397Y-87403143D01*
X85476453Y-87279656D01*
X85527603Y-87403143D01*
X85769787Y-87472608D01*
X86570395Y-86672000D01*
X86929605Y-86672000D01*
X87730213Y-87472608D01*
X87972397Y-87403143D01*
X88159144Y-86879698D01*
X88131362Y-86324632D01*
X87972397Y-85940857D01*
X87730213Y-85871392D01*
X86929605Y-86672000D01*
X86570395Y-86672000D01*
X85769787Y-85871392D01*
X85527603Y-85940857D01*
X85483547Y-86064344D01*
X85432397Y-85940857D01*
X85190213Y-85871392D01*
X84389605Y-86672000D01*
X84030395Y-86672000D01*
X83229787Y-85871392D01*
X82987603Y-85940857D01*
X82800856Y-86464302D01*
X80802000Y-86464302D01*
X80802000Y-70612000D01*
X98171000Y-70612000D01*
X98171000Y-71628000D01*
D29*
X104978200Y-73812400D03*
X103835200Y-75006200D03*
X103835200Y-79984600D03*
X84353400Y-91795600D03*
X102764000Y-85704000D03*
X107873800Y-105511600D03*
X111302800Y-105511600D03*
X116324800Y-105453600D03*
X99187000Y-79883000D03*
X110159800Y-85547200D03*
X110693200Y-83134200D03*
X110693200Y-81584800D03*
X110693200Y-80060800D03*
X106273600Y-80187800D03*
X106019600Y-81711800D03*
X105511600Y-83235800D03*
X110617000Y-84531200D03*
X109245400Y-84531200D03*
X107594400Y-84531200D03*
X105664000Y-84531200D03*
X100330000Y-74295000D03*
X98425000Y-74930000D03*
X97155000Y-72390000D03*
X99695000Y-72390000D03*
X100965000Y-71120000D03*
X102870000Y-71120000D03*
X104775000Y-71120000D03*
X106680000Y-71120000D03*
X108585000Y-71120000D03*
X110490000Y-71120000D03*
X112395000Y-71120000D03*
X114300000Y-71120000D03*
X116205000Y-71120000D03*
X118745000Y-71120000D03*
X120650000Y-71120000D03*
X120650000Y-73025000D03*
X120650000Y-76835000D03*
X120650000Y-78740000D03*
X120650000Y-80645000D03*
X120650000Y-82550000D03*
X120650000Y-84455012D03*
X120650000Y-86360000D03*
X120650000Y-88265000D03*
X120650000Y-90170000D03*
X107315000Y-78663800D03*
X82981800Y-81610200D03*
X82981800Y-79019400D03*
X83007200Y-76200000D03*
X83261200Y-73177400D03*
X86893400Y-72745600D03*
X87985600Y-74599800D03*
X93548200Y-75615800D03*
X94869000Y-76098400D03*
X97205800Y-76987400D03*
X98450400Y-79832200D03*
X97231200Y-84455000D03*
X94970600Y-84328000D03*
X95961200Y-83185000D03*
X94843600Y-81889600D03*
X94869000Y-80594200D03*
X94843600Y-79629000D03*
X94869000Y-78333600D03*
X94843600Y-77393800D03*
X89357200Y-82854800D03*
X87833200Y-83566000D03*
X85648800Y-83591400D03*
X84785200Y-82677000D03*
X84734400Y-80314800D03*
X87833200Y-79629000D03*
X87858600Y-78511400D03*
X87833200Y-82270600D03*
X87807800Y-81000600D03*
X87198200Y-75285600D03*
X86334600Y-75285600D03*
X86360000Y-80441800D03*
X87020400Y-80289400D03*
X85369400Y-79451200D03*
X85699600Y-78384400D03*
X84912200Y-77546200D03*
X85445600Y-74498200D03*
X84658200Y-75285600D03*
X91948000Y-84150200D03*
X92329000Y-82423000D03*
X91465400Y-80035400D03*
X91440000Y-82473800D03*
X92227400Y-77368400D03*
X92252800Y-78333600D03*
X92227400Y-80619600D03*
X92227400Y-79654400D03*
X88900000Y-75844400D03*
X108712000Y-90170002D03*
X108712004Y-92710000D03*
X107315000Y-83058000D03*
X109982000Y-83058000D03*
X109982000Y-81534000D03*
X107315000Y-81534000D03*
X107315000Y-80010000D03*
X109982000Y-80010000D03*
X109982000Y-78740000D03*
X107315000Y-77978000D03*
X109982000Y-77978000D03*
X115189000Y-77978000D03*
X115189000Y-86817200D03*
X115189000Y-83820000D03*
X115189000Y-82321400D03*
X115189000Y-80822800D03*
X89408000Y-101400009D03*
X97764600Y-82194400D03*
X95250000Y-72263008D03*
X91440000Y-72262996D03*
X88391988Y-72263000D03*
X85090000Y-72263008D03*
X81915000Y-72262976D03*
X81914994Y-107315000D03*
X81914998Y-104140000D03*
X81915008Y-98933000D03*
X81915008Y-93218000D03*
X81915000Y-89534988D03*
X88138000Y-77216000D03*
X88138000Y-78994036D03*
X115189000Y-88900000D03*
X111760000Y-88900000D03*
X81915000Y-81280000D03*
X81915000Y-76200000D03*
X88900000Y-87630000D03*
X91440000Y-87630000D03*
X91440000Y-85090000D03*
X95250000Y-87630000D03*
X95250000Y-85090000D03*
X95250000Y-73660000D03*
X91440000Y-73660000D03*
X88392000Y-73660000D03*
X104140000Y-90170000D03*
X99695000Y-90170000D03*
X95250000Y-90170000D03*
X90170000Y-90170000D03*
X83820000Y-90170000D03*
X83820000Y-92710000D03*
X90170000Y-92710000D03*
X95250000Y-92710000D03*
X95250000Y-107061000D03*
X90170000Y-107061000D03*
X108712000Y-85598000D03*
X100651500Y-83176500D03*
X89408000Y-102489000D03*
X106172000Y-87376000D03*
X106426000Y-85725000D03*
X95250000Y-75565000D03*
X95250000Y-77978000D03*
X95250000Y-80010000D03*
X95250000Y-82423000D03*
X91440000Y-75565000D03*
X91440000Y-77978000D03*
X99822000Y-92710000D03*
X104140000Y-92710000D03*
X119684800Y-103606600D03*
X114223800Y-102336600D03*
X109651800Y-102209600D03*
X104140000Y-85725000D03*
X102376500Y-81451500D03*
X100651500Y-81451500D03*
X102376500Y-83176500D03*
X115189000Y-79330000D03*
X111252000Y-87884000D03*
X110871000Y-87376000D03*
X116205000Y-84455000D03*
X111252000Y-83566000D03*
X111252000Y-82677000D03*
X111252000Y-82042000D03*
X111252000Y-81153000D03*
X111252000Y-80518000D03*
X111252000Y-79629000D03*
X111252000Y-78994000D03*
X111252000Y-84201000D03*
X111274000Y-85830000D03*
X110871000Y-86360000D03*
X102764000Y-77470000D03*
X101764000Y-77470000D03*
X102264000Y-77978000D03*
X103264000Y-77978000D03*
X100264000Y-76374875D03*
X100764000Y-77978000D03*
X94615000Y-100761800D03*
X100711000Y-86106000D03*
X101269800Y-78740000D03*
D30*
X114436000Y-90880000D03*
X114436000Y-76080000D03*
D31*
X120396000Y-91480000D03*
X120396000Y-75480000D03*
D32*
X86750000Y-73972000D03*
X84210000Y-73972000D03*
X86750000Y-76512000D03*
X84210000Y-76512000D03*
X86750000Y-79052000D03*
X84210000Y-79052000D03*
X86750000Y-81592000D03*
X84210000Y-81592000D03*
X86750000Y-84132000D03*
X84210000Y-84132000D03*
X86750000Y-86672000D03*
X84210000Y-86672000D03*
X86750000Y-96832000D03*
X84210000Y-96832000D03*
X86750000Y-99372000D03*
X84210000Y-99372000D03*
X86750000Y-101912000D03*
X84210000Y-101912000D03*
X86750000Y-104452000D03*
X84210000Y-104452000D03*
X86750000Y-106992000D03*
X84210000Y-106992000D03*
X86750000Y-109532000D03*
X84210000Y-109532000D03*
M02*
