G04 #@! TF.FileFunction,Soldermask,Top*
%FSLAX46Y46*%
G04 Gerber Fmt 4.6, Leading zero omitted, Abs format (unit mm)*
G04 Created by KiCad (PCBNEW 4.0.6-e0-6349~53~ubuntu14.04.1) date Sat Jul 15 18:22:04 2017*
%MOMM*%
%LPD*%
G01*
G04 APERTURE LIST*
%ADD10C,0.350000*%
%ADD11R,1.200000X1.150000*%
%ADD12R,0.900000X1.000000*%
%ADD13R,2.000000X1.400000*%
%ADD14R,3.150000X0.730200*%
%ADD15O,3.900000X2.200000*%
%ADD16O,2.750000X2.200000*%
%ADD17R,1.598880X0.999440*%
%ADD18R,0.800000X1.000000*%
%ADD19R,1.050000X1.460000*%
%ADD20R,1.460000X1.050000*%
%ADD21R,1.000000X0.900000*%
%ADD22R,1.924000X1.924000*%
%ADD23C,1.924000*%
%ADD24C,0.254000*%
G04 APERTURE END LIST*
D10*
D11*
X111290800Y-104709600D03*
X109790800Y-104709600D03*
D12*
X119557800Y-101746600D03*
X119557800Y-102846600D03*
D11*
X118172800Y-104582600D03*
X119672800Y-104582600D03*
D13*
X114223800Y-100542600D03*
X114223800Y-103542600D03*
D14*
X113136000Y-83330000D03*
X113136000Y-82830000D03*
X113136000Y-82330000D03*
X113136000Y-81830000D03*
X113136000Y-81330000D03*
X113136000Y-80830000D03*
X113136000Y-80330000D03*
X113136000Y-79830000D03*
X113136000Y-79330000D03*
X113136000Y-78830000D03*
X113136000Y-83830000D03*
X113136000Y-84330000D03*
X113136000Y-84830000D03*
X113136000Y-85330000D03*
X113136000Y-85830000D03*
X113136000Y-86330000D03*
X113136000Y-86830000D03*
X113136000Y-87330000D03*
X113136000Y-87830000D03*
D15*
X114436000Y-90880000D03*
X114436000Y-76080000D03*
D16*
X120396000Y-91480000D03*
X120396000Y-75480000D03*
D17*
X107111800Y-101976560D03*
X107111800Y-103378640D03*
D18*
X108704800Y-104709600D03*
X107804800Y-104709600D03*
X115424800Y-104582600D03*
X116324800Y-104582600D03*
X99303000Y-77724000D03*
X100203000Y-77724000D03*
X101208000Y-73406000D03*
X102108000Y-73406000D03*
X100468000Y-75438000D03*
X99568000Y-75438000D03*
D19*
X108828800Y-103396600D03*
X109778800Y-103396600D03*
X110728800Y-103396600D03*
X110728800Y-101196600D03*
X108828800Y-101196600D03*
D20*
X116044800Y-101346600D03*
X116044800Y-102296600D03*
X116044800Y-103246600D03*
X118244800Y-103246600D03*
X118244800Y-101346600D03*
X118244800Y-102296600D03*
D21*
X101676200Y-84709000D03*
X102776200Y-84709000D03*
D18*
X101208000Y-75438000D03*
X102108000Y-75438000D03*
X101208000Y-74422000D03*
X102108000Y-74422000D03*
X100711000Y-78740000D03*
X99811000Y-78740000D03*
D22*
X86750000Y-73972000D03*
D23*
X84210000Y-73972000D03*
X86750000Y-76512000D03*
X84210000Y-76512000D03*
X86750000Y-79052000D03*
X84210000Y-79052000D03*
X86750000Y-81592000D03*
X84210000Y-81592000D03*
X86750000Y-84132000D03*
X84210000Y-84132000D03*
X86750000Y-86672000D03*
X84210000Y-86672000D03*
D22*
X86750000Y-96832000D03*
D23*
X84210000Y-96832000D03*
X86750000Y-99372000D03*
X84210000Y-99372000D03*
X86750000Y-101912000D03*
X84210000Y-101912000D03*
X86750000Y-104452000D03*
X84210000Y-104452000D03*
X86750000Y-106992000D03*
X84210000Y-106992000D03*
X86750000Y-109532000D03*
X84210000Y-109532000D03*
D24*
G36*
X97152982Y-113220500D02*
X92580982Y-113220500D01*
X92580982Y-108902500D01*
X97152982Y-108902500D01*
X97152982Y-113220500D01*
X97152982Y-113220500D01*
G37*
X97152982Y-113220500D02*
X92580982Y-113220500D01*
X92580982Y-108902500D01*
X97152982Y-108902500D01*
X97152982Y-113220500D01*
M02*
