M48
;DRILL file {KiCad 4.0.6-e0-6349~53~ubuntu14.04.1} date Sat Jul 15 18:22:04 2017
;FORMAT={-:-/ absolute / metric / decimal}
FMAT,2
METRIC,TZ
T1C0.250
T2C1.016
T3C1.100
%
G90
G05
M71
T1
X81.915Y-107.315
X81.915Y-104.14
X81.915Y-72.263
X81.915Y-76.2
X81.915Y-81.28
X81.915Y-89.535
X81.915Y-93.218
X81.915Y-98.933
X82.982Y-79.019
X82.982Y-81.61
X83.007Y-76.2
X83.261Y-73.177
X83.82Y-90.17
X83.82Y-92.71
X84.353Y-91.796
X84.658Y-75.286
X84.734Y-80.315
X84.785Y-82.677
X84.912Y-77.546
X85.09Y-72.263
X85.369Y-79.451
X85.446Y-74.498
X85.649Y-83.591
X85.7Y-78.384
X86.335Y-75.286
X86.36Y-80.442
X86.893Y-72.746
X87.02Y-80.289
X87.198Y-75.286
X87.808Y-81.001
X87.833Y-79.629
X87.833Y-82.271
X87.833Y-83.566
X87.859Y-78.511
X87.986Y-74.6
X88.138Y-77.216
X88.138Y-78.994
X88.392Y-72.263
X88.392Y-73.66
X88.9Y-75.844
X88.9Y-87.63
X89.357Y-82.855
X89.408Y-101.4
X89.408Y-102.489
X90.17Y-90.17
X90.17Y-92.71
X90.17Y-107.061
X91.44Y-72.263
X91.44Y-73.66
X91.44Y-75.565
X91.44Y-77.978
X91.44Y-82.474
X91.44Y-85.09
X91.44Y-87.63
X91.465Y-80.035
X91.948Y-84.15
X92.227Y-77.368
X92.227Y-79.654
X92.227Y-80.62
X92.253Y-78.334
X92.329Y-82.423
X93.548Y-75.616
X94.615Y-100.762
X94.844Y-77.394
X94.844Y-79.629
X94.844Y-81.89
X94.869Y-76.098
X94.869Y-78.334
X94.869Y-80.594
X94.971Y-84.328
X95.25Y-72.263
X95.25Y-73.66
X95.25Y-75.565
X95.25Y-77.978
X95.25Y-80.01
X95.25Y-82.423
X95.25Y-85.09
X95.25Y-87.63
X95.25Y-90.17
X95.25Y-92.71
X95.25Y-107.061
X95.961Y-83.185
X97.155Y-72.39
X97.206Y-76.987
X97.231Y-84.455
X97.765Y-82.194
X98.425Y-74.93
X98.45Y-79.832
X99.187Y-79.883
X99.695Y-72.39
X99.695Y-90.17
X99.822Y-92.71
X100.264Y-76.375
X100.33Y-74.295
X100.651Y-81.451
X100.651Y-83.176
X100.711Y-86.106
X100.764Y-77.978
X100.965Y-71.12
X101.27Y-78.74
X101.764Y-77.47
X102.264Y-77.978
X102.376Y-81.451
X102.376Y-83.176
X102.764Y-77.47
X102.764Y-85.704
X102.87Y-71.12
X103.264Y-77.978
X103.835Y-75.006
X103.835Y-79.985
X104.14Y-85.725
X104.14Y-90.17
X104.14Y-92.71
X104.775Y-71.12
X104.978Y-73.812
X105.512Y-83.236
X105.664Y-84.531
X106.02Y-81.712
X106.172Y-87.376
X106.274Y-80.188
X106.426Y-85.725
X106.68Y-71.12
X107.315Y-77.978
X107.315Y-78.664
X107.315Y-80.01
X107.315Y-81.534
X107.315Y-83.058
X107.594Y-84.531
X107.874Y-105.512
X108.585Y-71.12
X108.712Y-85.598
X108.712Y-90.17
X108.712Y-92.71
X109.245Y-84.531
X109.652Y-102.21
X109.982Y-77.978
X109.982Y-78.74
X109.982Y-80.01
X109.982Y-81.534
X109.982Y-83.058
X110.16Y-85.547
X110.49Y-71.12
X110.617Y-84.531
X110.693Y-80.061
X110.693Y-81.585
X110.693Y-83.134
X110.871Y-86.36
X110.871Y-87.376
X111.252Y-78.994
X111.252Y-79.629
X111.252Y-80.518
X111.252Y-81.153
X111.252Y-82.042
X111.252Y-82.677
X111.252Y-83.566
X111.252Y-84.201
X111.252Y-87.884
X111.274Y-85.83
X111.303Y-105.512
X111.76Y-88.9
X112.395Y-71.12
X114.224Y-102.337
X114.3Y-71.12
X115.189Y-77.978
X115.189Y-79.33
X115.189Y-80.823
X115.189Y-82.321
X115.189Y-83.82
X115.189Y-86.817
X115.189Y-88.9
X116.205Y-71.12
X116.205Y-84.455
X116.325Y-105.454
X118.745Y-71.12
X119.685Y-103.607
X120.65Y-71.12
X120.65Y-73.025
X120.65Y-76.835
X120.65Y-78.74
X120.65Y-80.645
X120.65Y-82.55
X120.65Y-84.455
X120.65Y-86.36
X120.65Y-88.265
X120.65Y-90.17
T2
X84.21Y-73.972
X84.21Y-76.512
X84.21Y-79.052
X84.21Y-81.592
X84.21Y-84.132
X84.21Y-86.672
X84.21Y-96.832
X84.21Y-99.372
X84.21Y-101.912
X84.21Y-104.452
X84.21Y-106.992
X84.21Y-109.532
X86.75Y-73.972
X86.75Y-76.512
X86.75Y-79.052
X86.75Y-81.592
X86.75Y-84.132
X86.75Y-86.672
X86.75Y-96.832
X86.75Y-99.372
X86.75Y-101.912
X86.75Y-104.452
X86.75Y-106.992
X86.75Y-109.532
T3
X113.611Y-76.08G85X115.261Y-76.08
G05
X113.611Y-90.88G85X115.261Y-90.88
G05
X120.046Y-75.48G85X120.746Y-75.48
G05
X120.046Y-91.48G85X120.746Y-91.48
G05
T0
M30
