G04 #@! TF.FileFunction,Soldermask,Bot*
%FSLAX46Y46*%
G04 Gerber Fmt 4.6, Leading zero omitted, Abs format (unit mm)*
G04 Created by KiCad (PCBNEW 4.0.6-e0-6349~53~ubuntu14.04.1) date Sat Jul 15 18:22:04 2017*
%MOMM*%
%LPD*%
G01*
G04 APERTURE LIST*
%ADD10C,0.350000*%
%ADD11O,3.900000X2.200000*%
%ADD12O,2.750000X2.200000*%
%ADD13R,0.800000X1.000000*%
%ADD14R,1.000000X0.800000*%
%ADD15R,0.650000X1.100000*%
%ADD16R,1.100000X0.650000*%
%ADD17R,2.125000X2.125000*%
%ADD18R,1.000000X0.900000*%
%ADD19R,0.900000X1.000000*%
%ADD20R,1.100000X1.000000*%
%ADD21R,1.924000X1.924000*%
%ADD22C,1.924000*%
%ADD23C,0.254000*%
G04 APERTURE END LIST*
D10*
D11*
X114436000Y-90880000D03*
X114436000Y-76080000D03*
D12*
X120396000Y-91480000D03*
X120396000Y-75480000D03*
D13*
X99176000Y-86106000D03*
X100076000Y-86106000D03*
D14*
X104902000Y-85667000D03*
X104902000Y-84767000D03*
D15*
X99764000Y-79914000D03*
X100264000Y-79914000D03*
X100764000Y-79914000D03*
X101264000Y-79914000D03*
X101764000Y-79914000D03*
X102264000Y-79914000D03*
X102764000Y-79914000D03*
X103264000Y-79914000D03*
D16*
X103914000Y-80564000D03*
X103914000Y-81064000D03*
X103914000Y-81564000D03*
X103914000Y-82064000D03*
X103914000Y-82564000D03*
X103914000Y-83064000D03*
X103914000Y-83564000D03*
X103914000Y-84064000D03*
D15*
X103264000Y-84714000D03*
X102764000Y-84714000D03*
X102264000Y-84714000D03*
X101764000Y-84714000D03*
X101264000Y-84714000D03*
X100764000Y-84714000D03*
X100264000Y-84714000D03*
X99764000Y-84714000D03*
D16*
X99114000Y-84064000D03*
X99114000Y-83564000D03*
X99114000Y-83064000D03*
X99114000Y-82564000D03*
X99114000Y-82064000D03*
X99114000Y-81564000D03*
X99114000Y-81064000D03*
X99114000Y-80564000D03*
D17*
X102376500Y-83176500D03*
X100651500Y-83176500D03*
X102376500Y-81451500D03*
X100651500Y-81451500D03*
D18*
X94100000Y-83000000D03*
X93000000Y-83000000D03*
X94100000Y-84000000D03*
X93000000Y-84000000D03*
X94100000Y-80750000D03*
X93000000Y-80750000D03*
X94100000Y-81750000D03*
X93000000Y-81750000D03*
X94107000Y-78500000D03*
X93007000Y-78500000D03*
X94100000Y-79500000D03*
X93000000Y-79500000D03*
X94107000Y-76250000D03*
X93007000Y-76250000D03*
X94100000Y-77250000D03*
X93000000Y-77250000D03*
D19*
X101346000Y-88138000D03*
X101346000Y-87038000D03*
X99314000Y-77724000D03*
X99314000Y-78824000D03*
D20*
X85826600Y-92887800D03*
X85826600Y-94287800D03*
D14*
X107061000Y-87445000D03*
X107061000Y-86545000D03*
X108458000Y-87445000D03*
X108458000Y-86545000D03*
D13*
X84926600Y-91795600D03*
X85826600Y-91795600D03*
D21*
X86750000Y-73972000D03*
D22*
X84210000Y-73972000D03*
X86750000Y-76512000D03*
X84210000Y-76512000D03*
X86750000Y-79052000D03*
X84210000Y-79052000D03*
X86750000Y-81592000D03*
X84210000Y-81592000D03*
X86750000Y-84132000D03*
X84210000Y-84132000D03*
X86750000Y-86672000D03*
X84210000Y-86672000D03*
D21*
X86750000Y-96832000D03*
D22*
X84210000Y-96832000D03*
X86750000Y-99372000D03*
X84210000Y-99372000D03*
X86750000Y-101912000D03*
X84210000Y-101912000D03*
X86750000Y-104452000D03*
X84210000Y-104452000D03*
X86750000Y-106992000D03*
X84210000Y-106992000D03*
X86750000Y-109532000D03*
X84210000Y-109532000D03*
D23*
G36*
X102552500Y-113220500D02*
X97980500Y-113220500D01*
X97980500Y-108902500D01*
X102552500Y-108902500D01*
X102552500Y-113220500D01*
X102552500Y-113220500D01*
G37*
X102552500Y-113220500D02*
X97980500Y-113220500D01*
X97980500Y-108902500D01*
X102552500Y-108902500D01*
X102552500Y-113220500D01*
M02*
